ISO-10303-21;
HEADER;
FILE_DESCRIPTION (( 'STEP AP214' ),
    '1' );
FILE_NAME ('hull_number_477_stencil.STEP',
    '2026-07-06T02:42:43',
    ( '' ),
    ( '' ),
    'SwSTEP 2.0',
    'SolidWorks 2024',
    '' );
FILE_SCHEMA (( 'AUTOMOTIVE_DESIGN' ));
ENDSEC;

DATA;
#1 = DIRECTION ( 'NONE',  ( 0.000000000000000000, 1.000000000000000000, -0.000000000000000000 ) ) ;
#2 = ADVANCED_FACE ( 'NONE', ( #234 ), #777, .F. ) ;
#3 = CARTESIAN_POINT ( 'NONE',  ( 2.057619911064170637, -1.228301246494495569, 0.000000000000000000 ) ) ;
#4 = PLANE ( 'NONE',  #164 ) ;
#5 = DIRECTION ( 'NONE',  ( 0.000000000000000000, 1.000000000000000000, 0.000000000000000000 ) ) ;
#6 = LINE ( 'NONE', #344, #1097 ) ;
#7 = DIRECTION ( 'NONE',  ( 1.000000000000000000, 0.000000000000000000, 0.000000000000000000 ) ) ;
#8 = ORIENTED_EDGE ( 'NONE', *, *, #611, .F. ) ;
#9 =( NAMED_UNIT ( * ) SI_UNIT ( $, .STERADIAN. ) SOLID_ANGLE_UNIT ( ) );
#10 = AXIS2_PLACEMENT_3D ( 'NONE', #435, #5, #962 ) ;
#11 = VERTEX_POINT ( 'NONE', #1123 ) ;
#12 = DIRECTION ( 'NONE',  ( 0.000000000000000000, 1.000000000000000000, 0.000000000000000000 ) ) ;
#13 = EDGE_CURVE ( 'NONE', #223, #42, #596, .T. ) ;
#14 = CARTESIAN_POINT ( 'NONE',  ( 0.000000000000000000, 0.000000000000000000, 0.000000000000000000 ) ) ;
#15 = VERTEX_POINT ( 'NONE', #251 ) ;
#16 = AXIS2_PLACEMENT_3D ( 'NONE', #940, #423, #327 ) ;
#17 = VECTOR ( 'NONE', #682, 39.37007874015748143 ) ;
#18 = DIRECTION ( 'NONE',  ( -1.000000000000000000, 0.000000000000000000, 0.000000000000000000 ) ) ;
#19 = ORIENTED_EDGE ( 'NONE', *, *, #525, .T. ) ;
#20 = CARTESIAN_POINT ( 'NONE',  ( 0.2999999999999997113, 3.000000000000000444, -2.000976324197765610 ) ) ;
#21 = DIRECTION ( 'NONE',  ( -0.000000000000000000, -0.000000000000000000, -1.000000000000000000 ) ) ;
#22 = ORIENTED_EDGE ( 'NONE', *, *, #897, .F. ) ;
#23 = PRESENTATION_STYLE_ASSIGNMENT (( #443 ) ) ;
#24 = EDGE_LOOP ( 'NONE', ( #516, #917, #304, #769 ) ) ;
#25 = FACE_OUTER_BOUND ( 'NONE', #856, .T. ) ;
#26 = CARTESIAN_POINT ( 'NONE',  ( 0.6499999999999995781, 3.000000000000000444, 0.01574803149606299191 ) ) ;
#27 = VERTEX_POINT ( 'NONE', #762 ) ;
#28 = ADVANCED_FACE ( 'NONE', ( #256 ), #844, .F. ) ;
#29 =( LENGTH_UNIT ( ) NAMED_UNIT ( * ) SI_UNIT ( $, .METRE. ) );
#30 = EDGE_LOOP ( 'NONE', ( #135, #937, #480, #68 ) ) ;
#31 = PLANE ( 'NONE',  #567 ) ;
#32 = AXIS2_PLACEMENT_3D ( 'NONE', #1080, #378, #305 ) ;
#33 = FACE_OUTER_BOUND ( 'NONE', #253, .T. ) ;
#34 = AXIS2_PLACEMENT_3D ( 'NONE', #142, #741, #475 ) ;
#35 = ORIENTED_EDGE ( 'NONE', *, *, #407, .F. ) ;
#36 = CARTESIAN_POINT ( 'NONE',  ( -1.000000000000000000, 0.000000000000000000, 0.01574803149606299191 ) ) ;
#37 = EDGE_CURVE ( 'NONE', #65, #554, #944, .T. ) ;
#38 = ORIENTED_EDGE ( 'NONE', *, *, #1022, .T. ) ;
#39 = CARTESIAN_POINT ( 'NONE',  ( 0.2999999999999997113, 3.000000000000000444, 0.000000000000000000 ) ) ;
#40 = PLANE ( 'NONE',  #843 ) ;
#41 = ORIENTED_EDGE ( 'NONE', *, *, #1063, .T. ) ;
#42 = VERTEX_POINT ( 'NONE', #1105 ) ;
#43 = FACE_OUTER_BOUND ( 'NONE', #723, .T. ) ;
#44 = EDGE_CURVE ( 'NONE', #593, #223, #166, .T. ) ;
#45 = CARTESIAN_POINT ( 'NONE',  ( 1.500000000000003775, -5.875000000000003553, 0.01574803149606299191 ) ) ;
#46 = ORIENTED_EDGE ( 'NONE', *, *, #382, .F. ) ;
#47 = ORIENTED_EDGE ( 'NONE', *, *, #824, .F. ) ;
#48 = CARTESIAN_POINT ( 'NONE',  ( -1.000000000000000000, -2.731847993664263218E-16, 0.000000000000000000 ) ) ;
#49 = CARTESIAN_POINT ( 'NONE',  ( -0.000000000000000000, 3.374999999999996447, 0.000000000000000000 ) ) ;
#50 = EDGE_CURVE ( 'NONE', #900, #60, #401, .T. ) ;
#51 = VECTOR ( 'NONE', #236, 39.37007874015748143 ) ;
#52 = ORIENTED_EDGE ( 'NONE', *, *, #1106, .T. ) ;
#53 = ORIENTED_EDGE ( 'NONE', *, *, #341, .F. ) ;
#54 = CARTESIAN_POINT ( 'NONE',  ( 0.2374999999999997113, 3.000000000000000444, 0.000000000000000000 ) ) ;
#55 = VECTOR ( 'NONE', #674, 39.37007874015748143 ) ;
#56 = VECTOR ( 'NONE', #271, 39.37007874015748143 ) ;
#57 = LINE ( 'NONE', #496, #512 ) ;
#58 = CARTESIAN_POINT ( 'NONE',  ( 0.7372716171580517841, -0.4401160979687098185, 0.01574803149606299191 ) ) ;
#59 = EDGE_CURVE ( 'NONE', #879, #461, #151, .T. ) ;
#60 = VERTEX_POINT ( 'NONE', #1024 ) ;
#61 = LINE ( 'NONE', #1095, #1091 ) ;
#62 = LINE ( 'NONE', #775, #402 ) ;
#63 = CARTESIAN_POINT ( 'NONE',  ( 1.757094083385638994, -1.048901617458819047, 0.01574803149606299191 ) ) ;
#64 = EDGE_CURVE ( 'NONE', #1084, #185, #1016, .T. ) ;
#65 = VERTEX_POINT ( 'NONE', #934 ) ;
#66 = FACE_OUTER_BOUND ( 'NONE', #393, .T. ) ;
#67 = CARTESIAN_POINT ( 'NONE',  ( -1.499999999999997558, 3.374999999999996447, 0.01574803149606299191 ) ) ;
#68 = ORIENTED_EDGE ( 'NONE', *, *, #564, .T. ) ;
#69 = ADVANCED_FACE ( 'NONE', ( #147 ), #849, .F. ) ;
#70 = ORIENTED_EDGE ( 'NONE', *, *, #535, .F. ) ;
#71 = CARTESIAN_POINT ( 'NONE',  ( 0.000000000000000000, 3.000000000000000444, 0.01574803149606299191 ) ) ;
#72 = CARTESIAN_POINT ( 'NONE',  ( 2.057619911064170637, -1.228301246494495569, 0.01574803149606299191 ) ) ;
#73 = ORIENTED_EDGE ( 'NONE', *, *, #382, .T. ) ;
#74 = VERTEX_POINT ( 'NONE', #246 ) ;
#75 = CARTESIAN_POINT ( 'NONE',  ( 1.757094083385638994, -1.048901617458819047, 0.01574803149606299191 ) ) ;
#76 = ORIENTED_EDGE ( 'NONE', *, *, #1048, .F. ) ;
#77 = CARTESIAN_POINT ( 'NONE',  ( 0.2999999999999997113, 0.5000000000000000000, 0.000000000000000000 ) ) ;
#78 = EDGE_CURVE ( 'NONE', #565, #125, #592, .T. ) ;
#79 = DIRECTION ( 'NONE',  ( -0.5881716976750459569, -0.8087360843031886626, 0.000000000000000000 ) ) ;
#80 = ORIENTED_EDGE ( 'NONE', *, *, #387, .F. ) ;
#81 = DIRECTION ( 'NONE',  ( -0.000000000000000000, -0.000000000000000000, -1.000000000000000000 ) ) ;
#82 = LINE ( 'NONE', #175, #664 ) ;
#83 = ADVANCED_FACE ( 'NONE', ( #1128, #627, #620, #706, #176 ), #4, .F. ) ;
#84 = PLANE ( 'NONE',  #551 ) ;
#85 = EDGE_CURVE ( 'NONE', #748, #485, #1050, .T. ) ;
#86 = PRESENTATION_LAYER_ASSIGNMENT (  '', '', ( #747 ) ) ;
#87 = DIRECTION ( 'NONE',  ( -0.000000000000000000, -0.000000000000000000, -1.000000000000000000 ) ) ;
#88 = CARTESIAN_POINT ( 'NONE',  ( -0.9000000000000001332, -2.500000000000000000, 0.000000000000000000 ) ) ;
#89 = DIRECTION ( 'NONE',  ( -0.000000000000000000, 0.000000000000000000, 1.000000000000000000 ) ) ;
#90 = VECTOR ( 'NONE', #982, 39.37007874015748854 ) ;
#91 = ADVANCED_FACE ( 'NONE', ( #269 ), #366, .F. ) ;
#92 = PLANE ( 'NONE',  #346 ) ;
#93 = LINE ( 'NONE', #431, #807 ) ;
#94 = DIRECTION ( 'NONE',  ( 1.000000000000000000, 0.000000000000000000, 0.000000000000000000 ) ) ;
#95 = EDGE_CURVE ( 'NONE', #1008, #732, #285, .T. ) ;
#96 = EDGE_LOOP ( 'NONE', ( #1107, #1120, #445, #1124 ) ) ;
#97 = CARTESIAN_POINT ( 'NONE',  ( 0.000000000000000000, -2.500000000000000000, 0.01574803149606299191 ) ) ;
#98 = CARTESIAN_POINT ( 'NONE',  ( 6.911332835731564917E-17, -0.3500000000000000333, 0.01574803149606299191 ) ) ;
#99 = ORIENTED_EDGE ( 'NONE', *, *, #932, .F. ) ;
#100 =( LENGTH_UNIT ( ) NAMED_UNIT ( * ) SI_UNIT ( $, .METRE. ) );
#101 = VECTOR ( 'NONE', #1119, 39.37007874015748143 ) ;
#102 = ORIENTED_EDGE ( 'NONE', *, *, #988, .T. ) ;
#103 = AXIS2_PLACEMENT_3D ( 'NONE', #825, #812, #205 ) ;
#104 = DIRECTION ( 'NONE',  ( 0.5125703686733471542, 0.8586452219386474516, 0.000000000000000000 ) ) ;
#105 = ADVANCED_FACE ( 'NONE', ( #1054 ), #272, .F. ) ;
#106 = CARTESIAN_POINT ( 'NONE',  ( 0.4367457894795283568, -0.2607164689330322971, 0.01574803149606299191 ) ) ;
#107 = ORIENTED_EDGE ( 'NONE', *, *, #64, .F. ) ;
#108 = VECTOR ( 'NONE', #522, 39.37007874015748143 ) ;
#109 = VECTOR ( 'NONE', #943, 39.37007874015748143 ) ;
#110 = ORIENTED_EDGE ( 'NONE', *, *, #177, .T. ) ;
#111 = CARTESIAN_POINT ( 'NONE',  ( 1.500000000000002665, 3.374999999999996447, 0.01574803149606299191 ) ) ;
#112 = DIRECTION ( 'NONE',  ( 0.000000000000000000, -0.000000000000000000, -1.000000000000000000 ) ) ;
#113 = ORIENTED_EDGE ( 'NONE', *, *, #628, .T. ) ;
#114 = ORIENTED_EDGE ( 'NONE', *, *, #1101, .T. ) ;
#115 = CARTESIAN_POINT ( 'NONE',  ( 0.6499999999999998002, 0.9999999999999998890, 0.01574803149606299191 ) ) ;
#116 = CARTESIAN_POINT ( 'NONE',  ( 0.4367457894795283568, -0.2607164689330322971, 0.01574803149606299191 ) ) ;
#117 = ORIENTED_EDGE ( 'NONE', *, *, #453, .F. ) ;
#118 = EDGE_CURVE ( 'NONE', #340, #879, #701, .T. ) ;
#119 = LINE ( 'NONE', #211, #1093 ) ;
#120 = ORIENTED_EDGE ( 'NONE', *, *, #358, .T. ) ;
#121 = PLANE ( 'NONE',  #622 ) ;
#122 = AXIS2_PLACEMENT_3D ( 'NONE', #668, #920, #1089 ) ;
#123 = DIRECTION ( 'NONE',  ( -0.000000000000000000, -0.000000000000000000, -1.000000000000000000 ) ) ;
#124 = MECHANICAL_DESIGN_GEOMETRIC_PRESENTATION_REPRESENTATION (  '', ( #747 ), #276 ) ;
#125 = VERTEX_POINT ( 'NONE', #965 ) ;
#126 = APPLICATION_PROTOCOL_DEFINITION ( 'draft international standard', 'automotive_design', 1998, #1043 ) ;
#127 = AXIS2_PLACEMENT_3D ( 'NONE', #538, #1046, #278 ) ;
#128 = ORIENTED_EDGE ( 'NONE', *, *, #295, .F. ) ;
#129 = CARTESIAN_POINT ( 'NONE',  ( 0.000000000000000000, 3.374999999999996447, 0.01574803149606299191 ) ) ;
#130 = LINE ( 'NONE', #26, #915 ) ;
#131 = VERTEX_POINT ( 'NONE', #788 ) ;
#132 = ORIENTED_EDGE ( 'NONE', *, *, #540, .T. ) ;
#133 = DIRECTION ( 'NONE',  ( -3.902639990948943511E-16, -1.000000000000000000, 0.000000000000000000 ) ) ;
#134 = LINE ( 'NONE', #931, #349 ) ;
#135 = ORIENTED_EDGE ( 'NONE', *, *, #535, .T. ) ;
#136 = ORIENTED_EDGE ( 'NONE', *, *, #44, .F. ) ;
#137 = LINE ( 'NONE', #749, #910 ) ;
#138 = CARTESIAN_POINT ( 'NONE',  ( 0.7372716171580517841, -0.4401160979687098185, 0.01574803149606299191 ) ) ;
#139 = ADVANCED_FACE ( 'NONE', ( #970 ), #885, .F. ) ;
#140 = VECTOR ( 'NONE', #847, 39.37007874015748143 ) ;
#141 = ORIENTED_EDGE ( 'NONE', *, *, #566, .F. ) ;
#142 = CARTESIAN_POINT ( 'NONE',  ( 0.000000000000000000, 0.000000000000000000, 0.000000000000000000 ) ) ;
#143 = ORIENTED_EDGE ( 'NONE', *, *, #731, .F. ) ;
#144 = DIRECTION ( 'NONE',  ( 0.000000000000000000, -0.000000000000000000, 1.000000000000000000 ) ) ;
#145 = VECTOR ( 'NONE', #838, 39.37007874015748854 ) ;
#146 = DIRECTION ( 'NONE',  ( -1.365923996832131609E-16, 1.000000000000000000, 0.000000000000000000 ) ) ;
#147 = FACE_OUTER_BOUND ( 'NONE', #683, .T. ) ;
#148 = ORIENTED_EDGE ( 'NONE', *, *, #374, .T. ) ;
#149 = CARTESIAN_POINT ( 'NONE',  ( -0.8999999999999521716, -5.500000000000030198, 0.01574803149606299191 ) ) ;
#150 = LINE ( 'NONE', #1006, #877 ) ;
#151 = LINE ( 'NONE', #1011, #55 ) ;
#152 = EDGE_CURVE ( 'NONE', #504, #771, #526, .T. ) ;
#153 = EDGE_CURVE ( 'NONE', #485, #565, #961, .T. ) ;
#154 = EDGE_LOOP ( 'NONE', ( #953, #386, #1035, #536, #424, #797, #477, #1117 ) ) ;
#155 = LINE ( 'NONE', #249, #1052 ) ;
#156 = ORIENTED_EDGE ( 'NONE', *, *, #513, .F. ) ;
#157 = CARTESIAN_POINT ( 'NONE',  ( 0.2374999999999997113, 1.000000000000000000, 0.01574803149606299191 ) ) ;
#158 = DIRECTION ( 'NONE',  ( 0.000000000000000000, -0.000000000000000000, 1.000000000000000000 ) ) ;
#159 = AXIS2_PLACEMENT_3D ( 'NONE', #179, #967, #685 ) ;
#160 = ADVANCED_FACE ( 'NONE', ( #187 ), #84, .F. ) ;
#161 = ORIENTED_EDGE ( 'NONE', *, *, #498, .T. ) ;
#162 = DIRECTION ( 'NONE',  ( 0.000000000000000000, -0.000000000000000000, 1.000000000000000000 ) ) ;
#163 = LINE ( 'NONE', #524, #823 ) ;
#164 = AXIS2_PLACEMENT_3D ( 'NONE', #14, #89, #438 ) ;
#165 = VECTOR ( 'NONE', #756, 39.37007874015748143 ) ;
#166 = LINE ( 'NONE', #412, #145 ) ;
#167 = ORIENTED_EDGE ( 'NONE', *, *, #177, .F. ) ;
#168 = LINE ( 'NONE', #947, #786 ) ;
#169 = ORIENTED_EDGE ( 'NONE', *, *, #490, .F. ) ;
#170 = CARTESIAN_POINT ( 'NONE',  ( 0.2374999999999997113, 1.000000000000000000, -2.000976324197765610 ) ) ;
#171 = EDGE_CURVE ( 'NONE', #180, #699, #1038, .T. ) ;
#172 = PLANE ( 'NONE',  #509 ) ;
#173 = DIRECTION ( 'NONE',  ( 0.5125703686733471542, 0.8586452219386474516, 0.000000000000000000 ) ) ;
#174 = VERTEX_POINT ( 'NONE', #796 ) ;
#175 = CARTESIAN_POINT ( 'NONE',  ( 0.6499999999999998002, 0.9999999999999998890, 0.01574803149606299191 ) ) ;
#176 = FACE_OUTER_BOUND ( 'NONE', #973, .T. ) ;
#177 = EDGE_CURVE ( 'NONE', #597, #174, #447, .T. ) ;
#178 = VECTOR ( 'NONE', #201, 39.37007874015748143 ) ;
#179 = CARTESIAN_POINT ( 'NONE',  ( -1.499999999999997335, -1.772009509403843480E-16, 0.01574803149606299191 ) ) ;
#180 = VERTEX_POINT ( 'NONE', #265 ) ;
#181 = DIRECTION ( 'NONE',  ( 1.000000000000000000, 0.000000000000000000, -0.000000000000000000 ) ) ;
#182 = DIRECTION ( 'NONE',  ( 0.000000000000000000, -1.000000000000000000, 0.000000000000000000 ) ) ;
#183 = EDGE_CURVE ( 'NONE', #518, #805, #783, .T. ) ;
#184 = DIRECTION ( 'NONE',  ( 0.000000000000000000, 1.000000000000000000, 0.000000000000000000 ) ) ;
#185 = VERTEX_POINT ( 'NONE', #693 ) ;
#186 = DIRECTION ( 'NONE',  ( -0.000000000000000000, -0.000000000000000000, -1.000000000000000000 ) ) ;
#187 = FACE_OUTER_BOUND ( 'NONE', #377, .T. ) ;
#188 = ADVANCED_BREP_SHAPE_REPRESENTATION ( 'hull_number_477_stencil', ( #1017, #34 ), #529 ) ;
#189 = ORIENTED_EDGE ( 'NONE', *, *, #824, .T. ) ;
#190 = DIRECTION ( 'NONE',  ( 0.5881716976750459569, 0.8087360843031886626, 0.000000000000000000 ) ) ;
#191 = EDGE_CURVE ( 'NONE', #1008, #510, #957, .T. ) ;
#192 = EDGE_LOOP ( 'NONE', ( #531, #1003, #817, #687 ) ) ;
#193 = CARTESIAN_POINT ( 'NONE',  ( -1.000000000000000000, -0.3500000000000002554, 0.01574803149606299191 ) ) ;
#194 = CARTESIAN_POINT ( 'NONE',  ( 0.2374999999999997113, 2.456498165242825049, -2.000976324197765610 ) ) ;
#195 = EDGE_LOOP ( 'NONE', ( #289, #578, #342, #484 ) ) ;
#196 = DIRECTION ( 'NONE',  ( -0.000000000000000000, -0.000000000000000000, -1.000000000000000000 ) ) ;
#197 = AXIS2_PLACEMENT_3D ( 'NONE', #841, #227, #133 ) ;
#198 = ADVANCED_FACE ( 'NONE', ( #432 ), #172, .F. ) ;
#199 = ORIENTED_EDGE ( 'NONE', *, *, #183, .T. ) ;
#200 = VECTOR ( 'NONE', #18, 39.37007874015748143 ) ;
#201 = DIRECTION ( 'NONE',  ( 0.000000000000000000, 1.000000000000000000, -0.000000000000000000 ) ) ;
#202 = FACE_OUTER_BOUND ( 'NONE', #539, .T. ) ;
#203 = ORIENTED_EDGE ( 'NONE', *, *, #230, .F. ) ;
#204 = VECTOR ( 'NONE', #255, 39.37007874015748143 ) ;
#205 = DIRECTION ( 'NONE',  ( 1.000000000000000000, 0.000000000000000000, 0.000000000000000000 ) ) ;
#206 = ORIENTED_EDGE ( 'NONE', *, *, #444, .F. ) ;
#207 = LINE ( 'NONE', #20, #801 ) ;
#208 = CARTESIAN_POINT ( 'NONE',  ( 0.000000000000000000, 0.5000000000000000000, 0.01574803149606299191 ) ) ;
#209 = EDGE_CURVE ( 'NONE', #597, #764, #916, .T. ) ;
#210 = ORIENTED_EDGE ( 'NONE', *, *, #209, .T. ) ;
#211 = CARTESIAN_POINT ( 'NONE',  ( -0.8999999999999521716, -5.500000000000030198, 0.01574803149606299191 ) ) ;
#212 = ORIENTED_EDGE ( 'NONE', *, *, #267, .F. ) ;
#213 = CARTESIAN_POINT ( 'NONE',  ( 1.757094083385638994, -1.048901617458819047, 0.000000000000000000 ) ) ;
#214 = LINE ( 'NONE', #645, #301 ) ;
#215 = EDGE_CURVE ( 'NONE', #185, #740, #373, .T. ) ;
#216 = VERTEX_POINT ( 'NONE', #903 ) ;
#217 = LENGTH_MEASURE_WITH_UNIT ( LENGTH_MEASURE( 0.02539999999999999897 ), #29 );
#218 = ORIENTED_EDGE ( 'NONE', *, *, #636, .F. ) ;
#219 = DIRECTION ( 'NONE',  ( 1.000000000000000000, 0.000000000000000000, 0.000000000000000000 ) ) ;
#220 = VECTOR ( 'NONE', #87, 39.37007874015748143 ) ;
#221 = VECTOR ( 'NONE', #906, 39.37007874015748143 ) ;
#222 = CARTESIAN_POINT ( 'NONE',  ( 0.6499999999999999112, 5.380912714793243436E-17, 0.000000000000000000 ) ) ;
#223 = VERTEX_POINT ( 'NONE', #454 ) ;
#224 = EDGE_CURVE ( 'NONE', #1007, #740, #639, .T. ) ;
#225 = VECTOR ( 'NONE', #802, 39.37007874015748143 ) ;
#226 = ORIENTED_EDGE ( 'NONE', *, *, #95, .T. ) ;
#227 = DIRECTION ( 'NONE',  ( -1.000000000000000000, 3.902639990948943511E-16, 0.000000000000000000 ) ) ;
#228 = DIRECTION ( 'NONE',  ( 0.5125703686733640296, 0.8586452219386373486, 0.000000000000000000 ) ) ;
#229 = EDGE_LOOP ( 'NONE', ( #680, #203, #80, #1044 ) ) ;
#230 = EDGE_CURVE ( 'NONE', #11, #846, #989, .T. ) ;
#231 = EDGE_LOOP ( 'NONE', ( #120, #868, #167, #308, #607, #922, #398, #421 ) ) ;
#232 = CARTESIAN_POINT ( 'NONE',  ( 0.6499999999999995781, 3.000000000000000444, 0.01574803149606299191 ) ) ;
#233 = DIRECTION ( 'NONE',  ( -0.5125703686733477094, -0.8586452219386470075, 0.000000000000000000 ) ) ;
#234 = FACE_OUTER_BOUND ( 'NONE', #24, .T. ) ;
#235 = ORIENTED_EDGE ( 'NONE', *, *, #1022, .F. ) ;
#236 = DIRECTION ( 'NONE',  ( 0.000000000000000000, 1.000000000000000000, -0.000000000000000000 ) ) ;
#237 = EDGE_CURVE ( 'NONE', #771, #1094, #130, .T. ) ;
#238 = DIRECTION ( 'NONE',  ( 0.000000000000000000, 1.000000000000000000, 0.000000000000000000 ) ) ;
#239 = VECTOR ( 'NONE', #173, 39.37007874015748143 ) ;
#240 = CARTESIAN_POINT ( 'NONE',  ( -1.000000000000000222, 1.349999999999999201, 0.01574803149606299191 ) ) ;
#241 =( CONVERSION_BASED_UNIT ( 'INCH', #217 ) LENGTH_UNIT ( ) NAMED_UNIT ( #811 ) );
#242 = EDGE_LOOP ( 'NONE', ( #835, #136, #53, #417, #70, #1070 ) ) ;
#243 = PLANE ( 'NONE',  #641 ) ;
#244 = VECTOR ( 'NONE', #21, 39.37007874015748143 ) ;
#245 = CARTESIAN_POINT ( 'NONE',  ( 1.865748365121865150E-32, -1.365923996832131609E-16, 0.01574803149606299191 ) ) ;
#246 = CARTESIAN_POINT ( 'NONE',  ( 0.6499999999999998002, 0.9999999999999998890, 0.000000000000000000 ) ) ;
#247 = EDGE_CURVE ( 'NONE', #629, #180, #661, .T. ) ;
#248 = ORIENTED_EDGE ( 'NONE', *, *, #695, .T. ) ;
#249 = CARTESIAN_POINT ( 'NONE',  ( 0.000000000000000000, 0.5000000000000000000, 0.01574803149606299191 ) ) ;
#250 = DIRECTION ( 'NONE',  ( 8.278327253528068342E-17, -1.000000000000000000, 0.000000000000000000 ) ) ;
#251 = CARTESIAN_POINT ( 'NONE',  ( -1.499999999999997558, 3.374999999999996447, 0.000000000000000000 ) ) ;
#252 = ADVANCED_FACE ( 'NONE', ( #202 ), #994, .F. ) ;
#253 = EDGE_LOOP ( 'NONE', ( #1082, #827, #317, #426 ) ) ;
#254 = CARTESIAN_POINT ( 'NONE',  ( 0.9999999999999998890, -1.516480271171051896E-32, 0.000000000000000000 ) ) ;
#255 = DIRECTION ( 'NONE',  ( 0.000000000000000000, 0.000000000000000000, 1.000000000000000000 ) ) ;
#256 = FACE_OUTER_BOUND ( 'NONE', #712, .T. ) ;
#257 = ADVANCED_FACE ( 'NONE', ( #735 ), #472, .F. ) ;
#258 = ORIENTED_EDGE ( 'NONE', *, *, #224, .F. ) ;
#259 = LINE ( 'NONE', #439, #658 ) ;
#260 = EDGE_CURVE ( 'NONE', #894, #724, #460, .T. ) ;
#261 = ORIENTED_EDGE ( 'NONE', *, *, #295, .T. ) ;
#262 = CARTESIAN_POINT ( 'NONE',  ( 0.2999999999999997113, 3.000000000000000444, 0.01574803149606299191 ) ) ;
#263 = VECTOR ( 'NONE', #739, 39.37007874015748143 ) ;
#264 = VECTOR ( 'NONE', #1037, 39.37007874015748143 ) ;
#265 = CARTESIAN_POINT ( 'NONE',  ( 0.3834477668897911529, -0.3499999999999999778, 0.01574803149606299191 ) ) ;
#266 = FACE_OUTER_BOUND ( 'NONE', #96, .T. ) ;
#267 = EDGE_CURVE ( 'NONE', #74, #840, #829, .T. ) ;
#268 = CARTESIAN_POINT ( 'NONE',  ( -0.000000000000000000, -5.500000000000030198, 0.000000000000000000 ) ) ;
#269 = FACE_OUTER_BOUND ( 'NONE', #983, .T. ) ;
#270 = CARTESIAN_POINT ( 'NONE',  ( 0.000000000000000000, 1.349999999999999867, 0.01574803149606299191 ) ) ;
#271 = DIRECTION ( 'NONE',  ( 1.000000000000000000, 0.000000000000000000, 0.000000000000000000 ) ) ;
#272 = PLANE ( 'NONE',  #127 ) ;
#273 = VECTOR ( 'NONE', #743, 39.37007874015748143 ) ;
#274 = AXIS2_PLACEMENT_3D ( 'NONE', #924, #500, #681 ) ;
#275 = PLANE ( 'NONE',  #10 ) ;
#276 =( GEOMETRIC_REPRESENTATION_CONTEXT ( 3 ) GLOBAL_UNCERTAINTY_ASSIGNED_CONTEXT ( ( #1127 ) ) GLOBAL_UNIT_ASSIGNED_CONTEXT ( ( #1069, #1057, #9 ) ) REPRESENTATION_CONTEXT ( 'NONE', 'WORKASPACE' ) );
#277 = LINE ( 'NONE', #686, #698 ) ;
#278 = DIRECTION ( 'NONE',  ( -8.278327253528068342E-17, 1.000000000000000000, 0.000000000000000000 ) ) ;
#279 = DIMENSIONAL_EXPONENTS ( 1.000000000000000000, 0.000000000000000000, 0.000000000000000000, 0.000000000000000000, 0.000000000000000000, 0.000000000000000000, 0.000000000000000000 ) ;
#280 = VECTOR ( 'NONE', #123, 39.37007874015748143 ) ;
#281 = ADVANCED_FACE ( 'NONE', ( #379 ), #40, .F. ) ;
#282 = ORIENTED_EDGE ( 'NONE', *, *, #387, .T. ) ;
#283 = EDGE_LOOP ( 'NONE', ( #380, #798, #659, #542, #375, #1112, #473, #1065 ) ) ;
#284 = DIRECTION ( 'NONE',  ( 0.8586452219386470075, -0.5125703686733477094, 0.000000000000000000 ) ) ;
#285 = LINE ( 'NONE', #1060, #225 ) ;
#286 = ORIENTED_EDGE ( 'NONE', *, *, #237, .F. ) ;
#287 = EDGE_CURVE ( 'NONE', #461, #27, #214, .T. ) ;
#288 = LINE ( 'NONE', #309, #297 ) ;
#289 = ORIENTED_EDGE ( 'NONE', *, *, #85, .F. ) ;
#290 = CARTESIAN_POINT ( 'NONE',  ( -1.000000000000000000, -3.350000000000000533, 0.01574803149606299191 ) ) ;
#291 = CARTESIAN_POINT ( 'NONE',  ( -1.296216216216216299, 0.9427027027027021777, 0.000000000000000000 ) ) ;
#292 = ORIENTED_EDGE ( 'NONE', *, *, #784, .F. ) ;
#293 = DIRECTION ( 'NONE',  ( 1.181339672935897708E-16, -1.000000000000000000, 0.000000000000000000 ) ) ;
#294 = VECTOR ( 'NONE', #873, 39.37007874015748143 ) ;
#295 = EDGE_CURVE ( 'NONE', #510, #996, #744, .T. ) ;
#296 = VERTEX_POINT ( 'NONE', #558 ) ;
#297 = VECTOR ( 'NONE', #190, 39.37007874015748143 ) ;
#298 = CARTESIAN_POINT ( 'NONE',  ( 0.2374999999999997113, 1.349999999999999867, 0.01574803149606299191 ) ) ;
#299 = FACE_OUTER_BOUND ( 'NONE', #192, .T. ) ;
#300 = VERTEX_POINT ( 'NONE', #1073 ) ;
#301 = VECTOR ( 'NONE', #395, 39.37007874015748143 ) ;
#302 = FACE_BOUND ( 'NONE', #822, .T. ) ;
#303 = EDGE_CURVE ( 'NONE', #1094, #497, #655, .T. ) ;
#304 = ORIENTED_EDGE ( 'NONE', *, *, #183, .F. ) ;
#305 = DIRECTION ( 'NONE',  ( 2.731847993664264205E-16, 1.000000000000000000, 0.000000000000000000 ) ) ;
#306 = ADVANCED_FACE ( 'NONE', ( #33 ), #808, .F. ) ;
#307 = CARTESIAN_POINT ( 'NONE',  ( -1.000000000000000000, 0.000000000000000000, 0.01574803149606299191 ) ) ;
#308 = ORIENTED_EDGE ( 'NONE', *, *, #351, .T. ) ;
#309 = CARTESIAN_POINT ( 'NONE',  ( -1.296216216216216299, 0.9427027027027021777, 0.01574803149606299191 ) ) ;
#310 = ORIENTED_EDGE ( 'NONE', *, *, #191, .F. ) ;
#311 = CARTESIAN_POINT ( 'NONE',  ( -1.013158586710100062, 0.7368426085164360151, 0.01574803149606299191 ) ) ;
#312 = DIRECTION ( 'NONE',  ( -1.000000000000000000, 0.000000000000000000, 0.000000000000000000 ) ) ;
#313 = ORIENTED_EDGE ( 'NONE', *, *, #260, .F. ) ;
#314 = ORIENTED_EDGE ( 'NONE', *, *, #677, .F. ) ;
#315 = CARTESIAN_POINT ( 'NONE',  ( -1.000000000000000000, 0.000000000000000000, 0.000000000000000000 ) ) ;
#316 = LINE ( 'NONE', #45, #244 ) ;
#317 = ORIENTED_EDGE ( 'NONE', *, *, #247, .F. ) ;
#318 = VECTOR ( 'NONE', #233, 39.37007874015748143 ) ;
#319 = EDGE_LOOP ( 'NONE', ( #114, #1102, #746, #976 ) ) ;
#320 = CARTESIAN_POINT ( 'NONE',  ( 0.000000000000000000, 0.9999999999999998890, 0.01574803149606299191 ) ) ;
#321 = CARTESIAN_POINT ( 'NONE',  ( 0.2374999999999997113, 1.349999999999999867, 0.000000000000000000 ) ) ;
#322 = ORIENTED_EDGE ( 'NONE', *, *, #1061, .F. ) ;
#323 = EDGE_CURVE ( 'NONE', #996, #737, #316, .T. ) ;
#324 = ORIENTED_EDGE ( 'NONE', *, *, #59, .F. ) ;
#325 = FACE_OUTER_BOUND ( 'NONE', #195, .T. ) ;
#326 = CARTESIAN_POINT ( 'NONE',  ( 0.000000000000000000, -5.500000000000030198, 0.01574803149606299191 ) ) ;
#327 = DIRECTION ( 'NONE',  ( 0.000000000000000000, -0.000000000000000000, 1.000000000000000000 ) ) ;
#328 = ORIENTED_EDGE ( 'NONE', *, *, #695, .F. ) ;
#329 = PLANE ( 'NONE',  #197 ) ;
#330 = ADVANCED_FACE ( 'NONE', ( #299 ), #821, .F. ) ;
#331 = CARTESIAN_POINT ( 'NONE',  ( 0.9999999999999996669, 0.9999999999999998890, 0.01574803149606299191 ) ) ;
#332 = DIRECTION ( 'NONE',  ( -0.5125703686733471542, -0.8586452219386474516, 0.000000000000000000 ) ) ;
#333 = VERTEX_POINT ( 'NONE', #837 ) ;
#334 = LINE ( 'NONE', #410, #361 ) ;
#335 = LINE ( 'NONE', #245, #17 ) ;
#336 = VERTEX_POINT ( 'NONE', #1115 ) ;
#337 = ORIENTED_EDGE ( 'NONE', *, *, #731, .T. ) ;
#338 = CARTESIAN_POINT ( 'NONE',  ( 0.000000000000000000, 3.000000000000000444, 0.01574803149606299191 ) ) ;
#339 = CARTESIAN_POINT ( 'NONE',  ( -0.9999999999999986677, 3.902639990948937594E-16, 0.01574803149606299191 ) ) ;
#340 = VERTEX_POINT ( 'NONE', #921 ) ;
#341 = EDGE_CURVE ( 'NONE', #60, #593, #859, .T. ) ;
#342 = ORIENTED_EDGE ( 'NONE', *, *, #358, .F. ) ;
#343 = CARTESIAN_POINT ( 'NONE',  ( -1.499999999999997558, 3.374999999999996447, 0.01574803149606299191 ) ) ;
#344 = CARTESIAN_POINT ( 'NONE',  ( 1.865748365121865150E-32, -1.365923996832131609E-16, 0.000000000000000000 ) ) ;
#345 = CARTESIAN_POINT ( 'NONE',  ( 0.000000000000000000, -3.000000000000000444, 0.01574803149606299191 ) ) ;
#346 = AXIS2_PLACEMENT_3D ( 'NONE', #338, #184, #794 ) ;
#347 = FILL_AREA_STYLE ('',( #1129 ) ) ;
#348 = CARTESIAN_POINT ( 'NONE',  ( -1.000000000000000000, -2.731847993664263218E-16, 0.01574803149606299191 ) ) ;
#349 = VECTOR ( 'NONE', #238, 39.37007874015748143 ) ;
#350 = DIRECTION ( 'NONE',  ( -0.000000000000000000, -1.000000000000000000, -0.000000000000000000 ) ) ;
#351 = EDGE_CURVE ( 'NONE', #597, #810, #150, .T. ) ;
#352 = LINE ( 'NONE', #703, #1072 ) ;
#353 = LINE ( 'NONE', #705, #506 ) ;
#354 = CARTESIAN_POINT ( 'NONE',  ( 0.000000000000000000, 1.349999999999999867, 0.01574803149606299191 ) ) ;
#355 = PLANE ( 'NONE',  #928 ) ;
#356 = EDGE_CURVE ( 'NONE', #771, #340, #576, .T. ) ;
#357 = CARTESIAN_POINT ( 'NONE',  ( -1.499999999999996669, -5.875000000000003553, 0.000000000000000000 ) ) ;
#358 = EDGE_CURVE ( 'NONE', #131, #406, #134, .T. ) ;
#359 = CARTESIAN_POINT ( 'NONE',  ( -1.499999999999997335, -1.772009509403843480E-16, 0.01574803149606299191 ) ) ;
#360 = ORIENTED_EDGE ( 'NONE', *, *, #758, .T. ) ;
#361 = VECTOR ( 'NONE', #1026, 39.37007874015748143 ) ;
#362 = LINE ( 'NONE', #1076, #623 ) ;
#363 = ORIENTED_EDGE ( 'NONE', *, *, #267, .T. ) ;
#364 = FACE_OUTER_BOUND ( 'NONE', #413, .T. ) ;
#365 = VECTOR ( 'NONE', #1027, 39.37007874015748143 ) ;
#366 = PLANE ( 'NONE',  #533 ) ;
#367 = EDGE_CURVE ( 'NONE', #15, #992, #591, .T. ) ;
#368 = AXIS2_PLACEMENT_3D ( 'NONE', #138, #400, #228 ) ;
#369 = ORIENTED_EDGE ( 'NONE', *, *, #341, .T. ) ;
#370 = DIRECTION ( 'NONE',  ( -0.000000000000000000, -0.000000000000000000, -1.000000000000000000 ) ) ;
#371 = EDGE_LOOP ( 'NONE', ( #132, #602, #47, #858 ) ) ;
#372 = CARTESIAN_POINT ( 'NONE',  ( 0.000000000000000000, -2.500000000000000000, 0.01574803149606299191 ) ) ;
#373 = LINE ( 'NONE', #291, #751 ) ;
#374 = EDGE_CURVE ( 'NONE', #718, #923, #852, .T. ) ;
#375 = ORIENTED_EDGE ( 'NONE', *, *, #1078, .T. ) ;
#376 = EDGE_CURVE ( 'NONE', #589, #737, #57, .T. ) ;
#377 = EDGE_LOOP ( 'NONE', ( #113, #955, #41, #470 ) ) ;
#378 = DIRECTION ( 'NONE',  ( 1.000000000000000000, -2.731847993664264205E-16, 0.000000000000000000 ) ) ;
#379 = FACE_OUTER_BOUND ( 'NONE', #985, .T. ) ;
#380 = ORIENTED_EDGE ( 'NONE', *, *, #1061, .T. ) ;
#381 = LENGTH_MEASURE_WITH_UNIT ( LENGTH_MEASURE( 0.02539999999999999897 ), #100 );
#382 = EDGE_CURVE ( 'NONE', #11, #803, #501, .T. ) ;
#383 = ORIENTED_EDGE ( 'NONE', *, *, #247, .T. ) ;
#384 = CARTESIAN_POINT ( 'NONE',  ( 0.2999999999999997113, 0.000000000000000000, 0.000000000000000000 ) ) ;
#385 = DIRECTION ( 'NONE',  ( 0.5881716976750458459, 0.8087360843031886626, 0.000000000000000000 ) ) ;
#386 = ORIENTED_EDGE ( 'NONE', *, *, #152, .T. ) ;
#387 = EDGE_CURVE ( 'NONE', #805, #11, #1098, .T. ) ;
#388 = ORIENTED_EDGE ( 'NONE', *, *, #809, .F. ) ;
#389 = DIRECTION ( 'NONE',  ( -0.000000000000000000, -1.000000000000000000, -0.000000000000000000 ) ) ;
#390 = DIRECTION ( 'NONE',  ( 0.5881716976750459569, 0.8087360843031886626, 0.000000000000000000 ) ) ;
#391 = ORIENTED_EDGE ( 'NONE', *, *, #1012, .T. ) ;
#392 = APPLICATION_PROTOCOL_DEFINITION ( 'draft international standard', 'automotive_design', 1998, #694 ) ;
#393 = EDGE_LOOP ( 'NONE', ( #886, #258, #1068, #905 ) ) ;
#394 = DIRECTION ( 'NONE',  ( -1.181339672935897708E-16, 1.000000000000000000, 0.000000000000000000 ) ) ;
#395 = DIRECTION ( 'NONE',  ( -0.000000000000000000, -0.000000000000000000, -1.000000000000000000 ) ) ;
#396 = EDGE_CURVE ( 'NONE', #180, #223, #62, .T. ) ;
#397 = ORIENTED_EDGE ( 'NONE', *, *, #1114, .F. ) ;
#398 = ORIENTED_EDGE ( 'NONE', *, *, #988, .F. ) ;
#399 = CARTESIAN_POINT ( 'NONE',  ( 0.6499999999999995781, 0.5000000000000000000, 0.000000000000000000 ) ) ;
#400 = DIRECTION ( 'NONE',  ( 0.8586452219386373486, -0.5125703686733640296, 0.000000000000000000 ) ) ;
#401 = LINE ( 'NONE', #752, #474 ) ;
#402 = VECTOR ( 'NONE', #926, 39.37007874015748143 ) ;
#403 = ORIENTED_EDGE ( 'NONE', *, *, #566, .T. ) ;
#404 = CARTESIAN_POINT ( 'NONE',  ( -0.4923811242904079233, -5.500000000000030198, 0.000000000000000000 ) ) ;
#405 = DIRECTION ( 'NONE',  ( 1.000000000000000000, 0.000000000000000000, 0.000000000000000000 ) ) ;
#406 = VERTEX_POINT ( 'NONE', #321 ) ;
#407 = EDGE_CURVE ( 'NONE', #340, #497, #488, .T. ) ;
#408 =( NAMED_UNIT ( * ) PLANE_ANGLE_UNIT ( ) SI_UNIT ( $, .RADIAN. ) );
#409 = EDGE_LOOP ( 'NONE', ( #337, #631, #742, #634 ) ) ;
#410 = CARTESIAN_POINT ( 'NONE',  ( 0.000000000000000000, -3.350000000000000533, 0.01574803149606299191 ) ) ;
#411 = LINE ( 'NONE', #67, #109 ) ;
#412 = CARTESIAN_POINT ( 'NONE',  ( 0.4367457894795283568, -0.2607164689330322971, 0.000000000000000000 ) ) ;
#413 = EDGE_LOOP ( 'NONE', ( #1062, #582, #46, #1058 ) ) ;
#414 = LINE ( 'NONE', #765, #220 ) ;
#415 = VECTOR ( 'NONE', #676, 39.37007874015748143 ) ;
#416 = CARTESIAN_POINT ( 'NONE',  ( -1.050710766793947306E-16, 1.000000000000000000, 0.000000000000000000 ) ) ;
#417 = ORIENTED_EDGE ( 'NONE', *, *, #50, .F. ) ;
#418 = ORIENTED_EDGE ( 'NONE', *, *, #396, .T. ) ;
#419 = LINE ( 'NONE', #1036, #1001 ) ;
#420 = VECTOR ( 'NONE', #815, 39.37007874015748143 ) ;
#421 = ORIENTED_EDGE ( 'NONE', *, *, #467, .F. ) ;
#422 = PLANE ( 'NONE',  #553 ) ;
#423 = DIRECTION ( 'NONE',  ( 0.000000000000000000, 1.000000000000000000, 0.000000000000000000 ) ) ;
#424 = ORIENTED_EDGE ( 'NONE', *, *, #59, .T. ) ;
#425 = DIRECTION ( 'NONE',  ( 0.000000000000000000, 1.000000000000000000, -0.000000000000000000 ) ) ;
#426 = ORIENTED_EDGE ( 'NONE', *, *, #935, .T. ) ;
#427 = DIRECTION ( 'NONE',  ( 0.000000000000000000, -1.000000000000000000, 0.000000000000000000 ) ) ;
#428 = CARTESIAN_POINT ( 'NONE',  ( 0.000000000000000000, 0.9999999999999998890, 0.01574803149606299191 ) ) ;
#429 = VERTEX_POINT ( 'NONE', #673 ) ;
#430 = CARTESIAN_POINT ( 'NONE',  ( -1.050710766793947306E-16, 1.000000000000000000, 0.01574803149606299191 ) ) ;
#431 = CARTESIAN_POINT ( 'NONE',  ( -0.000000000000000000, -3.350000000000000533, 0.000000000000000000 ) ) ;
#432 = FACE_OUTER_BOUND ( 'NONE', #1088, .T. ) ;
#433 = AXIS2_PLACEMENT_3D ( 'NONE', #1014, #590, #938 ) ;
#434 = ADVANCED_FACE ( 'NONE', ( #669 ), #422, .F. ) ;
#435 = CARTESIAN_POINT ( 'NONE',  ( 0.000000000000000000, -5.875000000000003553, 0.01574803149606299191 ) ) ;
#436 = CARTESIAN_POINT ( 'NONE',  ( 0.9999999999999996669, 1.349999999999999867, 0.01574803149606299191 ) ) ;
#437 = VECTOR ( 'NONE', #853, 39.37007874015748143 ) ;
#438 = DIRECTION ( 'NONE',  ( 1.000000000000000000, 0.000000000000000000, 0.000000000000000000 ) ) ;
#439 = CARTESIAN_POINT ( 'NONE',  ( -1.000000000000000222, 0.000000000000000000, 0.01574803149606299191 ) ) ;
#440 = EDGE_CURVE ( 'NONE', #429, #518, #1121, .T. ) ;
#441 = CARTESIAN_POINT ( 'NONE',  ( -0.4923811242904539420, -2.500000000000000000, 0.01574803149606299191 ) ) ;
#442 = CARTESIAN_POINT ( 'NONE',  ( 0.2999999999999997113, 0.000000000000000000, 0.01574803149606299191 ) ) ;
#443 = SURFACE_STYLE_USAGE ( .BOTH. , #872 ) ;
#444 = EDGE_CURVE ( 'NONE', #1008, #15, #411, .T. ) ;
#445 = ORIENTED_EDGE ( 'NONE', *, *, #467, .T. ) ;
#446 = CARTESIAN_POINT ( 'NONE',  ( -1.000000000000000222, 0.9999999999999998890, 0.01574803149606299191 ) ) ;
#447 = LINE ( 'NONE', #515, #950 ) ;
#448 = ORIENTED_EDGE ( 'NONE', *, *, #677, .T. ) ;
#449 = AXIS2_PLACEMENT_3D ( 'NONE', #170, #608, #795 ) ;
#450 = VECTOR ( 'NONE', #818, 39.37007874015748143 ) ;
#451 = EDGE_LOOP ( 'NONE', ( #559, #671, #830, #212, #545, #156, #143, #720 ) ) ;
#452 = LINE ( 'NONE', #213, #763 ) ;
#453 = EDGE_CURVE ( 'NONE', #510, #589, #761, .T. ) ;
#454 = CARTESIAN_POINT ( 'NONE',  ( 0.3834477668897911529, -0.3499999999999999778, 0.000000000000000000 ) ) ;
#455 = VECTOR ( 'NONE', #884, 39.37007874015748143 ) ;
#456 = ORIENTED_EDGE ( 'NONE', *, *, #513, .T. ) ;
#457 = DIRECTION ( 'NONE',  ( -0.000000000000000000, -0.000000000000000000, -1.000000000000000000 ) ) ;
#458 = ORIENTED_EDGE ( 'NONE', *, *, #1100, .T. ) ;
#459 = PLANE ( 'NONE',  #890 ) ;
#460 = LINE ( 'NONE', #1081, #1132 ) ;
#461 = VERTEX_POINT ( 'NONE', #331 ) ;
#462 = CARTESIAN_POINT ( 'NONE',  ( -0.9999999999999998890, -3.000000000000000444, 0.01574803149606299191 ) ) ;
#463 = EDGE_LOOP ( 'NONE', ( #819, #210, #481, #604 ) ) ;
#464 = CARTESIAN_POINT ( 'NONE',  ( 2.057619911064170637, -1.228301246494495569, 0.01574803149606299191 ) ) ;
#465 = DIRECTION ( 'NONE',  ( -0.8586452219386372375, 0.5125703686733642517, 0.000000000000000000 ) ) ;
#466 = ORIENTED_EDGE ( 'NONE', *, *, #899, .F. ) ;
#467 = EDGE_CURVE ( 'NONE', #131, #125, #678, .T. ) ;
#468 = LINE ( 'NONE', #713, #221 ) ;
#469 = AXIS2_PLACEMENT_3D ( 'NONE', #372, #738, #832 ) ;
#470 = ORIENTED_EDGE ( 'NONE', *, *, #704, .T. ) ;
#471 = FACE_OUTER_BOUND ( 'NONE', #913, .T. ) ;
#472 = PLANE ( 'NONE',  #491 ) ;
#473 = ORIENTED_EDGE ( 'NONE', *, *, #621, .T. ) ;
#474 = VECTOR ( 'NONE', #670, 39.37007874015748143 ) ;
#475 = DIRECTION ( 'NONE',  ( 1.000000000000000000, 0.000000000000000000, 0.000000000000000000 ) ) ;
#476 = EDGE_CURVE ( 'NONE', #300, #65, #335, .T. ) ;
#477 = ORIENTED_EDGE ( 'NONE', *, *, #809, .T. ) ;
#478 = DIRECTION ( 'NONE',  ( 0.000000000000000000, 1.000000000000000000, 0.000000000000000000 ) ) ;
#479 = DIRECTION ( 'NONE',  ( -0.000000000000000000, -0.000000000000000000, -1.000000000000000000 ) ) ;
#480 = ORIENTED_EDGE ( 'NONE', *, *, #476, .F. ) ;
#481 = ORIENTED_EDGE ( 'NONE', *, *, #621, .F. ) ;
#482 = LINE ( 'NONE', #1113, #766 ) ;
#483 = DIRECTION ( 'NONE',  ( 1.000000000000000000, 0.000000000000000000, 0.000000000000000000 ) ) ;
#484 = ORIENTED_EDGE ( 'NONE', *, *, #528, .T. ) ;
#485 = VERTEX_POINT ( 'NONE', #157 ) ;
#486 = LINE ( 'NONE', #1020, #415 ) ;
#487 = VECTOR ( 'NONE', #81, 39.37007874015748143 ) ;
#488 = LINE ( 'NONE', #1104, #951 ) ;
#489 = CARTESIAN_POINT ( 'NONE',  ( 6.911332835731564917E-17, -0.3500000000000000333, 0.000000000000000000 ) ) ;
#490 = EDGE_CURVE ( 'NONE', #554, #629, #507, .T. ) ;
#491 = AXIS2_PLACEMENT_3D ( 'NONE', #208, #898, #112 ) ;
#492 = PRODUCT_CONTEXT ( 'NONE', #694, 'mechanical' ) ;
#493 = VECTOR ( 'NONE', #483, 39.37007874015748143 ) ;
#494 = VERTEX_POINT ( 'NONE', #77 ) ;
#495 = CARTESIAN_POINT ( 'NONE',  ( 1.500000000000002887, 1.772009509403849890E-16, 0.01574803149606299191 ) ) ;
#496 = CARTESIAN_POINT ( 'NONE',  ( 0.000000000000000000, -5.875000000000003553, 0.000000000000000000 ) ) ;
#497 = VERTEX_POINT ( 'NONE', #519 ) ;
#498 = EDGE_CURVE ( 'NONE', #714, #1094, #964, .T. ) ;
#499 = EDGE_LOOP ( 'NONE', ( #637, #35, #663, #1075 ) ) ;
#500 = DIRECTION ( 'NONE',  ( 0.000000000000000000, -1.000000000000000000, 0.000000000000000000 ) ) ;
#501 = LINE ( 'NONE', #326, #987 ) ;
#502 = CARTESIAN_POINT ( 'NONE',  ( -1.000000000000000222, 0.9999999999999998890, 0.01574803149606299191 ) ) ;
#503 = ADVANCED_FACE ( 'NONE', ( #708 ), #1130, .F. ) ;
#504 = VERTEX_POINT ( 'NONE', #262 ) ;
#505 = CARTESIAN_POINT ( 'NONE',  ( 0.9999999999999996669, 1.349999999999999867, 0.01574803149606299191 ) ) ;
#506 = VECTOR ( 'NONE', #537, 39.37007874015748143 ) ;
#507 = LINE ( 'NONE', #97, #455 ) ;
#508 = ORIENTED_EDGE ( 'NONE', *, *, #152, .F. ) ;
#509 = AXIS2_PLACEMENT_3D ( 'NONE', #1131, #909, #385 ) ;
#510 = VERTEX_POINT ( 'NONE', #865 ) ;
#511 = LINE ( 'NONE', #75, #239 ) ;
#512 = VECTOR ( 'NONE', #405, 39.37007874015748143 ) ;
#513 = EDGE_CURVE ( 'NONE', #684, #27, #277, .T. ) ;
#514 = LINE ( 'NONE', #3, #294 ) ;
#515 = CARTESIAN_POINT ( 'NONE',  ( -1.013158586710100062, 0.7368426085164360151, 0.000000000000000000 ) ) ;
#516 = ORIENTED_EDGE ( 'NONE', *, *, #918, .T. ) ;
#517 = FACE_OUTER_BOUND ( 'NONE', #409, .T. ) ;
#518 = VERTEX_POINT ( 'NONE', #781 ) ;
#519 = CARTESIAN_POINT ( 'NONE',  ( 0.6499999999999998002, 1.349999999999999867, 0.000000000000000000 ) ) ;
#520 = ADVANCED_FACE ( 'NONE', ( #870 ), #1126, .F. ) ;
#521 = UNCERTAINTY_MEASURE_WITH_UNIT (LENGTH_MEASURE( 1.000000000000000082E-05 ), #241, 'distance_accuracy_value', 'NONE');
#522 = DIRECTION ( 'NONE',  ( 1.181339672935897708E-16, -1.000000000000000000, 0.000000000000000000 ) ) ;
#523 = CARTESIAN_POINT ( 'NONE',  ( 0.1999999999999997891, 3.000000000000000444, 0.01574803149606299191 ) ) ;
#524 = CARTESIAN_POINT ( 'NONE',  ( 1.500000000000002887, 1.772009509403849890E-16, 0.01574803149606299191 ) ) ;
#525 = EDGE_CURVE ( 'NONE', #727, #74, #82, .T. ) ;
#526 = LINE ( 'NONE', #534, #770 ) ;
#527 = VECTOR ( 'NONE', #562, 39.37007874015748143 ) ;
#528 = EDGE_CURVE ( 'NONE', #131, #485, #790, .T. ) ;
#529 =( GEOMETRIC_REPRESENTATION_CONTEXT ( 3 ) GLOBAL_UNCERTAINTY_ASSIGNED_CONTEXT ( ( #521 ) ) GLOBAL_UNIT_ASSIGNED_CONTEXT ( ( #241, #408, #936 ) ) REPRESENTATION_CONTEXT ( 'NONE', 'WORKASPACE' ) );
#530 = LINE ( 'NONE', #730, #450 ) ;
#531 = ORIENTED_EDGE ( 'NONE', *, *, #50, .T. ) ;
#532 = CARTESIAN_POINT ( 'NONE',  ( -0.000000000000000000, 3.000000000000000444, 0.000000000000000000 ) ) ;
#533 = AXIS2_PLACEMENT_3D ( 'NONE', #792, #717, #710 ) ;
#534 = CARTESIAN_POINT ( 'NONE',  ( 0.000000000000000000, 3.000000000000000444, 0.01574803149606299191 ) ) ;
#535 = EDGE_CURVE ( 'NONE', #778, #900, #6, .T. ) ;
#536 = ORIENTED_EDGE ( 'NONE', *, *, #118, .T. ) ;
#537 = DIRECTION ( 'NONE',  ( -0.000000000000000000, -0.000000000000000000, -1.000000000000000000 ) ) ;
#538 = CARTESIAN_POINT ( 'NONE',  ( 0.6499999999999999112, 5.380912714793243436E-17, 0.01574803149606299191 ) ) ;
#539 = EDGE_LOOP ( 'NONE', ( #102, #107, #99, #759 ) ) ;
#540 = EDGE_CURVE ( 'NONE', #724, #718, #93, .T. ) ;
#541 = CARTESIAN_POINT ( 'NONE',  ( -1.000000000000000222, 1.349999999999999201, 0.01574803149606299191 ) ) ;
#542 = ORIENTED_EDGE ( 'NONE', *, *, #932, .T. ) ;
#543 = LINE ( 'NONE', #311, #709 ) ;
#544 = DIRECTION ( 'NONE',  ( 0.000000000000000000, 0.000000000000000000, 1.000000000000000000 ) ) ;
#545 = ORIENTED_EDGE ( 'NONE', *, *, #1100, .F. ) ;
#546 = VECTOR ( 'NONE', #733, 39.37007874015748143 ) ;
#547 = PRODUCT_DEFINITION_FORMATION_WITH_SPECIFIED_SOURCE ( 'ANY', '', #791, .NOT_KNOWN. ) ;
#548 = FACE_OUTER_BOUND ( 'NONE', #968, .T. ) ;
#549 = ORIENTED_EDGE ( 'NONE', *, *, #977, .F. ) ;
#550 = CARTESIAN_POINT ( 'NONE',  ( -0.000000000000000000, 1.349999999999999867, 0.000000000000000000 ) ) ;
#551 = AXIS2_PLACEMENT_3D ( 'NONE', #442, #867, #875 ) ;
#552 = CARTESIAN_POINT ( 'NONE',  ( -1.000000000000000222, 0.000000000000000000, 0.01574803149606299191 ) ) ;
#553 = AXIS2_PLACEMENT_3D ( 'NONE', #1010, #146, #848 ) ;
#554 = VERTEX_POINT ( 'NONE', #441 ) ;
#555 = CARTESIAN_POINT ( 'NONE',  ( 0.000000000000000000, 1.349999999999999867, 0.01574803149606299191 ) ) ;
#556 = ORIENTED_EDGE ( 'NONE', *, *, #855, .T. ) ;
#557 = DIRECTION ( 'NONE',  ( 0.000000000000000000, 0.000000000000000000, 1.000000000000000000 ) ) ;
#558 = CARTESIAN_POINT ( 'NONE',  ( 0.6499999999999995781, 0.5000000000000000000, 0.01574803149606299191 ) ) ;
#559 = ORIENTED_EDGE ( 'NONE', *, *, #498, .F. ) ;
#560 = DIRECTION ( 'NONE',  ( 0.000000000000000000, 1.000000000000000000, -0.000000000000000000 ) ) ;
#561 = ORIENTED_EDGE ( 'NONE', *, *, #490, .T. ) ;
#562 = DIRECTION ( 'NONE',  ( 1.000000000000000000, 0.000000000000000000, 0.000000000000000000 ) ) ;
#563 = CARTESIAN_POINT ( 'NONE',  ( 0.6499999999999994671, -1.775701195881770352E-16, 0.000000000000000000 ) ) ;
#564 = EDGE_CURVE ( 'NONE', #300, #778, #691, .T. ) ;
#565 = VERTEX_POINT ( 'NONE', #446 ) ;
#566 = EDGE_CURVE ( 'NONE', #732, #996, #163, .T. ) ;
#567 = AXIS2_PLACEMENT_3D ( 'NONE', #721, #828, #715 ) ;
#568 = EDGE_LOOP ( 'NONE', ( #612, #314, #8, #574, #971, #736 ) ) ;
#569 = CARTESIAN_POINT ( 'NONE',  ( 1.500000000000003775, -5.875000000000003553, 0.000000000000000000 ) ) ;
#570 = CARTESIAN_POINT ( 'NONE',  ( -0.4923811242904079233, -5.500000000000030198, 0.01574803149606299191 ) ) ;
#571 = ORIENTED_EDGE ( 'NONE', *, *, #1033, .T. ) ;
#572 = VECTOR ( 'NONE', #94, 39.37007874015748143 ) ;
#573 = EDGE_CURVE ( 'NONE', #336, #846, #514, .T. ) ;
#574 = ORIENTED_EDGE ( 'NONE', *, *, #573, .F. ) ;
#575 = DIRECTION ( 'NONE',  ( 1.000000000000000000, 1.181339672935897708E-16, -0.000000000000000000 ) ) ;
#576 = LINE ( 'NONE', #581, #1023 ) ;
#577 = ORIENTED_EDGE ( 'NONE', *, *, #367, .F. ) ;
#578 = ORIENTED_EDGE ( 'NONE', *, *, #899, .T. ) ;
#579 = LINE ( 'NONE', #315, #140 ) ;
#580 = ADVANCED_FACE ( 'NONE', ( #625 ), #969, .T. ) ;
#581 = CARTESIAN_POINT ( 'NONE',  ( 0.6499999999999999112, 5.380912714793243436E-17, 0.01574803149606299191 ) ) ;
#582 = ORIENTED_EDGE ( 'NONE', *, *, #1106, .F. ) ;
#583 = ORIENTED_EDGE ( 'NONE', *, *, #191, .T. ) ;
#584 = PLANE ( 'NONE',  #122 ) ;
#585 = COLOUR_RGB ( '',0.7921568627450980005, 0.8196078431372548767, 0.9333333333333333481 ) ;
#586 = DIRECTION ( 'NONE',  ( -0.000000000000000000, -0.000000000000000000, -1.000000000000000000 ) ) ;
#587 = DIRECTION ( 'NONE',  ( -0.000000000000000000, -0.000000000000000000, -1.000000000000000000 ) ) ;
#588 = VECTOR ( 'NONE', #833, 39.37007874015748143 ) ;
#589 = VERTEX_POINT ( 'NONE', #357 ) ;
#590 = DIRECTION ( 'NONE',  ( -1.000000000000000000, 0.000000000000000000, 0.000000000000000000 ) ) ;
#591 = LINE ( 'NONE', #49, #493 ) ;
#592 = LINE ( 'NONE', #502, #437 ) ;
#593 = VERTEX_POINT ( 'NONE', #88 ) ;
#594 = DIRECTION ( 'NONE',  ( -1.000000000000000000, 0.000000000000000000, 0.000000000000000000 ) ) ;
#595 = DIRECTION ( 'NONE',  ( -0.000000000000000000, -0.000000000000000000, -1.000000000000000000 ) ) ;
#596 = LINE ( 'NONE', #489, #1039 ) ;
#597 = VERTEX_POINT ( 'NONE', #787 ) ;
#598 = LINE ( 'NONE', #1030, #728 ) ;
#599 = AXIS2_PLACEMENT_3D ( 'NONE', #270, #617, #162 ) ;
#600 = DIRECTION ( 'NONE',  ( 1.000000000000000000, 1.365923996832131609E-16, 0.000000000000000000 ) ) ;
#601 = VECTOR ( 'NONE', #196, 39.37007874015748143 ) ;
#602 = ORIENTED_EDGE ( 'NONE', *, *, #729, .F. ) ;
#603 = AXIS2_PLACEMENT_3D ( 'NONE', #63, #1110, #332 ) ;
#604 = ORIENTED_EDGE ( 'NONE', *, *, #855, .F. ) ;
#605 = PLANE ( 'NONE',  #599 ) ;
#606 = AXIS2_PLACEMENT_3D ( 'NONE', #1053, #181, #1031 ) ;
#607 = ORIENTED_EDGE ( 'NONE', *, *, #876, .F. ) ;
#608 = DIRECTION ( 'NONE',  ( -1.000000000000000000, 0.000000000000000000, 0.000000000000000000 ) ) ;
#609 = DIRECTION ( 'NONE',  ( -1.000000000000000000, -1.050710766793947430E-16, 0.000000000000000000 ) ) ;
#610 = FACE_OUTER_BOUND ( 'NONE', #998, .T. ) ;
#611 = EDGE_CURVE ( 'NONE', #846, #667, #700, .T. ) ;
#612 = ORIENTED_EDGE ( 'NONE', *, *, #540, .F. ) ;
#613 = DIRECTION ( 'NONE',  ( -1.000000000000000000, 0.000000000000000000, 0.000000000000000000 ) ) ;
#614 = EDGE_CURVE ( 'NONE', #879, #684, #959, .T. ) ;
#615 = PRODUCT_DEFINITION_CONTEXT ( 'detailed design', #1043, 'design' ) ;
#616 = DIRECTION ( 'NONE',  ( 1.000000000000000000, 0.000000000000000000, 0.000000000000000000 ) ) ;
#617 = DIRECTION ( 'NONE',  ( 0.000000000000000000, 1.000000000000000000, 0.000000000000000000 ) ) ;
#618 = DIRECTION ( 'NONE',  ( 0.000000000000000000, -0.000000000000000000, 1.000000000000000000 ) ) ;
#619 = EDGE_CURVE ( 'NONE', #805, #336, #353, .T. ) ;
#620 = FACE_BOUND ( 'NONE', #568, .T. ) ;
#621 = EDGE_CURVE ( 'NONE', #333, #764, #799, .T. ) ;
#622 = AXIS2_PLACEMENT_3D ( 'NONE', #129, #478, #144 ) ;
#623 = VECTOR ( 'NONE', #293, 39.37007874015748143 ) ;
#624 = PLANE ( 'NONE',  #159 ) ;
#625 = FACE_OUTER_BOUND ( 'NONE', #463, .T. ) ;
#626 = VECTOR ( 'NONE', #350, 39.37007874015748143 ) ;
#627 = FACE_BOUND ( 'NONE', #451, .T. ) ;
#628 = EDGE_CURVE ( 'NONE', #714, #504, #207, .T. ) ;
#629 = VERTEX_POINT ( 'NONE', #1059 ) ;
#630 = DIRECTION ( 'NONE',  ( 1.000000000000000000, 0.000000000000000000, 0.000000000000000000 ) ) ;
#631 = ORIENTED_EDGE ( 'NONE', *, *, #614, .F. ) ;
#632 = CARTESIAN_POINT ( 'NONE',  ( 0.2999999999999997113, 0.5000000000000000000, 0.01574803149606299191 ) ) ;
#633 = DIRECTION ( 'NONE',  ( -1.000000000000000000, -1.974666524494732798E-16, 0.000000000000000000 ) ) ;
#634 = ORIENTED_EDGE ( 'NONE', *, *, #407, .T. ) ;
#635 = LINE ( 'NONE', #978, #200 ) ;
#636 = EDGE_CURVE ( 'NONE', #764, #216, #543, .T. ) ;
#637 = ORIENTED_EDGE ( 'NONE', *, *, #303, .T. ) ;
#638 = CARTESIAN_POINT ( 'NONE',  ( 0.9999999999999996669, 1.349999999999999867, 0.000000000000000000 ) ) ;
#639 = LINE ( 'NONE', #1000, #263 ) ;
#640 = ORIENTED_EDGE ( 'NONE', *, *, #37, .T. ) ;
#641 = AXIS2_PLACEMENT_3D ( 'NONE', #495, #575, #394 ) ;
#642 = LINE ( 'NONE', #804, #1074 ) ;
#643 = ORIENTED_EDGE ( 'NONE', *, *, #876, .T. ) ;
#644 = CARTESIAN_POINT ( 'NONE',  ( -0.000000000000000000, 1.349999999999999867, 0.000000000000000000 ) ) ;
#645 = CARTESIAN_POINT ( 'NONE',  ( 0.9999999999999996669, 0.9999999999999998890, 0.01574803149606299191 ) ) ;
#646 = ORIENTED_EDGE ( 'NONE', *, *, #453, .T. ) ;
#647 = LINE ( 'NONE', #555, #874 ) ;
#648 = ORIENTED_EDGE ( 'NONE', *, *, #564, .F. ) ;
#649 = CARTESIAN_POINT ( 'NONE',  ( 0.2374999999999997113, 1.000000000000000000, 0.01574803149606299191 ) ) ;
#650 = DIRECTION ( 'NONE',  ( 0.000000000000000000, 0.000000000000000000, 1.000000000000000000 ) ) ;
#651 = EDGE_LOOP ( 'NONE', ( #690, #834, #1029, #640, #561, #383 ) ) ;
#652 = FACE_BOUND ( 'NONE', #154, .T. ) ;
#653 = VERTEX_POINT ( 'NONE', #632 ) ;
#654 = DIRECTION ( 'NONE',  ( -0.000000000000000000, -0.000000000000000000, -1.000000000000000000 ) ) ;
#655 = LINE ( 'NONE', #222, #588 ) ;
#656 = ADVANCED_FACE ( 'NONE', ( #889 ), #459, .F. ) ;
#657 = ORIENTED_EDGE ( 'NONE', *, *, #1012, .F. ) ;
#658 = VECTOR ( 'NONE', #1, 39.37007874015748143 ) ;
#659 = ORIENTED_EDGE ( 'NONE', *, *, #153, .T. ) ;
#660 = FACE_OUTER_BOUND ( 'NONE', #371, .T. ) ;
#661 = LINE ( 'NONE', #106, #90 ) ;
#662 = AXIS2_PLACEMENT_3D ( 'NONE', #679, #949, #158 ) ;
#663 = ORIENTED_EDGE ( 'NONE', *, *, #356, .F. ) ;
#664 = VECTOR ( 'NONE', #880, 39.37007874015748143 ) ;
#665 = ADVANCED_FACE ( 'NONE', ( #471 ), #895, .F. ) ;
#666 = ADVANCED_FACE ( 'NONE', ( #364 ), #31, .F. ) ;
#667 = VERTEX_POINT ( 'NONE', #1085 ) ;
#668 = CARTESIAN_POINT ( 'NONE',  ( -1.296216216216216299, 0.9427027027027021777, 0.01574803149606299191 ) ) ;
#669 = FACE_OUTER_BOUND ( 'NONE', #30, .T. ) ;
#670 = DIRECTION ( 'NONE',  ( -0.5125703686733640296, -0.8586452219386373486, 0.000000000000000000 ) ) ;
#671 = ORIENTED_EDGE ( 'NONE', *, *, #704, .F. ) ;
#672 = PLANE ( 'NONE',  #433 ) ;
#673 = CARTESIAN_POINT ( 'NONE',  ( -1.000000000000000000, -3.350000000000000533, 0.01574803149606299191 ) ) ;
#674 = DIRECTION ( 'NONE',  ( 0.000000000000000000, -1.000000000000000000, 0.000000000000000000 ) ) ;
#675 = EDGE_LOOP ( 'NONE', ( #148, #397, #901, #919 ) ) ;
#676 = DIRECTION ( 'NONE',  ( -0.000000000000000000, -0.000000000000000000, -1.000000000000000000 ) ) ;
#677 = EDGE_CURVE ( 'NONE', #667, #724, #452, .T. ) ;
#678 = LINE ( 'NONE', #416, #845 ) ;
#679 = CARTESIAN_POINT ( 'NONE',  ( 0.000000000000000000, 3.000000000000000444, 0.01574803149606299191 ) ) ;
#680 = ORIENTED_EDGE ( 'NONE', *, *, #573, .T. ) ;
#681 = DIRECTION ( 'NONE',  ( 0.000000000000000000, -0.000000000000000000, -1.000000000000000000 ) ) ;
#682 = DIRECTION ( 'NONE',  ( 1.000000000000000000, 1.365923996832131609E-16, 0.000000000000000000 ) ) ;
#683 = EDGE_LOOP ( 'NONE', ( #448, #313, #549, #52 ) ) ;
#684 = VERTEX_POINT ( 'NONE', #638 ) ;
#685 = DIRECTION ( 'NONE',  ( -1.181339672935897708E-16, 1.000000000000000000, 0.000000000000000000 ) ) ;
#686 = CARTESIAN_POINT ( 'NONE',  ( 0.9999999999999996669, 0.000000000000000000, 0.000000000000000000 ) ) ;
#687 = ORIENTED_EDGE ( 'NONE', *, *, #952, .T. ) ;
#688 = ORIENTED_EDGE ( 'NONE', *, *, #376, .T. ) ;
#689 = LINE ( 'NONE', #954, #487 ) ;
#690 = ORIENTED_EDGE ( 'NONE', *, *, #171, .T. ) ;
#691 = LINE ( 'NONE', #348, #264 ) ;
#692 = VECTOR ( 'NONE', #560, 39.37007874015748143 ) ;
#693 = CARTESIAN_POINT ( 'NONE',  ( -1.000000000000000222, 1.349999999999999201, 0.000000000000000000 ) ) ;
#694 = APPLICATION_CONTEXT ( 'automotive_design' ) ;
#695 = EDGE_CURVE ( 'NONE', #699, #42, #974, .T. ) ;
#696 = AXIS2_PLACEMENT_3D ( 'NONE', #552, #312, #544 ) ;
#697 = SURFACE_STYLE_FILL_AREA ( #347 ) ;
#698 = VECTOR ( 'NONE', #427, 39.37007874015748143 ) ;
#699 = VERTEX_POINT ( 'NONE', #902 ) ;
#700 = LINE ( 'NONE', #268, #854 ) ;
#701 = LINE ( 'NONE', #354, #572 ) ;
#702 = PRODUCT_RELATED_PRODUCT_CATEGORY ( 'part', '', ( #791 ) ) ;
#703 = CARTESIAN_POINT ( 'NONE',  ( 0.9999999999999998890, -1.516480271171051896E-32, 0.01574803149606299191 ) ) ;
#704 = EDGE_CURVE ( 'NONE', #494, #714, #806, .T. ) ;
#705 = CARTESIAN_POINT ( 'NONE',  ( 1.000000000000000000, -3.000000000000000444, 0.01574803149606299191 ) ) ;
#706 = FACE_BOUND ( 'NONE', #242, .T. ) ;
#707 = DIRECTION ( 'NONE',  ( 1.000000000000000000, 1.050710766793947430E-16, 0.000000000000000000 ) ) ;
#708 = FACE_OUTER_BOUND ( 'NONE', #1002, .T. ) ;
#709 = VECTOR ( 'NONE', #993, 39.37007874015748143 ) ;
#710 = DIRECTION ( 'NONE',  ( 1.000000000000000000, 1.974666524494732798E-16, 0.000000000000000000 ) ) ;
#711 = VECTOR ( 'NONE', #457, 39.37007874015748143 ) ;
#712 = EDGE_LOOP ( 'NONE', ( #508, #979, #161, #286 ) ) ;
#713 = CARTESIAN_POINT ( 'NONE',  ( 1.500000000000002665, 3.374999999999996447, 0.01574803149606299191 ) ) ;
#714 = VERTEX_POINT ( 'NONE', #39 ) ;
#715 = DIRECTION ( 'NONE',  ( 0.000000000000000000, -0.000000000000000000, -1.000000000000000000 ) ) ;
#716 = AXIS2_PLACEMENT_3D ( 'NONE', #428, #182, #871 ) ;
#717 = DIRECTION ( 'NONE',  ( 1.974666524494732798E-16, -1.000000000000000000, 0.000000000000000000 ) ) ;
#718 = VERTEX_POINT ( 'NONE', #999 ) ;
#719 = LINE ( 'NONE', #462, #601 ) ;
#720 = ORIENTED_EDGE ( 'NONE', *, *, #303, .F. ) ;
#721 = CARTESIAN_POINT ( 'NONE',  ( 0.000000000000000000, -5.500000000000030198, 0.01574803149606299191 ) ) ;
#722 = DIRECTION ( 'NONE',  ( -0.000000000000000000, -0.000000000000000000, -1.000000000000000000 ) ) ;
#723 = EDGE_LOOP ( 'NONE', ( #235, #813, #403, #946 ) ) ;
#724 = VERTEX_POINT ( 'NONE', #1066 ) ;
#725 = LINE ( 'NONE', #290, #546 ) ;
#726 = DIRECTION ( 'NONE',  ( 1.000000000000000000, 0.000000000000000000, 0.000000000000000000 ) ) ;
#727 = VERTEX_POINT ( 'NONE', #115 ) ;
#728 = VECTOR ( 'NONE', #1042, 39.37007874015748143 ) ;
#729 = EDGE_CURVE ( 'NONE', #429, #718, #725, .T. ) ;
#730 = CARTESIAN_POINT ( 'NONE',  ( 1.500000000000002887, 1.772009509403849890E-16, 0.000000000000000000 ) ) ;
#731 = EDGE_CURVE ( 'NONE', #497, #684, #980, .T. ) ;
#732 = VERTEX_POINT ( 'NONE', #111 ) ;
#733 = DIRECTION ( 'NONE',  ( -0.000000000000000000, -0.000000000000000000, -1.000000000000000000 ) ) ;
#734 = AXIS2_PLACEMENT_3D ( 'NONE', #116, #465, #891 ) ;
#735 = FACE_OUTER_BOUND ( 'NONE', #319, .T. ) ;
#736 = ORIENTED_EDGE ( 'NONE', *, *, #374, .F. ) ;
#737 = VERTEX_POINT ( 'NONE', #569 ) ;
#738 = DIRECTION ( 'NONE',  ( 0.000000000000000000, -1.000000000000000000, 0.000000000000000000 ) ) ;
#739 = DIRECTION ( 'NONE',  ( -0.000000000000000000, -0.000000000000000000, -1.000000000000000000 ) ) ;
#740 = VERTEX_POINT ( 'NONE', #814 ) ;
#741 = DIRECTION ( 'NONE',  ( 0.000000000000000000, 0.000000000000000000, 1.000000000000000000 ) ) ;
#742 = ORIENTED_EDGE ( 'NONE', *, *, #118, .F. ) ;
#743 = DIRECTION ( 'NONE',  ( -1.000000000000000000, 0.000000000000000000, 0.000000000000000000 ) ) ;
#744 = LINE ( 'NONE', #1086, #1056 ) ;
#745 = ADVANCED_FACE ( 'NONE', ( #25 ), #1071, .F. ) ;
#746 = ORIENTED_EDGE ( 'NONE', *, *, #866, .F. ) ;
#747 = STYLED_ITEM ( 'NONE', ( #23 ), #1017 ) ;
#748 = VERTEX_POINT ( 'NONE', #298 ) ;
#749 = CARTESIAN_POINT ( 'NONE',  ( 0.2374999999999997113, 3.000000000000000444, -2.000976324197765610 ) ) ;
#750 = DIRECTION ( 'NONE',  ( -1.000000000000000000, 0.000000000000000000, 0.000000000000000000 ) ) ;
#751 = VECTOR ( 'NONE', #390, 39.37007874015748143 ) ;
#752 = CARTESIAN_POINT ( 'NONE',  ( 0.7372716171580517841, -0.4401160979687098185, 0.000000000000000000 ) ) ;
#753 = VECTOR ( 'NONE', #595, 39.37007874015748143 ) ;
#754 = ORIENTED_EDGE ( 'NONE', *, *, #977, .T. ) ;
#755 = LINE ( 'NONE', #942, #51 ) ;
#756 = DIRECTION ( 'NONE',  ( 3.902639990948943511E-16, 1.000000000000000000, 0.000000000000000000 ) ) ;
#757 = DIRECTION ( 'NONE',  ( -1.000000000000000000, -1.974666524494732798E-16, 0.000000000000000000 ) ) ;
#758 = EDGE_CURVE ( 'NONE', #174, #406, #914, .T. ) ;
#759 = ORIENTED_EDGE ( 'NONE', *, *, #78, .T. ) ;
#760 = LINE ( 'NONE', #320, #273 ) ;
#761 = LINE ( 'NONE', #1109, #753 ) ;
#762 = CARTESIAN_POINT ( 'NONE',  ( 0.9999999999999996669, 0.9999999999999998890, 0.000000000000000000 ) ) ;
#763 = VECTOR ( 'NONE', #104, 39.37007874015748143 ) ;
#764 = VERTEX_POINT ( 'NONE', #986 ) ;
#765 = CARTESIAN_POINT ( 'NONE',  ( 0.6499999999999995781, 0.5000000000000000000, 0.01574803149606299191 ) ) ;
#766 = VECTOR ( 'NONE', #836, 39.37007874015748143 ) ;
#767 = ADVANCED_FACE ( 'NONE', ( #908 ), #121, .T. ) ;
#768 = DIRECTION ( 'NONE',  ( 0.000000000000000000, 1.000000000000000000, 0.000000000000000000 ) ) ;
#769 = ORIENTED_EDGE ( 'NONE', *, *, #1114, .T. ) ;
#770 = VECTOR ( 'NONE', #616, 39.37007874015748143 ) ;
#771 = VERTEX_POINT ( 'NONE', #232 ) ;
#772 = PRODUCT_DEFINITION_SHAPE ( 'NONE', 'NONE',  #1122 ) ;
#773 = CARTESIAN_POINT ( 'NONE',  ( -1.000000000000000222, 0.000000000000000000, 0.000000000000000000 ) ) ;
#774 = EDGE_LOOP ( 'NONE', ( #577, #206, #226, #1013 ) ) ;
#775 = CARTESIAN_POINT ( 'NONE',  ( 0.3834477668897911529, -0.3499999999999999778, 0.01574803149606299191 ) ) ;
#776 = EDGE_CURVE ( 'NONE', #653, #504, #755, .T. ) ;
#777 = PLANE ( 'NONE',  #16 ) ;
#778 = VERTEX_POINT ( 'NONE', #48 ) ;
#779 = CARTESIAN_POINT ( 'NONE',  ( 1.500000000000002665, 3.374999999999996447, 0.000000000000000000 ) ) ;
#780 = ORIENTED_EDGE ( 'NONE', *, *, #444, .T. ) ;
#781 = CARTESIAN_POINT ( 'NONE',  ( -0.9999999999999998890, -3.000000000000000444, 0.01574803149606299191 ) ) ;
#782 = ADVANCED_FACE ( 'NONE', ( #43 ), #243, .T. ) ;
#783 = LINE ( 'NONE', #345, #861 ) ;
#784 = EDGE_CURVE ( 'NONE', #461, #727, #760, .T. ) ;
#785 = DIRECTION ( 'NONE',  ( 1.050710766793947430E-16, -1.000000000000000000, 0.000000000000000000 ) ) ;
#786 = VECTOR ( 'NONE', #958, 39.37007874015748143 ) ;
#787 = CARTESIAN_POINT ( 'NONE',  ( 0.2374999999999997113, 2.456498165242824161, 0.000000000000000000 ) ) ;
#788 = CARTESIAN_POINT ( 'NONE',  ( 0.2374999999999997113, 1.000000000000000000, 0.000000000000000000 ) ) ;
#789 = DIRECTION ( 'NONE',  ( -0.000000000000000000, -0.000000000000000000, -1.000000000000000000 ) ) ;
#790 = LINE ( 'NONE', #956, #204 ) ;
#791 = PRODUCT ( 'hull_number_477_stencil', 'hull_number_477_stencil', '', ( #492 ) ) ;
#792 = CARTESIAN_POINT ( 'NONE',  ( 6.911332835731564917E-17, -0.3500000000000000333, 0.01574803149606299191 ) ) ;
#793 = ADVANCED_FACE ( 'NONE', ( #66 ), #584, .F. ) ;
#794 = DIRECTION ( 'NONE',  ( 0.000000000000000000, -0.000000000000000000, 1.000000000000000000 ) ) ;
#795 = DIRECTION ( 'NONE',  ( 0.000000000000000000, 0.000000000000000000, 1.000000000000000000 ) ) ;
#796 = CARTESIAN_POINT ( 'NONE',  ( -0.5672259383584176140, 1.349999999999999867, 0.000000000000000000 ) ) ;
#797 = ORIENTED_EDGE ( 'NONE', *, *, #784, .T. ) ;
#798 = ORIENTED_EDGE ( 'NONE', *, *, #85, .T. ) ;
#799 = LINE ( 'NONE', #649, #1018 ) ;
#800 = ADVANCED_FACE ( 'NONE', ( #930 ), #329, .F. ) ;
#801 = VECTOR ( 'NONE', #557, 39.37007874015748143 ) ;
#802 = DIRECTION ( 'NONE',  ( 1.000000000000000000, 0.000000000000000000, 0.000000000000000000 ) ) ;
#803 = VERTEX_POINT ( 'NONE', #149 ) ;
#804 = CARTESIAN_POINT ( 'NONE',  ( 0.000000000000000000, 0.9999999999999998890, 0.000000000000000000 ) ) ;
#805 = VERTEX_POINT ( 'NONE', #1009 ) ;
#806 = LINE ( 'NONE', #384, #178 ) ;
#807 = VECTOR ( 'NONE', #948, 39.37007874015748143 ) ;
#808 = PLANE ( 'NONE',  #734 ) ;
#809 = EDGE_CURVE ( 'NONE', #727, #296, #482, .T. ) ;
#810 = VERTEX_POINT ( 'NONE', #54 ) ;
#811 = DIMENSIONAL_EXPONENTS ( 1.000000000000000000, 0.000000000000000000, 0.000000000000000000, 0.000000000000000000, 0.000000000000000000, 0.000000000000000000, 0.000000000000000000 ) ;
#812 = DIRECTION ( 'NONE',  ( -0.000000000000000000, 0.000000000000000000, 1.000000000000000000 ) ) ;
#813 = ORIENTED_EDGE ( 'NONE', *, *, #1041, .F. ) ;
#814 = CARTESIAN_POINT ( 'NONE',  ( 0.1999999999999997891, 3.000000000000000444, 0.000000000000000000 ) ) ;
#815 = DIRECTION ( 'NONE',  ( -2.731847993664264205E-16, -1.000000000000000000, 0.000000000000000000 ) ) ;
#816 = EDGE_CURVE ( 'NONE', #42, #778, #579, .T. ) ;
#817 = ORIENTED_EDGE ( 'NONE', *, *, #37, .F. ) ;
#818 = DIRECTION ( 'NONE',  ( 1.181339672935897708E-16, -1.000000000000000000, 0.000000000000000000 ) ) ;
#819 = ORIENTED_EDGE ( 'NONE', *, *, #351, .F. ) ;
#820 = DIRECTION ( 'NONE',  ( 0.5125703686733477094, 0.8586452219386470075, 0.000000000000000000 ) ) ;
#821 = PLANE ( 'NONE',  #368 ) ;
#822 = EDGE_LOOP ( 'NONE', ( #189, #1028, #199, #282, #73, #754 ) ) ;
#823 = VECTOR ( 'NONE', #1049, 39.37007874015748143 ) ;
#824 = EDGE_CURVE ( 'NONE', #894, #429, #334, .T. ) ;
#825 = CARTESIAN_POINT ( 'NONE',  ( 0.000000000000000000, 0.000000000000000000, 0.01574803149606299191 ) ) ;
#826 = ADVANCED_FACE ( 'NONE', ( #660 ), #1004, .F. ) ;
#827 = ORIENTED_EDGE ( 'NONE', *, *, #396, .F. ) ;
#828 = DIRECTION ( 'NONE',  ( 0.000000000000000000, -1.000000000000000000, 0.000000000000000000 ) ) ;
#829 = LINE ( 'NONE', #563, #420 ) ;
#830 = ORIENTED_EDGE ( 'NONE', *, *, #1101, .F. ) ;
#831 = ORIENTED_EDGE ( 'NONE', *, *, #816, .T. ) ;
#832 = DIRECTION ( 'NONE',  ( 0.000000000000000000, -0.000000000000000000, -1.000000000000000000 ) ) ;
#833 = DIRECTION ( 'NONE',  ( 8.278327253528068342E-17, -1.000000000000000000, 0.000000000000000000 ) ) ;
#834 = ORIENTED_EDGE ( 'NONE', *, *, #1048, .T. ) ;
#835 = ORIENTED_EDGE ( 'NONE', *, *, #13, .F. ) ;
#836 = DIRECTION ( 'NONE',  ( -2.731847993664264205E-16, -1.000000000000000000, 0.000000000000000000 ) ) ;
#837 = CARTESIAN_POINT ( 'NONE',  ( 0.2374999999999997113, 3.000000000000000444, 0.01574803149606299191 ) ) ;
#838 = DIRECTION ( 'NONE',  ( 0.5125703686733641407, 0.8586452219386371265, 0.000000000000000000 ) ) ;
#839 = SHAPE_DEFINITION_REPRESENTATION ( #772, #188 ) ;
#840 = VERTEX_POINT ( 'NONE', #399 ) ;
#841 = CARTESIAN_POINT ( 'NONE',  ( -0.9999999999999986677, 3.902639990948937594E-16, 0.01574803149606299191 ) ) ;
#842 = CARTESIAN_POINT ( 'NONE',  ( -0.9999999999999986677, 3.902639990948937594E-16, 0.000000000000000000 ) ) ;
#843 = AXIS2_PLACEMENT_3D ( 'NONE', #307, #1090, #650 ) ;
#844 = PLANE ( 'NONE',  #662 ) ;
#845 = VECTOR ( 'NONE', #1021, 39.37007874015748143 ) ;
#846 = VERTEX_POINT ( 'NONE', #404 ) ;
#847 = DIRECTION ( 'NONE',  ( 0.000000000000000000, 1.000000000000000000, -0.000000000000000000 ) ) ;
#848 = DIRECTION ( 'NONE',  ( -1.000000000000000000, -1.365923996832131609E-16, 0.000000000000000000 ) ) ;
#849 = PLANE ( 'NONE',  #603 ) ;
#850 = ORIENTED_EDGE ( 'NONE', *, *, #209, .F. ) ;
#851 = CARTESIAN_POINT ( 'NONE',  ( 0.3834477668897987024, -3.350000000000000977, 0.01574803149606299191 ) ) ;
#852 = LINE ( 'NONE', #842, #165 ) ;
#853 = DIRECTION ( 'NONE',  ( -0.000000000000000000, -0.000000000000000000, -1.000000000000000000 ) ) ;
#854 = VECTOR ( 'NONE', #613, 39.37007874015748143 ) ;
#855 = EDGE_CURVE ( 'NONE', #810, #333, #137, .T. ) ;
#856 = EDGE_LOOP ( 'NONE', ( #363, #22, #388, #19 ) ) ;
#857 = LINE ( 'NONE', #773, #981 ) ;
#858 = ORIENTED_EDGE ( 'NONE', *, *, #260, .T. ) ;
#859 = LINE ( 'NONE', #1015, #365 ) ;
#860 = DIRECTION ( 'NONE',  ( -0.5125703686733640296, -0.8586452219386373486, 0.000000000000000000 ) ) ;
#861 = VECTOR ( 'NONE', #7, 39.37007874015748143 ) ;
#862 = ORIENTED_EDGE ( 'NONE', *, *, #95, .F. ) ;
#863 = DIRECTION ( 'NONE',  ( 0.000000000000000000, 0.000000000000000000, -1.000000000000000000 ) ) ;
#864 = EDGE_CURVE ( 'NONE', #554, #60, #486, .T. ) ;
#865 = CARTESIAN_POINT ( 'NONE',  ( -1.499999999999996669, -5.875000000000003553, 0.01574803149606299191 ) ) ;
#866 = EDGE_CURVE ( 'NONE', #296, #653, #155, .T. ) ;
#867 = DIRECTION ( 'NONE',  ( -1.000000000000000000, 0.000000000000000000, 0.000000000000000000 ) ) ;
#868 = ORIENTED_EDGE ( 'NONE', *, *, #758, .F. ) ;
#869 = LINE ( 'NONE', #71, #101 ) ;
#870 = FACE_OUTER_BOUND ( 'NONE', #1032, .T. ) ;
#871 = DIRECTION ( 'NONE',  ( 0.000000000000000000, -0.000000000000000000, -1.000000000000000000 ) ) ;
#872 = SURFACE_SIDE_STYLE ('',( #697 ) ) ;
#873 = DIRECTION ( 'NONE',  ( -0.5125703686733477094, -0.8586452219386470075, 0.000000000000000000 ) ) ;
#874 = VECTOR ( 'NONE', #630, 39.37007874015748143 ) ;
#875 = DIRECTION ( 'NONE',  ( 0.000000000000000000, 0.000000000000000000, 1.000000000000000000 ) ) ;
#876 = EDGE_CURVE ( 'NONE', #740, #810, #61, .T. ) ;
#877 = VECTOR ( 'NONE', #768, 39.37007874015748143 ) ;
#878 = FACE_OUTER_BOUND ( 'NONE', #888, .T. ) ;
#879 = VERTEX_POINT ( 'NONE', #505 ) ;
#880 = DIRECTION ( 'NONE',  ( -0.000000000000000000, -0.000000000000000000, -1.000000000000000000 ) ) ;
#881 = CARTESIAN_POINT ( 'NONE',  ( -1.050710766793947306E-16, 1.000000000000000000, 0.01574803149606299191 ) ) ;
#882 = ADVANCED_FACE ( 'NONE', ( #325 ), #672, .T. ) ;
#883 = ORIENTED_EDGE ( 'NONE', *, *, #614, .T. ) ;
#884 = DIRECTION ( 'NONE',  ( -1.000000000000000000, 0.000000000000000000, 0.000000000000000000 ) ) ;
#885 = PLANE ( 'NONE',  #716 ) ;
#886 = ORIENTED_EDGE ( 'NONE', *, *, #215, .T. ) ;
#887 = CARTESIAN_POINT ( 'NONE',  ( 0.6499999999999995781, 3.000000000000000444, 0.000000000000000000 ) ) ;
#888 = EDGE_LOOP ( 'NONE', ( #643, #556, #927, #1079 ) ) ;
#889 = FACE_OUTER_BOUND ( 'NONE', #229, .T. ) ;
#890 = AXIS2_PLACEMENT_3D ( 'NONE', #464, #284, #820 ) ;
#891 = DIRECTION ( 'NONE',  ( -0.5125703686733641407, -0.8586452219386371265, 0.000000000000000000 ) ) ;
#892 = ORIENTED_EDGE ( 'NONE', *, *, #525, .F. ) ;
#893 = FACE_BOUND ( 'NONE', #651, .T. ) ;
#894 = VERTEX_POINT ( 'NONE', #851 ) ;
#895 = PLANE ( 'NONE',  #469 ) ;
#896 = VECTOR ( 'NONE', #939, 39.37007874015748143 ) ;
#897 = EDGE_CURVE ( 'NONE', #296, #840, #414, .T. ) ;
#898 = DIRECTION ( 'NONE',  ( 0.000000000000000000, -1.000000000000000000, 0.000000000000000000 ) ) ;
#899 = EDGE_CURVE ( 'NONE', #748, #406, #419, .T. ) ;
#900 = VERTEX_POINT ( 'NONE', #254 ) ;
#901 = ORIENTED_EDGE ( 'NONE', *, *, #440, .F. ) ;
#902 = CARTESIAN_POINT ( 'NONE',  ( -1.000000000000000000, -0.3500000000000002554, 0.01574803149606299191 ) ) ;
#903 = CARTESIAN_POINT ( 'NONE',  ( -0.5672259383584176140, 1.349999999999999867, 0.01574803149606299191 ) ) ;
#904 = ADVANCED_FACE ( 'NONE', ( #878 ), #92, .F. ) ;
#905 = ORIENTED_EDGE ( 'NONE', *, *, #64, .T. ) ;
#906 = DIRECTION ( 'NONE',  ( -0.000000000000000000, -0.000000000000000000, -1.000000000000000000 ) ) ;
#907 = ORIENTED_EDGE ( 'NONE', *, *, #367, .T. ) ;
#908 = FACE_OUTER_BOUND ( 'NONE', #774, .T. ) ;
#909 = DIRECTION ( 'NONE',  ( 0.8087360843031887736, -0.5881716976750459569, 0.000000000000000000 ) ) ;
#910 = VECTOR ( 'NONE', #1108, 39.37007874015748143 ) ;
#911 = EDGE_LOOP ( 'NONE', ( #458, #892, #292, #1055 ) ) ;
#912 = ADVANCED_FACE ( 'NONE', ( #266 ), #355, .F. ) ;
#913 = EDGE_LOOP ( 'NONE', ( #369, #929, #169, #1087 ) ) ;
#914 = LINE ( 'NONE', #644, #527 ) ;
#915 = VECTOR ( 'NONE', #722, 39.37007874015748143 ) ;
#916 = LINE ( 'NONE', #194, #933 ) ;
#917 = ORIENTED_EDGE ( 'NONE', *, *, #619, .F. ) ;
#918 = EDGE_CURVE ( 'NONE', #923, #336, #168, .T. ) ;
#919 = ORIENTED_EDGE ( 'NONE', *, *, #729, .T. ) ;
#920 = DIRECTION ( 'NONE',  ( -0.8087360843031887736, 0.5881716976750459569, 0.000000000000000000 ) ) ;
#921 = CARTESIAN_POINT ( 'NONE',  ( 0.6499999999999998002, 1.349999999999999867, 0.01574803149606299191 ) ) ;
#922 = ORIENTED_EDGE ( 'NONE', *, *, #215, .F. ) ;
#923 = VERTEX_POINT ( 'NONE', #1051 ) ;
#924 = CARTESIAN_POINT ( 'NONE',  ( 0.000000000000000000, -3.350000000000000533, 0.01574803149606299191 ) ) ;
#925 = ADVANCED_FACE ( 'NONE', ( #1047 ), #275, .F. ) ;
#926 = DIRECTION ( 'NONE',  ( -0.000000000000000000, -0.000000000000000000, -1.000000000000000000 ) ) ;
#927 = ORIENTED_EDGE ( 'NONE', *, *, #995, .F. ) ;
#928 = AXIS2_PLACEMENT_3D ( 'NONE', #430, #785, #707 ) ;
#929 = ORIENTED_EDGE ( 'NONE', *, *, #935, .F. ) ;
#930 = FACE_OUTER_BOUND ( 'NONE', #675, .T. ) ;
#931 = CARTESIAN_POINT ( 'NONE',  ( 0.2374999999999997113, 1.000000000000000000, 0.000000000000000000 ) ) ;
#932 = EDGE_CURVE ( 'NONE', #565, #1084, #259, .T. ) ;
#933 = VECTOR ( 'NONE', #1067, 39.37007874015748143 ) ;
#934 = CARTESIAN_POINT ( 'NONE',  ( 0.9999999999999998890, -1.516480271171051896E-32, 0.01574803149606299191 ) ) ;
#935 = EDGE_CURVE ( 'NONE', #629, #593, #598, .T. ) ;
#936 =( NAMED_UNIT ( * ) SI_UNIT ( $, .STERADIAN. ) SOLID_ANGLE_UNIT ( ) );
#937 = ORIENTED_EDGE ( 'NONE', *, *, #952, .F. ) ;
#938 = DIRECTION ( 'NONE',  ( 0.000000000000000000, 0.000000000000000000, 1.000000000000000000 ) ) ;
#939 = DIRECTION ( 'NONE',  ( 3.902639990948943511E-16, 1.000000000000000000, 0.000000000000000000 ) ) ;
#940 = CARTESIAN_POINT ( 'NONE',  ( 0.000000000000000000, -3.000000000000000444, 0.01574803149606299191 ) ) ;
#941 = ORIENTED_EDGE ( 'NONE', *, *, #287, .F. ) ;
#942 = CARTESIAN_POINT ( 'NONE',  ( 0.2999999999999997113, 0.000000000000000000, 0.01574803149606299191 ) ) ;
#943 = DIRECTION ( 'NONE',  ( -0.000000000000000000, -0.000000000000000000, -1.000000000000000000 ) ) ;
#944 = LINE ( 'NONE', #58, #1096 ) ;
#945 = ADVANCED_FACE ( 'NONE', ( #610 ), #624, .F. ) ;
#946 = ORIENTED_EDGE ( 'NONE', *, *, #323, .T. ) ;
#947 = CARTESIAN_POINT ( 'NONE',  ( 0.000000000000000000, -3.000000000000000444, 0.000000000000000000 ) ) ;
#948 = DIRECTION ( 'NONE',  ( -1.000000000000000000, 0.000000000000000000, 0.000000000000000000 ) ) ;
#949 = DIRECTION ( 'NONE',  ( 0.000000000000000000, 1.000000000000000000, 0.000000000000000000 ) ) ;
#950 = VECTOR ( 'NONE', #79, 39.37007874015748143 ) ;
#951 = VECTOR ( 'NONE', #586, 39.37007874015748143 ) ;
#952 = EDGE_CURVE ( 'NONE', #65, #900, #352, .T. ) ;
#953 = ORIENTED_EDGE ( 'NONE', *, *, #776, .T. ) ;
#954 = CARTESIAN_POINT ( 'NONE',  ( -0.5672259383584176140, 1.349999999999999867, 0.01574803149606299191 ) ) ;
#955 = ORIENTED_EDGE ( 'NONE', *, *, #776, .F. ) ;
#956 = CARTESIAN_POINT ( 'NONE',  ( 0.2374999999999997113, 1.000000000000000000, -2.000976324197765610 ) ) ;
#957 = LINE ( 'NONE', #359, #108 ) ;
#958 = DIRECTION ( 'NONE',  ( 1.000000000000000000, 0.000000000000000000, 0.000000000000000000 ) ) ;
#959 = LINE ( 'NONE', #436, #963 ) ;
#960 = ADVANCED_FACE ( 'NONE', ( #517 ), #605, .F. ) ;
#961 = LINE ( 'NONE', #881, #1005 ) ;
#962 = DIRECTION ( 'NONE',  ( 0.000000000000000000, -0.000000000000000000, 1.000000000000000000 ) ) ;
#963 = VECTOR ( 'NONE', #186, 39.37007874015748143 ) ;
#964 = LINE ( 'NONE', #532, #56 ) ;
#965 = CARTESIAN_POINT ( 'NONE',  ( -1.000000000000000222, 0.9999999999999998890, 0.000000000000000000 ) ) ;
#966 = CLOSED_SHELL ( 'NONE', ( #882, #580, #28, #826, #800, #2, #656, #666, #793, #904, #105, #960, #520, #139, #745, #257, #160, #912, #91, #281, #434, #330, #665, #782, #767, #945, #252, #306, #925, #69, #1133, #83, #503, #198 ) ) ;
#967 = DIRECTION ( 'NONE',  ( 1.000000000000000000, 1.181339672935897708E-16, -0.000000000000000000 ) ) ;
#968 = EDGE_LOOP ( 'NONE', ( #141, #862, #583, #261 ) ) ;
#969 = PLANE ( 'NONE',  #449 ) ;
#970 = FACE_OUTER_BOUND ( 'NONE', #911, .T. ) ;
#971 = ORIENTED_EDGE ( 'NONE', *, *, #918, .F. ) ;
#972 = LINE ( 'NONE', #1083, #711 ) ;
#973 = EDGE_LOOP ( 'NONE', ( #38, #990, #1118, #907 ) ) ;
#974 = LINE ( 'NONE', #193, #1034 ) ;
#975 = CARTESIAN_POINT ( 'NONE',  ( 0.2374999999999997113, 1.000000000000000000, 0.01574803149606299191 ) ) ;
#976 = ORIENTED_EDGE ( 'NONE', *, *, #897, .T. ) ;
#977 = EDGE_CURVE ( 'NONE', #803, #894, #511, .T. ) ;
#978 = CARTESIAN_POINT ( 'NONE',  ( 0.000000000000000000, 0.5000000000000000000, 0.000000000000000000 ) ) ;
#979 = ORIENTED_EDGE ( 'NONE', *, *, #628, .F. ) ;
#980 = LINE ( 'NONE', #550, #1111 ) ;
#981 = VECTOR ( 'NONE', #425, 39.37007874015748143 ) ;
#982 = DIRECTION ( 'NONE',  ( 0.5125703686733641407, 0.8586452219386371265, 0.000000000000000000 ) ) ;
#983 = EDGE_LOOP ( 'NONE', ( #1099, #328, #1019, #418 ) ) ;
#984 = FACE_BOUND ( 'NONE', #283, .T. ) ;
#985 = EDGE_LOOP ( 'NONE', ( #831, #648, #76, #248 ) ) ;
#986 = CARTESIAN_POINT ( 'NONE',  ( 0.2374999999999997946, 2.456498165242824161, 0.01574803149606294334 ) ) ;
#987 = VECTOR ( 'NONE', #750, 39.37007874015748143 ) ;
#988 = EDGE_CURVE ( 'NONE', #125, #185, #857, .T. ) ;
#989 = LINE ( 'NONE', #570, #280 ) ;
#990 = ORIENTED_EDGE ( 'NONE', *, *, #376, .F. ) ;
#991 = DIRECTION ( 'NONE',  ( -1.000000000000000000, 0.000000000000000000, 0.000000000000000000 ) ) ;
#992 = VERTEX_POINT ( 'NONE', #779 ) ;
#993 = DIRECTION ( 'NONE',  ( -0.5881716976750459569, -0.8087360843031886626, 0.000000000000000000 ) ) ;
#994 = PLANE ( 'NONE',  #696 ) ;
#995 = EDGE_CURVE ( 'NONE', #1007, #333, #869, .T. ) ;
#996 = VERTEX_POINT ( 'NONE', #1125 ) ;
#997 = PLANE ( 'NONE',  #103 ) ;
#998 = EDGE_LOOP ( 'NONE', ( #571, #117, #310, #780 ) ) ;
#999 = CARTESIAN_POINT ( 'NONE',  ( -1.000000000000000000, -3.350000000000000533, 0.000000000000000000 ) ) ;
#1000 = CARTESIAN_POINT ( 'NONE',  ( 0.1999999999999997891, 3.000000000000000444, 0.01574803149606299191 ) ) ;
#1001 = VECTOR ( 'NONE', #863, 39.37007874015748143 ) ;
#1002 = EDGE_LOOP ( 'NONE', ( #466, #322, #391, #360 ) ) ;
#1003 = ORIENTED_EDGE ( 'NONE', *, *, #864, .F. ) ;
#1004 = PLANE ( 'NONE',  #274 ) ;
#1005 = VECTOR ( 'NONE', #609, 39.37007874015748143 ) ;
#1006 = CARTESIAN_POINT ( 'NONE',  ( 0.2374999999999997113, 1.000000000000000000, 0.000000000000000000 ) ) ;
#1007 = VERTEX_POINT ( 'NONE', #523 ) ;
#1008 = VERTEX_POINT ( 'NONE', #343 ) ;
#1009 = CARTESIAN_POINT ( 'NONE',  ( 1.000000000000000000, -3.000000000000000444, 0.01574803149606299191 ) ) ;
#1010 = CARTESIAN_POINT ( 'NONE',  ( 1.865748365121865150E-32, -1.365923996832131609E-16, 0.01574803149606299191 ) ) ;
#1011 = CARTESIAN_POINT ( 'NONE',  ( 0.9999999999999996669, 0.000000000000000000, 0.01574803149606299191 ) ) ;
#1012 = EDGE_CURVE ( 'NONE', #216, #174, #689, .T. ) ;
#1013 = ORIENTED_EDGE ( 'NONE', *, *, #1041, .T. ) ;
#1014 = CARTESIAN_POINT ( 'NONE',  ( 0.2374999999999997113, 1.000000000000000000, -2.000976324197765610 ) ) ;
#1015 = CARTESIAN_POINT ( 'NONE',  ( -0.000000000000000000, -2.500000000000000000, 0.000000000000000000 ) ) ;
#1016 = LINE ( 'NONE', #240, #1116 ) ;
#1017 = MANIFOLD_SOLID_BREP ( 'Boss-Extrude2', #966 ) ;
#1018 = VECTOR ( 'NONE', #389, 39.37007874015748143 ) ;
#1019 = ORIENTED_EDGE ( 'NONE', *, *, #171, .F. ) ;
#1020 = CARTESIAN_POINT ( 'NONE',  ( -0.4923811242904539420, -2.500000000000000000, 0.01574803149606299191 ) ) ;
#1021 = DIRECTION ( 'NONE',  ( -1.000000000000000000, -1.050710766793947430E-16, 0.000000000000000000 ) ) ;
#1022 = EDGE_CURVE ( 'NONE', #992, #737, #530, .T. ) ;
#1023 = VECTOR ( 'NONE', #250, 39.37007874015748143 ) ;
#1024 = CARTESIAN_POINT ( 'NONE',  ( -0.4923811242904539420, -2.500000000000000000, 0.000000000000000000 ) ) ;
#1025 = ORIENTED_EDGE ( 'NONE', *, *, #323, .F. ) ;
#1026 = DIRECTION ( 'NONE',  ( -1.000000000000000000, 0.000000000000000000, 0.000000000000000000 ) ) ;
#1027 = DIRECTION ( 'NONE',  ( -1.000000000000000000, 0.000000000000000000, 0.000000000000000000 ) ) ;
#1028 = ORIENTED_EDGE ( 'NONE', *, *, #440, .T. ) ;
#1029 = ORIENTED_EDGE ( 'NONE', *, *, #476, .T. ) ;
#1030 = CARTESIAN_POINT ( 'NONE',  ( -0.9000000000000001332, -2.500000000000000000, 0.01574803149606299191 ) ) ;
#1031 = DIRECTION ( 'NONE',  ( -0.000000000000000000, 0.000000000000000000, -1.000000000000000000 ) ) ;
#1032 = EDGE_LOOP ( 'NONE', ( #456, #941, #324, #883 ) ) ;
#1033 = EDGE_CURVE ( 'NONE', #15, #589, #362, .T. ) ;
#1034 = VECTOR ( 'NONE', #654, 39.37007874015748143 ) ;
#1035 = ORIENTED_EDGE ( 'NONE', *, *, #356, .T. ) ;
#1036 = CARTESIAN_POINT ( 'NONE',  ( 0.2374999999999997113, 1.349999999999999867, -2.000976324197765610 ) ) ;
#1037 = DIRECTION ( 'NONE',  ( -0.000000000000000000, -0.000000000000000000, -1.000000000000000000 ) ) ;
#1038 = LINE ( 'NONE', #98, #1077 ) ;
#1039 = VECTOR ( 'NONE', #757, 39.37007874015748143 ) ;
#1040 = AXIS2_PLACEMENT_3D ( 'NONE', #1045, #12, #618 ) ;
#1041 = EDGE_CURVE ( 'NONE', #732, #992, #468, .T. ) ;
#1042 = DIRECTION ( 'NONE',  ( -0.000000000000000000, -0.000000000000000000, -1.000000000000000000 ) ) ;
#1043 = APPLICATION_CONTEXT ( 'automotive_design' ) ;
#1044 = ORIENTED_EDGE ( 'NONE', *, *, #619, .T. ) ;
#1045 = CARTESIAN_POINT ( 'NONE',  ( 0.000000000000000000, 1.349999999999999867, 0.01574803149606299191 ) ) ;
#1046 = DIRECTION ( 'NONE',  ( 1.000000000000000000, 8.278327253528068342E-17, -0.000000000000000000 ) ) ;
#1047 = FACE_OUTER_BOUND ( 'NONE', #1092, .T. ) ;
#1048 = EDGE_CURVE ( 'NONE', #699, #300, #1064, .T. ) ;
#1049 = DIRECTION ( 'NONE',  ( 1.181339672935897708E-16, -1.000000000000000000, 0.000000000000000000 ) ) ;
#1050 = LINE ( 'NONE', #975, #626 ) ;
#1051 = CARTESIAN_POINT ( 'NONE',  ( -0.9999999999999998890, -3.000000000000000444, 0.000000000000000000 ) ) ;
#1052 = VECTOR ( 'NONE', #594, 39.37007874015748143 ) ;
#1053 = CARTESIAN_POINT ( 'NONE',  ( 0.9999999999999996669, 0.000000000000000000, 0.01574803149606299191 ) ) ;
#1054 = FACE_OUTER_BOUND ( 'NONE', #499, .T. ) ;
#1055 = ORIENTED_EDGE ( 'NONE', *, *, #287, .T. ) ;
#1056 = VECTOR ( 'NONE', #726, 39.37007874015748143 ) ;
#1057 =( NAMED_UNIT ( * ) PLANE_ANGLE_UNIT ( ) SI_UNIT ( $, .RADIAN. ) );
#1058 = ORIENTED_EDGE ( 'NONE', *, *, #230, .T. ) ;
#1059 = CARTESIAN_POINT ( 'NONE',  ( -0.9000000000000001332, -2.500000000000000000, 0.01574803149606299191 ) ) ;
#1060 = CARTESIAN_POINT ( 'NONE',  ( 0.000000000000000000, 3.374999999999996447, 0.01574803149606299191 ) ) ;
#1061 = EDGE_CURVE ( 'NONE', #216, #748, #647, .T. ) ;
#1062 = ORIENTED_EDGE ( 'NONE', *, *, #611, .T. ) ;
#1063 = EDGE_CURVE ( 'NONE', #653, #494, #972, .T. ) ;
#1064 = LINE ( 'NONE', #36, #692 ) ;
#1065 = ORIENTED_EDGE ( 'NONE', *, *, #636, .T. ) ;
#1066 = CARTESIAN_POINT ( 'NONE',  ( 0.3834477668897987024, -3.350000000000000977, 0.000000000000000000 ) ) ;
#1067 = DIRECTION ( 'NONE',  ( 0.000000000000000000, 0.000000000000000000, 1.000000000000000000 ) ) ;
#1068 = ORIENTED_EDGE ( 'NONE', *, *, #1078, .F. ) ;
#1069 =( CONVERSION_BASED_UNIT ( 'INCH', #381 ) LENGTH_UNIT ( ) NAMED_UNIT ( #279 ) );
#1070 = ORIENTED_EDGE ( 'NONE', *, *, #816, .F. ) ;
#1071 = PLANE ( 'NONE',  #32 ) ;
#1072 = VECTOR ( 'NONE', #789, 39.37007874015748143 ) ;
#1073 = CARTESIAN_POINT ( 'NONE',  ( -1.000000000000000000, -2.731847993664263218E-16, 0.01574803149606299191 ) ) ;
#1074 = VECTOR ( 'NONE', #991, 39.37007874015748143 ) ;
#1075 = ORIENTED_EDGE ( 'NONE', *, *, #237, .T. ) ;
#1076 = CARTESIAN_POINT ( 'NONE',  ( -1.499999999999997335, -1.772009509403843480E-16, 0.000000000000000000 ) ) ;
#1077 = VECTOR ( 'NONE', #633, 39.37007874015748143 ) ;
#1078 = EDGE_CURVE ( 'NONE', #1084, #1007, #288, .T. ) ;
#1079 = ORIENTED_EDGE ( 'NONE', *, *, #224, .T. ) ;
#1080 = CARTESIAN_POINT ( 'NONE',  ( 0.6499999999999994671, -1.775701195881770352E-16, 0.01574803149606299191 ) ) ;
#1081 = CARTESIAN_POINT ( 'NONE',  ( 0.3834477668897987024, -3.350000000000000977, 0.01574803149606299191 ) ) ;
#1082 = ORIENTED_EDGE ( 'NONE', *, *, #44, .T. ) ;
#1083 = CARTESIAN_POINT ( 'NONE',  ( 0.2999999999999997113, 0.5000000000000000000, 0.01574803149606299191 ) ) ;
#1084 = VERTEX_POINT ( 'NONE', #541 ) ;
#1085 = CARTESIAN_POINT ( 'NONE',  ( -0.8999999999999521716, -5.500000000000030198, 0.000000000000000000 ) ) ;
#1086 = CARTESIAN_POINT ( 'NONE',  ( 0.000000000000000000, -5.875000000000003553, 0.01574803149606299191 ) ) ;
#1087 = ORIENTED_EDGE ( 'NONE', *, *, #864, .T. ) ;
#1088 = EDGE_LOOP ( 'NONE', ( #850, #110, #657, #218 ) ) ;
#1089 = DIRECTION ( 'NONE',  ( -0.5881716976750458459, -0.8087360843031886626, 0.000000000000000000 ) ) ;
#1090 = DIRECTION ( 'NONE',  ( -1.000000000000000000, 0.000000000000000000, 0.000000000000000000 ) ) ;
#1091 = VECTOR ( 'NONE', #1103, 39.37007874015748143 ) ;
#1092 = EDGE_LOOP ( 'NONE', ( #688, #1025, #128, #646 ) ) ;
#1093 = VECTOR ( 'NONE', #370, 39.37007874015748143 ) ;
#1094 = VERTEX_POINT ( 'NONE', #887 ) ;
#1095 = CARTESIAN_POINT ( 'NONE',  ( -0.000000000000000000, 3.000000000000000444, 0.000000000000000000 ) ) ;
#1096 = VECTOR ( 'NONE', #860, 39.37007874015748143 ) ;
#1097 = VECTOR ( 'NONE', #600, 39.37007874015748143 ) ;
#1098 = LINE ( 'NONE', #72, #318 ) ;
#1099 = ORIENTED_EDGE ( 'NONE', *, *, #13, .T. ) ;
#1100 = EDGE_CURVE ( 'NONE', #27, #74, #642, .T. ) ;
#1101 = EDGE_CURVE ( 'NONE', #840, #494, #635, .T. ) ;
#1102 = ORIENTED_EDGE ( 'NONE', *, *, #1063, .F. ) ;
#1103 = DIRECTION ( 'NONE',  ( 1.000000000000000000, 0.000000000000000000, 0.000000000000000000 ) ) ;
#1104 = CARTESIAN_POINT ( 'NONE',  ( 0.6499999999999998002, 1.349999999999999867, 0.01574803149606299191 ) ) ;
#1105 = CARTESIAN_POINT ( 'NONE',  ( -1.000000000000000000, -0.3500000000000002554, 0.000000000000000000 ) ) ;
#1106 = EDGE_CURVE ( 'NONE', #803, #667, #119, .T. ) ;
#1107 = ORIENTED_EDGE ( 'NONE', *, *, #153, .F. ) ;
#1108 = DIRECTION ( 'NONE',  ( 0.000000000000000000, 0.000000000000000000, 1.000000000000000000 ) ) ;
#1109 = CARTESIAN_POINT ( 'NONE',  ( -1.499999999999996669, -5.875000000000003553, 0.01574803149606299191 ) ) ;
#1110 = DIRECTION ( 'NONE',  ( -0.8586452219386474516, 0.5125703686733471542, 0.000000000000000000 ) ) ;
#1111 = VECTOR ( 'NONE', #219, 39.37007874015748143 ) ;
#1112 = ORIENTED_EDGE ( 'NONE', *, *, #995, .T. ) ;
#1113 = CARTESIAN_POINT ( 'NONE',  ( 0.6499999999999994671, -1.775701195881770352E-16, 0.01574803149606299191 ) ) ;
#1114 = EDGE_CURVE ( 'NONE', #518, #923, #719, .T. ) ;
#1115 = CARTESIAN_POINT ( 'NONE',  ( 1.000000000000000000, -3.000000000000000444, 0.000000000000000000 ) ) ;
#1116 = VECTOR ( 'NONE', #587, 39.37007874015748143 ) ;
#1117 = ORIENTED_EDGE ( 'NONE', *, *, #866, .T. ) ;
#1118 = ORIENTED_EDGE ( 'NONE', *, *, #1033, .F. ) ;
#1119 = DIRECTION ( 'NONE',  ( 1.000000000000000000, 0.000000000000000000, 0.000000000000000000 ) ) ;
#1120 = ORIENTED_EDGE ( 'NONE', *, *, #528, .F. ) ;
#1121 = LINE ( 'NONE', #339, #896 ) ;
#1122 = PRODUCT_DEFINITION ( 'UNKNOWN', '', #547, #615 ) ;
#1123 = CARTESIAN_POINT ( 'NONE',  ( -0.4923811242904079233, -5.500000000000030198, 0.01574803149606299191 ) ) ;
#1124 = ORIENTED_EDGE ( 'NONE', *, *, #78, .F. ) ;
#1125 = CARTESIAN_POINT ( 'NONE',  ( 1.500000000000003775, -5.875000000000003553, 0.01574803149606299191 ) ) ;
#1126 = PLANE ( 'NONE',  #606 ) ;
#1127 = UNCERTAINTY_MEASURE_WITH_UNIT (LENGTH_MEASURE( 1.000000000000000082E-05 ), #1069, 'distance_accuracy_value', 'NONE');
#1128 = FACE_BOUND ( 'NONE', #231, .T. ) ;
#1129 = FILL_AREA_STYLE_COLOUR ( '', #585 ) ;
#1130 = PLANE ( 'NONE',  #1040 ) ;
#1131 = CARTESIAN_POINT ( 'NONE',  ( -1.013158586710100062, 0.7368426085164360151, 0.01574803149606299191 ) ) ;
#1132 = VECTOR ( 'NONE', #479, 39.37007874015748143 ) ;
#1133 = ADVANCED_FACE ( 'NONE', ( #984, #652, #548, #893, #302 ), #997, .T. ) ;
ENDSEC;
END-ISO-10303-21;
