ISO-10303-21;
HEADER;
FILE_DESCRIPTION (( 'STEP AP214' ),
    '1' );
FILE_NAME ('hull_number.STEP',
    '2026-06-19T02:47:21',
    ( '' ),
    ( '' ),
    'SwSTEP 2.0',
    'SolidWorks 2024',
    '' );
FILE_SCHEMA (( 'AUTOMOTIVE_DESIGN' ));
ENDSEC;

DATA;
#1 = CARTESIAN_POINT ( 'NONE',  ( 0.6500000000000006883, -2.750000000000000000, 0.01574803149606299191 ) ) ;
#2 = AXIS2_PLACEMENT_3D ( 'NONE', #311, #899, #33 ) ;
#3 = ORIENTED_EDGE ( 'NONE', *, *, #191, .F. ) ;
#4 = VECTOR ( 'NONE', #176, 39.37007874015748143 ) ;
#5 = PLANE ( 'NONE',  #549 ) ;
#6 = ADVANCED_BREP_SHAPE_REPRESENTATION ( 'hull_number', ( #962, #943, #543, #85 ), #1185 ) ;
#7 = VERTEX_POINT ( 'NONE', #1037 ) ;
#8 = DIRECTION ( 'NONE',  ( -0.000000000000000000, -0.000000000000000000, -1.000000000000000000 ) ) ;
#9 = EDGE_CURVE ( 'NONE', #927, #185, #736, .T. ) ;
#10 = CARTESIAN_POINT ( 'NONE',  ( 0.000000000000000000, 0.000000000000000000, 0.000000000000000000 ) ) ;
#11 = ADVANCED_FACE ( 'NONE', ( #1123 ), #161, .T. ) ;
#12 = ORIENTED_EDGE ( 'NONE', *, *, #396, .F. ) ;
#13 = FILL_AREA_STYLE ('',( #1198 ) ) ;
#14 = EDGE_LOOP ( 'NONE', ( #24, #557, #698, #575 ) ) ;
#15 = DIRECTION ( 'NONE',  ( 0.000000000000000000, 1.000000000000000000, -0.000000000000000000 ) ) ;
#16 = DIRECTION ( 'NONE',  ( 1.000000000000000000, -0.000000000000000000, -0.000000000000000000 ) ) ;
#17 = VERTEX_POINT ( 'NONE', #445 ) ;
#18 = EDGE_CURVE ( 'NONE', #172, #183, #554, .T. ) ;
#19 = SURFACE_SIDE_STYLE ('',( #684 ) ) ;
#20 = ORIENTED_EDGE ( 'NONE', *, *, #376, .F. ) ;
#21 = DIRECTION ( 'NONE',  ( -2.731847993664264205E-16, -1.000000000000000000, 0.000000000000000000 ) ) ;
#22 = CARTESIAN_POINT ( 'NONE',  ( 0.6500000000000010214, -5.250000000000000000, 0.01574803149606299191 ) ) ;
#23 = ADVANCED_FACE ( 'NONE', ( #54 ), #635, .F. ) ;
#24 = ORIENTED_EDGE ( 'NONE', *, *, #237, .T. ) ;
#25 = VECTOR ( 'NONE', #1112, 39.37007874015748143 ) ;
#26 = ORIENTED_EDGE ( 'NONE', *, *, #749, .F. ) ;
#27 = LINE ( 'NONE', #503, #775 ) ;
#28 = COLOUR_RGB ( '',0.7921568627450980005, 0.8196078431372548767, 0.9333333333333333481 ) ;
#29 = ORIENTED_EDGE ( 'NONE', *, *, #363, .F. ) ;
#30 =( CONVERSION_BASED_UNIT ( 'INCH', #588 ) LENGTH_UNIT ( ) NAMED_UNIT ( #572 ) );
#31 = CARTESIAN_POINT ( 'NONE',  ( 0.2999999999999997113, 2.542435665242824605, 0.01574803149606299191 ) ) ;
#32 = EDGE_CURVE ( 'NONE', #1086, #1262, #453, .T. ) ;
#33 = DIRECTION ( 'NONE',  ( -1.000000000000000000, 1.340393272469985693E-15, 0.000000000000000000 ) ) ;
#34 = CARTESIAN_POINT ( 'NONE',  ( 0.3834477668897912639, -0.3499999999999999778, 0.01574803149606299191 ) ) ;
#35 = DIRECTION ( 'NONE',  ( 0.5125703686733642517, 0.8586452219386371265, -0.000000000000000000 ) ) ;
#36 = VERTEX_POINT ( 'NONE', #1026 ) ;
#37 = LINE ( 'NONE', #423, #1042 ) ;
#38 = EDGE_CURVE ( 'NONE', #104, #631, #747, .T. ) ;
#39 = PLANE ( 'NONE',  #242 ) ;
#40 = EDGE_LOOP ( 'NONE', ( #642, #511, #102 ) ) ;
#41 = LINE ( 'NONE', #255, #451 ) ;
#42 = VECTOR ( 'NONE', #545, 39.37007874015748143 ) ;
#43 = LINE ( 'NONE', #544, #1085 ) ;
#44 = DIRECTION ( 'NONE',  ( -1.000000000000000000, -0.000000000000000000, -0.000000000000000000 ) ) ;
#45 = EDGE_LOOP ( 'NONE', ( #333, #166, #312, #611 ) ) ;
#46 = CARTESIAN_POINT ( 'NONE',  ( 0.2999999999999997113, 1.349999999999999867, 0.000000000000000000 ) ) ;
#47 = LINE ( 'NONE', #1121, #1190 ) ;
#48 = LINE ( 'NONE', #1117, #667 ) ;
#49 = CARTESIAN_POINT ( 'NONE',  ( -1.000000000000000000, -2.731847993664263218E-16, 0.01574803149606299191 ) ) ;
#50 = ADVANCED_FACE ( 'NONE', ( #1221 ), #1046, .F. ) ;
#51 = ORIENTED_EDGE ( 'NONE', *, *, #643, .F. ) ;
#52 = CARTESIAN_POINT ( 'NONE',  ( -1.000000000000000222, 1.349999999999999201, 0.01574803149606299191 ) ) ;
#53 = CARTESIAN_POINT ( 'NONE',  ( -1.000000000000000000, -0.3500000000000002554, 0.01574803149606299191 ) ) ;
#54 = FACE_OUTER_BOUND ( 'NONE', #882, .T. ) ;
#55 = CARTESIAN_POINT ( 'NONE',  ( 0.3000000000000115352, -5.250000000000000000, 0.01574803149606299191 ) ) ;
#56 = ADVANCED_FACE ( 'NONE', ( #70 ), #925, .F. ) ;
#57 = ORIENTED_EDGE ( 'NONE', *, *, #505, .T. ) ;
#58 = LINE ( 'NONE', #1133, #752 ) ;
#59 = CARTESIAN_POINT ( 'NONE',  ( 0.2999999999999997113, 1.000000000000000000, 0.01574803149606299191 ) ) ;
#60 = EDGE_CURVE ( 'NONE', #122, #172, #460, .T. ) ;
#61 = VECTOR ( 'NONE', #1114, 39.37007874015748143 ) ;
#62 = CARTESIAN_POINT ( 'NONE',  ( 0.3000000000000116462, -4.400000000000011013, 0.01574803149606299191 ) ) ;
#63 = FACE_OUTER_BOUND ( 'NONE', #592, .T. ) ;
#64 = VECTOR ( 'NONE', #206, 39.37007874015748143 ) ;
#65 = VECTOR ( 'NONE', #787, 39.37007874015748143 ) ;
#66 = ORIENTED_EDGE ( 'NONE', *, *, #490, .T. ) ;
#67 = LINE ( 'NONE', #345, #612 ) ;
#68 = DIRECTION ( 'NONE',  ( 1.000000000000000000, 0.000000000000000000, 0.000000000000000000 ) ) ;
#69 = EDGE_CURVE ( 'NONE', #1262, #104, #75, .T. ) ;
#70 = FACE_OUTER_BOUND ( 'NONE', #189, .T. ) ;
#71 = CARTESIAN_POINT ( 'NONE',  ( 0.2999999999999997113, 0.5000000000000000000, 0.000000000000000000 ) ) ;
#72 = ORIENTED_EDGE ( 'NONE', *, *, #725, .T. ) ;
#73 = DIRECTION ( 'NONE',  ( -0.000000000000000000, -0.000000000000000000, -1.000000000000000000 ) ) ;
#74 = DIRECTION ( 'NONE',  ( 0.000000000000000000, -0.000000000000000000, -1.000000000000000000 ) ) ;
#75 = LINE ( 'NONE', #34, #893 ) ;
#76 = ADVANCED_FACE ( 'NONE', ( #420, #349 ), #1197, .F. ) ;
#77 = CARTESIAN_POINT ( 'NONE',  ( 0.3834477668897912639, -0.3499999999999999778, 0.01574803149606299191 ) ) ;
#78 = ORIENTED_EDGE ( 'NONE', *, *, #268, .F. ) ;
#79 = FACE_BOUND ( 'NONE', #40, .T. ) ;
#80 = ORIENTED_EDGE ( 'NONE', *, *, #677, .T. ) ;
#81 = DIRECTION ( 'NONE',  ( -0.000000000000000000, -0.000000000000000000, -1.000000000000000000 ) ) ;
#82 = PLANE ( 'NONE',  #1208 ) ;
#83 = COLOUR_RGB ( '',0.7921568627450980005, 0.8196078431372548767, 0.9333333333333333481 ) ;
#84 = APPLICATION_PROTOCOL_DEFINITION ( 'draft international standard', 'automotive_design', 1998, #556 ) ;
#85 = AXIS2_PLACEMENT_3D ( 'NONE', #10, #761, #969 ) ;
#86 = AXIS2_PLACEMENT_3D ( 'NONE', #621, #231, #923 ) ;
#87 = ORIENTED_EDGE ( 'NONE', *, *, #461, .F. ) ;
#88 = CARTESIAN_POINT ( 'NONE',  ( 0.2000000000000080880, -2.750000000000000000, 0.000000000000000000 ) ) ;
#89 = LINE ( 'NONE', #1248, #964 ) ;
#90 = ORIENTED_EDGE ( 'NONE', *, *, #526, .T. ) ;
#91 = PLANE ( 'NONE',  #959 ) ;
#92 = EDGE_CURVE ( 'NONE', #108, #341, #298, .T. ) ;
#93 = ORIENTED_EDGE ( 'NONE', *, *, #974, .F. ) ;
#94 = CARTESIAN_POINT ( 'NONE',  ( 0.2000000000000080880, -2.750000000000000000, 0.01574803149606299191 ) ) ;
#95 = DIRECTION ( 'NONE',  ( 1.000000000000000000, 1.050710766793947430E-16, -0.000000000000000000 ) ) ;
#96 = VERTEX_POINT ( 'NONE', #292 ) ;
#97 = DIRECTION ( 'NONE',  ( 0.000000000000000000, 0.000000000000000000, -1.000000000000000000 ) ) ;
#98 = ADVANCED_FACE ( 'NONE', ( #589 ), #659, .F. ) ;
#99 = ORIENTED_EDGE ( 'NONE', *, *, #133, .F. ) ;
#100 = CARTESIAN_POINT ( 'NONE',  ( -0.4923811242904556074, -2.500000000000000444, 0.01574803149606299191 ) ) ;
#101 = PLANE ( 'NONE',  #1166 ) ;
#102 = ORIENTED_EDGE ( 'NONE', *, *, #510, .T. ) ;
#103 = VECTOR ( 'NONE', #696, 39.37007874015748143 ) ;
#104 = VERTEX_POINT ( 'NONE', #278 ) ;
#105 = VECTOR ( 'NONE', #1134, 39.37007874015748143 ) ;
#106 = EDGE_CURVE ( 'NONE', #183, #447, #968, .T. ) ;
#107 = ORIENTED_EDGE ( 'NONE', *, *, #168, .T. ) ;
#108 = VERTEX_POINT ( 'NONE', #380 ) ;
#109 = LINE ( 'NONE', #309, #708 ) ;
#110 = DIMENSIONAL_EXPONENTS ( 1.000000000000000000, 0.000000000000000000, 0.000000000000000000, 0.000000000000000000, 0.000000000000000000, 0.000000000000000000, 0.000000000000000000 ) ;
#111 = CARTESIAN_POINT ( 'NONE',  ( 0.3000000000000116462, -4.400000000000011013, 0.000000000000000000 ) ) ;
#112 = ADVANCED_FACE ( 'NONE', ( #873 ), #82, .F. ) ;
#113 = PLANE ( 'NONE',  #509 ) ;
#114 = ORIENTED_EDGE ( 'NONE', *, *, #158, .T. ) ;
#115 = CARTESIAN_POINT ( 'NONE',  ( 0.6499999999999995781, 3.000000000000000444, 0.000000000000000000 ) ) ;
#116 = EDGE_LOOP ( 'NONE', ( #750, #970, #986, #965 ) ) ;
#117 = DIRECTION ( 'NONE',  ( 4.370956789862820361E-15, 1.000000000000000000, -0.000000000000000000 ) ) ;
#118 = CARTESIAN_POINT ( 'NONE',  ( 0.9999999999999998890, 0.000000000000000000, 0.01574803149606299191 ) ) ;
#119 = ORIENTED_EDGE ( 'NONE', *, *, #835, .T. ) ;
#120 = CARTESIAN_POINT ( 'NONE',  ( 0.6500000000000031308, -4.750000000000000000, 0.000000000000000000 ) ) ;
#121 = VECTOR ( 'NONE', #351, 39.37007874015748143 ) ;
#122 = VERTEX_POINT ( 'NONE', #682 ) ;
#123 = LINE ( 'NONE', #705, #875 ) ;
#124 = CARTESIAN_POINT ( 'NONE',  ( -0.9999999999999996669, -4.750000000000000000, 0.01574803149606299191 ) ) ;
#125 = VECTOR ( 'NONE', #780, 39.37007874015748143 ) ;
#126 = DIRECTION ( 'NONE',  ( 0.000000000000000000, 0.000000000000000000, 1.000000000000000000 ) ) ;
#127 = LINE ( 'NONE', #426, #1059 ) ;
#128 = ORIENTED_EDGE ( 'NONE', *, *, #1058, .F. ) ;
#129 = EDGE_CURVE ( 'NONE', #1262, #377, #395, .T. ) ;
#130 = LINE ( 'NONE', #520, #476 ) ;
#131 = DIRECTION ( 'NONE',  ( -0.000000000000000000, -0.000000000000000000, -1.000000000000000000 ) ) ;
#132 = ORIENTED_EDGE ( 'NONE', *, *, #277, .F. ) ;
#133 = EDGE_CURVE ( 'NONE', #447, #150, #781, .T. ) ;
#134 = DIRECTION ( 'NONE',  ( 3.902639990948949427E-16, -1.000000000000000000, -0.000000000000000000 ) ) ;
#135 = PLANE ( 'NONE',  #247 ) ;
#136 = DIRECTION ( 'NONE',  ( 0.000000000000000000, 0.000000000000000000, 1.000000000000000000 ) ) ;
#137 = ORIENTED_EDGE ( 'NONE', *, *, #277, .T. ) ;
#138 = DIRECTION ( 'NONE',  ( 1.000000000000000000, 3.902639990948949427E-16, -0.000000000000000000 ) ) ;
#139 = AXIS2_PLACEMENT_3D ( 'NONE', #55, #1038, #837 ) ;
#140 = LINE ( 'NONE', #340, #226 ) ;
#141 = AXIS2_PLACEMENT_3D ( 'NONE', #384, #845, #484 ) ;
#142 = VECTOR ( 'NONE', #297, 39.37007874015748143 ) ;
#143 = EDGE_CURVE ( 'NONE', #1094, #819, #848, .T. ) ;
#144 = DIRECTION ( 'NONE',  ( 0.5881716976750459569, 0.8087360843031886626, 0.000000000000000000 ) ) ;
#145 = DIRECTION ( 'NONE',  ( 1.000000000000000000, -0.000000000000000000, -0.000000000000000000 ) ) ;
#146 = ORIENTED_EDGE ( 'NONE', *, *, #929, .F. ) ;
#147 = FACE_OUTER_BOUND ( 'NONE', #704, .T. ) ;
#148 = DIRECTION ( 'NONE',  ( 0.5125703686733641407, 0.8586452219386371265, 0.000000000000000000 ) ) ;
#149 = CARTESIAN_POINT ( 'NONE',  ( 0.2999999999999997113, 0.5000000000000000000, 0.01574803149606299191 ) ) ;
#150 = VERTEX_POINT ( 'NONE', #322 ) ;
#151 = EDGE_CURVE ( 'NONE', #1182, #275, #1188, .T. ) ;
#152 = LINE ( 'NONE', #334, #912 ) ;
#153 = CARTESIAN_POINT ( 'NONE',  ( 0.6499999999999995781, 3.000000000000000444, 0.01574803149606299191 ) ) ;
#154 = DIRECTION ( 'NONE',  ( 8.591180450942433410E-17, -1.000000000000000000, 0.000000000000000000 ) ) ;
#155 = LINE ( 'NONE', #829, #42 ) ;
#156 = ORIENTED_EDGE ( 'NONE', *, *, #709, .F. ) ;
#157 = CARTESIAN_POINT ( 'NONE',  ( 0.2000000000000080880, -2.750000000000000000, 0.01574803149606299191 ) ) ;
#158 = EDGE_CURVE ( 'NONE', #1113, #858, #498, .T. ) ;
#159 = DIRECTION ( 'NONE',  ( -0.5881716976750459569, -0.8087360843031886626, -0.000000000000000000 ) ) ;
#160 = AXIS2_PLACEMENT_3D ( 'NONE', #826, #579, #971 ) ;
#161 = PLANE ( 'NONE',  #408 ) ;
#162 = LINE ( 'NONE', #728, #449 ) ;
#163 = AXIS2_PLACEMENT_3D ( 'NONE', #1095, #15, #513 ) ;
#164 = VERTEX_POINT ( 'NONE', #898 ) ;
#165 = LINE ( 'NONE', #946, #1062 ) ;
#166 = ORIENTED_EDGE ( 'NONE', *, *, #766, .F. ) ;
#167 = CARTESIAN_POINT ( 'NONE',  ( 0.3000000000000116462, -4.400000000000011013, 0.000000000000000000 ) ) ;
#168 = EDGE_CURVE ( 'NONE', #185, #967, #310, .T. ) ;
#169 = LINE ( 'NONE', #950, #872 ) ;
#170 = ORIENTED_EDGE ( 'NONE', *, *, #198, .F. ) ;
#171 = LINE ( 'NONE', #1246, #1231 ) ;
#172 = VERTEX_POINT ( 'NONE', #880 ) ;
#173 = PLANE ( 'NONE',  #797 ) ;
#174 = CARTESIAN_POINT ( 'NONE',  ( 0.6500000000000031308, -4.750000000000000000, 0.01574803149606299191 ) ) ;
#175 = VERTEX_POINT ( 'NONE', #891 ) ;
#176 = DIRECTION ( 'NONE',  ( 2.731847993664264205E-16, 1.000000000000000000, -0.000000000000000000 ) ) ;
#177 = EDGE_LOOP ( 'NONE', ( #486, #26, #3, #782 ) ) ;
#178 = CARTESIAN_POINT ( 'NONE',  ( 0.2999999999999997113, 1.000000000000000000, 0.01574803149606299191 ) ) ;
#179 = VECTOR ( 'NONE', #817, 39.37007874015748143 ) ;
#180 = AXIS2_PLACEMENT_3D ( 'NONE', #261, #97, #1041 ) ;
#181 = EDGE_CURVE ( 'NONE', #762, #691, #1201, .T. ) ;
#182 = AXIS2_PLACEMENT_3D ( 'NONE', #149, #538, #828 ) ;
#183 = VERTEX_POINT ( 'NONE', #111 ) ;
#184 = DIRECTION ( 'NONE',  ( 0.000000000000000000, -1.000000000000000000, 0.000000000000000000 ) ) ;
#185 = VERTEX_POINT ( 'NONE', #885 ) ;
#186 = SURFACE_STYLE_USAGE ( .BOTH. , #666 ) ;
#187 = SHAPE_DEFINITION_REPRESENTATION ( #402, #6 ) ;
#188 = EDGE_CURVE ( 'NONE', #759, #625, #27, .T. ) ;
#189 = EDGE_LOOP ( 'NONE', ( #398, #1217, #358, #1076 ) ) ;
#190 = FACE_OUTER_BOUND ( 'NONE', #523, .T. ) ;
#191 = EDGE_CURVE ( 'NONE', #778, #838, #700, .T. ) ;
#192 = ORIENTED_EDGE ( 'NONE', *, *, #1097, .F. ) ;
#193 = PLANE ( 'NONE',  #939 ) ;
#194 = ORIENTED_EDGE ( 'NONE', *, *, #679, .F. ) ;
#195 = LINE ( 'NONE', #1087, #1018 ) ;
#196 = ORIENTED_EDGE ( 'NONE', *, *, #650, .F. ) ;
#197 = FACE_OUTER_BOUND ( 'NONE', #116, .T. ) ;
#198 = EDGE_CURVE ( 'NONE', #7, #858, #931, .T. ) ;
#199 = VECTOR ( 'NONE', #812, 39.37007874015748143 ) ;
#200 = ORIENTED_EDGE ( 'NONE', *, *, #60, .F. ) ;
#201 = VECTOR ( 'NONE', #531, 39.37007874015748143 ) ;
#202 = FACE_OUTER_BOUND ( 'NONE', #960, .T. ) ;
#203 = ORIENTED_EDGE ( 'NONE', *, *, #694, .F. ) ;
#204 = CARTESIAN_POINT ( 'NONE',  ( 0.9999999999999996669, 0.9999999999999998890, 0.01574803149606299191 ) ) ;
#205 = EDGE_CURVE ( 'NONE', #1113, #175, #1001, .T. ) ;
#206 = DIRECTION ( 'NONE',  ( 1.000000000000000000, 0.000000000000000000, 0.000000000000000000 ) ) ;
#207 = UNCERTAINTY_MEASURE_WITH_UNIT (LENGTH_MEASURE( 1.000000000000000082E-05 ), #30, 'distance_accuracy_value', 'NONE');
#208 = ORIENTED_EDGE ( 'NONE', *, *, #469, .F. ) ;
#209 = DIRECTION ( 'NONE',  ( -0.000000000000000000, -0.000000000000000000, -1.000000000000000000 ) ) ;
#210 = EDGE_LOOP ( 'NONE', ( #1158, #566, #616, #1074 ) ) ;
#211 = DIRECTION ( 'NONE',  ( -0.000000000000000000, -0.000000000000000000, -1.000000000000000000 ) ) ;
#212 = CARTESIAN_POINT ( 'NONE',  ( 0.3000000000000115352, -4.750000000000000000, 0.01574803149606299191 ) ) ;
#213 = VERTEX_POINT ( 'NONE', #801 ) ;
#214 = ORIENTED_EDGE ( 'NONE', *, *, #129, .T. ) ;
#215 = DIRECTION ( 'NONE',  ( -1.000000000000000000, -0.000000000000000000, -0.000000000000000000 ) ) ;
#216 = DIRECTION ( 'NONE',  ( -1.000000000000000000, 0.000000000000000000, -0.000000000000000000 ) ) ;
#217 = UNCERTAINTY_MEASURE_WITH_UNIT (LENGTH_MEASURE( 1.000000000000000082E-05 ), #1093, 'distance_accuracy_value', 'NONE');
#218 = EDGE_CURVE ( 'NONE', #1034, #96, #399, .T. ) ;
#219 = SURFACE_STYLE_FILL_AREA ( #13 ) ;
#220 = AXIS2_PLACEMENT_3D ( 'NONE', #1253, #184, #574 ) ;
#221 = ORIENTED_EDGE ( 'NONE', *, *, #497, .F. ) ;
#222 = DIRECTION ( 'NONE',  ( -0.000000000000000000, 1.000000000000000000, -0.000000000000000000 ) ) ;
#223 = VECTOR ( 'NONE', #1229, 39.37007874015748143 ) ;
#224 = VECTOR ( 'NONE', #405, 39.37007874015748143 ) ;
#225 = DIRECTION ( 'NONE',  ( 0.000000000000000000, 0.000000000000000000, -1.000000000000000000 ) ) ;
#226 = VECTOR ( 'NONE', #68, 39.37007874015748143 ) ;
#227 = EDGE_CURVE ( 'NONE', #778, #1098, #1195, .T. ) ;
#228 = CARTESIAN_POINT ( 'NONE',  ( -0.9999999999999996669, -4.750000000000000000, 0.01574803149606299191 ) ) ;
#229 = CARTESIAN_POINT ( 'NONE',  ( 0.6500000000000006883, -2.750000000000000000, 0.01574803149606299191 ) ) ;
#230 = EDGE_LOOP ( 'NONE', ( #953, #463, #1060, #655, #119, #400, #685, #855, #1191, #922, #406 ) ) ;
#231 = DIRECTION ( 'NONE',  ( 0.8087360843031867752, -0.5881716976750486214, 0.000000000000000000 ) ) ;
#232 = PLANE ( 'NONE',  #1170 ) ;
#233 = DIRECTION ( 'NONE',  ( -1.000000000000000000, -8.278327253528016573E-17, 0.000000000000000000 ) ) ;
#234 = EDGE_LOOP ( 'NONE', ( #80, #581, #208, #1238 ) ) ;
#235 = LINE ( 'NONE', #443, #529 ) ;
#236 = DIRECTION ( 'NONE',  ( -0.000000000000000000, -0.000000000000000000, -1.000000000000000000 ) ) ;
#237 = EDGE_CURVE ( 'NONE', #769, #967, #329, .T. ) ;
#238 = LINE ( 'NONE', #776, #430 ) ;
#239 = FACE_OUTER_BOUND ( 'NONE', #14, .T. ) ;
#240 = EDGE_LOOP ( 'NONE', ( #620, #813, #390, #518 ) ) ;
#241 = PLANE ( 'NONE',  #160 ) ;
#242 = AXIS2_PLACEMENT_3D ( 'NONE', #331, #914, #619 ) ;
#243 = ADVANCED_FACE ( 'NONE', ( #1102, #1096 ), #232, .T. ) ;
#244 = DIRECTION ( 'NONE',  ( -1.000000000000000000, -0.000000000000000000, -0.000000000000000000 ) ) ;
#245 = VECTOR ( 'NONE', #117, 39.37007874015748143 ) ;
#246 = EDGE_LOOP ( 'NONE', ( #99, #1147, #976, #66 ) ) ;
#247 = AXIS2_PLACEMENT_3D ( 'NONE', #459, #634, #148 ) ;
#248 = ORIENTED_EDGE ( 'NONE', *, *, #903, .F. ) ;
#249 = CARTESIAN_POINT ( 'NONE',  ( 0.3000000000000115352, -3.207564334757151414, 0.01574803149606299191 ) ) ;
#250 = CARTESIAN_POINT ( 'NONE',  ( -0.9000000000000001332, -2.500000000000000000, 0.01574803149606299191 ) ) ;
#251 = ORIENTED_EDGE ( 'NONE', *, *, #332, .F. ) ;
#252 = CARTESIAN_POINT ( 'NONE',  ( 0.6499999999999998002, 0.9999999999999998890, 0.01574803149606299191 ) ) ;
#253 = EDGE_CURVE ( 'NONE', #637, #422, #618, .T. ) ;
#254 = ORIENTED_EDGE ( 'NONE', *, *, #356, .F. ) ;
#255 = CARTESIAN_POINT ( 'NONE',  ( 0.3000000000000115352, -5.250000000000000000, 0.000000000000000000 ) ) ;
#256 = PLANE ( 'NONE',  #431 ) ;
#257 = ORIENTED_EDGE ( 'NONE', *, *, #1136, .T. ) ;
#258 = DIRECTION ( 'NONE',  ( -8.278327253528015340E-17, 1.000000000000000000, -0.000000000000000000 ) ) ;
#259 = EDGE_CURVE ( 'NONE', #504, #122, #130, .T. ) ;
#260 = ORIENTED_EDGE ( 'NONE', *, *, #913, .F. ) ;
#261 = CARTESIAN_POINT ( 'NONE',  ( 0.000000000000000000, 0.000000000000000000, 0.000000000000000000 ) ) ;
#262 = DIRECTION ( 'NONE',  ( 1.000000000000000000, 0.000000000000000000, 0.000000000000000000 ) ) ;
#263 = VECTOR ( 'NONE', #814, 39.37007874015748854 ) ;
#264 = CARTESIAN_POINT ( 'NONE',  ( 0.3000000000000115352, -3.207564334757151414, 0.01574803149606299191 ) ) ;
#265 = VECTOR ( 'NONE', #676, 39.37007874015748854 ) ;
#266 = CARTESIAN_POINT ( 'NONE',  ( 0.6499999999999995781, 0.5000000000000000000, 0.01574803149606299191 ) ) ;
#267 = VECTOR ( 'NONE', #515, 39.37007874015748143 ) ;
#268 = EDGE_CURVE ( 'NONE', #1224, #819, #37, .T. ) ;
#269 = EDGE_LOOP ( 'NONE', ( #584, #271, #87, #846 ) ) ;
#270 = FACE_OUTER_BOUND ( 'NONE', #803, .T. ) ;
#271 = ORIENTED_EDGE ( 'NONE', *, *, #143, .F. ) ;
#272 = DIRECTION ( 'NONE',  ( -0.5881716976750459569, -0.8087360843031886626, 0.000000000000000000 ) ) ;
#273 = EDGE_LOOP ( 'NONE', ( #916, #1178, #12, #1088 ) ) ;
#274 = CARTESIAN_POINT ( 'NONE',  ( 0.9999999999999998890, 0.000000000000000000, 0.01574803149606299191 ) ) ;
#275 = VERTEX_POINT ( 'NONE', #809 ) ;
#276 = DIRECTION ( 'NONE',  ( -1.000000000000000000, 0.000000000000000000, 0.000000000000000000 ) ) ;
#277 = EDGE_CURVE ( 'NONE', #483, #1160, #623, .T. ) ;
#278 = CARTESIAN_POINT ( 'NONE',  ( 0.3834477668897912639, -0.3499999999999999778, 0.000000000000000000 ) ) ;
#279 = EDGE_LOOP ( 'NONE', ( #1183, #194, #200 ) ) ;
#280 = CARTESIAN_POINT ( 'NONE',  ( 0.9999999999999998890, 0.000000000000000000, 0.01574803149606299191 ) ) ;
#281 = EDGE_LOOP ( 'NONE', ( #894, #293, #192, #876 ) ) ;
#282 = SURFACE_STYLE_FILL_AREA ( #378 ) ;
#283 = EDGE_CURVE ( 'NONE', #927, #769, #1012, .T. ) ;
#284 = CARTESIAN_POINT ( 'NONE',  ( 1.000000000000000222, -4.400000000000011013, 0.01574803149606299191 ) ) ;
#285 = VECTOR ( 'NONE', #843, 39.37007874015748143 ) ;
#286 = AXIS2_PLACEMENT_3D ( 'NONE', #174, #577, #491 ) ;
#287 = EDGE_LOOP ( 'NONE', ( #1056, #764, #260, #678 ) ) ;
#288 = DIRECTION ( 'NONE',  ( 0.000000000000000000, 1.000000000000000000, -0.000000000000000000 ) ) ;
#289 = PRESENTATION_LAYER_ASSIGNMENT (  '', '', ( #833 ) ) ;
#290 = EDGE_LOOP ( 'NONE', ( #887, #93, #530, #674 ) ) ;
#291 = DIRECTION ( 'NONE',  ( 1.000000000000000000, -1.340393272469985496E-15, -0.000000000000000000 ) ) ;
#292 = CARTESIAN_POINT ( 'NONE',  ( 0.2999999999999997113, 0.5000000000000000000, 0.000000000000000000 ) ) ;
#293 = ORIENTED_EDGE ( 'NONE', *, *, #772, .F. ) ;
#294 = EDGE_CURVE ( 'NONE', #996, #1256, #1084, .T. ) ;
#295 = LINE ( 'NONE', #888, #425 ) ;
#296 = ORIENTED_EDGE ( 'NONE', *, *, #725, .F. ) ;
#297 = DIRECTION ( 'NONE',  ( 1.000000000000000000, -0.000000000000000000, -0.000000000000000000 ) ) ;
#298 = LINE ( 'NONE', #860, #652 ) ;
#299 = ORIENTED_EDGE ( 'NONE', *, *, #188, .F. ) ;
#300 = EDGE_CURVE ( 'NONE', #637, #936, #1241, .T. ) ;
#301 = ORIENTED_EDGE ( 'NONE', *, *, #1155, .T. ) ;
#302 = DIRECTION ( 'NONE',  ( -0.000000000000000000, -1.000000000000000000, -0.000000000000000000 ) ) ;
#303 = CARTESIAN_POINT ( 'NONE',  ( 0.3000000000000115352, -5.250000000000000000, 0.01574803149606299191 ) ) ;
#304 = AXIS2_PLACEMENT_3D ( 'NONE', #629, #534, #136 ) ;
#305 = ORIENTED_EDGE ( 'NONE', *, *, #191, .T. ) ;
#306 = VECTOR ( 'NONE', #763, 39.37007874015748143 ) ;
#307 = LENGTH_MEASURE_WITH_UNIT ( LENGTH_MEASURE( 0.02539999999999999897 ), #977 );
#308 = ORIENTED_EDGE ( 'NONE', *, *, #434, .F. ) ;
#309 = CARTESIAN_POINT ( 'NONE',  ( 0.6500000000000031308, -4.750000000000000000, 0.01574803149606299191 ) ) ;
#310 = LINE ( 'NONE', #22, #1104 ) ;
#311 = CARTESIAN_POINT ( 'NONE',  ( -0.4923811242904556074, -2.500000000000000444, 0.01574803149606299191 ) ) ;
#312 = ORIENTED_EDGE ( 'NONE', *, *, #521, .F. ) ;
#313 = LENGTH_MEASURE_WITH_UNIT ( LENGTH_MEASURE( 0.02539999999999999897 ), #1081 );
#314 = EDGE_LOOP ( 'NONE', ( #1006, #248, #889, #458 ) ) ;
#315 = FACE_OUTER_BOUND ( 'NONE', #240, .T. ) ;
#316 = CARTESIAN_POINT ( 'NONE',  ( 0.6500000000000010214, -5.250000000000000000, 0.000000000000000000 ) ) ;
#317 = EDGE_CURVE ( 'NONE', #625, #598, #354, .T. ) ;
#318 = CARTESIAN_POINT ( 'NONE',  ( 0.000000000000000000, 0.000000000000000000, 0.01574803149606299191 ) ) ;
#319 = FACE_OUTER_BOUND ( 'NONE', #979, .T. ) ;
#320 = VERTEX_POINT ( 'NONE', #910 ) ;
#321 = CARTESIAN_POINT ( 'NONE',  ( 0.1999999999999997058, 3.000000000000000444, 0.01574803149606299191 ) ) ;
#322 = CARTESIAN_POINT ( 'NONE',  ( -0.5672259383584375980, -4.400000000000011013, 0.000000000000000000 ) ) ;
#323 = ADVANCED_FACE ( 'NONE', ( #1025 ), #735, .F. ) ;
#324 = CARTESIAN_POINT ( 'NONE',  ( -0.4923811242904556074, -2.500000000000000444, 0.000000000000000000 ) ) ;
#325 = VECTOR ( 'NONE', #478, 39.37007874015748143 ) ;
#326 = ORIENTED_EDGE ( 'NONE', *, *, #32, .T. ) ;
#327 = CARTESIAN_POINT ( 'NONE',  ( 0.3000000000000115352, -5.250000000000000000, 0.000000000000000000 ) ) ;
#328 = VECTOR ( 'NONE', #942, 39.37007874015748143 ) ;
#329 = LINE ( 'NONE', #316, #267 ) ;
#330 = VECTOR ( 'NONE', #215, 39.37007874015748143 ) ;
#331 = CARTESIAN_POINT ( 'NONE',  ( 0.000000000000000000, 0.000000000000000000, 0.000000000000000000 ) ) ;
#332 = EDGE_CURVE ( 'NONE', #1256, #1068, #533, .T. ) ;
#333 = ORIENTED_EDGE ( 'NONE', *, *, #332, .T. ) ;
#334 = CARTESIAN_POINT ( 'NONE',  ( -0.9999999999999996669, -4.750000000000000000, 0.01574803149606299191 ) ) ;
#335 = DIRECTION ( 'NONE',  ( -1.000000000000000000, -1.050710766793947430E-16, 0.000000000000000000 ) ) ;
#336 = DIRECTION ( 'NONE',  ( -0.000000000000000000, -0.000000000000000000, -1.000000000000000000 ) ) ;
#337 = ADVANCED_FACE ( 'NONE', ( #720 ), #135, .F. ) ;
#338 = ORIENTED_EDGE ( 'NONE', *, *, #294, .T. ) ;
#339 = DIRECTION ( 'NONE',  ( -0.000000000000000000, -0.000000000000000000, -1.000000000000000000 ) ) ;
#340 = CARTESIAN_POINT ( 'NONE',  ( -0.5672259383584179471, 1.349999999999999867, 0.01574803149606299191 ) ) ;
#341 = VERTEX_POINT ( 'NONE', #746 ) ;
#342 = LINE ( 'NONE', #1131, #285 ) ;
#343 = LINE ( 'NONE', #717, #933 ) ;
#344 = ORIENTED_EDGE ( 'NONE', *, *, #510, .F. ) ;
#345 = CARTESIAN_POINT ( 'NONE',  ( 0.9999999999999998890, 0.000000000000000000, 0.01574803149606299191 ) ) ;
#346 = VECTOR ( 'NONE', #35, 39.37007874015748143 ) ;
#347 = CARTESIAN_POINT ( 'NONE',  ( -1.000000000000000000, -0.3500000000000002554, 0.01574803149606299191 ) ) ;
#348 = AXIS2_PLACEMENT_3D ( 'NONE', #318, #702, #1129 ) ;
#349 = FACE_BOUND ( 'NONE', #559, .T. ) ;
#350 = VECTOR ( 'NONE', #821, 39.37007874015748143 ) ;
#351 = DIRECTION ( 'NONE',  ( -0.000000000000000000, -1.000000000000000000, -0.000000000000000000 ) ) ;
#352 = VERTEX_POINT ( 'NONE', #551 ) ;
#353 = FACE_OUTER_BOUND ( 'NONE', #594, .T. ) ;
#354 = LINE ( 'NONE', #639, #350 ) ;
#355 = DIRECTION ( 'NONE',  ( 0.000000000000000000, -0.000000000000000000, -1.000000000000000000 ) ) ;
#356 = EDGE_CURVE ( 'NONE', #1182, #352, #43, .T. ) ;
#357 = LINE ( 'NONE', #71, #121 ) ;
#358 = ORIENTED_EDGE ( 'NONE', *, *, #835, .F. ) ;
#359 = LINE ( 'NONE', #375, #892 ) ;
#360 = ORIENTED_EDGE ( 'NONE', *, *, #9, .T. ) ;
#361 = CARTESIAN_POINT ( 'NONE',  ( -1.000000000000000222, 0.9999999999999998890, 0.01574803149606299191 ) ) ;
#362 = CARTESIAN_POINT ( 'NONE',  ( 0.6500000000000010214, -5.250000000000000000, 0.01574803149606299191 ) ) ;
#363 = EDGE_CURVE ( 'NONE', #798, #17, #1142, .T. ) ;
#364 = CARTESIAN_POINT ( 'NONE',  ( 0.9999999999999998890, 0.000000000000000000, 0.000000000000000000 ) ) ;
#365 = EDGE_LOOP ( 'NONE', ( #1015, #1141, #1071, #1126 ) ) ;
#366 = CARTESIAN_POINT ( 'NONE',  ( -1.000000000000000222, 0.9999999999999998890, 0.000000000000000000 ) ) ;
#367 = ORIENTED_EDGE ( 'NONE', *, *, #546, .T. ) ;
#368 = DIRECTION ( 'NONE',  ( -0.5881716976750459569, -0.8087360843031886626, -0.000000000000000000 ) ) ;
#369 = VECTOR ( 'NONE', #131, 39.37007874015748143 ) ;
#370 = VERTEX_POINT ( 'NONE', #815 ) ;
#371 = LINE ( 'NONE', #863, #306 ) ;
#372 = ORIENTED_EDGE ( 'NONE', *, *, #1075, .F. ) ;
#373 = LINE ( 'NONE', #1168, #125 ) ;
#374 = ORIENTED_EDGE ( 'NONE', *, *, #716, .F. ) ;
#375 = CARTESIAN_POINT ( 'NONE',  ( 0.3834477668897912639, -0.3499999999999999778, 0.000000000000000000 ) ) ;
#376 = EDGE_CURVE ( 'NONE', #275, #878, #140, .T. ) ;
#377 = VERTEX_POINT ( 'NONE', #250 ) ;
#378 = FILL_AREA_STYLE ('',( #859 ) ) ;
#379 = DIMENSIONAL_EXPONENTS ( 1.000000000000000000, 0.000000000000000000, 0.000000000000000000, 0.000000000000000000, 0.000000000000000000, 0.000000000000000000, 0.000000000000000000 ) ;
#380 = CARTESIAN_POINT ( 'NONE',  ( -1.000000000000000222, 0.9999999999999998890, 0.01574803149606299191 ) ) ;
#381 = EDGE_CURVE ( 'NONE', #512, #7, #47, .T. ) ;
#382 = DIRECTION ( 'NONE',  ( 1.000000000000000000, 1.365923996832131609E-16, 0.000000000000000000 ) ) ;
#383 = ORIENTED_EDGE ( 'NONE', *, *, #605, .F. ) ;
#384 = CARTESIAN_POINT ( 'NONE',  ( -0.5672259383584375980, -4.400000000000011013, 0.01574803149606299191 ) ) ;
#385 = VERTEX_POINT ( 'NONE', #537 ) ;
#386 = CARTESIAN_POINT ( 'NONE',  ( 0.9999999999999996669, 1.349999999999999867, 0.01574803149606299191 ) ) ;
#387 = EDGE_CURVE ( 'NONE', #745, #213, #740, .T. ) ;
#388 = VECTOR ( 'NONE', #994, 39.37007874015748143 ) ;
#389 = VECTOR ( 'NONE', #244, 39.37007874015748143 ) ;
#390 = ORIENTED_EDGE ( 'NONE', *, *, #376, .T. ) ;
#391 = CARTESIAN_POINT ( 'NONE',  ( 0.9999999999999996669, 1.349999999999999867, 0.01574803149606299191 ) ) ;
#392 = VECTOR ( 'NONE', #1259, 39.37007874015748143 ) ;
#393 = ORIENTED_EDGE ( 'NONE', *, *, #806, .T. ) ;
#394 = CARTESIAN_POINT ( 'NONE',  ( 0.3000000000000115352, -3.207564334757151414, 0.01574803149606299191 ) ) ;
#395 = LINE ( 'NONE', #774, #265 ) ;
#396 = EDGE_CURVE ( 'NONE', #1094, #1086, #924, .T. ) ;
#397 = ORIENTED_EDGE ( 'NONE', *, *, #198, .T. ) ;
#398 = ORIENTED_EDGE ( 'NONE', *, *, #1172, .T. ) ;
#399 = LINE ( 'NONE', #805, #591 ) ;
#400 = ORIENTED_EDGE ( 'NONE', *, *, #709, .T. ) ;
#401 = SURFACE_STYLE_USAGE ( .BOTH. , #19 ) ;
#402 = PRODUCT_DEFINITION_SHAPE ( 'NONE', 'NONE',  #1189 ) ;
#403 = ORIENTED_EDGE ( 'NONE', *, *, #69, .T. ) ;
#404 = CARTESIAN_POINT ( 'NONE',  ( -0.9000000000000001332, -2.500000000000000000, 0.000000000000000000 ) ) ;
#405 = DIRECTION ( 'NONE',  ( 0.5125703686733642517, 0.8586452219386371265, -0.000000000000000000 ) ) ;
#406 = ORIENTED_EDGE ( 'NONE', *, *, #363, .T. ) ;
#407 = FILL_AREA_STYLE ('',( #883 ) ) ;
#408 = AXIS2_PLACEMENT_3D ( 'NONE', #264, #822, #154 ) ;
#409 = ORIENTED_EDGE ( 'NONE', *, *, #818, .F. ) ;
#410 = CARTESIAN_POINT ( 'NONE',  ( 0.6500000000000006883, -2.750000000000000000, 0.01574803149606299191 ) ) ;
#411 = VECTOR ( 'NONE', #473, 39.37007874015748143 ) ;
#412 = EDGE_CURVE ( 'NONE', #1086, #320, #930, .T. ) ;
#413 = CARTESIAN_POINT ( 'NONE',  ( -0.9999999999999996669, -4.750000000000000000, 0.000000000000000000 ) ) ;
#414 = ORIENTED_EDGE ( 'NONE', *, *, #561, .F. ) ;
#415 = ORIENTED_EDGE ( 'NONE', *, *, #1155, .F. ) ;
#416 = ADVANCED_FACE ( 'NONE', ( #1128 ), #918, .F. ) ;
#417 = LINE ( 'NONE', #1077, #771 ) ;
#418 = DIRECTION ( 'NONE',  ( -0.000000000000000000, -0.000000000000000000, -1.000000000000000000 ) ) ;
#419 = ADVANCED_FACE ( 'NONE', ( #1236 ), #256, .F. ) ;
#420 = FACE_OUTER_BOUND ( 'NONE', #230, .T. ) ;
#421 = LINE ( 'NONE', #730, #369 ) ;
#422 = VERTEX_POINT ( 'NONE', #627 ) ;
#423 = CARTESIAN_POINT ( 'NONE',  ( -1.000000000000000000, -2.731847993664263218E-16, 0.000000000000000000 ) ) ;
#424 = ADVANCED_FACE ( 'NONE', ( #645 ), #1036, .F. ) ;
#425 = VECTOR ( 'NONE', #500, 39.37007874015748143 ) ;
#426 = CARTESIAN_POINT ( 'NONE',  ( 0.6499999999999995781, 3.000000000000000444, 0.01574803149606299191 ) ) ;
#427 = VECTOR ( 'NONE', #211, 39.37007874015748143 ) ;
#428 = ORIENTED_EDGE ( 'NONE', *, *, #605, .T. ) ;
#429 = DIRECTION ( 'NONE',  ( 0.000000000000000000, 1.000000000000000000, 0.000000000000000000 ) ) ;
#430 = VECTOR ( 'NONE', #482, 39.37007874015748143 ) ;
#431 = AXIS2_PLACEMENT_3D ( 'NONE', #651, #1116, #841 ) ;
#432 = DIRECTION ( 'NONE',  ( -0.000000000000000000, 1.000000000000000000, -0.000000000000000000 ) ) ;
#433 = LINE ( 'NONE', #440, #830 ) ;
#434 = EDGE_CURVE ( 'NONE', #352, #762, #560, .T. ) ;
#435 = LINE ( 'NONE', #807, #179 ) ;
#436 = VERTEX_POINT ( 'NONE', #386 ) ;
#437 = DIRECTION ( 'NONE',  ( -3.902639990948949427E-16, 1.000000000000000000, 0.000000000000000000 ) ) ;
#438 = CARTESIAN_POINT ( 'NONE',  ( 1.000000000000000222, -4.400000000000011013, 0.01574803149606299191 ) ) ;
#439 = UNCERTAINTY_MEASURE_WITH_UNIT (LENGTH_MEASURE( 1.000000000000000082E-05 ), #692, 'distance_accuracy_value', 'NONE');
#440 = CARTESIAN_POINT ( 'NONE',  ( 0.9999999999999996669, 1.349999999999999867, 0.01574803149606299191 ) ) ;
#441 = PLANE ( 'NONE',  #609 ) ;
#442 = ORIENTED_EDGE ( 'NONE', *, *, #974, .T. ) ;
#443 = CARTESIAN_POINT ( 'NONE',  ( 0.9999999999999996669, 0.9999999999999998890, 0.01574803149606299191 ) ) ;
#444 = DIRECTION ( 'NONE',  ( -0.000000000000000000, -1.000000000000000000, -0.000000000000000000 ) ) ;
#445 = CARTESIAN_POINT ( 'NONE',  ( 0.6499999999999995781, 3.000000000000000444, 0.01574803149606299191 ) ) ;
#446 = DIRECTION ( 'NONE',  ( -0.000000000000000000, -1.000000000000000000, -0.000000000000000000 ) ) ;
#447 = VERTEX_POINT ( 'NONE', #489 ) ;
#448 = CARTESIAN_POINT ( 'NONE',  ( -0.9999999999999996669, -4.750000000000000000, 0.01574803149606299191 ) ) ;
#449 = VECTOR ( 'NONE', #555, 39.37007874015748143 ) ;
#450 = DIRECTION ( 'NONE',  ( -0.5881716976750486214, -0.8087360843031865532, -0.000000000000000000 ) ) ;
#451 = VECTOR ( 'NONE', #542, 39.37007874015748143 ) ;
#452 = ADVANCED_FACE ( 'NONE', ( #1072, #582 ), #193, .F. ) ;
#453 = LINE ( 'NONE', #836, #590 ) ;
#454 = DIRECTION ( 'NONE',  ( 0.8087360843031886626, -0.5881716976750459569, 0.000000000000000000 ) ) ;
#455 = ORIENTED_EDGE ( 'NONE', *, *, #687, .T. ) ;
#456 = DIRECTION ( 'NONE',  ( -0.000000000000000000, -0.000000000000000000, -1.000000000000000000 ) ) ;
#457 = ADVANCED_FACE ( 'NONE', ( #567 ), #173, .F. ) ;
#458 = ORIENTED_EDGE ( 'NONE', *, *, #1177, .T. ) ;
#459 = CARTESIAN_POINT ( 'NONE',  ( -0.9000000000000001332, -2.500000000000000000, 0.01574803149606299191 ) ) ;
#460 = LINE ( 'NONE', #949, #223 ) ;
#461 = EDGE_CURVE ( 'NONE', #838, #1094, #373, .T. ) ;
#462 = CARTESIAN_POINT ( 'NONE',  ( 0.6500000000000006883, -2.750000000000000000, 0.000000000000000000 ) ) ;
#463 = ORIENTED_EDGE ( 'NONE', *, *, #521, .T. ) ;
#464 = CARTESIAN_POINT ( 'NONE',  ( 0.6499999999999998002, 1.349999999999999867, 0.01574803149606299191 ) ) ;
#465 = ORIENTED_EDGE ( 'NONE', *, *, #1210, .T. ) ;
#466 = CARTESIAN_POINT ( 'NONE',  ( 0.2000000000000080880, -2.750000000000000000, 0.000000000000000000 ) ) ;
#467 = DIRECTION ( 'NONE',  ( -0.000000000000000000, -0.000000000000000000, -1.000000000000000000 ) ) ;
#468 = DIRECTION ( 'NONE',  ( 1.365923996832131609E-16, -1.000000000000000000, 0.000000000000000000 ) ) ;
#469 = EDGE_CURVE ( 'NONE', #377, #778, #576, .T. ) ;
#470 = EDGE_LOOP ( 'NONE', ( #647, #196, #743, #403 ) ) ;
#471 = DIRECTION ( 'NONE',  ( -0.000000000000000000, -1.000000000000000000, -0.000000000000000000 ) ) ;
#472 = ORIENTED_EDGE ( 'NONE', *, *, #475, .F. ) ;
#473 = DIRECTION ( 'NONE',  ( 1.000000000000000000, -0.000000000000000000, -0.000000000000000000 ) ) ;
#474 = AXIS2_PLACEMENT_3D ( 'NONE', #204, #595, #617 ) ;
#475 = EDGE_CURVE ( 'NONE', #341, #370, #657, .T. ) ;
#476 = VECTOR ( 'NONE', #905, 39.37007874015748143 ) ;
#477 = EDGE_LOOP ( 'NONE', ( #1138, #472, #1082, #442 ) ) ;
#478 = DIRECTION ( 'NONE',  ( -1.000000000000000000, -0.000000000000000000, -0.000000000000000000 ) ) ;
#479 = ORIENTED_EDGE ( 'NONE', *, *, #158, .F. ) ;
#480 = LINE ( 'NONE', #321, #330 ) ;
#481 = CARTESIAN_POINT ( 'NONE',  ( 0.3000000000000115352, -3.207564334757151414, 0.000000000000000000 ) ) ;
#482 = DIRECTION ( 'NONE',  ( 1.000000000000000000, -0.000000000000000000, -0.000000000000000000 ) ) ;
#483 = VERTEX_POINT ( 'NONE', #961 ) ;
#484 = DIRECTION ( 'NONE',  ( 0.5881716976750488435, 0.8087360843031866642, 0.000000000000000000 ) ) ;
#485 = EDGE_CURVE ( 'NONE', #504, #447, #675, .T. ) ;
#486 = ORIENTED_EDGE ( 'NONE', *, *, #1058, .T. ) ;
#487 = CARTESIAN_POINT ( 'NONE',  ( -0.9999999999999996669, -4.750000000000000000, 0.000000000000000000 ) ) ;
#488 = ORIENTED_EDGE ( 'NONE', *, *, #701, .F. ) ;
#489 = CARTESIAN_POINT ( 'NONE',  ( 0.3000000000000115352, -3.207564334757151414, 0.000000000000000000 ) ) ;
#490 = EDGE_CURVE ( 'NONE', #122, #150, #89, .T. ) ;
#491 = DIRECTION ( 'NONE',  ( -4.370956789862821150E-15, -1.000000000000000000, 0.000000000000000000 ) ) ;
#492 = MECHANICAL_DESIGN_GEOMETRIC_PRESENTATION_REPRESENTATION (  '', ( #527 ), #1249 ) ;
#493 = VECTOR ( 'NONE', #1237, 39.37007874015748854 ) ;
#494 = ORIENTED_EDGE ( 'NONE', *, *, #671, .T. ) ;
#495 = EDGE_LOOP ( 'NONE', ( #693, #1010, #1080, #107 ) ) ;
#496 = CARTESIAN_POINT ( 'NONE',  ( 0.1999999999999997058, 3.000000000000000444, 0.01574803149606299191 ) ) ;
#497 = EDGE_CURVE ( 'NONE', #672, #436, #948, .T. ) ;
#498 = LINE ( 'NONE', #124, #388 ) ;
#499 = ORIENTED_EDGE ( 'NONE', *, *, #603, .F. ) ;
#500 = DIRECTION ( 'NONE',  ( -0.000000000000000000, -0.000000000000000000, -1.000000000000000000 ) ) ;
#501 = EDGE_LOOP ( 'NONE', ( #338, #697, #1164, #998 ) ) ;
#502 = CARTESIAN_POINT ( 'NONE',  ( 0.6499999999999995781, 0.5000000000000000000, 0.000000000000000000 ) ) ;
#503 = CARTESIAN_POINT ( 'NONE',  ( 0.6499999999999995781, 0.5000000000000000000, 0.01574803149606299191 ) ) ;
#504 = VERTEX_POINT ( 'NONE', #394 ) ;
#505 = EDGE_CURVE ( 'NONE', #96, #625, #1176, .T. ) ;
#506 = DIRECTION ( 'NONE',  ( -1.000000000000000000, 0.000000000000000000, 0.000000000000000000 ) ) ;
#507 = LINE ( 'NONE', #1194, #731 ) ;
#508 = DIRECTION ( 'NONE',  ( -0.000000000000000000, -0.000000000000000000, -1.000000000000000000 ) ) ;
#509 = AXIS2_PLACEMENT_3D ( 'NONE', #920, #1027, #823 ) ;
#510 = EDGE_CURVE ( 'NONE', #150, #183, #1045, .T. ) ;
#511 = ORIENTED_EDGE ( 'NONE', *, *, #133, .T. ) ;
#512 = VERTEX_POINT ( 'NONE', #466 ) ;
#513 = DIRECTION ( 'NONE',  ( 0.000000000000000000, 0.000000000000000000, 1.000000000000000000 ) ) ;
#514 = AXIS2_PLACEMENT_3D ( 'NONE', #361, #1017, #525 ) ;
#515 = DIRECTION ( 'NONE',  ( 1.000000000000000000, -0.000000000000000000, -0.000000000000000000 ) ) ;
#516 = CARTESIAN_POINT ( 'NONE',  ( -0.9000000000000001332, -2.500000000000000000, 0.000000000000000000 ) ) ;
#517 = LINE ( 'NONE', #1009, #346 ) ;
#518 = ORIENTED_EDGE ( 'NONE', *, *, #818, .T. ) ;
#519 =( NAMED_UNIT ( * ) SI_UNIT ( $, .STERADIAN. ) SOLID_ANGLE_UNIT ( ) );
#520 = CARTESIAN_POINT ( 'NONE',  ( -0.5672259383584375980, -4.400000000000011013, 0.01574803149606299191 ) ) ;
#521 = EDGE_CURVE ( 'NONE', #587, #896, #847, .T. ) ;
#522 = CARTESIAN_POINT ( 'NONE',  ( 1.000000000000000222, -4.750000000000000000, 0.000000000000000000 ) ) ;
#523 = EDGE_LOOP ( 'NONE', ( #535, #146, #802, #808, #383, #665, #884, #1260, #296, #660, #170 ) ) ;
#524 = CARTESIAN_POINT ( 'NONE',  ( -0.9000000000000001332, -2.500000000000000000, 0.01574803149606299191 ) ) ;
#525 = DIRECTION ( 'NONE',  ( 0.000000000000000000, 0.000000000000000000, -1.000000000000000000 ) ) ;
#526 = EDGE_CURVE ( 'NONE', #213, #1173, #853, .T. ) ;
#527 = STYLED_ITEM ( 'NONE', ( #867 ), #943 ) ;
#528 = CARTESIAN_POINT ( 'NONE',  ( -1.000000000000000000, -0.3500000000000002554, 0.01574803149606299191 ) ) ;
#529 = VECTOR ( 'NONE', #339, 39.37007874015748143 ) ;
#530 = ORIENTED_EDGE ( 'NONE', *, *, #1003, .F. ) ;
#531 = DIRECTION ( 'NONE',  ( -0.000000000000000000, -0.000000000000000000, -1.000000000000000000 ) ) ;
#532 = VECTOR ( 'NONE', #272, 39.37007874015748854 ) ;
#533 = LINE ( 'NONE', #724, #1065 ) ;
#534 = DIRECTION ( 'NONE',  ( 0.000000000000000000, 1.000000000000000000, -0.000000000000000000 ) ) ;
#535 = ORIENTED_EDGE ( 'NONE', *, *, #381, .F. ) ;
#536 = LINE ( 'NONE', #157, #201 ) ;
#537 = CARTESIAN_POINT ( 'NONE',  ( 0.3000000000000115352, -4.750000000000000000, 0.000000000000000000 ) ) ;
#538 = DIRECTION ( 'NONE',  ( 1.000000000000000000, 0.000000000000000000, 0.000000000000000000 ) ) ;
#539 = LINE ( 'NONE', #563, #707 ) ;
#540 = ADVANCED_FACE ( 'NONE', ( #1151 ), #760, .T. ) ;
#541 = ORIENTED_EDGE ( 'NONE', *, *, #622, .T. ) ;
#542 = DIRECTION ( 'NONE',  ( -0.000000000000000000, -1.000000000000000000, -0.000000000000000000 ) ) ;
#543 = MANIFOLD_SOLID_BREP ( 'Boss-Extrude1[3]', #963 ) ;
#544 = CARTESIAN_POINT ( 'NONE',  ( 0.2999999999999997113, 2.542435665242824605, 0.01574803149606299191 ) ) ;
#545 = DIRECTION ( 'NONE',  ( 0.000000000000000000, 1.000000000000000000, 0.000000000000000000 ) ) ;
#546 = EDGE_CURVE ( 'NONE', #858, #385, #123, .T. ) ;
#547 = ORIENTED_EDGE ( 'NONE', *, *, #1172, .F. ) ;
#548 = CARTESIAN_POINT ( 'NONE',  ( 0.3834477668897912639, -0.3499999999999999778, 0.01574803149606299191 ) ) ;
#549 = AXIS2_PLACEMENT_3D ( 'NONE', #391, #506, #790 ) ;
#550 = VECTOR ( 'NONE', #471, 39.37007874015748143 ) ;
#551 = CARTESIAN_POINT ( 'NONE',  ( 0.2999999999999997113, 2.542435665242824605, 0.000000000000000000 ) ) ;
#552 = EDGE_CURVE ( 'NONE', #17, #587, #480, .T. ) ;
#553 = VECTOR ( 'NONE', #834, 39.37007874015748143 ) ;
#554 = LINE ( 'NONE', #62, #328 ) ;
#555 = DIRECTION ( 'NONE',  ( -0.000000000000000000, -0.000000000000000000, -1.000000000000000000 ) ) ;
#556 = APPLICATION_CONTEXT ( 'automotive_design' ) ;
#557 = ORIENTED_EDGE ( 'NONE', *, *, #168, .F. ) ;
#558 = CARTESIAN_POINT ( 'NONE',  ( 0.2999999999999997113, 1.349999999999999867, 0.01574803149606299191 ) ) ;
#559 = EDGE_LOOP ( 'NONE', ( #799, #20, #604 ) ) ;
#560 = LINE ( 'NONE', #571, #532 ) ;
#561 = EDGE_CURVE ( 'NONE', #819, #320, #1083, .T. ) ;
#562 = DIRECTION ( 'NONE',  ( 1.000000000000000000, 1.974666524494732798E-16, -0.000000000000000000 ) ) ;
#563 = CARTESIAN_POINT ( 'NONE',  ( -0.9999999999999998890, -4.400000000000000355, 0.01574803149606299191 ) ) ;
#564 = ORIENTED_EDGE ( 'NONE', *, *, #906, .F. ) ;
#565 = LINE ( 'NONE', #952, #550 ) ;
#566 = ORIENTED_EDGE ( 'NONE', *, *, #69, .F. ) ;
#567 = FACE_OUTER_BOUND ( 'NONE', #1153, .T. ) ;
#568 = EDGE_LOOP ( 'NONE', ( #680, #257, #1050 ) ) ;
#569 = DIRECTION ( 'NONE',  ( -0.5125703686733642517, -0.8586452219386371265, 0.000000000000000000 ) ) ;
#570 = ORIENTED_EDGE ( 'NONE', *, *, #1210, .F. ) ;
#571 = CARTESIAN_POINT ( 'NONE',  ( 0.2999999999999997113, 2.542435665242824605, 0.000000000000000000 ) ) ;
#572 = DIMENSIONAL_EXPONENTS ( 1.000000000000000000, 0.000000000000000000, 0.000000000000000000, 0.000000000000000000, 0.000000000000000000, 0.000000000000000000, 0.000000000000000000 ) ;
#573 = ORIENTED_EDGE ( 'NONE', *, *, #300, .T. ) ;
#574 = DIRECTION ( 'NONE',  ( 0.000000000000000000, -0.000000000000000000, -1.000000000000000000 ) ) ;
#575 = ORIENTED_EDGE ( 'NONE', *, *, #283, .T. ) ;
#576 = LINE ( 'NONE', #100, #633 ) ;
#577 = DIRECTION ( 'NONE',  ( -1.000000000000000000, 4.370956789862821150E-15, 0.000000000000000000 ) ) ;
#578 = ORIENTED_EDGE ( 'NONE', *, *, #636, .F. ) ;
#579 = DIRECTION ( 'NONE',  ( -1.000000000000000000, -8.278327253528068342E-17, 0.000000000000000000 ) ) ;
#580 = ADVANCED_FACE ( 'NONE', ( #197 ), #987, .F. ) ;
#581 = ORIENTED_EDGE ( 'NONE', *, *, #227, .F. ) ;
#582 = FACE_BOUND ( 'NONE', #279, .T. ) ;
#583 = PRODUCT_RELATED_PRODUCT_CATEGORY ( 'part', '', ( #788 ) ) ;
#584 = ORIENTED_EDGE ( 'NONE', *, *, #268, .T. ) ;
#585 = PRESENTATION_STYLE_ASSIGNMENT (( #401 ) ) ;
#586 = ADVANCED_FACE ( 'NONE', ( #904 ), #1205, .F. ) ;
#587 = VERTEX_POINT ( 'NONE', #496 ) ;
#588 = LENGTH_MEASURE_WITH_UNIT ( LENGTH_MEASURE( 0.02539999999999999897 ), #865 );
#589 = FACE_OUTER_BOUND ( 'NONE', #495, .T. ) ;
#590 = VECTOR ( 'NONE', #562, 39.37007874015748143 ) ;
#591 = VECTOR ( 'NONE', #596, 39.37007874015748143 ) ;
#592 = EDGE_LOOP ( 'NONE', ( #308, #254, #779, #722 ) ) ;
#593 = SURFACE_STYLE_USAGE ( .BOTH. , #1192 ) ;
#594 = EDGE_LOOP ( 'NONE', ( #1204, #1167, #718, #1212 ) ) ;
#595 = DIRECTION ( 'NONE',  ( 0.000000000000000000, 1.000000000000000000, -0.000000000000000000 ) ) ;
#596 = DIRECTION ( 'NONE',  ( -0.000000000000000000, -0.000000000000000000, -1.000000000000000000 ) ) ;
#597 = ADVANCED_FACE ( 'NONE', ( #315 ), #1200, .T. ) ;
#598 = VERTEX_POINT ( 'NONE', #1180 ) ;
#599 = CARTESIAN_POINT ( 'NONE',  ( 0.000000000000000000, 0.000000000000000000, 0.01574803149606299191 ) ) ;
#600 = ORIENTED_EDGE ( 'NONE', *, *, #205, .F. ) ;
#601 = CARTESIAN_POINT ( 'NONE',  ( 0.6500000000000031308, -4.750000000000000000, 0.000000000000000000 ) ) ;
#602 = CARTESIAN_POINT ( 'NONE',  ( -1.000000000000000000, -2.731847993664263218E-16, 0.01574803149606299191 ) ) ;
#603 = EDGE_CURVE ( 'NONE', #1245, #1173, #686, .T. ) ;
#604 = ORIENTED_EDGE ( 'NONE', *, *, #151, .F. ) ;
#605 = EDGE_CURVE ( 'NONE', #422, #745, #417, .T. ) ;
#606 = ORIENTED_EDGE ( 'NONE', *, *, #1130, .T. ) ;
#607 = DIRECTION ( 'NONE',  ( -1.000000000000000000, 2.731847993664264205E-16, 0.000000000000000000 ) ) ;
#608 = CARTESIAN_POINT ( 'NONE',  ( 1.000000000000000222, -4.750000000000000000, 0.01574803149606299191 ) ) ;
#609 = AXIS2_PLACEMENT_3D ( 'NONE', #229, #233, #624 ) ;
#610 = VECTOR ( 'NONE', #1029, 39.37007874015748143 ) ;
#611 = ORIENTED_EDGE ( 'NONE', *, *, #955, .T. ) ;
#612 = VECTOR ( 'NONE', #456, 39.37007874015748143 ) ;
#613 = DIRECTION ( 'NONE',  ( -1.000000000000000000, 0.000000000000000000, -0.000000000000000000 ) ) ;
#614 = VECTOR ( 'NONE', #1090, 39.37007874015748143 ) ;
#615 = ADVANCED_FACE ( 'NONE', ( #800 ), #993, .F. ) ;
#616 = ORIENTED_EDGE ( 'NONE', *, *, #32, .F. ) ;
#617 = DIRECTION ( 'NONE',  ( 0.000000000000000000, 0.000000000000000000, 1.000000000000000000 ) ) ;
#618 = LINE ( 'NONE', #608, #1105 ) ;
#619 = DIRECTION ( 'NONE',  ( -1.000000000000000000, 0.000000000000000000, -0.000000000000000000 ) ) ;
#620 = ORIENTED_EDGE ( 'NONE', *, *, #181, .F. ) ;
#621 = CARTESIAN_POINT ( 'NONE',  ( -0.9999999999999998890, -4.400000000000000355, 0.01574803149606299191 ) ) ;
#622 = EDGE_CURVE ( 'NONE', #185, #1054, #109, .T. ) ;
#623 = LINE ( 'NONE', #988, #854 ) ;
#624 = DIRECTION ( 'NONE',  ( 8.278327253528016573E-17, -1.000000000000000000, 0.000000000000000000 ) ) ;
#625 = VERTEX_POINT ( 'NONE', #502 ) ;
#626 = CARTESIAN_POINT ( 'NONE',  ( -0.4923811242904556074, -2.500000000000000444, 0.000000000000000000 ) ) ;
#627 = CARTESIAN_POINT ( 'NONE',  ( 1.000000000000000222, -4.750000000000000000, 0.000000000000000000 ) ) ;
#628 = PLANE ( 'NONE',  #1228 ) ;
#629 = CARTESIAN_POINT ( 'NONE',  ( 0.6500000000000010214, -5.250000000000000000, 0.01574803149606299191 ) ) ;
#630 = AXIS2_PLACEMENT_3D ( 'NONE', #448, #138, #437 ) ;
#631 = VERTEX_POINT ( 'NONE', #404 ) ;
#632 = CARTESIAN_POINT ( 'NONE',  ( 0.6499999999999995781, 0.5000000000000000000, 0.01574803149606299191 ) ) ;
#633 = VECTOR ( 'NONE', #291, 39.37007874015748143 ) ;
#634 = DIRECTION ( 'NONE',  ( 0.8586452219386372375, -0.5125703686733642517, 0.000000000000000000 ) ) ;
#635 = PLANE ( 'NONE',  #1146 ) ;
#636 = EDGE_CURVE ( 'NONE', #1031, #213, #1184, .T. ) ;
#637 = VERTEX_POINT ( 'NONE', #804 ) ;
#638 = DIRECTION ( 'NONE',  ( -1.974666524494732798E-16, 1.000000000000000000, 0.000000000000000000 ) ) ;
#639 = CARTESIAN_POINT ( 'NONE',  ( 0.6499999999999998002, 0.9999999999999998890, 0.000000000000000000 ) ) ;
#640 = EDGE_CURVE ( 'NONE', #967, #951, #890, .T. ) ;
#641 = DIRECTION ( 'NONE',  ( -0.000000000000000000, -0.000000000000000000, -1.000000000000000000 ) ) ;
#642 = ORIENTED_EDGE ( 'NONE', *, *, #106, .T. ) ;
#643 = EDGE_CURVE ( 'NONE', #1245, #164, #507, .T. ) ;
#644 = PLANE ( 'NONE',  #86 ) ;
#645 = FACE_OUTER_BOUND ( 'NONE', #290, .T. ) ;
#646 = CARTESIAN_POINT ( 'NONE',  ( 0.6500000000000006883, -2.750000000000000000, 0.01574803149606299191 ) ) ;
#647 = ORIENTED_EDGE ( 'NONE', *, *, #38, .T. ) ;
#648 = LINE ( 'NONE', #1165, #934 ) ;
#649 = STYLED_ITEM ( 'NONE', ( #585 ), #962 ) ;
#650 = EDGE_CURVE ( 'NONE', #377, #631, #739, .T. ) ;
#651 = CARTESIAN_POINT ( 'NONE',  ( -1.000000000000000222, 1.349999999999999201, 0.01574803149606299191 ) ) ;
#652 = VECTOR ( 'NONE', #95, 39.37007874015748143 ) ;
#653 = DIRECTION ( 'NONE',  ( 0.000000000000000000, 1.000000000000000000, -0.000000000000000000 ) ) ;
#654 = DIRECTION ( 'NONE',  ( 0.000000000000000000, 1.000000000000000000, -0.000000000000000000 ) ) ;
#655 = ORIENTED_EDGE ( 'NONE', *, *, #92, .T. ) ;
#656 = CARTESIAN_POINT ( 'NONE',  ( 0.2999999999999997113, 0.5000000000000000000, 0.01574803149606299191 ) ) ;
#657 = LINE ( 'NONE', #178, #1254 ) ;
#658 = ADVANCED_FACE ( 'NONE', ( #1234 ), #733, .F. ) ;
#659 = PLANE ( 'NONE',  #286 ) ;
#660 = ORIENTED_EDGE ( 'NONE', *, *, #546, .F. ) ;
#661 = CARTESIAN_POINT ( 'NONE',  ( -1.000000000000000222, 1.349999999999999201, 0.01574803149606299191 ) ) ;
#662 = DIRECTION ( 'NONE',  ( 0.000000000000000000, 0.000000000000000000, 1.000000000000000000 ) ) ;
#663 = ORIENTED_EDGE ( 'NONE', *, *, #716, .T. ) ;
#664 = LINE ( 'NONE', #88, #325 ) ;
#665 = ORIENTED_EDGE ( 'NONE', *, *, #1069, .F. ) ;
#666 = SURFACE_SIDE_STYLE ('',( #282 ) ) ;
#667 = VECTOR ( 'NONE', #446, 39.37007874015748143 ) ;
#668 = DIRECTION ( 'NONE',  ( -1.000000000000000000, 0.000000000000000000, 0.000000000000000000 ) ) ;
#669 = CARTESIAN_POINT ( 'NONE',  ( -1.000000000000000000, -2.731847993664263218E-16, 0.01574803149606299191 ) ) ;
#670 = VECTOR ( 'NONE', #368, 39.37007874015748143 ) ;
#671 = EDGE_CURVE ( 'NONE', #164, #1109, #820, .T. ) ;
#672 = VERTEX_POINT ( 'NONE', #1024 ) ;
#673 = DIRECTION ( 'NONE',  ( 0.000000000000000000, 0.000000000000000000, 1.000000000000000000 ) ) ;
#674 = ORIENTED_EDGE ( 'NONE', *, *, #766, .T. ) ;
#675 = LINE ( 'NONE', #869, #690 ) ;
#676 = DIRECTION ( 'NONE',  ( -0.5125703686733641407, -0.8586452219386371265, -0.000000000000000000 ) ) ;
#677 = EDGE_CURVE ( 'NONE', #631, #1098, #1213, .T. ) ;
#678 = ORIENTED_EDGE ( 'NONE', *, *, #188, .T. ) ;
#679 = EDGE_CURVE ( 'NONE', #172, #504, #1035, .T. ) ;
#680 = ORIENTED_EDGE ( 'NONE', *, *, #181, .T. ) ;
#681 = CARTESIAN_POINT ( 'NONE',  ( -0.5672259383584179471, 1.349999999999999867, 0.01574803149606299191 ) ) ;
#682 = CARTESIAN_POINT ( 'NONE',  ( -0.5672259383584375980, -4.400000000000011013, 0.01574803149606299191 ) ) ;
#683 = ORIENTED_EDGE ( 'NONE', *, *, #469, .T. ) ;
#684 = SURFACE_STYLE_FILL_AREA ( #407 ) ;
#685 = ORIENTED_EDGE ( 'NONE', *, *, #913, .T. ) ;
#686 = LINE ( 'NONE', #410, #1250 ) ;
#687 = EDGE_CURVE ( 'NONE', #878, #1182, #58, .T. ) ;
#688 = VECTOR ( 'NONE', #258, 39.37007874015748143 ) ;
#689 = DIRECTION ( 'NONE',  ( -0.000000000000000000, -0.000000000000000000, -1.000000000000000000 ) ) ;
#690 = VECTOR ( 'NONE', #81, 39.37007874015748143 ) ;
#691 = VERTEX_POINT ( 'NONE', #46 ) ;
#692 =( CONVERSION_BASED_UNIT ( 'INCH', #307 ) LENGTH_UNIT ( ) NAMED_UNIT ( #110 ) );
#693 = ORIENTED_EDGE ( 'NONE', *, *, #640, .T. ) ;
#694 = EDGE_CURVE ( 'NONE', #164, #512, #536, .T. ) ;
#695 =( NAMED_UNIT ( * ) PLANE_ANGLE_UNIT ( ) SI_UNIT ( $, .RADIAN. ) );
#696 = DIRECTION ( 'NONE',  ( 3.902639990948949427E-16, -1.000000000000000000, -0.000000000000000000 ) ) ;
#697 = ORIENTED_EDGE ( 'NONE', *, *, #955, .F. ) ;
#698 = ORIENTED_EDGE ( 'NONE', *, *, #9, .F. ) ;
#699 = DIRECTION ( 'NONE',  ( -1.000000000000000000, -0.000000000000000000, -0.000000000000000000 ) ) ;
#700 = LINE ( 'NONE', #118, #224 ) ;
#701 = EDGE_CURVE ( 'NONE', #1160, #36, #937, .T. ) ;
#702 = DIRECTION ( 'NONE',  ( 0.000000000000000000, 0.000000000000000000, -1.000000000000000000 ) ) ;
#703 = CARTESIAN_POINT ( 'NONE',  ( 0.6500000000000010214, -5.250000000000000000, 0.000000000000000000 ) ) ;
#704 = EDGE_LOOP ( 'NONE', ( #397, #479, #374, #606 ) ) ;
#705 = CARTESIAN_POINT ( 'NONE',  ( 0.3000000000000115352, -4.750000000000000000, 0.000000000000000000 ) ) ;
#706 = CARTESIAN_POINT ( 'NONE',  ( -0.4923811242904556074, -2.500000000000000444, 0.01574803149606299191 ) ) ;
#707 = VECTOR ( 'NONE', #816, 39.37007874015748143 ) ;
#708 = VECTOR ( 'NONE', #1007, 39.37007874015748143 ) ;
#709 = EDGE_CURVE ( 'NONE', #1034, #759, #1016, .T. ) ;
#710 = FACE_OUTER_BOUND ( 'NONE', #234, .T. ) ;
#711 = AXIS2_PLACEMENT_3D ( 'NONE', #1156, #276, #662 ) ;
#712 = ORIENTED_EDGE ( 'NONE', *, *, #1075, .T. ) ;
#713 = CARTESIAN_POINT ( 'NONE',  ( -0.9999999999999998890, -4.400000000000000355, 0.01574803149606299191 ) ) ;
#714 =( GEOMETRIC_REPRESENTATION_CONTEXT ( 3 ) GLOBAL_UNCERTAINTY_ASSIGNED_CONTEXT ( ( #207 ) ) GLOBAL_UNIT_ASSIGNED_CONTEXT ( ( #30, #695, #519 ) ) REPRESENTATION_CONTEXT ( 'NONE', 'WORKASPACE' ) );
#715 = CARTESIAN_POINT ( 'NONE',  ( 0.000000000000000000, 0.000000000000000000, 0.000000000000000000 ) ) ;
#716 = EDGE_CURVE ( 'NONE', #1109, #1113, #152, .T. ) ;
#717 = CARTESIAN_POINT ( 'NONE',  ( 0.6499999999999998002, 1.349999999999999867, 0.01574803149606299191 ) ) ;
#718 = ORIENTED_EDGE ( 'NONE', *, *, #671, .F. ) ;
#719 = LINE ( 'NONE', #52, #61 ) ;
#720 = FACE_OUTER_BOUND ( 'NONE', #470, .T. ) ;
#721 = LINE ( 'NONE', #522, #729 ) ;
#722 = ORIENTED_EDGE ( 'NONE', *, *, #1202, .T. ) ;
#723 = CARTESIAN_POINT ( 'NONE',  ( -0.4923811242904556074, -2.500000000000000444, 0.01574803149606299191 ) ) ;
#724 = CARTESIAN_POINT ( 'NONE',  ( -1.000000000000000222, 1.349999999999999201, 0.000000000000000000 ) ) ;
#725 = EDGE_CURVE ( 'NONE', #385, #769, #41, .T. ) ;
#726 = PRODUCT_DEFINITION_CONTEXT ( 'detailed design', #995, 'design' ) ;
#727 = DIRECTION ( 'NONE',  ( 1.000000000000000000, -0.000000000000000000, -0.000000000000000000 ) ) ;
#728 = CARTESIAN_POINT ( 'NONE',  ( -0.5672259383584179471, 1.349999999999999867, 0.01574803149606299191 ) ) ;
#729 = VECTOR ( 'NONE', #145, 39.37007874015748143 ) ;
#730 = CARTESIAN_POINT ( 'NONE',  ( 1.000000000000000222, -4.400000000000011013, 0.01574803149606299191 ) ) ;
#731 = VECTOR ( 'NONE', #699, 39.37007874015748143 ) ;
#732 = ORIENTED_EDGE ( 'NONE', *, *, #505, .F. ) ;
#733 = PLANE ( 'NONE',  #1145 ) ;
#734 = ADVANCED_FACE ( 'NONE', ( #147 ), #928, .F. ) ;
#735 = PLANE ( 'NONE',  #1209 ) ;
#736 = LINE ( 'NONE', #362, #1039 ) ;
#737 = CARTESIAN_POINT ( 'NONE',  ( 0.9999999999999996669, 1.349999999999999867, 0.000000000000000000 ) ) ;
#738 = ORIENTED_EDGE ( 'NONE', *, *, #490, .F. ) ;
#739 = LINE ( 'NONE', #524, #811 ) ;
#740 = LINE ( 'NONE', #1226, #105 ) ;
#741 = CARTESIAN_POINT ( 'NONE',  ( 0.3000000000000115352, -4.750000000000000000, 0.01574803149606299191 ) ) ;
#742 = ADVANCED_FACE ( 'NONE', ( #353 ), #644, .F. ) ;
#743 = ORIENTED_EDGE ( 'NONE', *, *, #129, .F. ) ;
#744 = PLANE ( 'NONE',  #141 ) ;
#745 = VERTEX_POINT ( 'NONE', #1218 ) ;
#746 = CARTESIAN_POINT ( 'NONE',  ( 0.2999999999999997113, 1.000000000000000000, 0.01574803149606299191 ) ) ;
#747 = LINE ( 'NONE', #516, #493 ) ;
#748 = FACE_OUTER_BOUND ( 'NONE', #990, .T. ) ;
#749 = EDGE_CURVE ( 'NONE', #838, #1224, #67, .T. ) ;
#750 = ORIENTED_EDGE ( 'NONE', *, *, #1069, .T. ) ;
#751 = PLANE ( 'NONE',  #180 ) ;
#752 = VECTOR ( 'NONE', #429, 39.37007874015748143 ) ;
#753 = CARTESIAN_POINT ( 'NONE',  ( 0.6499999999999995781, 0.5000000000000000000, 0.000000000000000000 ) ) ;
#754 = CLOSED_SHELL ( 'NONE', ( #1108, #919, #1251, #323, #658, #337, #982, #1013 ) ) ;
#755 = VECTOR ( 'NONE', #689, 39.37007874015748143 ) ;
#756 =( NAMED_UNIT ( * ) PLANE_ANGLE_UNIT ( ) SI_UNIT ( $, .RADIAN. ) );
#757 = ORIENTED_EDGE ( 'NONE', *, *, #253, .T. ) ;
#758 = CARTESIAN_POINT ( 'NONE',  ( 0.6499999999999998002, 0.9999999999999998890, 0.01574803149606299191 ) ) ;
#759 = VERTEX_POINT ( 'NONE', #839 ) ;
#760 = PLANE ( 'NONE',  #711 ) ;
#761 = DIRECTION ( 'NONE',  ( 0.000000000000000000, 0.000000000000000000, 1.000000000000000000 ) ) ;
#762 = VERTEX_POINT ( 'NONE', #909 ) ;
#763 = DIRECTION ( 'NONE',  ( -8.278327253528068342E-17, 1.000000000000000000, -0.000000000000000000 ) ) ;
#764 = ORIENTED_EDGE ( 'NONE', *, *, #881, .F. ) ;
#765 = CARTESIAN_POINT ( 'NONE',  ( 0.9999999999999996669, 1.349999999999999867, 0.01574803149606299191 ) ) ;
#766 = EDGE_CURVE ( 'NONE', #896, #1068, #719, .T. ) ;
#767 = ORIENTED_EDGE ( 'NONE', *, *, #218, .T. ) ;
#768 = FACE_OUTER_BOUND ( 'NONE', #314, .T. ) ;
#769 = VERTEX_POINT ( 'NONE', #327 ) ;
#770 = DIRECTION ( 'NONE',  ( -1.000000000000000000, 0.000000000000000000, -0.000000000000000000 ) ) ;
#771 = VECTOR ( 'NONE', #222, 39.37007874015748143 ) ;
#772 = EDGE_CURVE ( 'NONE', #672, #483, #235, .T. ) ;
#773 = VECTOR ( 'NONE', #795, 39.37007874015748854 ) ;
#774 = CARTESIAN_POINT ( 'NONE',  ( -0.9000000000000001332, -2.500000000000000000, 0.01574803149606299191 ) ) ;
#775 = VECTOR ( 'NONE', #418, 39.37007874015748143 ) ;
#776 = CARTESIAN_POINT ( 'NONE',  ( 0.9999999999999996669, 0.9999999999999998890, 0.000000000000000000 ) ) ;
#777 = VECTOR ( 'NONE', #940, 39.37007874015748143 ) ;
#778 = VERTEX_POINT ( 'NONE', #723 ) ;
#779 = ORIENTED_EDGE ( 'NONE', *, *, #151, .T. ) ;
#780 = DIRECTION ( 'NONE',  ( -1.000000000000000000, -1.365923996832131609E-16, -0.000000000000000000 ) ) ;
#781 = LINE ( 'NONE', #1078, #1169 ) ;
#782 = ORIENTED_EDGE ( 'NONE', *, *, #227, .T. ) ;
#783 = ADVANCED_FACE ( 'NONE', ( #1120 ), #241, .F. ) ;
#784 =( NAMED_UNIT ( * ) PLANE_ANGLE_UNIT ( ) SI_UNIT ( $, .RADIAN. ) );
#785 = ORIENTED_EDGE ( 'NONE', *, *, #1149, .T. ) ;
#786 = DIRECTION ( 'NONE',  ( 0.000000000000000000, 1.000000000000000000, 0.000000000000000000 ) ) ;
#787 = DIRECTION ( 'NONE',  ( -0.000000000000000000, -0.000000000000000000, -1.000000000000000000 ) ) ;
#788 = PRODUCT ( 'hull_number', 'hull_number', '', ( #1157 ) ) ;
#789 = ORIENTED_EDGE ( 'NONE', *, *, #636, .T. ) ;
#790 = DIRECTION ( 'NONE',  ( 0.000000000000000000, 0.000000000000000000, 1.000000000000000000 ) ) ;
#791 = ADVANCED_FACE ( 'NONE', ( #768 ), #1261, .F. ) ;
#792 = EDGE_LOOP ( 'NONE', ( #1252, #409, #455, #831 ) ) ;
#793 = DIRECTION ( 'NONE',  ( 0.000000000000000000, -0.000000000000000000, 1.000000000000000000 ) ) ;
#794 = PRESENTATION_LAYER_ASSIGNMENT (  '', '', ( #649 ) ) ;
#795 = DIRECTION ( 'NONE',  ( -0.5881716976750459569, -0.8087360843031886626, 0.000000000000000000 ) ) ;
#796 = CLOSED_SHELL ( 'NONE', ( #76, #243, #1115, #419, #424, #416, #56, #1227, #586, #615, #941, #791, #783, #540, #1139, #597 ) ) ;
#797 = AXIS2_PLACEMENT_3D ( 'NONE', #94, #973, #74 ) ;
#798 = VERTEX_POINT ( 'NONE', #464 ) ;
#799 = ORIENTED_EDGE ( 'NONE', *, *, #687, .F. ) ;
#800 = FACE_OUTER_BOUND ( 'NONE', #281, .T. ) ;
#801 = CARTESIAN_POINT ( 'NONE',  ( 0.6500000000000007994, -4.400000000000011013, 0.000000000000000000 ) ) ;
#802 = ORIENTED_EDGE ( 'NONE', *, *, #526, .F. ) ;
#803 = EDGE_LOOP ( 'NONE', ( #344, #738, #1040, #1199 ) ) ;
#804 = CARTESIAN_POINT ( 'NONE',  ( 1.000000000000000222, -4.750000000000000000, 0.01574803149606299191 ) ) ;
#805 = CARTESIAN_POINT ( 'NONE',  ( 0.2999999999999997113, 0.5000000000000000000, 0.01574803149606299191 ) ) ;
#806 = EDGE_CURVE ( 'NONE', #36, #996, #371, .T. ) ;
#807 = CARTESIAN_POINT ( 'NONE',  ( 0.9999999999999996669, 0.9999999999999998890, 0.01574803149606299191 ) ) ;
#808 = ORIENTED_EDGE ( 'NONE', *, *, #387, .F. ) ;
#809 = CARTESIAN_POINT ( 'NONE',  ( -0.5672259383584179471, 1.349999999999999867, 0.01574803149606299191 ) ) ;
#810 = ADVANCED_FACE ( 'NONE', ( #1061 ), #744, .T. ) ;
#811 = VECTOR ( 'NONE', #832, 39.37007874015748143 ) ;
#812 = DIRECTION ( 'NONE',  ( -0.000000000000000000, -1.000000000000000000, -0.000000000000000000 ) ) ;
#813 = ORIENTED_EDGE ( 'NONE', *, *, #1202, .F. ) ;
#814 = DIRECTION ( 'NONE',  ( -0.5881716976750486214, -0.8087360843031865532, -0.000000000000000000 ) ) ;
#815 = CARTESIAN_POINT ( 'NONE',  ( 0.2999999999999997113, 1.000000000000000000, 0.000000000000000000 ) ) ;
#816 = DIRECTION ( 'NONE',  ( -0.000000000000000000, -0.000000000000000000, -1.000000000000000000 ) ) ;
#817 = DIRECTION ( 'NONE',  ( 1.000000000000000000, -0.000000000000000000, -0.000000000000000000 ) ) ;
#818 = EDGE_CURVE ( 'NONE', #878, #691, #648, .T. ) ;
#819 = VERTEX_POINT ( 'NONE', #1159 ) ;
#820 = LINE ( 'NONE', #713, #263 ) ;
#821 = DIRECTION ( 'NONE',  ( 2.731847993664264205E-16, 1.000000000000000000, -0.000000000000000000 ) ) ;
#822 = DIRECTION ( 'NONE',  ( -1.000000000000000000, -8.591180450942433410E-17, 0.000000000000000000 ) ) ;
#823 = DIRECTION ( 'NONE',  ( 0.000000000000000000, -0.000000000000000000, -1.000000000000000000 ) ) ;
#824 = CARTESIAN_POINT ( 'NONE',  ( 0.6500000000000031308, -4.750000000000000000, 0.01574803149606299191 ) ) ;
#825 = ORIENTED_EDGE ( 'NONE', *, *, #396, .T. ) ;
#826 = CARTESIAN_POINT ( 'NONE',  ( 0.6499999999999995781, 3.000000000000000444, 0.01574803149606299191 ) ) ;
#827 = CARTESIAN_POINT ( 'NONE',  ( -1.000000000000000000, -0.3500000000000002554, 0.01574803149606299191 ) ) ;
#828 = DIRECTION ( 'NONE',  ( 0.000000000000000000, 0.000000000000000000, -1.000000000000000000 ) ) ;
#829 = CARTESIAN_POINT ( 'NONE',  ( 0.2999999999999997113, 1.349999999999999867, 0.000000000000000000 ) ) ;
#830 = VECTOR ( 'NONE', #641, 39.37007874015748143 ) ;
#831 = ORIENTED_EDGE ( 'NONE', *, *, #356, .T. ) ;
#832 = DIRECTION ( 'NONE',  ( -0.000000000000000000, -0.000000000000000000, -1.000000000000000000 ) ) ;
#833 = STYLED_ITEM ( 'NONE', ( #1064 ), #543 ) ;
#834 = DIRECTION ( 'NONE',  ( -0.000000000000000000, -0.000000000000000000, -1.000000000000000000 ) ) ;
#835 = EDGE_CURVE ( 'NONE', #341, #1034, #966, .T. ) ;
#836 = CARTESIAN_POINT ( 'NONE',  ( 0.3834477668897912639, -0.3499999999999999778, 0.01574803149606299191 ) ) ;
#837 = DIRECTION ( 'NONE',  ( 0.000000000000000000, 0.000000000000000000, -1.000000000000000000 ) ) ;
#838 = VERTEX_POINT ( 'NONE', #280 ) ;
#839 = CARTESIAN_POINT ( 'NONE',  ( 0.6499999999999995781, 0.5000000000000000000, 0.01574803149606299191 ) ) ;
#840 = VERTEX_POINT ( 'NONE', #366 ) ;
#841 = DIRECTION ( 'NONE',  ( 0.5881716976750458459, 0.8087360843031886626, 0.000000000000000000 ) ) ;
#842 = ADVANCED_FACE ( 'NONE', ( #270 ), #91, .T. ) ;
#843 = DIRECTION ( 'NONE',  ( 1.000000000000000000, -0.000000000000000000, -0.000000000000000000 ) ) ;
#844 = ORIENTED_EDGE ( 'NONE', *, *, #283, .F. ) ;
#845 = DIRECTION ( 'NONE',  ( 0.8087360843031866642, -0.5881716976750488435, 0.000000000000000000 ) ) ;
#846 = ORIENTED_EDGE ( 'NONE', *, *, #749, .T. ) ;
#847 = LINE ( 'NONE', #954, #670 ) ;
#848 = LINE ( 'NONE', #602, #614 ) ;
#849 = LENGTH_MEASURE_WITH_UNIT ( LENGTH_MEASURE( 0.02539999999999999897 ), #1171 );
#850 = ORIENTED_EDGE ( 'NONE', *, *, #1177, .F. ) ;
#851 = LINE ( 'NONE', #758, #4 ) ;
#852 = VECTOR ( 'NONE', #917, 39.37007874015748143 ) ;
#853 = LINE ( 'NONE', #1161, #1125 ) ;
#854 = VECTOR ( 'NONE', #1181, 39.37007874015748143 ) ;
#855 = ORIENTED_EDGE ( 'NONE', *, *, #1097, .T. ) ;
#856 = FACE_OUTER_BOUND ( 'NONE', #177, .T. ) ;
#857 = ADVANCED_FACE ( 'NONE', ( #190, #79 ), #751, .T. ) ;
#858 = VERTEX_POINT ( 'NONE', #487 ) ;
#859 = FILL_AREA_STYLE_COLOUR ( '', #28 ) ;
#860 = CARTESIAN_POINT ( 'NONE',  ( 0.2999999999999997113, 1.000000000000000000, 0.01574803149606299191 ) ) ;
#861 = CARTESIAN_POINT ( 'NONE',  ( 0.1999999999999997058, 3.000000000000000444, 0.000000000000000000 ) ) ;
#862 = ORIENTED_EDGE ( 'NONE', *, *, #1196, .F. ) ;
#863 = CARTESIAN_POINT ( 'NONE',  ( 0.6499999999999995781, 3.000000000000000444, 0.000000000000000000 ) ) ;
#864 = ORIENTED_EDGE ( 'NONE', *, *, #205, .T. ) ;
#865 =( LENGTH_UNIT ( ) NAMED_UNIT ( * ) SI_UNIT ( $, .METRE. ) );
#866 = EDGE_LOOP ( 'NONE', ( #494, #663, #864, #785, #360, #541, #1023, #573, #465, #301, #972 ) ) ;
#867 = PRESENTATION_STYLE_ASSIGNMENT (( #593 ) ) ;
#868 = ORIENTED_EDGE ( 'NONE', *, *, #1196, .T. ) ;
#869 = CARTESIAN_POINT ( 'NONE',  ( 0.3000000000000115352, -3.207564334757151414, 0.01574803149606299191 ) ) ;
#870 = COLOUR_RGB ( '',0.7921568627450980005, 0.8196078431372548767, 0.9333333333333333481 ) ;
#871 = AXIS2_PLACEMENT_3D ( 'NONE', #274, #1055, #569 ) ;
#872 = VECTOR ( 'NONE', #1215, 39.37007874015748143 ) ;
#873 = FACE_OUTER_BOUND ( 'NONE', #1242, .T. ) ;
#874 = EDGE_CURVE ( 'NONE', #320, #104, #359, .T. ) ;
#875 = VECTOR ( 'NONE', #879, 39.37007874015748143 ) ;
#876 = ORIENTED_EDGE ( 'NONE', *, *, #881, .T. ) ;
#877 =( NAMED_UNIT ( * ) SI_UNIT ( $, .STERADIAN. ) SOLID_ANGLE_UNIT ( ) );
#878 = VERTEX_POINT ( 'NONE', #558 ) ;
#879 = DIRECTION ( 'NONE',  ( 1.000000000000000000, -0.000000000000000000, -0.000000000000000000 ) ) ;
#880 = CARTESIAN_POINT ( 'NONE',  ( 0.3000000000000116462, -4.400000000000011013, 0.01574803149606299191 ) ) ;
#881 = EDGE_CURVE ( 'NONE', #1193, #598, #165, .T. ) ;
#882 = EDGE_LOOP ( 'NONE', ( #367, #862, #600, #114 ) ) ;
#883 = FILL_AREA_STYLE_COLOUR ( '', #83 ) ;
#884 = ORIENTED_EDGE ( 'NONE', *, *, #640, .F. ) ;
#885 = CARTESIAN_POINT ( 'NONE',  ( 0.6500000000000010214, -5.250000000000000000, 0.01574803149606299191 ) ) ;
#886 = FACE_OUTER_BOUND ( 'NONE', #501, .T. ) ;
#887 = ORIENTED_EDGE ( 'NONE', *, *, #906, .T. ) ;
#888 = CARTESIAN_POINT ( 'NONE',  ( 0.1999999999999997058, 3.000000000000000444, 0.01574803149606299191 ) ) ;
#889 = ORIENTED_EDGE ( 'NONE', *, *, #1033, .F. ) ;
#890 = LINE ( 'NONE', #601, #245 ) ;
#891 = CARTESIAN_POINT ( 'NONE',  ( 0.3000000000000115352, -4.750000000000000000, 0.01574803149606299191 ) ) ;
#892 = VECTOR ( 'NONE', #1140, 39.37007874015748143 ) ;
#893 = VECTOR ( 'NONE', #467, 39.37007874015748143 ) ;
#894 = ORIENTED_EDGE ( 'NONE', *, *, #1244, .T. ) ;
#895 =( NAMED_UNIT ( * ) PLANE_ANGLE_UNIT ( ) SI_UNIT ( $, .RADIAN. ) );
#896 = VERTEX_POINT ( 'NONE', #661 ) ;
#897 = CARTESIAN_POINT ( 'NONE',  ( 0.6499999999999998002, 0.9999999999999998890, 0.01574803149606299191 ) ) ;
#898 = CARTESIAN_POINT ( 'NONE',  ( 0.2000000000000080880, -2.750000000000000000, 0.01574803149606299191 ) ) ;
#899 = DIRECTION ( 'NONE',  ( 1.340393272469985693E-15, 1.000000000000000000, -0.000000000000000000 ) ) ;
#900 = CARTESIAN_POINT ( 'NONE',  ( 0.6500000000000007994, -4.400000000000011013, 0.01574803149606299191 ) ) ;
#901 = LINE ( 'NONE', #921, #25 ) ;
#902 = ORIENTED_EDGE ( 'NONE', *, *, #772, .T. ) ;
#903 = EDGE_CURVE ( 'NONE', #798, #36, #171, .T. ) ;
#904 = FACE_OUTER_BOUND ( 'NONE', #287, .T. ) ;
#905 = DIRECTION ( 'NONE',  ( -0.5881716976750488435, -0.8087360843031866642, -0.000000000000000000 ) ) ;
#906 = EDGE_CURVE ( 'NONE', #1068, #840, #565, .T. ) ;
#907 = PLANE ( 'NONE',  #304 ) ;
#908 = ORIENTED_EDGE ( 'NONE', *, *, #294, .F. ) ;
#909 = CARTESIAN_POINT ( 'NONE',  ( -0.5672259383584179471, 1.349999999999999867, 0.000000000000000000 ) ) ;
#910 = CARTESIAN_POINT ( 'NONE',  ( -1.000000000000000000, -0.3500000000000002554, 0.000000000000000000 ) ) ;
#911 = MECHANICAL_DESIGN_GEOMETRIC_PRESENTATION_REPRESENTATION (  '', ( #649 ), #1122 ) ;
#912 = VECTOR ( 'NONE', #134, 39.37007874015748143 ) ;
#913 = EDGE_CURVE ( 'NONE', #759, #1193, #851, .T. ) ;
#914 = DIRECTION ( 'NONE',  ( 0.000000000000000000, 0.000000000000000000, -1.000000000000000000 ) ) ;
#915 = VECTOR ( 'NONE', #432, 39.37007874015748143 ) ;
#916 = ORIENTED_EDGE ( 'NONE', *, *, #561, .T. ) ;
#917 = DIRECTION ( 'NONE',  ( -8.591180450942432177E-17, 1.000000000000000000, -0.000000000000000000 ) ) ;
#918 = PLANE ( 'NONE',  #984 ) ;
#919 = ADVANCED_FACE ( 'NONE', ( #856 ), #1154, .F. ) ;
#920 = CARTESIAN_POINT ( 'NONE',  ( 0.1999999999999997058, 3.000000000000000444, 0.01574803149606299191 ) ) ;
#921 = CARTESIAN_POINT ( 'NONE',  ( 0.2999999999999997113, 1.000000000000000000, 0.000000000000000000 ) ) ;
#922 = ORIENTED_EDGE ( 'NONE', *, *, #1033, .T. ) ;
#923 = DIRECTION ( 'NONE',  ( 0.5881716976750486214, 0.8087360843031867752, 0.000000000000000000 ) ) ;
#924 = LINE ( 'NONE', #53, #1004 ) ;
#925 = PLANE ( 'NONE',  #182 ) ;
#926 = FACE_OUTER_BOUND ( 'NONE', #1247, .T. ) ;
#927 = VERTEX_POINT ( 'NONE', #957 ) ;
#928 = PLANE ( 'NONE',  #630 ) ;
#929 = EDGE_CURVE ( 'NONE', #1173, #512, #664, .T. ) ;
#930 = LINE ( 'NONE', #347, #553 ) ;
#931 = LINE ( 'NONE', #413, #103 ) ;
#932 = LINE ( 'NONE', #741, #1000 ) ;
#933 = VECTOR ( 'NONE', #44, 39.37007874015748143 ) ;
#934 = VECTOR ( 'NONE', #1070, 39.37007874015748143 ) ;
#935 = AXIS2_PLACEMENT_3D ( 'NONE', #900, #1135, #355 ) ;
#936 = VERTEX_POINT ( 'NONE', #1257 ) ;
#937 = LINE ( 'NONE', #1110, #610 ) ;
#938 = MECHANICAL_DESIGN_GEOMETRIC_PRESENTATION_REPRESENTATION (  '', ( #833 ), #714 ) ;
#939 = AXIS2_PLACEMENT_3D ( 'NONE', #1057, #1263, #770 ) ;
#940 = DIRECTION ( 'NONE',  ( -8.278327253528068342E-17, 1.000000000000000000, -0.000000000000000000 ) ) ;
#941 = ADVANCED_FACE ( 'NONE', ( #202 ), #5, .F. ) ;
#942 = DIRECTION ( 'NONE',  ( -0.000000000000000000, -0.000000000000000000, -1.000000000000000000 ) ) ;
#943 = MANIFOLD_SOLID_BREP ( 'Boss-Extrude1[2]', #754 ) ;
#944 = LINE ( 'NONE', #1243, #1163 ) ;
#945 = ORIENTED_EDGE ( 'NONE', *, *, #38, .F. ) ;
#946 = CARTESIAN_POINT ( 'NONE',  ( 0.6499999999999998002, 0.9999999999999998890, 0.01574803149606299191 ) ) ;
#947 = EDGE_LOOP ( 'NONE', ( #1233, #945, #1175, #414, #78, #128 ) ) ;
#948 = LINE ( 'NONE', #765, #392 ) ;
#949 = CARTESIAN_POINT ( 'NONE',  ( 0.3000000000000116462, -4.400000000000011013, 0.01574803149606299191 ) ) ;
#950 = CARTESIAN_POINT ( 'NONE',  ( 0.6500000000000031308, -4.750000000000000000, 0.01574803149606299191 ) ) ;
#951 = VERTEX_POINT ( 'NONE', #120 ) ;
#952 = CARTESIAN_POINT ( 'NONE',  ( -1.000000000000000222, 0.9999999999999998890, 0.000000000000000000 ) ) ;
#953 = ORIENTED_EDGE ( 'NONE', *, *, #552, .T. ) ;
#954 = CARTESIAN_POINT ( 'NONE',  ( -1.000000000000000222, 1.349999999999999201, 0.01574803149606299191 ) ) ;
#955 = EDGE_CURVE ( 'NONE', #587, #1256, #295, .T. ) ;
#956 = ORIENTED_EDGE ( 'NONE', *, *, #317, .F. ) ;
#957 = CARTESIAN_POINT ( 'NONE',  ( 0.3000000000000115352, -5.250000000000000000, 0.01574803149606299191 ) ) ;
#958 = PRODUCT_DEFINITION_FORMATION_WITH_SPECIFIED_SOURCE ( 'ANY', '', #788, .NOT_KNOWN. ) ;
#959 = AXIS2_PLACEMENT_3D ( 'NONE', #1239, #288, #673 ) ;
#960 = EDGE_LOOP ( 'NONE', ( #137, #850, #221, #902 ) ) ;
#961 = CARTESIAN_POINT ( 'NONE',  ( 0.9999999999999996669, 0.9999999999999998890, 0.000000000000000000 ) ) ;
#962 = MANIFOLD_SOLID_BREP ( 'Boss-Extrude1[1]', #796 ) ;
#963 = CLOSED_SHELL ( 'NONE', ( #452, #857, #742, #734, #23, #1162, #1091, #98, #580, #112, #50, #1052, #457, #810, #842, #11 ) ) ;
#964 = VECTOR ( 'NONE', #8, 39.37007874015748143 ) ;
#965 = ORIENTED_EDGE ( 'NONE', *, *, #1235, .T. ) ;
#966 = LINE ( 'NONE', #656, #1020 ) ;
#967 = VERTEX_POINT ( 'NONE', #703 ) ;
#968 = LINE ( 'NONE', #481, #1002 ) ;
#969 = DIRECTION ( 'NONE',  ( 1.000000000000000000, 0.000000000000000000, 0.000000000000000000 ) ) ;
#970 = ORIENTED_EDGE ( 'NONE', *, *, #253, .F. ) ;
#971 = DIRECTION ( 'NONE',  ( 8.278327253528068342E-17, -1.000000000000000000, 0.000000000000000000 ) ) ;
#972 = ORIENTED_EDGE ( 'NONE', *, *, #643, .T. ) ;
#973 = DIRECTION ( 'NONE',  ( 0.000000000000000000, -1.000000000000000000, 0.000000000000000000 ) ) ;
#974 = EDGE_CURVE ( 'NONE', #108, #840, #195, .T. ) ;
#975 = DIRECTION ( 'NONE',  ( -8.591180450942432177E-17, 1.000000000000000000, -0.000000000000000000 ) ) ;
#976 = ORIENTED_EDGE ( 'NONE', *, *, #259, .T. ) ;
#977 =( LENGTH_UNIT ( ) NAMED_UNIT ( * ) SI_UNIT ( $, .METRE. ) );
#978 = AXIS2_PLACEMENT_3D ( 'NONE', #599, #991, #613 ) ;
#979 = EDGE_LOOP ( 'NONE', ( #683, #305, #1043, #825, #326, #214 ) ) ;
#980 = AXIS2_PLACEMENT_3D ( 'NONE', #681, #786, #793 ) ;
#981 = VECTOR ( 'NONE', #16, 39.37007874015748143 ) ;
#982 = ADVANCED_FACE ( 'NONE', ( #319 ), #1099, .F. ) ;
#983 = DIRECTION ( 'NONE',  ( -0.5881716976750488435, -0.8087360843031866642, -0.000000000000000000 ) ) ;
#984 = AXIS2_PLACEMENT_3D ( 'NONE', #59, #1214, #335 ) ;
#985 = ORIENTED_EDGE ( 'NONE', *, *, #903, .T. ) ;
#986 = ORIENTED_EDGE ( 'NONE', *, *, #1187, .F. ) ;
#987 = PLANE ( 'NONE',  #163 ) ;
#988 = CARTESIAN_POINT ( 'NONE',  ( 0.9999999999999996669, 1.349999999999999867, 0.000000000000000000 ) ) ;
#989 = CARTESIAN_POINT ( 'NONE',  ( -0.9999999999999998890, -4.400000000000000355, 0.01574803149606299191 ) ) ;
#990 = EDGE_LOOP ( 'NONE', ( #57, #299, #156, #767 ) ) ;
#991 = DIRECTION ( 'NONE',  ( 0.000000000000000000, 0.000000000000000000, -1.000000000000000000 ) ) ;
#992 = ORIENTED_EDGE ( 'NONE', *, *, #929, .T. ) ;
#993 = PLANE ( 'NONE',  #474 ) ;
#994 = DIRECTION ( 'NONE',  ( -0.000000000000000000, -0.000000000000000000, -1.000000000000000000 ) ) ;
#995 = APPLICATION_CONTEXT ( 'automotive_design' ) ;
#996 = VERTEX_POINT ( 'NONE', #115 ) ;
#997 = EDGE_CURVE ( 'NONE', #17, #996, #127, .T. ) ;
#998 = ORIENTED_EDGE ( 'NONE', *, *, #997, .T. ) ;
#999 = CARTESIAN_POINT ( 'NONE',  ( -1.000000000000000000, -0.3500000000000002554, 0.000000000000000000 ) ) ;
#1000 = VECTOR ( 'NONE', #1032, 39.37007874015748143 ) ;
#1001 = LINE ( 'NONE', #212, #981 ) ;
#1002 = VECTOR ( 'NONE', #975, 39.37007874015748143 ) ;
#1003 = EDGE_CURVE ( 'NONE', #896, #108, #1107, .T. ) ;
#1004 = VECTOR ( 'NONE', #444, 39.37007874015748143 ) ;
#1005 = CARTESIAN_POINT ( 'NONE',  ( 0.3000000000000115352, -4.750000000000000000, 0.01574803149606299191 ) ) ;
#1006 = ORIENTED_EDGE ( 'NONE', *, *, #701, .T. ) ;
#1007 = DIRECTION ( 'NONE',  ( 4.370956789862820361E-15, 1.000000000000000000, -0.000000000000000000 ) ) ;
#1008 = DIRECTION ( 'NONE',  ( -0.000000000000000000, -0.000000000000000000, -1.000000000000000000 ) ) ;
#1009 = CARTESIAN_POINT ( 'NONE',  ( 0.9999999999999998890, 0.000000000000000000, 0.000000000000000000 ) ) ;
#1010 = ORIENTED_EDGE ( 'NONE', *, *, #1235, .F. ) ;
#1011 = DIRECTION ( 'NONE',  ( 1.000000000000000000, -0.000000000000000000, -0.000000000000000000 ) ) ;
#1012 = LINE ( 'NONE', #303, #755 ) ;
#1013 = ADVANCED_FACE ( 'NONE', ( #1211 ), #39, .T. ) ;
#1014 = CARTESIAN_POINT ( 'NONE',  ( -1.000000000000000222, 0.9999999999999998890, 0.01574803149606299191 ) ) ;
#1015 = ORIENTED_EDGE ( 'NONE', *, *, #106, .F. ) ;
#1016 = LINE ( 'NONE', #632, #1186 ) ;
#1017 = DIRECTION ( 'NONE',  ( 1.000000000000000000, 0.000000000000000000, 0.000000000000000000 ) ) ;
#1018 = VECTOR ( 'NONE', #209, 39.37007874015748143 ) ;
#1019 = EDGE_CURVE ( 'NONE', #840, #370, #901, .T. ) ;
#1020 = VECTOR ( 'NONE', #1148, 39.37007874015748143 ) ;
#1021 = LINE ( 'NONE', #646, #688 ) ;
#1022 = CARTESIAN_POINT ( 'NONE',  ( 0.6500000000000007994, -4.400000000000011013, 0.01574803149606299191 ) ) ;
#1023 = ORIENTED_EDGE ( 'NONE', *, *, #1187, .T. ) ;
#1024 = CARTESIAN_POINT ( 'NONE',  ( 0.9999999999999996669, 0.9999999999999998890, 0.01574803149606299191 ) ) ;
#1025 = FACE_OUTER_BOUND ( 'NONE', #273, .T. ) ;
#1026 = CARTESIAN_POINT ( 'NONE',  ( 0.6499999999999998002, 1.349999999999999867, 0.000000000000000000 ) ) ;
#1027 = DIRECTION ( 'NONE',  ( 0.000000000000000000, -1.000000000000000000, 0.000000000000000000 ) ) ;
#1028 = EDGE_LOOP ( 'NONE', ( #393, #1063, #29, #985 ) ) ;
#1029 = DIRECTION ( 'NONE',  ( -1.000000000000000000, -0.000000000000000000, -0.000000000000000000 ) ) ;
#1030 = CARTESIAN_POINT ( 'NONE',  ( 0.1999999999999997058, 3.000000000000000444, 0.000000000000000000 ) ) ;
#1031 = VERTEX_POINT ( 'NONE', #1022 ) ;
#1032 = DIRECTION ( 'NONE',  ( -0.000000000000000000, -0.000000000000000000, -1.000000000000000000 ) ) ;
#1033 = EDGE_CURVE ( 'NONE', #436, #798, #343, .T. ) ;
#1034 = VERTEX_POINT ( 'NONE', #1203 ) ;
#1035 = LINE ( 'NONE', #249, #852 ) ;
#1036 = PLANE ( 'NONE',  #514 ) ;
#1037 = CARTESIAN_POINT ( 'NONE',  ( -0.9999999999999998890, -4.400000000000000355, 0.000000000000000000 ) ) ;
#1038 = DIRECTION ( 'NONE',  ( 1.000000000000000000, 0.000000000000000000, 0.000000000000000000 ) ) ;
#1039 = VECTOR ( 'NONE', #727, 39.37007874015748143 ) ;
#1040 = ORIENTED_EDGE ( 'NONE', *, *, #60, .T. ) ;
#1041 = DIRECTION ( 'NONE',  ( -1.000000000000000000, 0.000000000000000000, -0.000000000000000000 ) ) ;
#1042 = VECTOR ( 'NONE', #1111, 39.37007874015748143 ) ;
#1043 = ORIENTED_EDGE ( 'NONE', *, *, #461, .T. ) ;
#1044 = AXIS2_PLACEMENT_3D ( 'NONE', #897, #607, #21 ) ;
#1045 = LINE ( 'NONE', #167, #411 ) ;
#1046 = PLANE ( 'NONE',  #935 ) ;
#1047 = DIRECTION ( 'NONE',  ( 0.000000000000000000, 0.000000000000000000, 1.000000000000000000 ) ) ;
#1048 = EDGE_LOOP ( 'NONE', ( #90, #499, #415, #789 ) ) ;
#1049 = DIRECTION ( 'NONE',  ( -0.000000000000000000, -0.000000000000000000, -1.000000000000000000 ) ) ;
#1050 = ORIENTED_EDGE ( 'NONE', *, *, #434, .T. ) ;
#1051 = DIRECTION ( 'NONE',  ( -0.000000000000000000, -0.000000000000000000, -1.000000000000000000 ) ) ;
#1052 = ADVANCED_FACE ( 'NONE', ( #1223 ), #441, .F. ) ;
#1053 =( CONVERSION_BASED_UNIT ( 'INCH', #849 ) LENGTH_UNIT ( ) NAMED_UNIT ( #379 ) );
#1054 = VERTEX_POINT ( 'NONE', #824 ) ;
#1055 = DIRECTION ( 'NONE',  ( -0.8586452219386371265, 0.5125703686733642517, 0.000000000000000000 ) ) ;
#1056 = ORIENTED_EDGE ( 'NONE', *, *, #317, .T. ) ;
#1057 = CARTESIAN_POINT ( 'NONE',  ( 0.000000000000000000, 0.000000000000000000, 0.01574803149606299191 ) ) ;
#1058 = EDGE_CURVE ( 'NONE', #1098, #1224, #517, .T. ) ;
#1059 = VECTOR ( 'NONE', #336, 39.37007874015748143 ) ;
#1060 = ORIENTED_EDGE ( 'NONE', *, *, #1003, .T. ) ;
#1061 = FACE_OUTER_BOUND ( 'NONE', #246, .T. ) ;
#1062 = VECTOR ( 'NONE', #1049, 39.37007874015748143 ) ;
#1063 = ORIENTED_EDGE ( 'NONE', *, *, #997, .F. ) ;
#1064 = PRESENTATION_STYLE_ASSIGNMENT (( #186 ) ) ;
#1065 = VECTOR ( 'NONE', #159, 39.37007874015748143 ) ;
#1066 = DIRECTION ( 'NONE',  ( 0.000000000000000000, 0.000000000000000000, 1.000000000000000000 ) ) ;
#1067 = APPLICATION_PROTOCOL_DEFINITION ( 'draft international standard', 'automotive_design', 1998, #995 ) ;
#1068 = VERTEX_POINT ( 'NONE', #1118 ) ;
#1069 = EDGE_CURVE ( 'NONE', #951, #422, #721, .T. ) ;
#1070 = DIRECTION ( 'NONE',  ( -0.000000000000000000, -0.000000000000000000, -1.000000000000000000 ) ) ;
#1071 = ORIENTED_EDGE ( 'NONE', *, *, #679, .T. ) ;
#1072 = FACE_OUTER_BOUND ( 'NONE', #866, .T. ) ;
#1073 = DIMENSIONAL_EXPONENTS ( 1.000000000000000000, 0.000000000000000000, 0.000000000000000000, 0.000000000000000000, 0.000000000000000000, 0.000000000000000000, 0.000000000000000000 ) ;
#1074 = ORIENTED_EDGE ( 'NONE', *, *, #412, .T. ) ;
#1075 = EDGE_CURVE ( 'NONE', #936, #745, #421, .T. ) ;
#1076 = ORIENTED_EDGE ( 'NONE', *, *, #475, .T. ) ;
#1077 = CARTESIAN_POINT ( 'NONE',  ( 1.000000000000000222, -4.400000000000011013, 0.000000000000000000 ) ) ;
#1078 = CARTESIAN_POINT ( 'NONE',  ( -0.5672259383584375980, -4.400000000000011013, 0.000000000000000000 ) ) ;
#1079 = FACE_OUTER_BOUND ( 'NONE', #269, .T. ) ;
#1080 = ORIENTED_EDGE ( 'NONE', *, *, #622, .F. ) ;
#1081 =( LENGTH_UNIT ( ) NAMED_UNIT ( * ) SI_UNIT ( $, .METRE. ) );
#1082 = ORIENTED_EDGE ( 'NONE', *, *, #92, .F. ) ;
#1083 = LINE ( 'NONE', #999, #1106 ) ;
#1084 = LINE ( 'NONE', #1030, #389 ) ;
#1085 = VECTOR ( 'NONE', #236, 39.37007874015748143 ) ;
#1086 = VERTEX_POINT ( 'NONE', #528 ) ;
#1087 = CARTESIAN_POINT ( 'NONE',  ( -1.000000000000000222, 0.9999999999999998890, 0.01574803149606299191 ) ) ;
#1088 = ORIENTED_EDGE ( 'NONE', *, *, #143, .T. ) ;
#1089 = CARTESIAN_POINT ( 'NONE',  ( 0.6500000000000007994, -4.400000000000011013, 0.01574803149606299191 ) ) ;
#1090 = DIRECTION ( 'NONE',  ( -0.000000000000000000, -0.000000000000000000, -1.000000000000000000 ) ) ;
#1091 = ADVANCED_FACE ( 'NONE', ( #239 ), #907, .F. ) ;
#1092 = ORIENTED_EDGE ( 'NONE', *, *, #603, .T. ) ;
#1093 =( CONVERSION_BASED_UNIT ( 'INCH', #313 ) LENGTH_UNIT ( ) NAMED_UNIT ( #1073 ) );
#1094 = VERTEX_POINT ( 'NONE', #49 ) ;
#1095 = CARTESIAN_POINT ( 'NONE',  ( 1.000000000000000222, -4.750000000000000000, 0.01574803149606299191 ) ) ;
#1096 = FACE_BOUND ( 'NONE', #568, .T. ) ;
#1097 = EDGE_CURVE ( 'NONE', #1193, #672, #435, .T. ) ;
#1098 = VERTEX_POINT ( 'NONE', #324 ) ;
#1099 = PLANE ( 'NONE',  #978 ) ;
#1100 = EDGE_LOOP ( 'NONE', ( #1150, #578, #570, #712 ) ) ;
#1101 = DIRECTION ( 'NONE',  ( -0.000000000000000000, -0.000000000000000000, -1.000000000000000000 ) ) ;
#1102 = FACE_OUTER_BOUND ( 'NONE', #1179, .T. ) ;
#1103 = VECTOR ( 'NONE', #1225, 39.37007874015748143 ) ;
#1104 = VECTOR ( 'NONE', #508, 39.37007874015748143 ) ;
#1105 = VECTOR ( 'NONE', #1008, 39.37007874015748143 ) ;
#1106 = VECTOR ( 'NONE', #302, 39.37007874015748143 ) ;
#1107 = LINE ( 'NONE', #1014, #199 ) ;
#1108 = ADVANCED_FACE ( 'NONE', ( #710 ), #1216, .F. ) ;
#1109 = VERTEX_POINT ( 'NONE', #989 ) ;
#1110 = CARTESIAN_POINT ( 'NONE',  ( 0.6499999999999998002, 1.349999999999999867, 0.000000000000000000 ) ) ;
#1111 = DIRECTION ( 'NONE',  ( -1.000000000000000000, -1.365923996832131609E-16, -0.000000000000000000 ) ) ;
#1112 = DIRECTION ( 'NONE',  ( 1.000000000000000000, 1.050710766793947430E-16, -0.000000000000000000 ) ) ;
#1113 = VERTEX_POINT ( 'NONE', #228 ) ;
#1114 = DIRECTION ( 'NONE',  ( -0.000000000000000000, -0.000000000000000000, -1.000000000000000000 ) ) ;
#1115 = ADVANCED_FACE ( 'NONE', ( #886 ), #113, .F. ) ;
#1116 = DIRECTION ( 'NONE',  ( 0.8087360843031887736, -0.5881716976750459569, 0.000000000000000000 ) ) ;
#1117 = CARTESIAN_POINT ( 'NONE',  ( 0.3000000000000115352, -5.250000000000000000, 0.01574803149606299191 ) ) ;
#1118 = CARTESIAN_POINT ( 'NONE',  ( -1.000000000000000222, 1.349999999999999201, 0.000000000000000000 ) ) ;
#1119 = ORIENTED_EDGE ( 'NONE', *, *, #300, .F. ) ;
#1120 = FACE_OUTER_BOUND ( 'NONE', #1028, .T. ) ;
#1121 = CARTESIAN_POINT ( 'NONE',  ( -0.9999999999999998890, -4.400000000000000355, 0.000000000000000000 ) ) ;
#1122 =( GEOMETRIC_REPRESENTATION_CONTEXT ( 3 ) GLOBAL_UNCERTAINTY_ASSIGNED_CONTEXT ( ( #439 ) ) GLOBAL_UNIT_ASSIGNED_CONTEXT ( ( #692, #895, #877 ) ) REPRESENTATION_CONTEXT ( 'NONE', 'WORKASPACE' ) );
#1123 = FACE_OUTER_BOUND ( 'NONE', #365, .T. ) ;
#1124 = DIRECTION ( 'NONE',  ( -1.000000000000000000, -0.000000000000000000, -0.000000000000000000 ) ) ;
#1125 = VECTOR ( 'NONE', #1255, 39.37007874015748143 ) ;
#1126 = ORIENTED_EDGE ( 'NONE', *, *, #485, .T. ) ;
#1127 = DIRECTION ( 'NONE',  ( -1.000000000000000000, -1.974666524494732798E-16, 0.000000000000000000 ) ) ;
#1128 = FACE_OUTER_BOUND ( 'NONE', #477, .T. ) ;
#1129 = DIRECTION ( 'NONE',  ( -1.000000000000000000, 0.000000000000000000, -0.000000000000000000 ) ) ;
#1130 = EDGE_CURVE ( 'NONE', #1109, #7, #539, .T. ) ;
#1131 = CARTESIAN_POINT ( 'NONE',  ( 1.000000000000000222, -4.750000000000000000, 0.01574803149606299191 ) ) ;
#1132 = ORIENTED_EDGE ( 'NONE', *, *, #1019, .F. ) ;
#1133 = CARTESIAN_POINT ( 'NONE',  ( 0.2999999999999997113, 1.349999999999999867, 0.01574803149606299191 ) ) ;
#1134 = DIRECTION ( 'NONE',  ( -1.000000000000000000, -0.000000000000000000, -0.000000000000000000 ) ) ;
#1135 = DIRECTION ( 'NONE',  ( 0.000000000000000000, -1.000000000000000000, 0.000000000000000000 ) ) ;
#1136 = EDGE_CURVE ( 'NONE', #691, #352, #155, .T. ) ;
#1137 = CARTESIAN_POINT ( 'NONE',  ( 0.2999999999999997113, 2.542435665242824605, 0.01574803149606299191 ) ) ;
#1138 = ORIENTED_EDGE ( 'NONE', *, *, #1019, .T. ) ;
#1139 = ADVANCED_FACE ( 'NONE', ( #63 ), #628, .T. ) ;
#1140 = DIRECTION ( 'NONE',  ( 1.000000000000000000, 1.974666524494732798E-16, -0.000000000000000000 ) ) ;
#1141 = ORIENTED_EDGE ( 'NONE', *, *, #18, .F. ) ;
#1142 = LINE ( 'NONE', #153, #777 ) ;
#1143 = ORIENTED_EDGE ( 'NONE', *, *, #806, .F. ) ;
#1144 = PLANE ( 'NONE',  #1230 ) ;
#1145 = AXIS2_PLACEMENT_3D ( 'NONE', #548, #638, #1127 ) ;
#1146 = AXIS2_PLACEMENT_3D ( 'NONE', #1005, #653, #126 ) ;
#1147 = ORIENTED_EDGE ( 'NONE', *, *, #485, .F. ) ;
#1148 = DIRECTION ( 'NONE',  ( -0.000000000000000000, -1.000000000000000000, -0.000000000000000000 ) ) ;
#1149 = EDGE_CURVE ( 'NONE', #175, #927, #48, .T. ) ;
#1150 = ORIENTED_EDGE ( 'NONE', *, *, #387, .T. ) ;
#1151 = FACE_OUTER_BOUND ( 'NONE', #792, .T. ) ;
#1152 =( NAMED_UNIT ( * ) SI_UNIT ( $, .STERADIAN. ) SOLID_ANGLE_UNIT ( ) );
#1153 = EDGE_LOOP ( 'NONE', ( #992, #203, #51, #1092 ) ) ;
#1154 = PLANE ( 'NONE',  #871 ) ;
#1155 = EDGE_CURVE ( 'NONE', #1031, #1245, #1021, .T. ) ;
#1156 = CARTESIAN_POINT ( 'NONE',  ( 0.2999999999999997113, 1.349999999999999867, 0.01574803149606299191 ) ) ;
#1157 = PRODUCT_CONTEXT ( 'NONE', #556, 'mechanical' ) ;
#1158 = ORIENTED_EDGE ( 'NONE', *, *, #874, .T. ) ;
#1159 = CARTESIAN_POINT ( 'NONE',  ( -1.000000000000000000, -2.731847993664263218E-16, 0.000000000000000000 ) ) ;
#1160 = VERTEX_POINT ( 'NONE', #737 ) ;
#1161 = CARTESIAN_POINT ( 'NONE',  ( 0.6500000000000006883, -2.750000000000000000, 0.000000000000000000 ) ) ;
#1162 = ADVANCED_FACE ( 'NONE', ( #926 ), #1232, .F. ) ;
#1163 = VECTOR ( 'NONE', #1124, 39.37007874015748143 ) ;
#1164 = ORIENTED_EDGE ( 'NONE', *, *, #552, .F. ) ;
#1165 = CARTESIAN_POINT ( 'NONE',  ( 0.2999999999999997113, 1.349999999999999867, 0.01574803149606299191 ) ) ;
#1166 = AXIS2_PLACEMENT_3D ( 'NONE', #669, #468, #382 ) ;
#1167 = ORIENTED_EDGE ( 'NONE', *, *, #1130, .F. ) ;
#1168 = CARTESIAN_POINT ( 'NONE',  ( -1.000000000000000000, -2.731847993664263218E-16, 0.01574803149606299191 ) ) ;
#1169 = VECTOR ( 'NONE', #983, 39.37007874015748143 ) ;
#1170 = AXIS2_PLACEMENT_3D ( 'NONE', #715, #225, #216 ) ;
#1171 =( LENGTH_UNIT ( ) NAMED_UNIT ( * ) SI_UNIT ( $, .METRE. ) );
#1172 = EDGE_CURVE ( 'NONE', #370, #96, #357, .T. ) ;
#1173 = VERTEX_POINT ( 'NONE', #462 ) ;
#1174 =( NAMED_UNIT ( * ) SI_UNIT ( $, .STERADIAN. ) SOLID_ANGLE_UNIT ( ) );
#1175 = ORIENTED_EDGE ( 'NONE', *, *, #874, .F. ) ;
#1176 = LINE ( 'NONE', #753, #142 ) ;
#1177 = EDGE_CURVE ( 'NONE', #436, #1160, #433, .T. ) ;
#1178 = ORIENTED_EDGE ( 'NONE', *, *, #412, .F. ) ;
#1179 = EDGE_LOOP ( 'NONE', ( #908, #1143, #488, #132, #1240, #956, #732, #547, #1132, #564, #251 ) ) ;
#1180 = CARTESIAN_POINT ( 'NONE',  ( 0.6499999999999998002, 0.9999999999999998890, 0.000000000000000000 ) ) ;
#1181 = DIRECTION ( 'NONE',  ( -0.000000000000000000, 1.000000000000000000, -0.000000000000000000 ) ) ;
#1182 = VERTEX_POINT ( 'NONE', #1222 ) ;
#1183 = ORIENTED_EDGE ( 'NONE', *, *, #259, .F. ) ;
#1184 = LINE ( 'NONE', #1089, #427 ) ;
#1185 =( GEOMETRIC_REPRESENTATION_CONTEXT ( 3 ) GLOBAL_UNCERTAINTY_ASSIGNED_CONTEXT ( ( #1220 ) ) GLOBAL_UNIT_ASSIGNED_CONTEXT ( ( #1053, #756, #1152 ) ) REPRESENTATION_CONTEXT ( 'NONE', 'WORKASPACE' ) );
#1186 = VECTOR ( 'NONE', #1011, 39.37007874015748143 ) ;
#1187 = EDGE_CURVE ( 'NONE', #1054, #637, #342, .T. ) ;
#1188 = LINE ( 'NONE', #31, #773 ) ;
#1189 = PRODUCT_DEFINITION ( 'UNKNOWN', '', #958, #726 ) ;
#1190 = VECTOR ( 'NONE', #450, 39.37007874015748854 ) ;
#1191 = ORIENTED_EDGE ( 'NONE', *, *, #497, .T. ) ;
#1192 = SURFACE_SIDE_STYLE ('',( #219 ) ) ;
#1193 = VERTEX_POINT ( 'NONE', #252 ) ;
#1194 = CARTESIAN_POINT ( 'NONE',  ( 0.2000000000000080880, -2.750000000000000000, 0.01574803149606299191 ) ) ;
#1195 = LINE ( 'NONE', #706, #65 ) ;
#1196 = EDGE_CURVE ( 'NONE', #175, #385, #932, .T. ) ;
#1197 = PLANE ( 'NONE',  #348 ) ;
#1198 = FILL_AREA_STYLE_COLOUR ( '', #870 ) ;
#1199 = ORIENTED_EDGE ( 'NONE', *, *, #18, .T. ) ;
#1200 = PLANE ( 'NONE',  #980 ) ;
#1201 = LINE ( 'NONE', #1207, #64 ) ;
#1202 = EDGE_CURVE ( 'NONE', #275, #762, #162, .T. ) ;
#1203 = CARTESIAN_POINT ( 'NONE',  ( 0.2999999999999997113, 0.5000000000000000000, 0.01574803149606299191 ) ) ;
#1204 = ORIENTED_EDGE ( 'NONE', *, *, #381, .T. ) ;
#1205 = PLANE ( 'NONE',  #1044 ) ;
#1206 = PRESENTATION_LAYER_ASSIGNMENT (  '', '', ( #527 ) ) ;
#1207 = CARTESIAN_POINT ( 'NONE',  ( -0.5672259383584179471, 1.349999999999999867, 0.000000000000000000 ) ) ;
#1208 = AXIS2_PLACEMENT_3D ( 'NONE', #284, #668, #1066 ) ;
#1209 = AXIS2_PLACEMENT_3D ( 'NONE', #827, #262, #1219 ) ;
#1210 = EDGE_CURVE ( 'NONE', #936, #1031, #944, .T. ) ;
#1211 = FACE_OUTER_BOUND ( 'NONE', #947, .T. ) ;
#1212 = ORIENTED_EDGE ( 'NONE', *, *, #694, .T. ) ;
#1213 = LINE ( 'NONE', #626, #1103 ) ;
#1214 = DIRECTION ( 'NONE',  ( -1.050710766793947430E-16, 1.000000000000000000, 0.000000000000000000 ) ) ;
#1215 = DIRECTION ( 'NONE',  ( -0.000000000000000000, -0.000000000000000000, -1.000000000000000000 ) ) ;
#1216 = PLANE ( 'NONE',  #2 ) ;
#1217 = ORIENTED_EDGE ( 'NONE', *, *, #218, .F. ) ;
#1218 = CARTESIAN_POINT ( 'NONE',  ( 1.000000000000000222, -4.400000000000011013, 0.000000000000000000 ) ) ;
#1219 = DIRECTION ( 'NONE',  ( 0.000000000000000000, 0.000000000000000000, -1.000000000000000000 ) ) ;
#1220 = UNCERTAINTY_MEASURE_WITH_UNIT (LENGTH_MEASURE( 1.000000000000000082E-05 ), #1053, 'distance_accuracy_value', 'NONE');
#1221 = FACE_OUTER_BOUND ( 'NONE', #1100, .T. ) ;
#1222 = CARTESIAN_POINT ( 'NONE',  ( 0.2999999999999997113, 2.542435665242824605, 0.01574803149606299191 ) ) ;
#1223 = FACE_OUTER_BOUND ( 'NONE', #1048, .T. ) ;
#1224 = VERTEX_POINT ( 'NONE', #364 ) ;
#1225 = DIRECTION ( 'NONE',  ( 1.000000000000000000, -1.340393272469985496E-15, -0.000000000000000000 ) ) ;
#1226 = CARTESIAN_POINT ( 'NONE',  ( 0.6500000000000007994, -4.400000000000011013, 0.000000000000000000 ) ) ;
#1227 = ADVANCED_FACE ( 'NONE', ( #748 ), #1144, .F. ) ;
#1228 = AXIS2_PLACEMENT_3D ( 'NONE', #1137, #454, #144 ) ;
#1229 = DIRECTION ( 'NONE',  ( 1.000000000000000000, -0.000000000000000000, -0.000000000000000000 ) ) ;
#1230 = AXIS2_PLACEMENT_3D ( 'NONE', #266, #654, #1047 ) ;
#1231 = VECTOR ( 'NONE', #73, 39.37007874015748143 ) ;
#1232 = PLANE ( 'NONE',  #139 ) ;
#1233 = ORIENTED_EDGE ( 'NONE', *, *, #677, .F. ) ;
#1234 = FACE_OUTER_BOUND ( 'NONE', #210, .T. ) ;
#1235 = EDGE_CURVE ( 'NONE', #1054, #951, #169, .T. ) ;
#1236 = FACE_OUTER_BOUND ( 'NONE', #45, .T. ) ;
#1237 = DIRECTION ( 'NONE',  ( -0.5125703686733641407, -0.8586452219386371265, -0.000000000000000000 ) ) ;
#1238 = ORIENTED_EDGE ( 'NONE', *, *, #650, .T. ) ;
#1239 = CARTESIAN_POINT ( 'NONE',  ( 0.3000000000000116462, -4.400000000000011013, 0.01574803149606299191 ) ) ;
#1240 = ORIENTED_EDGE ( 'NONE', *, *, #1244, .F. ) ;
#1241 = LINE ( 'NONE', #438, #915 ) ;
#1242 = EDGE_LOOP ( 'NONE', ( #428, #372, #1119, #757 ) ) ;
#1243 = CARTESIAN_POINT ( 'NONE',  ( 0.6500000000000007994, -4.400000000000011013, 0.01574803149606299191 ) ) ;
#1244 = EDGE_CURVE ( 'NONE', #598, #483, #238, .T. ) ;
#1245 = VERTEX_POINT ( 'NONE', #1 ) ;
#1246 = CARTESIAN_POINT ( 'NONE',  ( 0.6499999999999998002, 1.349999999999999867, 0.01574803149606299191 ) ) ;
#1247 = EDGE_LOOP ( 'NONE', ( #72, #844, #1258, #868 ) ) ;
#1248 = CARTESIAN_POINT ( 'NONE',  ( -0.5672259383584375980, -4.400000000000011013, 0.01574803149606299191 ) ) ;
#1249 =( GEOMETRIC_REPRESENTATION_CONTEXT ( 3 ) GLOBAL_UNCERTAINTY_ASSIGNED_CONTEXT ( ( #217 ) ) GLOBAL_UNIT_ASSIGNED_CONTEXT ( ( #1093, #784, #1174 ) ) REPRESENTATION_CONTEXT ( 'NONE', 'WORKASPACE' ) );
#1250 = VECTOR ( 'NONE', #1101, 39.37007874015748143 ) ;
#1251 = ADVANCED_FACE ( 'NONE', ( #1079 ), #101, .F. ) ;
#1252 = ORIENTED_EDGE ( 'NONE', *, *, #1136, .F. ) ;
#1253 = CARTESIAN_POINT ( 'NONE',  ( 0.6499999999999998002, 1.349999999999999867, 0.01574803149606299191 ) ) ;
#1254 = VECTOR ( 'NONE', #1051, 39.37007874015748143 ) ;
#1255 = DIRECTION ( 'NONE',  ( -8.278327253528015340E-17, 1.000000000000000000, -0.000000000000000000 ) ) ;
#1256 = VERTEX_POINT ( 'NONE', #861 ) ;
#1257 = CARTESIAN_POINT ( 'NONE',  ( 1.000000000000000222, -4.400000000000011013, 0.01574803149606299191 ) ) ;
#1258 = ORIENTED_EDGE ( 'NONE', *, *, #1149, .F. ) ;
#1259 = DIRECTION ( 'NONE',  ( -0.000000000000000000, 1.000000000000000000, -0.000000000000000000 ) ) ;
#1260 = ORIENTED_EDGE ( 'NONE', *, *, #237, .F. ) ;
#1261 = PLANE ( 'NONE',  #220 ) ;
#1262 = VERTEX_POINT ( 'NONE', #77 ) ;
#1263 = DIRECTION ( 'NONE',  ( 0.000000000000000000, 0.000000000000000000, -1.000000000000000000 ) ) ;
ENDSEC;
END-ISO-10303-21;
