ISO-10303-21;
HEADER;
FILE_DESCRIPTION (( 'STEP AP214' ),
    '1' );
FILE_NAME ('Eggfinder LCD Case V2 Screen Spacer Thick.STEP',
    '2026-05-24T17:42:03',
    ( '' ),
    ( '' ),
    'SwSTEP 2.0',
    'SolidWorks 2024',
    '' );
FILE_SCHEMA (( 'AUTOMOTIVE_DESIGN' ));
ENDSEC;

DATA;
#1 = EDGE_CURVE ( 'NONE', #134, #93, #202, .T. ) ;
#2 = LINE ( 'NONE', #62, #173 ) ;
#3 = CARTESIAN_POINT ( 'NONE',  ( 7.960204194457796709E-18, 0.4349999999999999978, 0.06500000000000000222 ) ) ;
#4 = ORIENTED_EDGE ( 'NONE', *, *, #116, .F. ) ;
#5 = DIRECTION ( 'NONE',  ( 0.000000000000000000, 1.000000000000000000, 0.000000000000000000 ) ) ;
#6 = CARTESIAN_POINT ( 'NONE',  ( 0.000000000000000000, 0.000000000000000000, -0.06500000000000000222 ) ) ;
#7 = UNCERTAINTY_MEASURE_WITH_UNIT (LENGTH_MEASURE( 1.000000000000000082E-05 ), #87, 'distance_accuracy_value', 'NONE');
#8 = DIRECTION ( 'NONE',  ( 0.000000000000000000, 0.000000000000000000, -1.000000000000000000 ) ) ;
#9 = DIRECTION ( 'NONE',  ( 0.000000000000000000, 1.000000000000000000, 0.000000000000000000 ) ) ;
#10 = EDGE_CURVE ( 'NONE', #89, #188, #162, .T. ) ;
#11 = ORIENTED_EDGE ( 'NONE', *, *, #49, .T. ) ;
#12 = ORIENTED_EDGE ( 'NONE', *, *, #83, .T. ) ;
#13 = ADVANCED_FACE ( 'NONE', ( #142, #17 ), #86, .F. ) ;
#14 = CIRCLE ( 'NONE', #18, 0.06500000000000000222 ) ;
#15 = EDGE_LOOP ( 'NONE', ( #169, #148 ) ) ;
#16 = ADVANCED_FACE ( 'NONE', ( #81 ), #34, .T. ) ;
#17 = FACE_BOUND ( 'NONE', #15, .T. ) ;
#18 = AXIS2_PLACEMENT_3D ( 'NONE', #52, #9, #135 ) ;
#19 = STYLED_ITEM ( 'NONE', ( #161 ), #77 ) ;
#20 = AXIS2_PLACEMENT_3D ( 'NONE', #65, #186, #196 ) ;
#21 =( LENGTH_UNIT ( ) NAMED_UNIT ( * ) SI_UNIT ( $, .METRE. ) );
#22 = EDGE_CURVE ( 'NONE', #182, #134, #177, .T. ) ;
#23 = CYLINDRICAL_SURFACE ( 'NONE', #113, 0.06500000000000000222 ) ;
#24 = DIRECTION ( 'NONE',  ( 0.000000000000000000, 0.000000000000000000, 1.000000000000000000 ) ) ;
#25 = ORIENTED_EDGE ( 'NONE', *, *, #1, .T. ) ;
#26 = AXIS2_PLACEMENT_3D ( 'NONE', #110, #90, #195 ) ;
#27 = ORIENTED_EDGE ( 'NONE', *, *, #85, .F. ) ;
#28 = ORIENTED_EDGE ( 'NONE', *, *, #22, .T. ) ;
#29 = EDGE_CURVE ( 'NONE', #60, #93, #137, .T. ) ;
#30 = AXIS2_PLACEMENT_3D ( 'NONE', #38, #5, #24 ) ;
#31 = CARTESIAN_POINT ( 'NONE',  ( 0.000000000000000000, 0.000000000000000000, 0.000000000000000000 ) ) ;
#32 = DIRECTION ( 'NONE',  ( 0.000000000000000000, 1.000000000000000000, 0.000000000000000000 ) ) ;
#33 = SURFACE_SIDE_STYLE ('',( #48 ) ) ;
#34 = CYLINDRICAL_SURFACE ( 'NONE', #54, 0.1250000000000000000 ) ;
#35 = FACE_OUTER_BOUND ( 'NONE', #53, .T. ) ;
#36 = EDGE_LOOP ( 'NONE', ( #153, #122 ) ) ;
#37 =( NAMED_UNIT ( * ) SI_UNIT ( $, .STERADIAN. ) SOLID_ANGLE_UNIT ( ) );
#38 = CARTESIAN_POINT ( 'NONE',  ( 0.000000000000000000, 0.4349999999999999978, 0.000000000000000000 ) ) ;
#39 = AXIS2_PLACEMENT_3D ( 'NONE', #123, #45, #106 ) ;
#40 =( NAMED_UNIT ( * ) SI_UNIT ( $, .STERADIAN. ) SOLID_ANGLE_UNIT ( ) );
#41 = PRODUCT_DEFINITION ( 'UNKNOWN', '', #71, #179 ) ;
#42 = APPLICATION_PROTOCOL_DEFINITION ( 'draft international standard', 'automotive_design', 1998, #46 ) ;
#43 = AXIS2_PLACEMENT_3D ( 'NONE', #67, #147, #181 ) ;
#44 = ADVANCED_FACE ( 'NONE', ( #205, #61 ), #84, .T. ) ;
#45 = DIRECTION ( 'NONE',  ( 0.000000000000000000, 1.000000000000000000, 0.000000000000000000 ) ) ;
#46 = APPLICATION_CONTEXT ( 'automotive_design' ) ;
#47 = DIRECTION ( 'NONE',  ( 0.000000000000000000, 0.000000000000000000, 1.000000000000000000 ) ) ;
#48 = SURFACE_STYLE_FILL_AREA ( #193 ) ;
#49 = EDGE_CURVE ( 'NONE', #74, #89, #2, .T. ) ;
#50 = ADVANCED_BREP_SHAPE_REPRESENTATION ( 'Eggfinder LCD Case V2 Screen Spacer Thick', ( #77, #143 ), #157 ) ;
#51 = DIRECTION ( 'NONE',  ( 0.000000000000000000, -0.000000000000000000, 1.000000000000000000 ) ) ;
#52 = CARTESIAN_POINT ( 'NONE',  ( 0.000000000000000000, 0.000000000000000000, 0.000000000000000000 ) ) ;
#53 = EDGE_LOOP ( 'NONE', ( #102, #11, #120, #146 ) ) ;
#54 = AXIS2_PLACEMENT_3D ( 'NONE', #174, #109, #163 ) ;
#55 = ORIENTED_EDGE ( 'NONE', *, *, #49, .F. ) ;
#56 = AXIS2_PLACEMENT_3D ( 'NONE', #31, #82, #51 ) ;
#57 = APPLICATION_PROTOCOL_DEFINITION ( 'draft international standard', 'automotive_design', 1998, #94 ) ;
#58 = AXIS2_PLACEMENT_3D ( 'NONE', #160, #138, #180 ) ;
#59 =( NAMED_UNIT ( * ) PLANE_ANGLE_UNIT ( ) SI_UNIT ( $, .RADIAN. ) );
#60 = VERTEX_POINT ( 'NONE', #192 ) ;
#61 = FACE_BOUND ( 'NONE', #115, .T. ) ;
#62 = CARTESIAN_POINT ( 'NONE',  ( 7.960204194457796709E-18, 0.4349999999999999978, 0.06500000000000000222 ) ) ;
#63 = AXIS2_PLACEMENT_3D ( 'NONE', #133, #183, #69 ) ;
#64 = EDGE_CURVE ( 'NONE', #79, #74, #200, .T. ) ;
#65 = CARTESIAN_POINT ( 'NONE',  ( 0.000000000000000000, 0.4349999999999999978, 0.000000000000000000 ) ) ;
#66 = CARTESIAN_POINT ( 'NONE',  ( 1.530808498934191509E-17, 0.4349999999999999978, 0.1250000000000000000 ) ) ;
#67 = CARTESIAN_POINT ( 'NONE',  ( 0.000000000000000000, 0.4349999999999999978, 0.000000000000000000 ) ) ;
#68 = FACE_OUTER_BOUND ( 'NONE', #130, .T. ) ;
#69 = DIRECTION ( 'NONE',  ( 0.000000000000000000, 0.000000000000000000, 1.000000000000000000 ) ) ;
#70 = ORIENTED_EDGE ( 'NONE', *, *, #83, .F. ) ;
#71 = PRODUCT_DEFINITION_FORMATION_WITH_SPECIFIED_SOURCE ( 'ANY', '', #152, .NOT_KNOWN. ) ;
#72 = MECHANICAL_DESIGN_GEOMETRIC_PRESENTATION_REPRESENTATION (  '', ( #19 ), #95 ) ;
#73 =( NAMED_UNIT ( * ) PLANE_ANGLE_UNIT ( ) SI_UNIT ( $, .RADIAN. ) );
#74 = VERTEX_POINT ( 'NONE', #3 ) ;
#75 = CARTESIAN_POINT ( 'NONE',  ( 0.000000000000000000, 0.000000000000000000, -0.1250000000000000000 ) ) ;
#76 = ORIENTED_EDGE ( 'NONE', *, *, #105, .F. ) ;
#77 = MANIFOLD_SOLID_BREP ( 'Boss-Extrude1', #190 ) ;
#78 = PRODUCT_CONTEXT ( 'NONE', #46, 'mechanical' ) ;
#79 = VERTEX_POINT ( 'NONE', #91 ) ;
#80 = CIRCLE ( 'NONE', #30, 0.1250000000000000000 ) ;
#81 = FACE_OUTER_BOUND ( 'NONE', #171, .T. ) ;
#82 = DIRECTION ( 'NONE',  ( 0.000000000000000000, 1.000000000000000000, 0.000000000000000000 ) ) ;
#83 = EDGE_CURVE ( 'NONE', #74, #79, #172, .T. ) ;
#84 = PLANE ( 'NONE',  #39 ) ;
#85 = EDGE_CURVE ( 'NONE', #93, #134, #103, .T. ) ;
#86 = PLANE ( 'NONE',  #56 ) ;
#87 =( CONVERSION_BASED_UNIT ( 'INCH', #184 ) LENGTH_UNIT ( ) NAMED_UNIT ( #107 ) );
#88 = CARTESIAN_POINT ( 'NONE',  ( 0.000000000000000000, 0.000000000000000000, 0.000000000000000000 ) ) ;
#89 = VERTEX_POINT ( 'NONE', #97 ) ;
#90 = DIRECTION ( 'NONE',  ( -0.000000000000000000, -1.000000000000000000, -0.000000000000000000 ) ) ;
#91 = CARTESIAN_POINT ( 'NONE',  ( 0.000000000000000000, 0.4349999999999999978, -0.06500000000000000222 ) ) ;
#92 = LENGTH_MEASURE_WITH_UNIT ( LENGTH_MEASURE( 0.02539999999999999897 ), #156 );
#93 = VERTEX_POINT ( 'NONE', #75 ) ;
#94 = APPLICATION_CONTEXT ( 'automotive_design' ) ;
#95 =( GEOMETRIC_REPRESENTATION_CONTEXT ( 3 ) GLOBAL_UNCERTAINTY_ASSIGNED_CONTEXT ( ( #7 ) ) GLOBAL_UNIT_ASSIGNED_CONTEXT ( ( #87, #73, #37 ) ) REPRESENTATION_CONTEXT ( 'NONE', 'WORKASPACE' ) );
#96 = SURFACE_STYLE_USAGE ( .BOTH. , #33 ) ;
#97 = CARTESIAN_POINT ( 'NONE',  ( 7.960204194457796709E-18, 0.000000000000000000, 0.06500000000000000222 ) ) ;
#98 = EDGE_CURVE ( 'NONE', #79, #188, #100, .T. ) ;
#99 = CYLINDRICAL_SURFACE ( 'NONE', #43, 0.1250000000000000000 ) ;
#100 = LINE ( 'NONE', #198, #131 ) ;
#101 = PRODUCT_RELATED_PRODUCT_CATEGORY ( 'part', '', ( #152 ) ) ;
#102 = ORIENTED_EDGE ( 'NONE', *, *, #64, .T. ) ;
#103 = CIRCLE ( 'NONE', #189, 0.1250000000000000000 ) ;
#104 = COLOUR_RGB ( '',0.7921568627450980005, 0.8196078431372548767, 0.9333333333333333481 ) ;
#105 = EDGE_CURVE ( 'NONE', #182, #60, #197, .T. ) ;
#106 = DIRECTION ( 'NONE',  ( 0.000000000000000000, -0.000000000000000000, 1.000000000000000000 ) ) ;
#107 = DIMENSIONAL_EXPONENTS ( 1.000000000000000000, 0.000000000000000000, 0.000000000000000000, 0.000000000000000000, 0.000000000000000000, 0.000000000000000000, 0.000000000000000000 ) ;
#108 = CARTESIAN_POINT ( 'NONE',  ( 0.000000000000000000, 0.4349999999999999978, -0.1250000000000000000 ) ) ;
#109 = DIRECTION ( 'NONE',  ( -0.000000000000000000, -1.000000000000000000, -0.000000000000000000 ) ) ;
#110 = CARTESIAN_POINT ( 'NONE',  ( 0.000000000000000000, 0.4349999999999999978, 0.000000000000000000 ) ) ;
#111 = ADVANCED_FACE ( 'NONE', ( #68 ), #23, .F. ) ;
#112 = ORIENTED_EDGE ( 'NONE', *, *, #22, .F. ) ;
#113 = AXIS2_PLACEMENT_3D ( 'NONE', #168, #127, #8 ) ;
#114 = ORIENTED_EDGE ( 'NONE', *, *, #64, .F. ) ;
#115 = EDGE_LOOP ( 'NONE', ( #114, #70 ) ) ;
#116 = EDGE_CURVE ( 'NONE', #60, #182, #80, .T. ) ;
#117 = DIRECTION ( 'NONE',  ( 0.000000000000000000, 0.000000000000000000, 1.000000000000000000 ) ) ;
#118 = ORIENTED_EDGE ( 'NONE', *, *, #29, .T. ) ;
#119 = CARTESIAN_POINT ( 'NONE',  ( 0.000000000000000000, 0.000000000000000000, 0.000000000000000000 ) ) ;
#120 = ORIENTED_EDGE ( 'NONE', *, *, #170, .F. ) ;
#121 = DIRECTION ( 'NONE',  ( 1.000000000000000000, 0.000000000000000000, 0.000000000000000000 ) ) ;
#122 = ORIENTED_EDGE ( 'NONE', *, *, #105, .T. ) ;
#123 = CARTESIAN_POINT ( 'NONE',  ( 0.000000000000000000, 0.4349999999999999978, 0.000000000000000000 ) ) ;
#124 = DIRECTION ( 'NONE',  ( -0.000000000000000000, -1.000000000000000000, -0.000000000000000000 ) ) ;
#125 = FILL_AREA_STYLE_COLOUR ( '', #104 ) ;
#126 = DIRECTION ( 'NONE',  ( 0.000000000000000000, 1.000000000000000000, 0.000000000000000000 ) ) ;
#127 = DIRECTION ( 'NONE',  ( -0.000000000000000000, -1.000000000000000000, -0.000000000000000000 ) ) ;
#128 = DIRECTION ( 'NONE',  ( 0.000000000000000000, 1.000000000000000000, 0.000000000000000000 ) ) ;
#129 = UNCERTAINTY_MEASURE_WITH_UNIT (LENGTH_MEASURE( 1.000000000000000082E-05 ), #154, 'distance_accuracy_value', 'NONE');
#130 = EDGE_LOOP ( 'NONE', ( #55, #12, #151, #167 ) ) ;
#131 = VECTOR ( 'NONE', #166, 39.37007874015748143 ) ;
#132 = PRESENTATION_LAYER_ASSIGNMENT (  '', '', ( #19 ) ) ;
#133 = CARTESIAN_POINT ( 'NONE',  ( 0.000000000000000000, 0.4349999999999999978, 0.000000000000000000 ) ) ;
#134 = VERTEX_POINT ( 'NONE', #149 ) ;
#135 = DIRECTION ( 'NONE',  ( 0.000000000000000000, 0.000000000000000000, 1.000000000000000000 ) ) ;
#136 = DIMENSIONAL_EXPONENTS ( 1.000000000000000000, 0.000000000000000000, 0.000000000000000000, 0.000000000000000000, 0.000000000000000000, 0.000000000000000000, 0.000000000000000000 ) ;
#137 = LINE ( 'NONE', #108, #159 ) ;
#138 = DIRECTION ( 'NONE',  ( 0.000000000000000000, 1.000000000000000000, 0.000000000000000000 ) ) ;
#139 = DIRECTION ( 'NONE',  ( 0.000000000000000000, 0.000000000000000000, 1.000000000000000000 ) ) ;
#140 = AXIS2_PLACEMENT_3D ( 'NONE', #176, #126, #47 ) ;
#141 = DIRECTION ( 'NONE',  ( -0.000000000000000000, -1.000000000000000000, -0.000000000000000000 ) ) ;
#142 = FACE_OUTER_BOUND ( 'NONE', #155, .T. ) ;
#143 = AXIS2_PLACEMENT_3D ( 'NONE', #119, #203, #121 ) ;
#144 = ADVANCED_FACE ( 'NONE', ( #35 ), #145, .F. ) ;
#145 = CYLINDRICAL_SURFACE ( 'NONE', #26, 0.06500000000000000222 ) ;
#146 = ORIENTED_EDGE ( 'NONE', *, *, #98, .F. ) ;
#147 = DIRECTION ( 'NONE',  ( -0.000000000000000000, -1.000000000000000000, -0.000000000000000000 ) ) ;
#148 = ORIENTED_EDGE ( 'NONE', *, *, #10, .T. ) ;
#149 = CARTESIAN_POINT ( 'NONE',  ( 1.530808498934191509E-17, 0.000000000000000000, 0.1250000000000000000 ) ) ;
#150 = SHAPE_DEFINITION_REPRESENTATION ( #204, #50 ) ;
#151 = ORIENTED_EDGE ( 'NONE', *, *, #98, .T. ) ;
#152 = PRODUCT ( 'Eggfinder LCD Case V2 Screen Spacer Thick', 'Eggfinder LCD Case V2 Screen Spacer Thick', '', ( #78 ) ) ;
#153 = ORIENTED_EDGE ( 'NONE', *, *, #116, .T. ) ;
#154 =( CONVERSION_BASED_UNIT ( 'INCH', #92 ) LENGTH_UNIT ( ) NAMED_UNIT ( #136 ) );
#155 = EDGE_LOOP ( 'NONE', ( #27, #187 ) ) ;
#156 =( LENGTH_UNIT ( ) NAMED_UNIT ( * ) SI_UNIT ( $, .METRE. ) );
#157 =( GEOMETRIC_REPRESENTATION_CONTEXT ( 3 ) GLOBAL_UNCERTAINTY_ASSIGNED_CONTEXT ( ( #129 ) ) GLOBAL_UNIT_ASSIGNED_CONTEXT ( ( #154, #59, #40 ) ) REPRESENTATION_CONTEXT ( 'NONE', 'WORKASPACE' ) );
#158 = AXIS2_PLACEMENT_3D ( 'NONE', #175, #32, #139 ) ;
#159 = VECTOR ( 'NONE', #141, 39.37007874015748143 ) ;
#160 = CARTESIAN_POINT ( 'NONE',  ( 0.000000000000000000, 0.000000000000000000, 0.000000000000000000 ) ) ;
#161 = PRESENTATION_STYLE_ASSIGNMENT (( #96 ) ) ;
#162 = CIRCLE ( 'NONE', #140, 0.06500000000000000222 ) ;
#163 = DIRECTION ( 'NONE',  ( 0.000000000000000000, 0.000000000000000000, -1.000000000000000000 ) ) ;
#164 = CARTESIAN_POINT ( 'NONE',  ( 1.530808498934191509E-17, 0.4349999999999999978, 0.1250000000000000000 ) ) ;
#165 = VECTOR ( 'NONE', #194, 39.37007874015748143 ) ;
#166 = DIRECTION ( 'NONE',  ( -0.000000000000000000, -1.000000000000000000, -0.000000000000000000 ) ) ;
#167 = ORIENTED_EDGE ( 'NONE', *, *, #10, .F. ) ;
#168 = CARTESIAN_POINT ( 'NONE',  ( 0.000000000000000000, 0.4349999999999999978, 0.000000000000000000 ) ) ;
#169 = ORIENTED_EDGE ( 'NONE', *, *, #170, .T. ) ;
#170 = EDGE_CURVE ( 'NONE', #188, #89, #14, .T. ) ;
#171 = EDGE_LOOP ( 'NONE', ( #76, #28, #25, #185 ) ) ;
#172 = CIRCLE ( 'NONE', #20, 0.06500000000000000222 ) ;
#173 = VECTOR ( 'NONE', #124, 39.37007874015748143 ) ;
#174 = CARTESIAN_POINT ( 'NONE',  ( 0.000000000000000000, 0.4349999999999999978, 0.000000000000000000 ) ) ;
#175 = CARTESIAN_POINT ( 'NONE',  ( 0.000000000000000000, 0.4349999999999999978, 0.000000000000000000 ) ) ;
#176 = CARTESIAN_POINT ( 'NONE',  ( 0.000000000000000000, 0.000000000000000000, 0.000000000000000000 ) ) ;
#177 = LINE ( 'NONE', #66, #165 ) ;
#178 = ADVANCED_FACE ( 'NONE', ( #201 ), #99, .T. ) ;
#179 = PRODUCT_DEFINITION_CONTEXT ( 'detailed design', #94, 'design' ) ;
#180 = DIRECTION ( 'NONE',  ( 0.000000000000000000, 0.000000000000000000, 1.000000000000000000 ) ) ;
#181 = DIRECTION ( 'NONE',  ( 0.000000000000000000, 0.000000000000000000, -1.000000000000000000 ) ) ;
#182 = VERTEX_POINT ( 'NONE', #164 ) ;
#183 = DIRECTION ( 'NONE',  ( 0.000000000000000000, 1.000000000000000000, 0.000000000000000000 ) ) ;
#184 = LENGTH_MEASURE_WITH_UNIT ( LENGTH_MEASURE( 0.02539999999999999897 ), #21 );
#185 = ORIENTED_EDGE ( 'NONE', *, *, #29, .F. ) ;
#186 = DIRECTION ( 'NONE',  ( 0.000000000000000000, 1.000000000000000000, 0.000000000000000000 ) ) ;
#187 = ORIENTED_EDGE ( 'NONE', *, *, #1, .F. ) ;
#188 = VERTEX_POINT ( 'NONE', #6 ) ;
#189 = AXIS2_PLACEMENT_3D ( 'NONE', #88, #128, #117 ) ;
#190 = CLOSED_SHELL ( 'NONE', ( #144, #16, #44, #13, #178, #111 ) ) ;
#191 = EDGE_LOOP ( 'NONE', ( #112, #4, #118, #199 ) ) ;
#192 = CARTESIAN_POINT ( 'NONE',  ( 0.000000000000000000, 0.4349999999999999978, -0.1250000000000000000 ) ) ;
#193 = FILL_AREA_STYLE ('',( #125 ) ) ;
#194 = DIRECTION ( 'NONE',  ( -0.000000000000000000, -1.000000000000000000, -0.000000000000000000 ) ) ;
#195 = DIRECTION ( 'NONE',  ( 0.000000000000000000, 0.000000000000000000, -1.000000000000000000 ) ) ;
#196 = DIRECTION ( 'NONE',  ( 0.000000000000000000, 0.000000000000000000, 1.000000000000000000 ) ) ;
#197 = CIRCLE ( 'NONE', #63, 0.1250000000000000000 ) ;
#198 = CARTESIAN_POINT ( 'NONE',  ( 0.000000000000000000, 0.4349999999999999978, -0.06500000000000000222 ) ) ;
#199 = ORIENTED_EDGE ( 'NONE', *, *, #85, .T. ) ;
#200 = CIRCLE ( 'NONE', #158, 0.06500000000000000222 ) ;
#201 = FACE_OUTER_BOUND ( 'NONE', #191, .T. ) ;
#202 = CIRCLE ( 'NONE', #58, 0.1250000000000000000 ) ;
#203 = DIRECTION ( 'NONE',  ( 0.000000000000000000, 0.000000000000000000, 1.000000000000000000 ) ) ;
#204 = PRODUCT_DEFINITION_SHAPE ( 'NONE', 'NONE',  #41 ) ;
#205 = FACE_OUTER_BOUND ( 'NONE', #36, .T. ) ;
ENDSEC;
END-ISO-10303-21;
