ISO-10303-21;
HEADER;
FILE_DESCRIPTION (( 'STEP AP214' ),
    '1' );
FILE_NAME ('Eggfinder LCD Case V2.STEP',
    '2026-05-24T17:31:44',
    ( '' ),
    ( '' ),
    'SwSTEP 2.0',
    'SolidWorks 2024',
    '' );
FILE_SCHEMA (( 'AUTOMOTIVE_DESIGN' ));
ENDSEC;

DATA;
#1 = SHAPE_REPRESENTATION ( 'Eggfinder LCD Case V2 Upper Plate', ( #33 ), #19 ) ;
#2 = DIRECTION ( 'NONE',  ( 1.000000000000000000, 0.000000000000000000, 0.000000000000000000 ) ) ;
#3 = APPLIED_EXTERNAL_IDENTIFICATION_ASSIGNMENT ( 'Eggfinder LCD Case V2 Battery Door Retainer.STEP' , #226, #169,( #13) ) ;
#4 = DIRECTION ( 'NONE',  ( 1.000000000000000222, -5.119438649401485457E-29, 1.127570259384924611E-16 ) ) ;
#5 = IDENTIFICATION_ROLE ( 'external document id and location', $) ;
#6 = PRODUCT_DEFINITION_CONTEXT ( 'detailed design', #87, 'design' ) ;
#7 = SHAPE_DEFINITION_REPRESENTATION ( #29, #35 ) ;
#8 = OBJECT_ROLE ('mandatory',$ ) ;
#9 = PROPERTY_DEFINITION ('document property','', #63 ) ;
#10 = CONTEXT_DEPENDENT_SHAPE_REPRESENTATION ( #61, #12 ) ;
#11 = UNCERTAINTY_MEASURE_WITH_UNIT (LENGTH_MEASURE( 1.000000000000000082E-05 ), #231, 'distance_accuracy_value', 'NONE');
#12 = PRODUCT_DEFINITION_SHAPE ( 'NONE', 'NONE',  #253 ) ;
#13 = DOCUMENT_FILE ( 'Eggfinder LCD Case V2 Battery Door Retainer.STEP' , '', '', #150, '' ,$ ) ;
#14 = EXTERNAL_SOURCE (IDENTIFIER('') ) ;
#15 =( CONVERSION_BASED_UNIT ( 'INCH', #217 ) LENGTH_UNIT ( ) NAMED_UNIT ( #241 ) );
#16 = CARTESIAN_POINT ( 'NONE',  ( -0.9591643985618726331, 0.6303933018285138301, 4.008102628569173653 ) ) ;
#17 = LENGTH_MEASURE_WITH_UNIT ( LENGTH_MEASURE( 0.02539999999999999897 ), #89 );
#18 = DOCUMENT_FILE ( 'Eggfinder LCD Case V2 Program Door.STEP' , '', '', #159, '' ,$ ) ;
#19 =( GEOMETRIC_REPRESENTATION_CONTEXT ( 3 ) GLOBAL_UNCERTAINTY_ASSIGNED_CONTEXT ( ( #210 ) ) GLOBAL_UNIT_ASSIGNED_CONTEXT ( ( #176, #161, #48 ) ) REPRESENTATION_CONTEXT ( 'NONE', 'WORKASPACE' ) );
#20 = ROLE_ASSOCIATION ( #34, #115 ) ;
#21 = APPLICATION_PROTOCOL_DEFINITION ( 'draft international standard', 'automotive_design', 1998, #52 ) ;
#22 = PROPERTY_DEFINITION ('external definition','', #13 ) ;
#23 = PROPERTY_DEFINITION_REPRESENTATION ( #230, #86 ) ;
#24 = PRODUCT ( 'Eggfinder LCD Case V2 Battery Door Retainer', 'Eggfinder LCD Case V2 Battery Door Retainer', '', ( #93 ) ) ;
#25 =( CONVERSION_BASED_UNIT ( 'INCH', #229 ) LENGTH_UNIT ( ) NAMED_UNIT ( #178 ) );
#26 = PRODUCT_DEFINITION_SHAPE ( 'NONE', 'NONE',  #254 ) ;
#27 =( REPRESENTATION_RELATIONSHIP ('NONE','NONE', #218, #188 ) REPRESENTATION_RELATIONSHIP_WITH_TRANSFORMATION ( #166 )SHAPE_REPRESENTATION_RELATIONSHIP( ) );
#28 = PRODUCT_DEFINITION ( 'General', '', #58, #6 ) ;
#29 = PRODUCT_DEFINITION_SHAPE ( 'NONE', 'NONE',  #180 ) ;
#30 = APPLIED_EXTERNAL_IDENTIFICATION_ASSIGNMENT ( 'Eggfinder LCD Case V2 Program Door.STEP' , #113, #68,( #18) ) ;
#31 = APPLICATION_CONTEXT ( 'automotive_design' ) ;
#32 = APPLIED_EXTERNAL_IDENTIFICATION_ASSIGNMENT ( 'Eggfinder LCD Case V2 Upper Plate.STEP' , #5, #14,( #63) ) ;
#33 = AXIS2_PLACEMENT_3D ( 'NONE', #208, #82, #219 ) ;
#34 = OBJECT_ROLE ('mandatory',$ ) ;
#35 = SHAPE_REPRESENTATION ( 'Eggfinder LCD Case V2 Battery Door', ( #47 ), #227 ) ;
#36 = DOCUMENT_FILE ( 'Eggfinder LCD Case V2 Battery Door.STEP' , '', '', #244, '' ,$ ) ;
#37 = CONTEXT_DEPENDENT_SHAPE_REPRESENTATION ( #108, #142 ) ;
#38 = APPLICATION_CONTEXT ( 'automotive_design' ) ;
#39 = AXIS2_PLACEMENT_3D ( 'NONE', #16, #197, #240 ) ;
#40 = DOCUMENT_FILE ( 'Eggfinder LCD Case V2 Lower Shell.STEP' , '', '', #156, '' ,$ ) ;
#41 = APPLICATION_CONTEXT ( 'automotive_design' ) ;
#42 = APPLICATION_PROTOCOL_DEFINITION ( 'draft international standard', 'automotive_design', 1998, #106 ) ;
#43 = PROPERTY_DEFINITION_REPRESENTATION ( #147, #232 ) ;
#44 =( GEOMETRIC_REPRESENTATION_CONTEXT ( 3 ) GLOBAL_UNCERTAINTY_ASSIGNED_CONTEXT ( ( #104 ) ) GLOBAL_UNIT_ASSIGNED_CONTEXT ( ( #187, #152, #198 ) ) REPRESENTATION_CONTEXT ( 'NONE', 'WORKASPACE' ) );
#45 = PRODUCT ( 'Eggfinder LCD Case V2 Program Door', 'Eggfinder LCD Case V2 Program Door', '', ( #199 ) ) ;
#46 = PROPERTY_DEFINITION ('external definition','', #18 ) ;
#47 = AXIS2_PLACEMENT_3D ( 'NONE', #214, #97, #235 ) ;
#48 =( NAMED_UNIT ( * ) SI_UNIT ( $, .STERADIAN. ) SOLID_ANGLE_UNIT ( ) );
#49 = APPLIED_EXTERNAL_IDENTIFICATION_ASSIGNMENT ( 'Eggfinder LCD Case V2 Battery Door.STEP' , #79, #220,( #36) ) ;
#50 = APPLICATION_PROTOCOL_DEFINITION ( 'draft international standard', 'automotive_design', 1998, #122 ) ;
#51 = PRODUCT_RELATED_PRODUCT_CATEGORY ( 'part', '', ( #45 ) ) ;
#52 = APPLICATION_CONTEXT ( 'automotive_design' ) ;
#53 = DIRECTION ( 'NONE',  ( 0.9999739131475523513, -1.667977620437442331E-25, -0.007223089669344224389 ) ) ;
#54 = DIRECTION ( 'NONE',  ( 0.000000000000000000, 0.000000000000000000, 1.000000000000000000 ) ) ;
#55 = AXIS2_PLACEMENT_3D ( 'NONE', #64, #189, #233 ) ;
#56 = APPLICATION_CONTEXT ( 'automotive_design' ) ;
#57 = APPLICATION_PROTOCOL_DEFINITION ( 'draft international standard', 'automotive_design', 1998, #31 ) ;
#58 = PRODUCT_DEFINITION_FORMATION_WITH_SPECIFIED_SOURCE ( 'Symmetric', '', #24, .NOT_KNOWN. ) ;
#59 = SHAPE_DEFINITION_REPRESENTATION ( #153, #218 ) ;
#60 = PROPERTY_DEFINITION_REPRESENTATION ( #46, #86 ) ;
#61 =( REPRESENTATION_RELATIONSHIP ('NONE','NONE', #218, #232 ) REPRESENTATION_RELATIONSHIP_WITH_TRANSFORMATION ( #245 )SHAPE_REPRESENTATION_RELATIONSHIP( ) );
#62 = CARTESIAN_POINT ( 'NONE',  ( 0.000000000000000000, 0.000000000000000000, 0.000000000000000000 ) ) ;
#63 = DOCUMENT_FILE ( 'Eggfinder LCD Case V2 Upper Plate.STEP' , '', '', #213, '' ,$ ) ;
#64 = CARTESIAN_POINT ( 'NONE',  ( 0.000000000000000000, 0.000000000000000000, 0.000000000000000000 ) ) ;
#65 = ROLE_ASSOCIATION ( #8, #250 ) ;
#66 = PRODUCT_DEFINITION_CONTEXT ( 'detailed design', #223, 'design' ) ;
#67 = DIRECTION ( 'NONE',  ( 1.000000000000000000, 0.000000000000000000, 0.000000000000000000 ) ) ;
#68 = EXTERNAL_SOURCE (IDENTIFIER('') ) ;
#69 = DIMENSIONAL_EXPONENTS ( 1.000000000000000000, 0.000000000000000000, 0.000000000000000000, 0.000000000000000000, 0.000000000000000000, 0.000000000000000000, 0.000000000000000000 ) ;
#70 = PRODUCT_DEFINITION ( 'General', '', #71, #162 ) ;
#71 = PRODUCT_DEFINITION_FORMATION_WITH_SPECIFIED_SOURCE ( 'Symmetric', '', #120, .NOT_KNOWN. ) ;
#72 = DIRECTION ( 'NONE',  ( 0.000000000000000000, 0.000000000000000000, 1.000000000000000000 ) ) ;
#73 = APPLICATION_CONTEXT ( 'automotive_design' ) ;
#74 = ITEM_DEFINED_TRANSFORMATION ( 'NONE', 'NONE', #116,  #47 ) ;
#75 = PRODUCT_DEFINITION_CONTEXT ( 'detailed design', #125, 'design' ) ;
#76 = SHAPE_DEFINITION_REPRESENTATION ( #204, #86 ) ;
#77 = PROPERTY_DEFINITION_REPRESENTATION ( #167, #35 ) ;
#78 = ROLE_ASSOCIATION ( #192, #96 ) ;
#79 = IDENTIFICATION_ROLE ( 'external document id and location', $) ;
#80 = LENGTH_MEASURE_WITH_UNIT ( LENGTH_MEASURE( 0.02539999999999999897 ), #136 );
#81 = CONTEXT_DEPENDENT_SHAPE_REPRESENTATION ( #139, #154 ) ;
#82 = DIRECTION ( 'NONE',  ( 0.000000000000000000, 0.000000000000000000, 1.000000000000000000 ) ) ;
#83 = PROPERTY_DEFINITION_REPRESENTATION ( #9, #1 ) ;
#84 = PRODUCT ( 'Eggfinder LCD Case V2 Upper Plate', 'Eggfinder LCD Case V2 Upper Plate', '', ( #200 ) ) ;
#85 = ITEM_DEFINED_TRANSFORMATION ( 'NONE', 'NONE', #225,  #33 ) ;
#86 = SHAPE_REPRESENTATION ( 'Eggfinder LCD Case V2 Program Door', ( #55 ), #137 ) ;
#87 = APPLICATION_CONTEXT ( 'automotive_design' ) ;
#88 = DIRECTION ( 'NONE',  ( -0.007223089669344224389, 1.351528098419133715E-25, -0.9999739131475523513 ) ) ;
#89 =( LENGTH_UNIT ( ) NAMED_UNIT ( * ) SI_UNIT ( $, .METRE. ) );
#90 =( NAMED_UNIT ( * ) PLANE_ANGLE_UNIT ( ) SI_UNIT ( $, .RADIAN. ) );
#91 = DIRECTION ( 'NONE',  ( 5.119438649401487699E-29, 1.000000000000000000, 9.441464594701981958E-29 ) ) ;
#92 = APPLIED_DOCUMENT_REFERENCE ( #18,'',( #95) ) ;
#93 = PRODUCT_CONTEXT ( 'NONE', #52, 'mechanical' ) ;
#94 = APPLICATION_PROTOCOL_DEFINITION ( 'draft international standard', 'automotive_design', 1998, #125 ) ;
#95 = PRODUCT_DEFINITION ( 'General', '', #181, #172 ) ;
#96 = APPLIED_DOCUMENT_REFERENCE ( #40,'',( #242) ) ;
#97 = DIRECTION ( 'NONE',  ( 0.000000000000000000, 0.000000000000000000, 1.000000000000000000 ) ) ;
#98 = PROPERTY_DEFINITION_REPRESENTATION ( #102, #35 ) ;
#99 = OBJECT_ROLE ('mandatory',$ ) ;
#100 = LENGTH_MEASURE_WITH_UNIT ( LENGTH_MEASURE( 0.02539999999999999897 ), #128 );
#101 = CONTEXT_DEPENDENT_SHAPE_REPRESENTATION ( #27, #26 ) ;
#102 = PROPERTY_DEFINITION ('external definition','', #36 ) ;
#103 = UNCERTAINTY_MEASURE_WITH_UNIT (LENGTH_MEASURE( 1.000000000000000082E-05 ), #25, 'distance_accuracy_value', 'NONE');
#104 = UNCERTAINTY_MEASURE_WITH_UNIT (LENGTH_MEASURE( 1.000000000000000082E-05 ), #187, 'distance_accuracy_value', 'NONE');
#105 =( GEOMETRIC_REPRESENTATION_CONTEXT ( 3 ) GLOBAL_UNCERTAINTY_ASSIGNED_CONTEXT ( ( #11 ) ) GLOBAL_UNIT_ASSIGNED_CONTEXT ( ( #231, #121, #207 ) ) REPRESENTATION_CONTEXT ( 'NONE', 'WORKASPACE' ) );
#106 = APPLICATION_CONTEXT ( 'automotive_design' ) ;
#107 = APPLIED_EXTERNAL_IDENTIFICATION_ASSIGNMENT ( 'Eggfinder LCD Case V2 Lower Shell.STEP' , #194, #131,( #40) ) ;
#108 =( REPRESENTATION_RELATIONSHIP ('NONE','NONE', #218, #35 ) REPRESENTATION_RELATIONSHIP_WITH_TRANSFORMATION ( #74 )SHAPE_REPRESENTATION_RELATIONSHIP( ) );
#109 = DIRECTION ( 'NONE',  ( 1.000000000000000000, 0.000000000000000000, 0.000000000000000000 ) ) ;
#110 = DIMENSIONAL_EXPONENTS ( 1.000000000000000000, 0.000000000000000000, 0.000000000000000000, 0.000000000000000000, 0.000000000000000000, 0.000000000000000000, 0.000000000000000000 ) ;
#111 = CARTESIAN_POINT ( 'NONE',  ( -0.4975175400390736136, 0.6303933018285137191, 3.676866264665787476 ) ) ;
#112 = APPLICATION_PROTOCOL_DEFINITION ( 'draft international standard', 'automotive_design', 1998, #237 ) ;
#113 = IDENTIFICATION_ROLE ( 'external document id and location', $) ;
#114 = PRODUCT_DEFINITION_CONTEXT ( 'detailed design', #41, 'design' ) ;
#115 = APPLIED_DOCUMENT_REFERENCE ( #36,'',( #180) ) ;
#116 = AXIS2_PLACEMENT_3D ( 'NONE', #111, #54, #133 ) ;
#117 = AXIS2_PLACEMENT_3D ( 'NONE', #249, #72, #109 ) ;
#118 = CARTESIAN_POINT ( 'NONE',  ( 0.000000000000000000, 0.000000000000000000, 0.000000000000000000 ) ) ;
#119 =( CONVERSION_BASED_UNIT ( 'INCH', #100 ) LENGTH_UNIT ( ) NAMED_UNIT ( #110 ) );
#120 = PRODUCT ( 'Eggfinder LCD Case V2', 'Eggfinder LCD Case V2', '', ( #239 ) ) ;
#121 =( NAMED_UNIT ( * ) PLANE_ANGLE_UNIT ( ) SI_UNIT ( $, .RADIAN. ) );
#122 = APPLICATION_CONTEXT ( 'automotive_design' ) ;
#123 = ROLE_ASSOCIATION ( #174, #92 ) ;
#124 = LENGTH_MEASURE_WITH_UNIT ( LENGTH_MEASURE( 0.02539999999999999897 ), #149 );
#125 = APPLICATION_CONTEXT ( 'automotive_design' ) ;
#126 = APPLIED_DOCUMENT_REFERENCE ( #63,'',( #196) ) ;
#127 = PRODUCT_DEFINITION_SHAPE ( 'NONE', 'NONE',  #242 ) ;
#128 =( LENGTH_UNIT ( ) NAMED_UNIT ( * ) SI_UNIT ( $, .METRE. ) );
#129 = PRODUCT_RELATED_PRODUCT_CATEGORY ( 'part', '', ( #184 ) ) ;
#130 = PRODUCT_DEFINITION_FORMATION_WITH_SPECIFIED_SOURCE ( 'Symmetric', '', #212, .NOT_KNOWN. ) ;
#131 = EXTERNAL_SOURCE (IDENTIFIER('') ) ;
#132 = DIMENSIONAL_EXPONENTS ( 1.000000000000000000, 0.000000000000000000, 0.000000000000000000, 0.000000000000000000, 0.000000000000000000, 0.000000000000000000, 0.000000000000000000 ) ;
#133 = DIRECTION ( 'NONE',  ( 1.000000000000000000, 0.000000000000000000, 0.000000000000000000 ) ) ;
#134 = DIRECTION ( 'NONE',  ( 0.000000000000000000, 0.000000000000000000, 1.000000000000000000 ) ) ;
#135 = CARTESIAN_POINT ( 'NONE',  ( -1.070017540039072568, 1.995393301828513710, 4.063920103453569688 ) ) ;
#136 =( LENGTH_UNIT ( ) NAMED_UNIT ( * ) SI_UNIT ( $, .METRE. ) );
#137 =( GEOMETRIC_REPRESENTATION_CONTEXT ( 3 ) GLOBAL_UNCERTAINTY_ASSIGNED_CONTEXT ( ( #103 ) ) GLOBAL_UNIT_ASSIGNED_CONTEXT ( ( #25, #203, #146 ) ) REPRESENTATION_CONTEXT ( 'NONE', 'WORKASPACE' ) );
#138 = APPLICATION_PROTOCOL_DEFINITION ( 'draft international standard', 'automotive_design', 1998, #56 ) ;
#139 =( REPRESENTATION_RELATIONSHIP ('NONE','NONE', #218, #1 ) REPRESENTATION_RELATIONSHIP_WITH_TRANSFORMATION ( #85 )SHAPE_REPRESENTATION_RELATIONSHIP( ) );
#140 = SHAPE_DEFINITION_REPRESENTATION ( #236, #188 ) ;
#141 = PRODUCT_RELATED_PRODUCT_CATEGORY ( 'part', '', ( #84 ) ) ;
#142 = PRODUCT_DEFINITION_SHAPE ( 'NONE', 'NONE',  #252 ) ;
#143 =( LENGTH_UNIT ( ) NAMED_UNIT ( * ) SI_UNIT ( $, .METRE. ) );
#144 = PRODUCT_DEFINITION_FORMATION_WITH_SPECIFIED_SOURCE ( 'Symmetric', '', #184, .NOT_KNOWN. ) ;
#145 = APPLICATION_PROTOCOL_DEFINITION ( 'draft international standard', 'automotive_design', 1998, #223 ) ;
#146 =( NAMED_UNIT ( * ) SI_UNIT ( $, .STERADIAN. ) SOLID_ANGLE_UNIT ( ) );
#147 = PROPERTY_DEFINITION ('document property','', #40 ) ;
#148 = PROPERTY_DEFINITION ('document property','', #13 ) ;
#149 =( LENGTH_UNIT ( ) NAMED_UNIT ( * ) SI_UNIT ( $, .METRE. ) );
#150 = DOCUMENT_TYPE ( 'geometry' ) ;
#151 = UNCERTAINTY_MEASURE_WITH_UNIT (LENGTH_MEASURE( 1.000000000000000082E-05 ), #119, 'distance_accuracy_value', 'NONE');
#152 =( NAMED_UNIT ( * ) PLANE_ANGLE_UNIT ( ) SI_UNIT ( $, .RADIAN. ) );
#153 = PRODUCT_DEFINITION_SHAPE ( 'NONE', 'NONE',  #70 ) ;
#154 = PRODUCT_DEFINITION_SHAPE ( 'NONE', 'NONE',  #255 ) ;
#155 = PROPERTY_DEFINITION_REPRESENTATION ( #215, #1 ) ;
#156 = DOCUMENT_TYPE ( 'geometry' ) ;
#157 = CARTESIAN_POINT ( 'NONE',  ( 0.8674824599609277653, 0.7803933018285138523, 1.888920103453567867 ) ) ;
#158 =( NAMED_UNIT ( * ) PLANE_ANGLE_UNIT ( ) SI_UNIT ( $, .RADIAN. ) );
#159 = DOCUMENT_TYPE ( 'geometry' ) ;
#160 = DIMENSIONAL_EXPONENTS ( 1.000000000000000000, 0.000000000000000000, 0.000000000000000000, 0.000000000000000000, 0.000000000000000000, 0.000000000000000000, 0.000000000000000000 ) ;
#161 =( NAMED_UNIT ( * ) PLANE_ANGLE_UNIT ( ) SI_UNIT ( $, .RADIAN. ) );
#162 = PRODUCT_DEFINITION_CONTEXT ( 'detailed design', #122, 'design' ) ;
#163 = SHAPE_DEFINITION_REPRESENTATION ( #247, #1 ) ;
#164 = APPLICATION_PROTOCOL_DEFINITION ( 'draft international standard', 'automotive_design', 1998, #41 ) ;
#165 = DIRECTION ( 'NONE',  ( 0.000000000000000000, 0.000000000000000000, 1.000000000000000000 ) ) ;
#166 = ITEM_DEFINED_TRANSFORMATION ( 'NONE', 'NONE', #190,  #117 ) ;
#167 = PROPERTY_DEFINITION ('document property','', #36 ) ;
#168 =( GEOMETRIC_REPRESENTATION_CONTEXT ( 3 ) GLOBAL_UNCERTAINTY_ASSIGNED_CONTEXT ( ( #173 ) ) GLOBAL_UNIT_ASSIGNED_CONTEXT ( ( #15, #158, #179 ) ) REPRESENTATION_CONTEXT ( 'NONE', 'WORKASPACE' ) );
#169 = EXTERNAL_SOURCE (IDENTIFIER('') ) ;
#170 = DIRECTION ( 'NONE',  ( 1.000000000000000000, 0.000000000000000000, 0.000000000000000000 ) ) ;
#171 = PROPERTY_DEFINITION ('external definition','', #40 ) ;
#172 = PRODUCT_DEFINITION_CONTEXT ( 'detailed design', #38, 'design' ) ;
#173 = UNCERTAINTY_MEASURE_WITH_UNIT (LENGTH_MEASURE( 1.000000000000000082E-05 ), #15, 'distance_accuracy_value', 'NONE');
#174 = OBJECT_ROLE ('mandatory',$ ) ;
#175 = PRODUCT_RELATED_PRODUCT_CATEGORY ( 'part', '', ( #212 ) ) ;
#176 =( CONVERSION_BASED_UNIT ( 'INCH', #17 ) LENGTH_UNIT ( ) NAMED_UNIT ( #160 ) );
#177 = ROLE_ASSOCIATION ( #99, #126 ) ;
#178 = DIMENSIONAL_EXPONENTS ( 1.000000000000000000, 0.000000000000000000, 0.000000000000000000, 0.000000000000000000, 0.000000000000000000, 0.000000000000000000, 0.000000000000000000 ) ;
#179 =( NAMED_UNIT ( * ) SI_UNIT ( $, .STERADIAN. ) SOLID_ANGLE_UNIT ( ) );
#180 = PRODUCT_DEFINITION ( 'General', '', #130, #66 ) ;
#181 = PRODUCT_DEFINITION_FORMATION_WITH_SPECIFIED_SOURCE ( 'Symmetric', '', #45, .NOT_KNOWN. ) ;
#182 = ITEM_DEFINED_TRANSFORMATION ( 'NONE', 'NONE', #201,  #55 ) ;
#183 = PRODUCT_CONTEXT ( 'NONE', #106, 'mechanical' ) ;
#184 = PRODUCT ( 'Eggfinder LCD Case V2 Lower Shell', 'Eggfinder LCD Case V2 Lower Shell', '', ( #183 ) ) ;
#185 = PROPERTY_DEFINITION_REPRESENTATION ( #148, #188 ) ;
#186 =( REPRESENTATION_RELATIONSHIP ('NONE','NONE', #218, #86 ) REPRESENTATION_RELATIONSHIP_WITH_TRANSFORMATION ( #182 )SHAPE_REPRESENTATION_RELATIONSHIP( ) );
#187 =( CONVERSION_BASED_UNIT ( 'INCH', #124 ) LENGTH_UNIT ( ) NAMED_UNIT ( #132 ) );
#188 = SHAPE_REPRESENTATION ( 'Eggfinder LCD Case V2 Battery Door Retainer', ( #117 ), #168 ) ;
#189 = DIRECTION ( 'NONE',  ( 0.000000000000000000, 0.000000000000000000, 1.000000000000000000 ) ) ;
#190 = AXIS2_PLACEMENT_3D ( 'NONE', #157, #88, #53 ) ;
#191 = PROPERTY_DEFINITION_REPRESENTATION ( #22, #188 ) ;
#192 = OBJECT_ROLE ('mandatory',$ ) ;
#193 = CARTESIAN_POINT ( 'NONE',  ( -0.007517540039072673555, 0.6303933018285138301, 1.428920103453567902 ) ) ;
#194 = IDENTIFICATION_ROLE ( 'external document id and location', $) ;
#195 =( LENGTH_UNIT ( ) NAMED_UNIT ( * ) SI_UNIT ( $, .METRE. ) );
#196 = PRODUCT_DEFINITION ( 'General', '', #216, #75 ) ;
#197 = DIRECTION ( 'NONE',  ( 0.000000000000000000, 0.000000000000000000, 1.000000000000000000 ) ) ;
#198 =( NAMED_UNIT ( * ) SI_UNIT ( $, .STERADIAN. ) SOLID_ANGLE_UNIT ( ) );
#199 = PRODUCT_CONTEXT ( 'NONE', #56, 'mechanical' ) ;
#200 = PRODUCT_CONTEXT ( 'NONE', #31, 'mechanical' ) ;
#201 = AXIS2_PLACEMENT_3D ( 'NONE', #193, #134, #2 ) ;
#202 = PROPERTY_DEFINITION_REPRESENTATION ( #171, #232 ) ;
#203 =( NAMED_UNIT ( * ) PLANE_ANGLE_UNIT ( ) SI_UNIT ( $, .RADIAN. ) );
#204 = PRODUCT_DEFINITION_SHAPE ( 'NONE', 'NONE',  #95 ) ;
#205 = SHAPE_DEFINITION_REPRESENTATION ( #127, #232 ) ;
#206 =( NAMED_UNIT ( * ) SI_UNIT ( $, .STERADIAN. ) SOLID_ANGLE_UNIT ( ) );
#207 =( NAMED_UNIT ( * ) SI_UNIT ( $, .STERADIAN. ) SOLID_ANGLE_UNIT ( ) );
#208 = CARTESIAN_POINT ( 'NONE',  ( 0.000000000000000000, 0.000000000000000000, 0.000000000000000000 ) ) ;
#209 = AXIS2_PLACEMENT_3D ( 'NONE', #62, #211, #67 ) ;
#210 = UNCERTAINTY_MEASURE_WITH_UNIT (LENGTH_MEASURE( 1.000000000000000082E-05 ), #176, 'distance_accuracy_value', 'NONE');
#211 = DIRECTION ( 'NONE',  ( 0.000000000000000000, 0.000000000000000000, 1.000000000000000000 ) ) ;
#212 = PRODUCT ( 'Eggfinder LCD Case V2 Battery Door', 'Eggfinder LCD Case V2 Battery Door', '', ( #222 ) ) ;
#213 = DOCUMENT_TYPE ( 'geometry' ) ;
#214 = CARTESIAN_POINT ( 'NONE',  ( 0.000000000000000000, 0.000000000000000000, 0.000000000000000000 ) ) ;
#215 = PROPERTY_DEFINITION ('external definition','', #63 ) ;
#216 = PRODUCT_DEFINITION_FORMATION_WITH_SPECIFIED_SOURCE ( 'Symmetric', '', #84, .NOT_KNOWN. ) ;
#217 = LENGTH_MEASURE_WITH_UNIT ( LENGTH_MEASURE( 0.02539999999999999897 ), #195 );
#218 = SHAPE_REPRESENTATION ( 'Eggfinder LCD Case V2', ( #248, #201, #116, #39, #190, #225 ), #105 ) ;
#219 = DIRECTION ( 'NONE',  ( 1.000000000000000000, 0.000000000000000000, 0.000000000000000000 ) ) ;
#220 = EXTERNAL_SOURCE (IDENTIFIER('') ) ;
#221 = PRODUCT_RELATED_PRODUCT_CATEGORY ( 'part', '', ( #24 ) ) ;
#222 = PRODUCT_CONTEXT ( 'NONE', #73, 'mechanical' ) ;
#223 = APPLICATION_CONTEXT ( 'automotive_design' ) ;
#224 = APPLICATION_PROTOCOL_DEFINITION ( 'draft international standard', 'automotive_design', 1998, #38 ) ;
#225 = AXIS2_PLACEMENT_3D ( 'NONE', #135, #91, #4 ) ;
#226 = IDENTIFICATION_ROLE ( 'external document id and location', $) ;
#227 =( GEOMETRIC_REPRESENTATION_CONTEXT ( 3 ) GLOBAL_UNCERTAINTY_ASSIGNED_CONTEXT ( ( #151 ) ) GLOBAL_UNIT_ASSIGNED_CONTEXT ( ( #119, #90, #206 ) ) REPRESENTATION_CONTEXT ( 'NONE', 'WORKASPACE' ) );
#228 = APPLICATION_PROTOCOL_DEFINITION ( 'draft international standard', 'automotive_design', 1998, #87 ) ;
#229 = LENGTH_MEASURE_WITH_UNIT ( LENGTH_MEASURE( 0.02539999999999999897 ), #143 );
#230 = PROPERTY_DEFINITION ('document property','', #18 ) ;
#231 =( CONVERSION_BASED_UNIT ( 'INCH', #80 ) LENGTH_UNIT ( ) NAMED_UNIT ( #69 ) );
#232 = SHAPE_REPRESENTATION ( 'Eggfinder LCD Case V2 Lower Shell', ( #209 ), #44 ) ;
#233 = DIRECTION ( 'NONE',  ( 1.000000000000000000, 0.000000000000000000, 0.000000000000000000 ) ) ;
#234 = PRODUCT_DEFINITION_SHAPE ( 'NONE', 'NONE',  #251 ) ;
#235 = DIRECTION ( 'NONE',  ( 1.000000000000000000, 0.000000000000000000, 0.000000000000000000 ) ) ;
#236 = PRODUCT_DEFINITION_SHAPE ( 'NONE', 'NONE',  #28 ) ;
#237 = APPLICATION_CONTEXT ( 'automotive_design' ) ;
#238 = CONTEXT_DEPENDENT_SHAPE_REPRESENTATION ( #186, #234 ) ;
#239 = PRODUCT_CONTEXT ( 'NONE', #237, 'mechanical' ) ;
#240 = DIRECTION ( 'NONE',  ( 1.000000000000000000, 0.000000000000000000, 0.000000000000000000 ) ) ;
#241 = DIMENSIONAL_EXPONENTS ( 1.000000000000000000, 0.000000000000000000, 0.000000000000000000, 0.000000000000000000, 0.000000000000000000, 0.000000000000000000, 0.000000000000000000 ) ;
#242 = PRODUCT_DEFINITION ( 'General', '', #144, #114 ) ;
#243 = APPLICATION_PROTOCOL_DEFINITION ( 'draft international standard', 'automotive_design', 1998, #73 ) ;
#244 = DOCUMENT_TYPE ( 'geometry' ) ;
#245 = ITEM_DEFINED_TRANSFORMATION ( 'NONE', 'NONE', #39,  #209 ) ;
#246 = PRODUCT_RELATED_PRODUCT_CATEGORY ( 'part', '', ( #120 ) ) ;
#247 = PRODUCT_DEFINITION_SHAPE ( 'NONE', 'NONE',  #196 ) ;
#248 = AXIS2_PLACEMENT_3D ( 'NONE', #118, #165, #170 ) ;
#249 = CARTESIAN_POINT ( 'NONE',  ( 0.000000000000000000, 0.000000000000000000, 0.000000000000000000 ) ) ;
#250 = APPLIED_DOCUMENT_REFERENCE ( #13,'',( #28) ) ;
#251 = NEXT_ASSEMBLY_USAGE_OCCURRENCE ( 'NAUO1', ' ', ' ', #70, #95, $ ) ;
#252 = NEXT_ASSEMBLY_USAGE_OCCURRENCE ( 'NAUO2', ' ', ' ', #70, #180, $ ) ;
#253 = NEXT_ASSEMBLY_USAGE_OCCURRENCE ( 'NAUO3', ' ', ' ', #70, #242, $ ) ;
#254 = NEXT_ASSEMBLY_USAGE_OCCURRENCE ( 'NAUO4', ' ', ' ', #70, #28, $ ) ;
#255 = NEXT_ASSEMBLY_USAGE_OCCURRENCE ( 'NAUO5', ' ', ' ', #70, #196, $ ) ;
ENDSEC;
END-ISO-10303-21;
