ISO-10303-21;
HEADER;
FILE_DESCRIPTION (( 'STEP AP214' ),
    '1' );
FILE_NAME ('Eggfinder LCD Case V2 Battery Door Retainer.STEP',
    '2026-05-24T17:31:40',
    ( '' ),
    ( '' ),
    'SwSTEP 2.0',
    'SolidWorks 2024',
    '' );
FILE_SCHEMA (( 'AUTOMOTIVE_DESIGN' ));
ENDSEC;

DATA;
#1 = EDGE_CURVE ( 'NONE', #171, #167, #389, .T. ) ;
#2 = EDGE_CURVE ( 'NONE', #367, #335, #121, .T. ) ;
#3 = CARTESIAN_POINT ( 'NONE',  ( 0.4000000000000000222, 0.03749999999999999861, 0.000000000000000000 ) ) ;
#4 = ORIENTED_EDGE ( 'NONE', *, *, #59, .F. ) ;
#5 = EDGE_CURVE ( 'NONE', #330, #487, #346, .T. ) ;
#6 = CARTESIAN_POINT ( 'NONE',  ( 0.000000000000000000, 0.03749999999999999861, 0.000000000000000000 ) ) ;
#7 = AXIS2_PLACEMENT_3D ( 'NONE', #110, #455, #458 ) ;
#8 = PRODUCT_DEFINITION_SHAPE ( 'NONE', 'NONE',  #268 ) ;
#9 = PLANE ( 'NONE',  #406 ) ;
#10 = ORIENTED_EDGE ( 'NONE', *, *, #464, .F. ) ;
#11 = CARTESIAN_POINT ( 'NONE',  ( 0.000000000000000000, 0.1124999999999999889, -0.2874999999999999223 ) ) ;
#12 = FACE_BOUND ( 'NONE', #342, .T. ) ;
#13 = AXIS2_PLACEMENT_3D ( 'NONE', #461, #386, #163 ) ;
#14 = DIRECTION ( 'NONE',  ( -0.000000000000000000, 1.000000000000000000, -0.000000000000000000 ) ) ;
#15 = FILL_AREA_STYLE ('',( #234 ) ) ;
#16 = CIRCLE ( 'NONE', #431, 0.1250000000000000000 ) ;
#17 = EDGE_LOOP ( 'NONE', ( #62, #368, #58, #29 ) ) ;
#18 = DIRECTION ( 'NONE',  ( -0.000000000000000000, -1.000000000000000000, -0.000000000000000000 ) ) ;
#19 = DIRECTION ( 'NONE',  ( -5.938799986226659171E-17, 0.000000000000000000, -1.000000000000000000 ) ) ;
#20 = AXIS2_PLACEMENT_3D ( 'NONE', #3, #375, #159 ) ;
#21 = CARTESIAN_POINT ( 'NONE',  ( 0.000000000000000000, 0.1124999999999999889, -0.2874999999999999223 ) ) ;
#22 = AXIS2_PLACEMENT_3D ( 'NONE', #112, #260, #228 ) ;
#23 = DIRECTION ( 'NONE',  ( 0.000000000000000000, 0.000000000000000000, 1.000000000000000000 ) ) ;
#24 = ORIENTED_EDGE ( 'NONE', *, *, #429, .F. ) ;
#25 = EDGE_CURVE ( 'NONE', #30, #335, #158, .T. ) ;
#26 = VERTEX_POINT ( 'NONE', #382 ) ;
#27 = ORIENTED_EDGE ( 'NONE', *, *, #359, .T. ) ;
#28 = APPLICATION_PROTOCOL_DEFINITION ( 'draft international standard', 'automotive_design', 1998, #334 ) ;
#29 = ORIENTED_EDGE ( 'NONE', *, *, #149, .T. ) ;
#30 = VERTEX_POINT ( 'NONE', #36 ) ;
#31 = DIRECTION ( 'NONE',  ( 0.000000000000000000, 0.000000000000000000, 1.000000000000000000 ) ) ;
#32 = DIRECTION ( 'NONE',  ( -0.000000000000000000, 1.000000000000000000, -0.000000000000000000 ) ) ;
#33 = FACE_OUTER_BOUND ( 'NONE', #452, .T. ) ;
#34 = DIRECTION ( 'NONE',  ( -1.000000000000000000, 0.000000000000000000, -5.938799986226660403E-17 ) ) ;
#35 = AXIS2_PLACEMENT_3D ( 'NONE', #370, #183, #185 ) ;
#36 = CARTESIAN_POINT ( 'NONE',  ( 7.868355684521743882E-18, 0.000000000000000000, -0.06425000000000000155 ) ) ;
#37 = CARTESIAN_POINT ( 'NONE',  ( 0.6500000000000000222, 0.03749999999999999861, 0.06249999999999995837 ) ) ;
#38 = AXIS2_PLACEMENT_3D ( 'NONE', #200, #443, #173 ) ;
#39 = CYLINDRICAL_SURFACE ( 'NONE', #412, 0.06249999999999995837 ) ;
#40 = EDGE_CURVE ( 'NONE', #76, #407, #399, .T. ) ;
#41 = CARTESIAN_POINT ( 'NONE',  ( 0.5749999999999999556, 0.1124999999999999889, 0.2874999999999999223 ) ) ;
#42 = ADVANCED_FACE ( 'NONE', ( #33 ), #259, .T. ) ;
#43 = CARTESIAN_POINT ( 'NONE',  ( 0.4000000000000000222, 0.03749999999999999861, -0.06250000000000002776 ) ) ;
#44 = LINE ( 'NONE', #457, #194 ) ;
#45 = LENGTH_MEASURE_WITH_UNIT ( LENGTH_MEASURE( 0.02539999999999999897 ), #236 );
#46 = CARTESIAN_POINT ( 'NONE',  ( 0.000000000000000000, 0.03749999999999999861, 0.000000000000000000 ) ) ;
#47 = ORIENTED_EDGE ( 'NONE', *, *, #372, .F. ) ;
#48 = DIRECTION ( 'NONE',  ( -0.000000000000000000, 1.000000000000000000, -0.000000000000000000 ) ) ;
#49 = CYLINDRICAL_SURFACE ( 'NONE', #449, 0.2874999999999999223 ) ;
#50 = ORIENTED_EDGE ( 'NONE', *, *, #114, .T. ) ;
#51 = PLANE ( 'NONE',  #84 ) ;
#52 = FACE_OUTER_BOUND ( 'NONE', #332, .T. ) ;
#53 = AXIS2_PLACEMENT_3D ( 'NONE', #315, #136, #398 ) ;
#54 = ORIENTED_EDGE ( 'NONE', *, *, #308, .F. ) ;
#55 = FACE_OUTER_BOUND ( 'NONE', #72, .T. ) ;
#56 = CIRCLE ( 'NONE', #120, 0.1250000000000000000 ) ;
#57 = VECTOR ( 'NONE', #376, 39.37007874015748143 ) ;
#58 = ORIENTED_EDGE ( 'NONE', *, *, #308, .T. ) ;
#59 = EDGE_CURVE ( 'NONE', #145, #171, #384, .T. ) ;
#60 = CARTESIAN_POINT ( 'NONE',  ( 0.000000000000000000, 0.03749999999999999861, 0.000000000000000000 ) ) ;
#61 = APPLICATION_PROTOCOL_DEFINITION ( 'draft international standard', 'automotive_design', 1998, #124 ) ;
#62 = ORIENTED_EDGE ( 'NONE', *, *, #97, .F. ) ;
#63 = AXIS2_PLACEMENT_3D ( 'NONE', #474, #358, #319 ) ;
#64 = EDGE_LOOP ( 'NONE', ( #405, #184, #304, #108 ) ) ;
#65 = SHAPE_DEFINITION_REPRESENTATION ( #8, #270 ) ;
#66 = ORIENTED_EDGE ( 'NONE', *, *, #5, .F. ) ;
#67 =( CONVERSION_BASED_UNIT ( 'INCH', #69 ) LENGTH_UNIT ( ) NAMED_UNIT ( #288 ) );
#68 = ORIENTED_EDGE ( 'NONE', *, *, #445, .F. ) ;
#69 = LENGTH_MEASURE_WITH_UNIT ( LENGTH_MEASURE( 0.02539999999999999897 ), #216 );
#70 = CARTESIAN_POINT ( 'NONE',  ( 0.000000000000000000, 0.000000000000000000, 0.000000000000000000 ) ) ;
#71 = VECTOR ( 'NONE', #336, 39.37007874015748143 ) ;
#72 = EDGE_LOOP ( 'NONE', ( #289, #255 ) ) ;
#73 = ADVANCED_FACE ( 'NONE', ( #261 ), #39, .F. ) ;
#74 = AXIS2_PLACEMENT_3D ( 'NONE', #6, #494, #424 ) ;
#75 = CARTESIAN_POINT ( 'NONE',  ( 0.000000000000000000, 0.03749999999999999861, 0.000000000000000000 ) ) ;
#76 = VERTEX_POINT ( 'NONE', #379 ) ;
#77 = AXIS2_PLACEMENT_3D ( 'NONE', #323, #286, #350 ) ;
#78 = CARTESIAN_POINT ( 'NONE',  ( 0.000000000000000000, 0.03749999999999999861, 0.1250000000000000000 ) ) ;
#79 = EDGE_CURVE ( 'NONE', #430, #145, #374, .T. ) ;
#80 = CARTESIAN_POINT ( 'NONE',  ( 0.6500000000000000222, 0.03749999999999999861, 0.000000000000000000 ) ) ;
#81 = CARTESIAN_POINT ( 'NONE',  ( 7.868355684521743882E-18, 0.03749999999999999861, -0.06425000000000000155 ) ) ;
#82 = DIRECTION ( 'NONE',  ( 0.000000000000000000, 1.000000000000000000, 0.000000000000000000 ) ) ;
#83 = CARTESIAN_POINT ( 'NONE',  ( 0.000000000000000000, 0.1124999999999999889, 0.1250000000000000000 ) ) ;
#84 = AXIS2_PLACEMENT_3D ( 'NONE', #92, #279, #432 ) ;
#85 =( NAMED_UNIT ( * ) SI_UNIT ( $, .STERADIAN. ) SOLID_ANGLE_UNIT ( ) );
#86 = CIRCLE ( 'NONE', #291, 0.06250000000000002776 ) ;
#87 = CARTESIAN_POINT ( 'NONE',  ( 0.000000000000000000, 0.03749999999999999861, 0.1250000000000000000 ) ) ;
#88 = VERTEX_POINT ( 'NONE', #43 ) ;
#89 = FACE_OUTER_BOUND ( 'NONE', #109, .T. ) ;
#90 = DIRECTION ( 'NONE',  ( 0.000000000000000000, 0.000000000000000000, 1.000000000000000000 ) ) ;
#91 = ORIENTED_EDGE ( 'NONE', *, *, #219, .F. ) ;
#92 = CARTESIAN_POINT ( 'NONE',  ( 0.5749999999999999556, 0.1124999999999999889, -0.2874999999999999223 ) ) ;
#93 = CARTESIAN_POINT ( 'NONE',  ( 0.6500000000000000222, 0.03749999999999999861, 0.06249999999999995837 ) ) ;
#94 = ORIENTED_EDGE ( 'NONE', *, *, #127, .F. ) ;
#95 = CARTESIAN_POINT ( 'NONE',  ( 0.000000000000000000, 0.000000000000000000, 0.000000000000000000 ) ) ;
#96 = ADVANCED_FACE ( 'NONE', ( #311 ), #188, .F. ) ;
#97 = EDGE_CURVE ( 'NONE', #205, #139, #493, .T. ) ;
#98 = FACE_BOUND ( 'NONE', #327, .T. ) ;
#99 = AXIS2_PLACEMENT_3D ( 'NONE', #354, #141, #235 ) ;
#100 = CARTESIAN_POINT ( 'NONE',  ( 0.000000000000000000, 0.000000000000000000, 0.06425000000000000155 ) ) ;
#101 = CIRCLE ( 'NONE', #155, 0.06250000000000002776 ) ;
#102 = ORIENTED_EDGE ( 'NONE', *, *, #157, .F. ) ;
#103 = ORIENTED_EDGE ( 'NONE', *, *, #325, .F. ) ;
#104 = VECTOR ( 'NONE', #345, 39.37007874015748143 ) ;
#105 = ORIENTED_EDGE ( 'NONE', *, *, #79, .T. ) ;
#106 = PRODUCT_DEFINITION_FORMATION_WITH_SPECIFIED_SOURCE ( 'Symmetric', '', #128, .NOT_KNOWN. ) ;
#107 = ORIENTED_EDGE ( 'NONE', *, *, #40, .T. ) ;
#108 = ORIENTED_EDGE ( 'NONE', *, *, #214, .F. ) ;
#109 = EDGE_LOOP ( 'NONE', ( #369, #411, #274, #154 ) ) ;
#110 = CARTESIAN_POINT ( 'NONE',  ( 0.6500000000000000222, 0.1124999999999999889, 0.000000000000000000 ) ) ;
#111 = VECTOR ( 'NONE', #307, 39.37007874015748143 ) ;
#112 = CARTESIAN_POINT ( 'NONE',  ( 0.000000000000000000, -0.007500000000000005794, 0.000000000000000000 ) ) ;
#113 = DIRECTION ( 'NONE',  ( 0.000000000000000000, 0.000000000000000000, -1.000000000000000000 ) ) ;
#114 = EDGE_CURVE ( 'NONE', #487, #76, #497, .T. ) ;
#115 = PLANE ( 'NONE',  #13 ) ;
#116 = DIRECTION ( 'NONE',  ( 2.731847993664263711E-16, 0.000000000000000000, 1.000000000000000000 ) ) ;
#117 = EDGE_CURVE ( 'NONE', #435, #30, #456, .T. ) ;
#118 = DIRECTION ( 'NONE',  ( -0.000000000000000000, 1.000000000000000000, -0.000000000000000000 ) ) ;
#119 = DIRECTION ( 'NONE',  ( 0.000000000000000000, 0.000000000000000000, 1.000000000000000000 ) ) ;
#120 = AXIS2_PLACEMENT_3D ( 'NONE', #242, #280, #90 ) ;
#121 = CIRCLE ( 'NONE', #451, 0.06425000000000000155 ) ;
#122 = LINE ( 'NONE', #153, #211 ) ;
#123 = CARTESIAN_POINT ( 'NONE',  ( 1.530808498934191201E-17, 0.03749999999999999861, -0.1250000000000000000 ) ) ;
#124 = APPLICATION_CONTEXT ( 'automotive_design' ) ;
#125 = DIRECTION ( 'NONE',  ( -0.000000000000000000, 1.000000000000000000, -0.000000000000000000 ) ) ;
#126 = DIRECTION ( 'NONE',  ( 0.000000000000000000, -0.000000000000000000, 1.000000000000000000 ) ) ;
#127 = EDGE_CURVE ( 'NONE', #88, #330, #101, .T. ) ;
#128 = PRODUCT ( 'Eggfinder LCD Case V2 Battery Door Retainer', 'Eggfinder LCD Case V2 Battery Door Retainer', '', ( #403 ) ) ;
#129 = DIRECTION ( 'NONE',  ( 1.000000000000000000, -0.000000000000000000, -5.938799986226660403E-17 ) ) ;
#130 = CIRCLE ( 'NONE', #99, 0.2874999999999999223 ) ;
#131 = FACE_OUTER_BOUND ( 'NONE', #401, .T. ) ;
#132 = CARTESIAN_POINT ( 'NONE',  ( 0.6500000000000000222, 0.03749999999999999861, -0.06249999999999995837 ) ) ;
#133 = AXIS2_PLACEMENT_3D ( 'NONE', #425, #19, #134 ) ;
#134 = DIRECTION ( 'NONE',  ( -1.000000000000000000, 0.000000000000000000, 5.938799986226659171E-17 ) ) ;
#135 = ORIENTED_EDGE ( 'NONE', *, *, #359, .F. ) ;
#136 = DIRECTION ( 'NONE',  ( 0.000000000000000000, 1.000000000000000000, 0.000000000000000000 ) ) ;
#137 = ADVANCED_FACE ( 'NONE', ( #316, #52 ), #352, .F. ) ;
#138 = PRESENTATION_STYLE_ASSIGNMENT (( #322 ) ) ;
#139 = VERTEX_POINT ( 'NONE', #208 ) ;
#140 = EDGE_CURVE ( 'NONE', #360, #202, #217, .T. ) ;
#141 = DIRECTION ( 'NONE',  ( 0.000000000000000000, 1.000000000000000000, 0.000000000000000000 ) ) ;
#142 = LINE ( 'NONE', #282, #275 ) ;
#143 = VECTOR ( 'NONE', #419, 39.37007874015748143 ) ;
#144 = ORIENTED_EDGE ( 'NONE', *, *, #486, .T. ) ;
#145 = VERTEX_POINT ( 'NONE', #387 ) ;
#146 = ORIENTED_EDGE ( 'NONE', *, *, #114, .F. ) ;
#147 = ORIENTED_EDGE ( 'NONE', *, *, #231, .F. ) ;
#148 = ADVANCED_FACE ( 'NONE', ( #355 ), #433, .F. ) ;
#149 = EDGE_CURVE ( 'NONE', #297, #139, #56, .T. ) ;
#150 = ORIENTED_EDGE ( 'NONE', *, *, #127, .T. ) ;
#151 = ADVANCED_FACE ( 'NONE', ( #12, #98, #277 ), #9, .T. ) ;
#152 = CARTESIAN_POINT ( 'NONE',  ( 7.868355684521743882E-18, -0.007500000000000005794, -0.06425000000000000155 ) ) ;
#153 = CARTESIAN_POINT ( 'NONE',  ( 0.000000000000000000, -0.007500000000000005794, 0.06425000000000000155 ) ) ;
#154 = ORIENTED_EDGE ( 'NONE', *, *, #285, .F. ) ;
#155 = AXIS2_PLACEMENT_3D ( 'NONE', #423, #82, #338 ) ;
#156 = CARTESIAN_POINT ( 'NONE',  ( 1.530808498934191201E-17, 0.03749999999999999861, -0.1250000000000000000 ) ) ;
#157 = EDGE_CURVE ( 'NONE', #407, #287, #273, .T. ) ;
#158 = LINE ( 'NONE', #152, #57 ) ;
#159 = DIRECTION ( 'NONE',  ( 0.000000000000000000, -0.000000000000000000, 1.000000000000000000 ) ) ;
#160 = CARTESIAN_POINT ( 'NONE',  ( 0.4000000000000000222, 0.1124999999999999889, 0.06250000000000002776 ) ) ;
#161 = LINE ( 'NONE', #195, #467 ) ;
#162 = CARTESIAN_POINT ( 'NONE',  ( 0.4000000000000000222, 0.03749999999999999861, 0.06250000000000002776 ) ) ;
#163 = DIRECTION ( 'NONE',  ( -1.000000000000000000, 0.000000000000000000, -2.731847993664263711E-16 ) ) ;
#164 = LINE ( 'NONE', #469, #169 ) ;
#165 = AXIS2_PLACEMENT_3D ( 'NONE', #380, #306, #233 ) ;
#166 = DIRECTION ( 'NONE',  ( 0.000000000000000000, -0.000000000000000000, 1.000000000000000000 ) ) ;
#167 = VERTEX_POINT ( 'NONE', #170 ) ;
#168 = FACE_BOUND ( 'NONE', #410, .T. ) ;
#169 = VECTOR ( 'NONE', #129, 39.37007874015748143 ) ;
#170 = CARTESIAN_POINT ( 'NONE',  ( 0.000000000000000000, 0.000000000000000000, 0.2874999999999999223 ) ) ;
#171 = VERTEX_POINT ( 'NONE', #440 ) ;
#172 = ADVANCED_FACE ( 'NONE', ( #131 ), #49, .T. ) ;
#173 = DIRECTION ( 'NONE',  ( 0.000000000000000000, 0.000000000000000000, 1.000000000000000000 ) ) ;
#174 = MECHANICAL_DESIGN_GEOMETRIC_PRESENTATION_REPRESENTATION (  '', ( #293 ), #450 ) ;
#175 = PLANE ( 'NONE',  #20 ) ;
#176 = ORIENTED_EDGE ( 'NONE', *, *, #149, .F. ) ;
#177 = CARTESIAN_POINT ( 'NONE',  ( 0.000000000000000000, 0.1124999999999999889, 0.000000000000000000 ) ) ;
#178 = CARTESIAN_POINT ( 'NONE',  ( 0.5749999999999999556, 0.1124999999999999889, -0.2874999999999999223 ) ) ;
#179 = ORIENTED_EDGE ( 'NONE', *, *, #429, .T. ) ;
#180 = VERTEX_POINT ( 'NONE', #87 ) ;
#181 = EDGE_LOOP ( 'NONE', ( #283, #91, #468, #271 ) ) ;
#182 = VERTEX_POINT ( 'NONE', #93 ) ;
#183 = DIRECTION ( 'NONE',  ( 0.000000000000000000, 0.000000000000000000, 1.000000000000000000 ) ) ;
#184 = ORIENTED_EDGE ( 'NONE', *, *, #25, .T. ) ;
#185 = DIRECTION ( 'NONE',  ( 1.000000000000000000, 0.000000000000000000, 0.000000000000000000 ) ) ;
#186 = CARTESIAN_POINT ( 'NONE',  ( 0.000000000000000000, 0.03749999999999999861, 0.000000000000000000 ) ) ;
#187 = FACE_OUTER_BOUND ( 'NONE', #181, .T. ) ;
#188 = PLANE ( 'NONE',  #482 ) ;
#189 = CIRCLE ( 'NONE', #77, 0.1250000000000000000 ) ;
#190 = MANIFOLD_SOLID_BREP ( 'Cut-Extrude2', #252 ) ;
#191 = DIRECTION ( 'NONE',  ( -0.000000000000000000, 1.000000000000000000, -0.000000000000000000 ) ) ;
#192 = DIRECTION ( 'NONE',  ( 0.000000000000000000, 0.000000000000000000, 1.000000000000000000 ) ) ;
#193 = ORIENTED_EDGE ( 'NONE', *, *, #219, .T. ) ;
#194 = VECTOR ( 'NONE', #34, 39.37007874015748143 ) ;
#195 = CARTESIAN_POINT ( 'NONE',  ( 0.000000000000000000, 0.1124999999999999889, 0.2874999999999999223 ) ) ;
#196 = ORIENTED_EDGE ( 'NONE', *, *, #445, .T. ) ;
#197 = CYLINDRICAL_SURFACE ( 'NONE', #421, 0.1250000000000000000 ) ;
#198 =( CONVERSION_BASED_UNIT ( 'INCH', #45 ) LENGTH_UNIT ( ) NAMED_UNIT ( #247 ) );
#199 = ADVANCED_FACE ( 'NONE', ( #415 ), #175, .T. ) ;
#200 = CARTESIAN_POINT ( 'NONE',  ( 0.6500000000000000222, 0.03749999999999999861, 0.000000000000000000 ) ) ;
#201 = DIRECTION ( 'NONE',  ( 0.000000000000000000, 1.000000000000000000, 0.000000000000000000 ) ) ;
#202 = VERTEX_POINT ( 'NONE', #463 ) ;
#203 = PLANE ( 'NONE',  #404 ) ;
#204 = CARTESIAN_POINT ( 'NONE',  ( 0.000000000000000000, 0.1124999999999999889, 0.000000000000000000 ) ) ;
#205 = VERTEX_POINT ( 'NONE', #156 ) ;
#206 = DIRECTION ( 'NONE',  ( -0.000000000000000000, 1.000000000000000000, -0.000000000000000000 ) ) ;
#207 = ADVANCED_FACE ( 'NONE', ( #339 ), #197, .F. ) ;
#208 = CARTESIAN_POINT ( 'NONE',  ( 1.530808498934191201E-17, 0.1124999999999999889, -0.1250000000000000000 ) ) ;
#209 = ORIENTED_EDGE ( 'NONE', *, *, #480, .F. ) ;
#210 = LINE ( 'NONE', #132, #378 ) ;
#211 = VECTOR ( 'NONE', #32, 39.37007874015748143 ) ;
#212 = DIRECTION ( 'NONE',  ( 0.000000000000000000, 0.000000000000000000, 1.000000000000000000 ) ) ;
#213 = ORIENTED_EDGE ( 'NONE', *, *, #2, .T. ) ;
#214 = EDGE_CURVE ( 'NONE', #435, #367, #122, .T. ) ;
#215 = ORIENTED_EDGE ( 'NONE', *, *, #5, .T. ) ;
#216 =( LENGTH_UNIT ( ) NAMED_UNIT ( * ) SI_UNIT ( $, .METRE. ) );
#217 = CIRCLE ( 'NONE', #63, 0.2874999999999999223 ) ;
#218 = ORIENTED_EDGE ( 'NONE', *, *, #438, .F. ) ;
#219 = EDGE_CURVE ( 'NONE', #88, #287, #343, .T. ) ;
#220 = ORIENTED_EDGE ( 'NONE', *, *, #265, .T. ) ;
#221 = ORIENTED_EDGE ( 'NONE', *, *, #409, .T. ) ;
#222 =( NAMED_UNIT ( * ) PLANE_ANGLE_UNIT ( ) SI_UNIT ( $, .RADIAN. ) );
#223 = DIRECTION ( 'NONE',  ( -0.000000000000000000, -1.000000000000000000, -0.000000000000000000 ) ) ;
#224 = ORIENTED_EDGE ( 'NONE', *, *, #290, .F. ) ;
#225 = CIRCLE ( 'NONE', #165, 0.1250000000000000000 ) ;
#226 = CARTESIAN_POINT ( 'NONE',  ( 0.4000000000000000222, 0.03749999999999999861, 0.06250000000000002776 ) ) ;
#227 = CARTESIAN_POINT ( 'NONE',  ( 0.5749999999999999556, 0.000000000000000000, -0.2874999999999999223 ) ) ;
#228 = DIRECTION ( 'NONE',  ( 0.000000000000000000, 0.000000000000000000, 1.000000000000000000 ) ) ;
#229 = DIRECTION ( 'NONE',  ( -0.000000000000000000, 1.000000000000000000, -0.000000000000000000 ) ) ;
#230 = DIRECTION ( 'NONE',  ( -0.000000000000000000, 1.000000000000000000, -0.000000000000000000 ) ) ;
#231 = EDGE_CURVE ( 'NONE', #202, #167, #161, .T. ) ;
#232 = VECTOR ( 'NONE', #118, 39.37007874015748143 ) ;
#233 = DIRECTION ( 'NONE',  ( 0.000000000000000000, 0.000000000000000000, 1.000000000000000000 ) ) ;
#234 = FILL_AREA_STYLE_COLOUR ( '', #381 ) ;
#235 = DIRECTION ( 'NONE',  ( 0.000000000000000000, 0.000000000000000000, 1.000000000000000000 ) ) ;
#236 =( LENGTH_UNIT ( ) NAMED_UNIT ( * ) SI_UNIT ( $, .METRE. ) );
#237 = ORIENTED_EDGE ( 'NONE', *, *, #231, .T. ) ;
#238 = DIRECTION ( 'NONE',  ( -1.000000000000000000, -0.000000000000000000, -2.731847993664263218E-16 ) ) ;
#239 = CARTESIAN_POINT ( 'NONE',  ( 0.5749999999999999556, 0.1124999999999999889, 0.000000000000000000 ) ) ;
#240 = EDGE_LOOP ( 'NONE', ( #224, #366, #196, #54 ) ) ;
#241 = CARTESIAN_POINT ( 'NONE',  ( 0.6500000000000000222, 0.1124999999999999889, -0.06249999999999995837 ) ) ;
#242 = CARTESIAN_POINT ( 'NONE',  ( 0.000000000000000000, 0.1124999999999999889, 0.000000000000000000 ) ) ;
#243 = FACE_OUTER_BOUND ( 'NONE', #397, .T. ) ;
#244 = CARTESIAN_POINT ( 'NONE',  ( 0.4000000000000000222, 0.03749999999999999861, 0.000000000000000000 ) ) ;
#245 = ORIENTED_EDGE ( 'NONE', *, *, #325, .T. ) ;
#246 = ORIENTED_EDGE ( 'NONE', *, *, #254, .T. ) ;
#247 = DIMENSIONAL_EXPONENTS ( 1.000000000000000000, 0.000000000000000000, 0.000000000000000000, 0.000000000000000000, 0.000000000000000000, 0.000000000000000000, 0.000000000000000000 ) ;
#248 = CARTESIAN_POINT ( 'NONE',  ( 0.000000000000000000, -0.007500000000000005794, 0.000000000000000000 ) ) ;
#249 = AXIS2_PLACEMENT_3D ( 'NONE', #248, #256, #408 ) ;
#250 = EDGE_LOOP ( 'NONE', ( #484, #221 ) ) ;
#251 = VECTOR ( 'NONE', #313, 39.37007874015748143 ) ;
#252 = CLOSED_SHELL ( 'NONE', ( #207, #324, #488, #42, #351, #172, #148, #151, #137, #363, #426, #361, #298, #73, #96, #199 ) ) ;
#253 = ORIENTED_EDGE ( 'NONE', *, *, #438, .T. ) ;
#254 = EDGE_CURVE ( 'NONE', #330, #182, #496, .T. ) ;
#255 = ORIENTED_EDGE ( 'NONE', *, *, #290, .T. ) ;
#256 = DIRECTION ( 'NONE',  ( -0.000000000000000000, 1.000000000000000000, -0.000000000000000000 ) ) ;
#257 = EDGE_LOOP ( 'NONE', ( #150, #246, #27, #485 ) ) ;
#258 = VECTOR ( 'NONE', #229, 39.37007874015748143 ) ;
#259 = CYLINDRICAL_SURFACE ( 'NONE', #349, 0.2874999999999999223 ) ;
#260 = DIRECTION ( 'NONE',  ( -0.000000000000000000, 1.000000000000000000, -0.000000000000000000 ) ) ;
#261 = FACE_OUTER_BOUND ( 'NONE', #441, .T. ) ;
#262 = DIRECTION ( 'NONE',  ( 1.000000000000000000, 0.000000000000000000, -2.731847993664263711E-16 ) ) ;
#263 =( GEOMETRIC_REPRESENTATION_CONTEXT ( 3 ) GLOBAL_UNCERTAINTY_ASSIGNED_CONTEXT ( ( #300 ) ) GLOBAL_UNIT_ASSIGNED_CONTEXT ( ( #67, #222, #329 ) ) REPRESENTATION_CONTEXT ( 'NONE', 'WORKASPACE' ) );
#264 = CARTESIAN_POINT ( 'NONE',  ( 0.5749999999999999556, 0.1124999999999999889, 0.2874999999999999223 ) ) ;
#265 = EDGE_CURVE ( 'NONE', #202, #328, #269, .T. ) ;
#266 = ORIENTED_EDGE ( 'NONE', *, *, #486, .F. ) ;
#267 = PRESENTATION_LAYER_ASSIGNMENT (  '', '', ( #293 ) ) ;
#268 = PRODUCT_DEFINITION ( 'General', '', #106, #414 ) ;
#269 = LINE ( 'NONE', #41, #104 ) ;
#270 = ADVANCED_BREP_SHAPE_REPRESENTATION ( 'Eggfinder LCD Case V2 Battery Door Retainer', ( #190, #35 ), #263 ) ;
#271 = ORIENTED_EDGE ( 'NONE', *, *, #372, .T. ) ;
#272 = CARTESIAN_POINT ( 'NONE',  ( 0.5749999999999999556, 0.000000000000000000, 0.2874999999999999223 ) ) ;
#273 = LINE ( 'NONE', #348, #251 ) ;
#274 = ORIENTED_EDGE ( 'NONE', *, *, #214, .T. ) ;
#275 = VECTOR ( 'NONE', #388, 39.37007874015748143 ) ;
#276 = CARTESIAN_POINT ( 'NONE',  ( 0.4000000000000000222, 0.1124999999999999889, 0.06250000000000002776 ) ) ;
#277 = FACE_OUTER_BOUND ( 'NONE', #444, .T. ) ;
#278 = ORIENTED_EDGE ( 'NONE', *, *, #140, .F. ) ;
#279 = DIRECTION ( 'NONE',  ( -5.938799986226659171E-17, 0.000000000000000000, 1.000000000000000000 ) ) ;
#280 = DIRECTION ( 'NONE',  ( 0.000000000000000000, 1.000000000000000000, 0.000000000000000000 ) ) ;
#281 = ORIENTED_EDGE ( 'NONE', *, *, #79, .F. ) ;
#282 = CARTESIAN_POINT ( 'NONE',  ( 0.5749999999999999556, 0.1124999999999999889, 0.2874999999999999223 ) ) ;
#283 = ORIENTED_EDGE ( 'NONE', *, *, #157, .T. ) ;
#284 = CYLINDRICAL_SURFACE ( 'NONE', #418, 0.1250000000000000000 ) ;
#285 = EDGE_CURVE ( 'NONE', #335, #367, #427, .T. ) ;
#286 = DIRECTION ( 'NONE',  ( 0.000000000000000000, 1.000000000000000000, 0.000000000000000000 ) ) ;
#287 = VERTEX_POINT ( 'NONE', #303 ) ;
#288 = DIMENSIONAL_EXPONENTS ( 1.000000000000000000, 0.000000000000000000, 0.000000000000000000, 0.000000000000000000, 0.000000000000000000, 0.000000000000000000, 0.000000000000000000 ) ;
#289 = ORIENTED_EDGE ( 'NONE', *, *, #483, .T. ) ;
#290 = EDGE_CURVE ( 'NONE', #205, #180, #225, .T. ) ;
#291 = AXIS2_PLACEMENT_3D ( 'NONE', #326, #321, #212 ) ;
#292 = ORIENTED_EDGE ( 'NONE', *, *, #1, .F. ) ;
#293 = STYLED_ITEM ( 'NONE', ( #138 ), #190 ) ;
#294 = VECTOR ( 'NONE', #230, 39.37007874015748143 ) ;
#295 = ORIENTED_EDGE ( 'NONE', *, *, #1, .T. ) ;
#296 = VECTOR ( 'NONE', #238, 39.37007874015748143 ) ;
#297 = VERTEX_POINT ( 'NONE', #83 ) ;
#298 = ADVANCED_FACE ( 'NONE', ( #187 ), #115, .F. ) ;
#299 = DIRECTION ( 'NONE',  ( 0.000000000000000000, 1.000000000000000000, 0.000000000000000000 ) ) ;
#300 = UNCERTAINTY_MEASURE_WITH_UNIT (LENGTH_MEASURE( 1.000000000000000082E-05 ), #67, 'distance_accuracy_value', 'NONE');
#301 = CARTESIAN_POINT ( 'NONE',  ( 0.4000000000000000222, 0.03749999999999999861, -0.06250000000000002776 ) ) ;
#302 = ORIENTED_EDGE ( 'NONE', *, *, #265, .F. ) ;
#303 = CARTESIAN_POINT ( 'NONE',  ( 0.4000000000000000222, 0.1124999999999999889, -0.06250000000000002776 ) ) ;
#304 = ORIENTED_EDGE ( 'NONE', *, *, #2, .F. ) ;
#305 = EDGE_CURVE ( 'NONE', #430, #360, #44, .T. ) ;
#306 = DIRECTION ( 'NONE',  ( 0.000000000000000000, 1.000000000000000000, 0.000000000000000000 ) ) ;
#307 = DIRECTION ( 'NONE',  ( 1.000000000000000000, 0.000000000000000000, -2.731847993664263218E-16 ) ) ;
#308 = EDGE_CURVE ( 'NONE', #180, #297, #310, .T. ) ;
#309 = VECTOR ( 'NONE', #18, 39.37007874015748143 ) ;
#310 = LINE ( 'NONE', #78, #385 ) ;
#311 = FACE_OUTER_BOUND ( 'NONE', #448, .T. ) ;
#312 = FACE_OUTER_BOUND ( 'NONE', #64, .T. ) ;
#313 = DIRECTION ( 'NONE',  ( -1.000000000000000000, -0.000000000000000000, -2.731847993664263218E-16 ) ) ;
#314 = VECTOR ( 'NONE', #383, 39.37007874015748143 ) ;
#315 = CARTESIAN_POINT ( 'NONE',  ( 0.5749999999999999556, 0.1124999999999999889, 0.000000000000000000 ) ) ;
#316 = FACE_BOUND ( 'NONE', #250, .T. ) ;
#317 = VERTEX_POINT ( 'NONE', #272 ) ;
#318 = LINE ( 'NONE', #365, #296 ) ;
#319 = DIRECTION ( 'NONE',  ( 0.000000000000000000, 0.000000000000000000, 1.000000000000000000 ) ) ;
#320 = ORIENTED_EDGE ( 'NONE', *, *, #40, .F. ) ;
#321 = DIRECTION ( 'NONE',  ( 0.000000000000000000, 1.000000000000000000, 0.000000000000000000 ) ) ;
#322 = SURFACE_STYLE_USAGE ( .BOTH. , #477 ) ;
#323 = CARTESIAN_POINT ( 'NONE',  ( 0.000000000000000000, 0.03749999999999999861, 0.000000000000000000 ) ) ;
#324 = ADVANCED_FACE ( 'NONE', ( #312 ), #428, .F. ) ;
#325 = EDGE_CURVE ( 'NONE', #182, #76, #377, .T. ) ;
#326 = CARTESIAN_POINT ( 'NONE',  ( 0.4000000000000000222, 0.1124999999999999889, 0.000000000000000000 ) ) ;
#327 = EDGE_LOOP ( 'NONE', ( #218, #102, #320, #146 ) ) ;
#328 = VERTEX_POINT ( 'NONE', #264 ) ;
#329 =( NAMED_UNIT ( * ) SI_UNIT ( $, .STERADIAN. ) SOLID_ANGLE_UNIT ( ) );
#330 = VERTEX_POINT ( 'NONE', #420 ) ;
#331 = CIRCLE ( 'NONE', #472, 0.06425000000000000155 ) ;
#332 = EDGE_LOOP ( 'NONE', ( #446, #266, #292, #4 ) ) ;
#333 = AXIS2_PLACEMENT_3D ( 'NONE', #465, #491, #119 ) ;
#334 = APPLICATION_CONTEXT ( 'automotive_design' ) ;
#335 = VERTEX_POINT ( 'NONE', #81 ) ;
#336 = DIRECTION ( 'NONE',  ( -0.000000000000000000, -1.000000000000000000, -0.000000000000000000 ) ) ;
#337 =( NAMED_UNIT ( * ) PLANE_ANGLE_UNIT ( ) SI_UNIT ( $, .RADIAN. ) );
#338 = DIRECTION ( 'NONE',  ( 0.000000000000000000, 0.000000000000000000, 1.000000000000000000 ) ) ;
#339 = FACE_OUTER_BOUND ( 'NONE', #240, .T. ) ;
#340 = EDGE_LOOP ( 'NONE', ( #475, #24, #353, #105 ) ) ;
#341 = EDGE_CURVE ( 'NONE', #26, #88, #318, .T. ) ;
#342 = EDGE_LOOP ( 'NONE', ( #176, #68 ) ) ;
#343 = LINE ( 'NONE', #301, #489 ) ;
#344 = CARTESIAN_POINT ( 'NONE',  ( 0.4000000000000000222, 0.03749999999999999861, 0.06250000000000002776 ) ) ;
#345 = DIRECTION ( 'NONE',  ( 1.000000000000000000, -0.000000000000000000, -5.938799986226660403E-17 ) ) ;
#346 = LINE ( 'NONE', #162, #294 ) ;
#347 = DIRECTION ( 'NONE',  ( -0.000000000000000000, 1.000000000000000000, -0.000000000000000000 ) ) ;
#348 = CARTESIAN_POINT ( 'NONE',  ( 0.4000000000000000222, 0.1124999999999999889, -0.06250000000000002776 ) ) ;
#349 = AXIS2_PLACEMENT_3D ( 'NONE', #460, #462, #113 ) ;
#350 = DIRECTION ( 'NONE',  ( 0.000000000000000000, 0.000000000000000000, 1.000000000000000000 ) ) ;
#351 = ADVANCED_FACE ( 'NONE', ( #442 ), #51, .F. ) ;
#352 = PLANE ( 'NONE',  #434 ) ;
#353 = ORIENTED_EDGE ( 'NONE', *, *, #305, .F. ) ;
#354 = CARTESIAN_POINT ( 'NONE',  ( 0.5749999999999999556, 0.000000000000000000, 0.000000000000000000 ) ) ;
#355 = FACE_OUTER_BOUND ( 'NONE', #454, .T. ) ;
#356 = CIRCLE ( 'NONE', #53, 0.2874999999999999223 ) ;
#357 = LINE ( 'NONE', #21, #309 ) ;
#358 = DIRECTION ( 'NONE',  ( 0.000000000000000000, 1.000000000000000000, 0.000000000000000000 ) ) ;
#360 = VERTEX_POINT ( 'NONE', #11 ) ;
#359 = EDGE_CURVE ( 'NONE', #182, #26, #364, .T. ) ;
#361 = ADVANCED_FACE ( 'NONE', ( #243 ), #391, .F. ) ;
#362 = DIRECTION ( 'NONE',  ( 0.000000000000000000, 0.000000000000000000, 1.000000000000000000 ) ) ;
#363 = ADVANCED_FACE ( 'NONE', ( #55, #168 ), #203, .T. ) ;
#364 = CIRCLE ( 'NONE', #38, 0.06249999999999995837 ) ;
#365 = CARTESIAN_POINT ( 'NONE',  ( 0.4000000000000000222, 0.03749999999999999861, -0.06250000000000002776 ) ) ;
#366 = ORIENTED_EDGE ( 'NONE', *, *, #97, .T. ) ;
#367 = VERTEX_POINT ( 'NONE', #473 ) ;
#368 = ORIENTED_EDGE ( 'NONE', *, *, #483, .F. ) ;
#369 = ORIENTED_EDGE ( 'NONE', *, *, #25, .F. ) ;
#370 = CARTESIAN_POINT ( 'NONE',  ( 0.000000000000000000, 0.000000000000000000, 0.000000000000000000 ) ) ;
#371 = ORIENTED_EDGE ( 'NONE', *, *, #464, .T. ) ;
#372 = EDGE_CURVE ( 'NONE', #26, #407, #210, .T. ) ;
#373 = CYLINDRICAL_SURFACE ( 'NONE', #249, 0.06425000000000000155 ) ;
#374 = LINE ( 'NONE', #413, #71 ) ;
#375 = DIRECTION ( 'NONE',  ( 0.000000000000000000, 1.000000000000000000, 0.000000000000000000 ) ) ;
#376 = DIRECTION ( 'NONE',  ( -0.000000000000000000, 1.000000000000000000, -0.000000000000000000 ) ) ;
#377 = LINE ( 'NONE', #37, #232 ) ;
#378 = VECTOR ( 'NONE', #14, 39.37007874015748143 ) ;
#379 = CARTESIAN_POINT ( 'NONE',  ( 0.6500000000000000222, 0.1124999999999999889, 0.06249999999999995837 ) ) ;
#380 = CARTESIAN_POINT ( 'NONE',  ( 0.000000000000000000, 0.03749999999999999861, 0.000000000000000000 ) ) ;
#381 = COLOUR_RGB ( '',0.9098039215686274384, 0.4431372549019607643, 0.03137254901960784270 ) ;
#382 = CARTESIAN_POINT ( 'NONE',  ( 0.6500000000000000222, 0.03749999999999999861, -0.06249999999999995837 ) ) ;
#383 = DIRECTION ( 'NONE',  ( 1.000000000000000000, 0.000000000000000000, -2.731847993664263218E-16 ) ) ;
#384 = LINE ( 'NONE', #227, #143 ) ;
#385 = VECTOR ( 'NONE', #347, 39.37007874015748143 ) ;
#386 = DIRECTION ( 'NONE',  ( 2.731847993664263711E-16, 0.000000000000000000, -1.000000000000000000 ) ) ;
#387 = CARTESIAN_POINT ( 'NONE',  ( 0.5749999999999999556, 0.000000000000000000, -0.2874999999999999223 ) ) ;
#388 = DIRECTION ( 'NONE',  ( -0.000000000000000000, -1.000000000000000000, -0.000000000000000000 ) ) ;
#389 = CIRCLE ( 'NONE', #422, 0.2874999999999999223 ) ;
#390 = ORIENTED_EDGE ( 'NONE', *, *, #140, .T. ) ;
#391 = CYLINDRICAL_SURFACE ( 'NONE', #447, 0.06250000000000002776 ) ;
#392 = DIRECTION ( 'NONE',  ( 0.000000000000000000, 0.000000000000000000, -1.000000000000000000 ) ) ;
#393 = ORIENTED_EDGE ( 'NONE', *, *, #395, .T. ) ;
#394 = FACE_OUTER_BOUND ( 'NONE', #17, .T. ) ;
#395 = EDGE_CURVE ( 'NONE', #317, #145, #130, .T. ) ;
#396 = DIRECTION ( 'NONE',  ( 0.000000000000000000, 1.000000000000000000, 0.000000000000000000 ) ) ;
#397 = EDGE_LOOP ( 'NONE', ( #253, #66, #94, #193 ) ) ;
#398 = DIRECTION ( 'NONE',  ( 0.000000000000000000, 0.000000000000000000, 1.000000000000000000 ) ) ;
#399 = CIRCLE ( 'NONE', #7, 0.06249999999999995837 ) ;
#400 = DIRECTION ( 'NONE',  ( 0.000000000000000000, -0.000000000000000000, 1.000000000000000000 ) ) ;
#401 = EDGE_LOOP ( 'NONE', ( #295, #147, #278, #179 ) ) ;
#402 = ORIENTED_EDGE ( 'NONE', *, *, #285, .T. ) ;
#403 = PRODUCT_CONTEXT ( 'NONE', #334, 'mechanical' ) ;
#404 = AXIS2_PLACEMENT_3D ( 'NONE', #46, #436, #400 ) ;
#405 = ORIENTED_EDGE ( 'NONE', *, *, #409, .F. ) ;
#406 = AXIS2_PLACEMENT_3D ( 'NONE', #239, #396, #166 ) ;
#407 = VERTEX_POINT ( 'NONE', #241 ) ;
#408 = DIRECTION ( 'NONE',  ( 0.000000000000000000, 0.000000000000000000, 1.000000000000000000 ) ) ;
#409 = EDGE_CURVE ( 'NONE', #30, #435, #331, .T. ) ;
#410 = EDGE_LOOP ( 'NONE', ( #213, #402 ) ) ;
#411 = ORIENTED_EDGE ( 'NONE', *, *, #117, .F. ) ;
#412 = AXIS2_PLACEMENT_3D ( 'NONE', #80, #191, #416 ) ;
#413 = CARTESIAN_POINT ( 'NONE',  ( 0.5749999999999999556, 0.1124999999999999889, -0.2874999999999999223 ) ) ;
#414 = PRODUCT_DEFINITION_CONTEXT ( 'detailed design', #124, 'design' ) ;
#415 = FACE_OUTER_BOUND ( 'NONE', #257, .T. ) ;
#416 = DIRECTION ( 'NONE',  ( 0.000000000000000000, 0.000000000000000000, 1.000000000000000000 ) ) ;
#417 = DIRECTION ( 'NONE',  ( -0.000000000000000000, 1.000000000000000000, -0.000000000000000000 ) ) ;
#418 = AXIS2_PLACEMENT_3D ( 'NONE', #60, #206, #439 ) ;
#419 = DIRECTION ( 'NONE',  ( -1.000000000000000000, 0.000000000000000000, -5.938799986226660403E-17 ) ) ;
#420 = CARTESIAN_POINT ( 'NONE',  ( 0.4000000000000000222, 0.03749999999999999861, 0.06250000000000002776 ) ) ;
#421 = AXIS2_PLACEMENT_3D ( 'NONE', #75, #125, #192 ) ;
#422 = AXIS2_PLACEMENT_3D ( 'NONE', #70, #299, #31 ) ;
#423 = CARTESIAN_POINT ( 'NONE',  ( 0.4000000000000000222, 0.03749999999999999861, 0.000000000000000000 ) ) ;
#424 = DIRECTION ( 'NONE',  ( 0.000000000000000000, 0.000000000000000000, 1.000000000000000000 ) ) ;
#425 = CARTESIAN_POINT ( 'NONE',  ( 0.5749999999999999556, 0.1124999999999999889, 0.2874999999999999223 ) ) ;
#426 = ADVANCED_FACE ( 'NONE', ( #394 ), #284, .F. ) ;
#427 = CIRCLE ( 'NONE', #74, 0.06425000000000000155 ) ;
#428 = CYLINDRICAL_SURFACE ( 'NONE', #22, 0.06425000000000000155 ) ;
#429 = EDGE_CURVE ( 'NONE', #360, #171, #357, .T. ) ;
#430 = VERTEX_POINT ( 'NONE', #178 ) ;
#431 = AXIS2_PLACEMENT_3D ( 'NONE', #177, #476, #479 ) ;
#432 = DIRECTION ( 'NONE',  ( 1.000000000000000000, 0.000000000000000000, 5.938799986226659171E-17 ) ) ;
#433 = PLANE ( 'NONE',  #133 ) ;
#434 = AXIS2_PLACEMENT_3D ( 'NONE', #470, #201, #126 ) ;
#435 = VERTEX_POINT ( 'NONE', #100 ) ;
#436 = DIRECTION ( 'NONE',  ( 0.000000000000000000, 1.000000000000000000, 0.000000000000000000 ) ) ;
#437 = DIRECTION ( 'NONE',  ( -0.000000000000000000, -1.000000000000000000, -0.000000000000000000 ) ) ;
#438 = EDGE_CURVE ( 'NONE', #287, #487, #86, .T. ) ;
#439 = DIRECTION ( 'NONE',  ( 0.000000000000000000, 0.000000000000000000, 1.000000000000000000 ) ) ;
#440 = CARTESIAN_POINT ( 'NONE',  ( 0.000000000000000000, 0.000000000000000000, -0.2874999999999999223 ) ) ;
#441 = EDGE_LOOP ( 'NONE', ( #107, #47, #135, #245 ) ) ;
#442 = FACE_OUTER_BOUND ( 'NONE', #340, .T. ) ;
#443 = DIRECTION ( 'NONE',  ( 0.000000000000000000, 1.000000000000000000, 0.000000000000000000 ) ) ;
#444 = EDGE_LOOP ( 'NONE', ( #371, #481, #390, #220 ) ) ;
#445 = EDGE_CURVE ( 'NONE', #139, #297, #16, .T. ) ;
#446 = ORIENTED_EDGE ( 'NONE', *, *, #395, .F. ) ;
#447 = AXIS2_PLACEMENT_3D ( 'NONE', #244, #48, #362 ) ;
#448 = EDGE_LOOP ( 'NONE', ( #50, #103, #490, #215 ) ) ;
#449 = AXIS2_PLACEMENT_3D ( 'NONE', #204, #437, #392 ) ;
#450 =( GEOMETRIC_REPRESENTATION_CONTEXT ( 3 ) GLOBAL_UNCERTAINTY_ASSIGNED_CONTEXT ( ( #492 ) ) GLOBAL_UNIT_ASSIGNED_CONTEXT ( ( #198, #337, #85 ) ) REPRESENTATION_CONTEXT ( 'NONE', 'WORKASPACE' ) );
#451 = AXIS2_PLACEMENT_3D ( 'NONE', #186, #223, #495 ) ;
#452 = EDGE_LOOP ( 'NONE', ( #393, #281, #10, #471 ) ) ;
#453 = PRODUCT_RELATED_PRODUCT_CATEGORY ( 'part', '', ( #128 ) ) ;
#454 = EDGE_LOOP ( 'NONE', ( #144, #209, #302, #237 ) ) ;
#455 = DIRECTION ( 'NONE',  ( 0.000000000000000000, 1.000000000000000000, 0.000000000000000000 ) ) ;
#456 = CIRCLE ( 'NONE', #333, 0.06425000000000000155 ) ;
#457 = CARTESIAN_POINT ( 'NONE',  ( 0.5749999999999999556, 0.1124999999999999889, -0.2874999999999999223 ) ) ;
#458 = DIRECTION ( 'NONE',  ( 0.000000000000000000, 0.000000000000000000, 1.000000000000000000 ) ) ;
#459 = DIRECTION ( 'NONE',  ( -0.000000000000000000, -1.000000000000000000, -0.000000000000000000 ) ) ;
#460 = CARTESIAN_POINT ( 'NONE',  ( 0.5749999999999999556, 0.1124999999999999889, 0.000000000000000000 ) ) ;
#461 = CARTESIAN_POINT ( 'NONE',  ( 0.4000000000000000222, 0.03749999999999999861, -0.06250000000000002776 ) ) ;
#462 = DIRECTION ( 'NONE',  ( -0.000000000000000000, -1.000000000000000000, -0.000000000000000000 ) ) ;
#463 = CARTESIAN_POINT ( 'NONE',  ( 0.000000000000000000, 0.1124999999999999889, 0.2874999999999999223 ) ) ;
#464 = EDGE_CURVE ( 'NONE', #328, #430, #356, .T. ) ;
#465 = CARTESIAN_POINT ( 'NONE',  ( 0.000000000000000000, 0.000000000000000000, 0.000000000000000000 ) ) ;
#466 = SURFACE_STYLE_FILL_AREA ( #15 ) ;
#467 = VECTOR ( 'NONE', #459, 39.37007874015748143 ) ;
#468 = ORIENTED_EDGE ( 'NONE', *, *, #341, .F. ) ;
#469 = CARTESIAN_POINT ( 'NONE',  ( 0.5749999999999999556, 0.000000000000000000, 0.2874999999999999223 ) ) ;
#470 = CARTESIAN_POINT ( 'NONE',  ( 0.5749999999999999556, 0.000000000000000000, 0.000000000000000000 ) ) ;
#471 = ORIENTED_EDGE ( 'NONE', *, *, #480, .T. ) ;
#472 = AXIS2_PLACEMENT_3D ( 'NONE', #95, #478, #23 ) ;
#473 = CARTESIAN_POINT ( 'NONE',  ( 0.000000000000000000, 0.03749999999999999861, 0.06425000000000000155 ) ) ;
#474 = CARTESIAN_POINT ( 'NONE',  ( 0.000000000000000000, 0.1124999999999999889, 0.000000000000000000 ) ) ;
#475 = ORIENTED_EDGE ( 'NONE', *, *, #59, .T. ) ;
#476 = DIRECTION ( 'NONE',  ( 0.000000000000000000, 1.000000000000000000, 0.000000000000000000 ) ) ;
#477 = SURFACE_SIDE_STYLE ('',( #466 ) ) ;
#478 = DIRECTION ( 'NONE',  ( 0.000000000000000000, 1.000000000000000000, 0.000000000000000000 ) ) ;
#479 = DIRECTION ( 'NONE',  ( 0.000000000000000000, 0.000000000000000000, 1.000000000000000000 ) ) ;
#480 = EDGE_CURVE ( 'NONE', #328, #317, #142, .T. ) ;
#481 = ORIENTED_EDGE ( 'NONE', *, *, #305, .T. ) ;
#482 = AXIS2_PLACEMENT_3D ( 'NONE', #344, #116, #262 ) ;
#483 = EDGE_CURVE ( 'NONE', #180, #205, #189, .T. ) ;
#484 = ORIENTED_EDGE ( 'NONE', *, *, #117, .T. ) ;
#485 = ORIENTED_EDGE ( 'NONE', *, *, #341, .T. ) ;
#486 = EDGE_CURVE ( 'NONE', #167, #317, #164, .T. ) ;
#487 = VERTEX_POINT ( 'NONE', #276 ) ;
#488 = ADVANCED_FACE ( 'NONE', ( #89 ), #373, .F. ) ;
#489 = VECTOR ( 'NONE', #417, 39.37007874015748143 ) ;
#490 = ORIENTED_EDGE ( 'NONE', *, *, #254, .F. ) ;
#491 = DIRECTION ( 'NONE',  ( 0.000000000000000000, 1.000000000000000000, 0.000000000000000000 ) ) ;
#492 = UNCERTAINTY_MEASURE_WITH_UNIT (LENGTH_MEASURE( 1.000000000000000082E-05 ), #198, 'distance_accuracy_value', 'NONE');
#493 = LINE ( 'NONE', #123, #258 ) ;
#494 = DIRECTION ( 'NONE',  ( -0.000000000000000000, -1.000000000000000000, -0.000000000000000000 ) ) ;
#495 = DIRECTION ( 'NONE',  ( 0.000000000000000000, 0.000000000000000000, 1.000000000000000000 ) ) ;
#496 = LINE ( 'NONE', #226, #314 ) ;
#497 = LINE ( 'NONE', #160, #111 ) ;
ENDSEC;
END-ISO-10303-21;
