ISO-10303-21;
HEADER;
FILE_DESCRIPTION (( 'STEP AP214' ),
    '1' );
FILE_NAME ('Eggfinder LCD Case V2 Screen Spacer Thin.STEP',
    '2026-05-24T17:42:36',
    ( '' ),
    ( '' ),
    'SwSTEP 2.0',
    'SolidWorks 2024',
    '' );
FILE_SCHEMA (( 'AUTOMOTIVE_DESIGN' ));
ENDSEC;

DATA;
#1 = ORIENTED_EDGE ( 'NONE', *, *, #53, .F. ) ;
#2 = PRODUCT_DEFINITION ( 'UNKNOWN', '', #202, #5 ) ;
#3 = EDGE_LOOP ( 'NONE', ( #173, #156, #54, #154 ) ) ;
#4 = AXIS2_PLACEMENT_3D ( 'NONE', #11, #46, #160 ) ;
#5 = PRODUCT_DEFINITION_CONTEXT ( 'detailed design', #22, 'design' ) ;
#6 = FACE_OUTER_BOUND ( 'NONE', #39, .T. ) ;
#7 = CARTESIAN_POINT ( 'NONE',  ( 0.000000000000000000, 0.000000000000000000, 0.000000000000000000 ) ) ;
#8 = CYLINDRICAL_SURFACE ( 'NONE', #140, 0.06500000000000000222 ) ;
#9 = AXIS2_PLACEMENT_3D ( 'NONE', #47, #143, #10 ) ;
#10 = DIRECTION ( 'NONE',  ( 0.000000000000000000, -0.000000000000000000, 1.000000000000000000 ) ) ;
#11 = CARTESIAN_POINT ( 'NONE',  ( 0.000000000000000000, 0.4349999999999999978, 0.000000000000000000 ) ) ;
#12 = APPLICATION_PROTOCOL_DEFINITION ( 'draft international standard', 'automotive_design', 1998, #22 ) ;
#13 =( NAMED_UNIT ( * ) SI_UNIT ( $, .STERADIAN. ) SOLID_ANGLE_UNIT ( ) );
#14 = DIRECTION ( 'NONE',  ( 0.000000000000000000, 1.000000000000000000, 0.000000000000000000 ) ) ;
#15 = ORIENTED_EDGE ( 'NONE', *, *, #100, .F. ) ;
#16 = CARTESIAN_POINT ( 'NONE',  ( 1.224646799147353269E-17, 0.4349999999999999978, 0.1000000000000000056 ) ) ;
#17 = FILL_AREA_STYLE ('',( #35 ) ) ;
#18 = ORIENTED_EDGE ( 'NONE', *, *, #157, .T. ) ;
#19 = STYLED_ITEM ( 'NONE', ( #169 ), #179 ) ;
#20 = ORIENTED_EDGE ( 'NONE', *, *, #157, .F. ) ;
#21 = EDGE_LOOP ( 'NONE', ( #135, #1, #185, #18 ) ) ;
#22 = APPLICATION_CONTEXT ( 'automotive_design' ) ;
#23 = ORIENTED_EDGE ( 'NONE', *, *, #181, .F. ) ;
#24 = CIRCLE ( 'NONE', #128, 0.06500000000000000222 ) ;
#25 = DIRECTION ( 'NONE',  ( 0.000000000000000000, 0.000000000000000000, 1.000000000000000000 ) ) ;
#26 = CARTESIAN_POINT ( 'NONE',  ( 0.000000000000000000, 0.4349999999999999978, 0.000000000000000000 ) ) ;
#27 = PRODUCT_RELATED_PRODUCT_CATEGORY ( 'part', '', ( #204 ) ) ;
#28 = SHAPE_DEFINITION_REPRESENTATION ( #121, #93 ) ;
#29 = PLANE ( 'NONE',  #9 ) ;
#30 = CIRCLE ( 'NONE', #158, 0.06500000000000000222 ) ;
#31 = VECTOR ( 'NONE', #116, 39.37007874015748143 ) ;
#32 = ADVANCED_FACE ( 'NONE', ( #56 ), #170, .T. ) ;
#33 = DIRECTION ( 'NONE',  ( 0.000000000000000000, 0.000000000000000000, 1.000000000000000000 ) ) ;
#34 = LENGTH_MEASURE_WITH_UNIT ( LENGTH_MEASURE( 0.02539999999999999897 ), #164 );
#35 = FILL_AREA_STYLE_COLOUR ( '', #193 ) ;
#36 = EDGE_LOOP ( 'NONE', ( #165, #94 ) ) ;
#37 = ORIENTED_EDGE ( 'NONE', *, *, #41, .F. ) ;
#38 = ORIENTED_EDGE ( 'NONE', *, *, #150, .F. ) ;
#39 = EDGE_LOOP ( 'NONE', ( #20, #91 ) ) ;
#40 = ORIENTED_EDGE ( 'NONE', *, *, #41, .T. ) ;
#41 = EDGE_CURVE ( 'NONE', #102, #108, #106, .T. ) ;
#42 = AXIS2_PLACEMENT_3D ( 'NONE', #195, #58, #161 ) ;
#43 = DIRECTION ( 'NONE',  ( 0.000000000000000000, 1.000000000000000000, 0.000000000000000000 ) ) ;
#44 = DIRECTION ( 'NONE',  ( 0.000000000000000000, 0.000000000000000000, -1.000000000000000000 ) ) ;
#45 = ADVANCED_FACE ( 'NONE', ( #147 ), #8, .F. ) ;
#46 = DIRECTION ( 'NONE',  ( 0.000000000000000000, 1.000000000000000000, 0.000000000000000000 ) ) ;
#47 = CARTESIAN_POINT ( 'NONE',  ( 0.000000000000000000, 0.4349999999999999978, 0.000000000000000000 ) ) ;
#48 = DIMENSIONAL_EXPONENTS ( 1.000000000000000000, 0.000000000000000000, 0.000000000000000000, 0.000000000000000000, 0.000000000000000000, 0.000000000000000000, 0.000000000000000000 ) ;
#49 = FACE_OUTER_BOUND ( 'NONE', #36, .T. ) ;
#50 = ORIENTED_EDGE ( 'NONE', *, *, #163, .F. ) ;
#51 = CIRCLE ( 'NONE', #4, 0.1000000000000000056 ) ;
#52 = CARTESIAN_POINT ( 'NONE',  ( 0.000000000000000000, 0.4349999999999999978, 0.000000000000000000 ) ) ;
#53 = EDGE_CURVE ( 'NONE', #194, #167, #51, .T. ) ;
#54 = ORIENTED_EDGE ( 'NONE', *, *, #205, .T. ) ;
#55 = AXIS2_PLACEMENT_3D ( 'NONE', #85, #196, #63 ) ;
#56 = FACE_OUTER_BOUND ( 'NONE', #21, .T. ) ;
#57 = VERTEX_POINT ( 'NONE', #110 ) ;
#58 = DIRECTION ( 'NONE',  ( -0.000000000000000000, -1.000000000000000000, -0.000000000000000000 ) ) ;
#59 = AXIS2_PLACEMENT_3D ( 'NONE', #26, #97, #84 ) ;
#60 = DIRECTION ( 'NONE',  ( 0.000000000000000000, 0.000000000000000000, 1.000000000000000000 ) ) ;
#61 = FACE_OUTER_BOUND ( 'NONE', #82, .T. ) ;
#62 = DIRECTION ( 'NONE',  ( 0.000000000000000000, 0.000000000000000000, 1.000000000000000000 ) ) ;
#63 = DIRECTION ( 'NONE',  ( 0.000000000000000000, 0.000000000000000000, -1.000000000000000000 ) ) ;
#64 = DIMENSIONAL_EXPONENTS ( 1.000000000000000000, 0.000000000000000000, 0.000000000000000000, 0.000000000000000000, 0.000000000000000000, 0.000000000000000000, 0.000000000000000000 ) ;
#65 = LINE ( 'NONE', #115, #178 ) ;
#66 = DIRECTION ( 'NONE',  ( 0.000000000000000000, 1.000000000000000000, 0.000000000000000000 ) ) ;
#67 = CARTESIAN_POINT ( 'NONE',  ( 0.000000000000000000, 0.000000000000000000, 0.000000000000000000 ) ) ;
#68 = AXIS2_PLACEMENT_3D ( 'NONE', #76, #43, #25 ) ;
#69 = CARTESIAN_POINT ( 'NONE',  ( 0.000000000000000000, 0.4349999999999999978, 0.000000000000000000 ) ) ;
#70 = EDGE_CURVE ( 'NONE', #108, #57, #197, .T. ) ;
#71 = EDGE_LOOP ( 'NONE', ( #126, #187 ) ) ;
#72 = FACE_BOUND ( 'NONE', #71, .T. ) ;
#73 = DIRECTION ( 'NONE',  ( 0.000000000000000000, 1.000000000000000000, 0.000000000000000000 ) ) ;
#74 = CARTESIAN_POINT ( 'NONE',  ( 0.000000000000000000, 0.000000000000000000, 0.000000000000000000 ) ) ;
#75 = CARTESIAN_POINT ( 'NONE',  ( 0.000000000000000000, 0.4349999999999999978, 0.000000000000000000 ) ) ;
#76 = CARTESIAN_POINT ( 'NONE',  ( 0.000000000000000000, 0.000000000000000000, 0.000000000000000000 ) ) ;
#77 =( NAMED_UNIT ( * ) PLANE_ANGLE_UNIT ( ) SI_UNIT ( $, .RADIAN. ) );
#78 = CIRCLE ( 'NONE', #189, 0.1000000000000000056 ) ;
#79 = AXIS2_PLACEMENT_3D ( 'NONE', #114, #62, #201 ) ;
#80 = ORIENTED_EDGE ( 'NONE', *, *, #205, .F. ) ;
#81 = EDGE_LOOP ( 'NONE', ( #40, #107, #38, #80 ) ) ;
#82 = EDGE_LOOP ( 'NONE', ( #15, #122, #192, #23 ) ) ;
#83 = UNCERTAINTY_MEASURE_WITH_UNIT (LENGTH_MEASURE( 1.000000000000000082E-05 ), #131, 'distance_accuracy_value', 'NONE');
#84 = DIRECTION ( 'NONE',  ( 0.000000000000000000, 0.000000000000000000, 1.000000000000000000 ) ) ;
#85 = CARTESIAN_POINT ( 'NONE',  ( 0.000000000000000000, 0.4349999999999999978, 0.000000000000000000 ) ) ;
#86 = CARTESIAN_POINT ( 'NONE',  ( 0.000000000000000000, 0.4349999999999999978, 0.000000000000000000 ) ) ;
#87 = EDGE_CURVE ( 'NONE', #142, #139, #125, .T. ) ;
#88 = LENGTH_MEASURE_WITH_UNIT ( LENGTH_MEASURE( 0.02539999999999999897 ), #152 );
#89 = AXIS2_PLACEMENT_3D ( 'NONE', #74, #14, #151 ) ;
#90 = VECTOR ( 'NONE', #162, 39.37007874015748143 ) ;
#91 = ORIENTED_EDGE ( 'NONE', *, *, #87, .F. ) ;
#92 = VERTEX_POINT ( 'NONE', #132 ) ;
#93 = ADVANCED_BREP_SHAPE_REPRESENTATION ( 'Eggfinder LCD Case V2 Screen Spacer Thin', ( #179, #79 ), #141 ) ;
#94 = ORIENTED_EDGE ( 'NONE', *, *, #100, .T. ) ;
#95 = CYLINDRICAL_SURFACE ( 'NONE', #55, 0.06500000000000000222 ) ;
#96 = ADVANCED_FACE ( 'NONE', ( #199 ), #95, .F. ) ;
#97 = DIRECTION ( 'NONE',  ( 0.000000000000000000, 1.000000000000000000, 0.000000000000000000 ) ) ;
#98 = AXIS2_PLACEMENT_3D ( 'NONE', #69, #155, #176 ) ;
#99 = DIRECTION ( 'NONE',  ( 0.000000000000000000, -0.000000000000000000, 1.000000000000000000 ) ) ;
#100 = EDGE_CURVE ( 'NONE', #167, #194, #78, .T. ) ;
#101 = FACE_BOUND ( 'NONE', #103, .T. ) ;
#102 = VERTEX_POINT ( 'NONE', #113 ) ;
#103 = EDGE_LOOP ( 'NONE', ( #37, #50 ) ) ;
#104 = SURFACE_SIDE_STYLE ('',( #203 ) ) ;
#105 = APPLICATION_CONTEXT ( 'automotive_design' ) ;
#106 = CIRCLE ( 'NONE', #59, 0.06500000000000000222 ) ;
#107 = ORIENTED_EDGE ( 'NONE', *, *, #70, .T. ) ;
#108 = VERTEX_POINT ( 'NONE', #180 ) ;
#109 = CARTESIAN_POINT ( 'NONE',  ( 1.224646799147353269E-17, 0.000000000000000000, 0.1000000000000000056 ) ) ;
#110 = CARTESIAN_POINT ( 'NONE',  ( 7.960204194457796709E-18, 0.000000000000000000, 0.06500000000000000222 ) ) ;
#111 = CARTESIAN_POINT ( 'NONE',  ( 0.000000000000000000, 0.000000000000000000, -0.1000000000000000056 ) ) ;
#112 = MECHANICAL_DESIGN_GEOMETRIC_PRESENTATION_REPRESENTATION (  '', ( #19 ), #172 ) ;
#113 = CARTESIAN_POINT ( 'NONE',  ( 0.000000000000000000, 0.4349999999999999978, -0.06500000000000000222 ) ) ;
#114 = CARTESIAN_POINT ( 'NONE',  ( 0.000000000000000000, 0.000000000000000000, 0.000000000000000000 ) ) ;
#115 = CARTESIAN_POINT ( 'NONE',  ( 0.000000000000000000, 0.4349999999999999978, -0.06500000000000000222 ) ) ;
#116 = DIRECTION ( 'NONE',  ( -0.000000000000000000, -1.000000000000000000, -0.000000000000000000 ) ) ;
#117 = ADVANCED_FACE ( 'NONE', ( #49, #101 ), #29, .T. ) ;
#118 = DIRECTION ( 'NONE',  ( 0.000000000000000000, 0.000000000000000000, 1.000000000000000000 ) ) ;
#119 =( CONVERSION_BASED_UNIT ( 'INCH', #88 ) LENGTH_UNIT ( ) NAMED_UNIT ( #48 ) );
#120 = ADVANCED_FACE ( 'NONE', ( #6, #72 ), #130, .F. ) ;
#121 = PRODUCT_DEFINITION_SHAPE ( 'NONE', 'NONE',  #2 ) ;
#122 = ORIENTED_EDGE ( 'NONE', *, *, #190, .T. ) ;
#123 = CIRCLE ( 'NONE', #149, 0.06500000000000000222 ) ;
#124 = VECTOR ( 'NONE', #138, 39.37007874015748143 ) ;
#125 = CIRCLE ( 'NONE', #68, 0.1000000000000000056 ) ;
#126 = ORIENTED_EDGE ( 'NONE', *, *, #150, .T. ) ;
#127 = DIRECTION ( 'NONE',  ( 0.000000000000000000, 1.000000000000000000, 0.000000000000000000 ) ) ;
#128 = AXIS2_PLACEMENT_3D ( 'NONE', #67, #186, #118 ) ;
#129 = DIRECTION ( 'NONE',  ( -0.000000000000000000, -1.000000000000000000, -0.000000000000000000 ) ) ;
#130 = PLANE ( 'NONE',  #166 ) ;
#131 =( CONVERSION_BASED_UNIT ( 'INCH', #34 ) LENGTH_UNIT ( ) NAMED_UNIT ( #64 ) );
#132 = CARTESIAN_POINT ( 'NONE',  ( 0.000000000000000000, 0.000000000000000000, -0.06500000000000000222 ) ) ;
#133 = CARTESIAN_POINT ( 'NONE',  ( 1.224646799147353269E-17, 0.4349999999999999978, 0.1000000000000000056 ) ) ;
#134 = LINE ( 'NONE', #136, #31 ) ;
#135 = ORIENTED_EDGE ( 'NONE', *, *, #190, .F. ) ;
#136 = CARTESIAN_POINT ( 'NONE',  ( 0.000000000000000000, 0.4349999999999999978, -0.1000000000000000056 ) ) ;
#137 = ADVANCED_FACE ( 'NONE', ( #61 ), #144, .T. ) ;
#138 = DIRECTION ( 'NONE',  ( -0.000000000000000000, -1.000000000000000000, -0.000000000000000000 ) ) ;
#139 = VERTEX_POINT ( 'NONE', #111 ) ;
#140 = AXIS2_PLACEMENT_3D ( 'NONE', #75, #129, #44 ) ;
#141 =( GEOMETRIC_REPRESENTATION_CONTEXT ( 3 ) GLOBAL_UNCERTAINTY_ASSIGNED_CONTEXT ( ( #83 ) ) GLOBAL_UNIT_ASSIGNED_CONTEXT ( ( #131, #77, #183 ) ) REPRESENTATION_CONTEXT ( 'NONE', 'WORKASPACE' ) );
#142 = VERTEX_POINT ( 'NONE', #109 ) ;
#143 = DIRECTION ( 'NONE',  ( 0.000000000000000000, 1.000000000000000000, 0.000000000000000000 ) ) ;
#144 = CYLINDRICAL_SURFACE ( 'NONE', #42, 0.1000000000000000056 ) ;
#145 = DIRECTION ( 'NONE',  ( 0.000000000000000000, 0.000000000000000000, 1.000000000000000000 ) ) ;
#146 = DIRECTION ( 'NONE',  ( 0.000000000000000000, 1.000000000000000000, 0.000000000000000000 ) ) ;
#147 = FACE_OUTER_BOUND ( 'NONE', #81, .T. ) ;
#148 = APPLICATION_PROTOCOL_DEFINITION ( 'draft international standard', 'automotive_design', 1998, #105 ) ;
#149 = AXIS2_PLACEMENT_3D ( 'NONE', #7, #73, #60 ) ;
#150 = EDGE_CURVE ( 'NONE', #92, #57, #123, .T. ) ;
#151 = DIRECTION ( 'NONE',  ( 0.000000000000000000, 0.000000000000000000, 1.000000000000000000 ) ) ;
#152 =( LENGTH_UNIT ( ) NAMED_UNIT ( * ) SI_UNIT ( $, .METRE. ) );
#153 = PRESENTATION_LAYER_ASSIGNMENT (  '', '', ( #19 ) ) ;
#154 = ORIENTED_EDGE ( 'NONE', *, *, #198, .F. ) ;
#155 = DIRECTION ( 'NONE',  ( -0.000000000000000000, -1.000000000000000000, -0.000000000000000000 ) ) ;
#156 = ORIENTED_EDGE ( 'NONE', *, *, #163, .T. ) ;
#157 = EDGE_CURVE ( 'NONE', #139, #142, #174, .T. ) ;
#158 = AXIS2_PLACEMENT_3D ( 'NONE', #52, #66, #33 ) ;
#159 = CARTESIAN_POINT ( 'NONE',  ( 0.000000000000000000, 0.000000000000000000, 0.000000000000000000 ) ) ;
#160 = DIRECTION ( 'NONE',  ( 0.000000000000000000, 0.000000000000000000, 1.000000000000000000 ) ) ;
#161 = DIRECTION ( 'NONE',  ( 0.000000000000000000, 0.000000000000000000, -1.000000000000000000 ) ) ;
#162 = DIRECTION ( 'NONE',  ( -0.000000000000000000, -1.000000000000000000, -0.000000000000000000 ) ) ;
#163 = EDGE_CURVE ( 'NONE', #108, #102, #30, .T. ) ;
#164 =( LENGTH_UNIT ( ) NAMED_UNIT ( * ) SI_UNIT ( $, .METRE. ) );
#165 = ORIENTED_EDGE ( 'NONE', *, *, #53, .T. ) ;
#166 = AXIS2_PLACEMENT_3D ( 'NONE', #159, #127, #99 ) ;
#167 = VERTEX_POINT ( 'NONE', #16 ) ;
#168 = SURFACE_STYLE_USAGE ( .BOTH. , #104 ) ;
#169 = PRESENTATION_STYLE_ASSIGNMENT (( #168 ) ) ;
#170 = CYLINDRICAL_SURFACE ( 'NONE', #98, 0.1000000000000000056 ) ;
#171 = UNCERTAINTY_MEASURE_WITH_UNIT (LENGTH_MEASURE( 1.000000000000000082E-05 ), #119, 'distance_accuracy_value', 'NONE');
#172 =( GEOMETRIC_REPRESENTATION_CONTEXT ( 3 ) GLOBAL_UNCERTAINTY_ASSIGNED_CONTEXT ( ( #171 ) ) GLOBAL_UNIT_ASSIGNED_CONTEXT ( ( #119, #188, #13 ) ) REPRESENTATION_CONTEXT ( 'NONE', 'WORKASPACE' ) );
#173 = ORIENTED_EDGE ( 'NONE', *, *, #70, .F. ) ;
#174 = CIRCLE ( 'NONE', #89, 0.1000000000000000056 ) ;
#175 = CARTESIAN_POINT ( 'NONE',  ( 7.960204194457796709E-18, 0.4349999999999999978, 0.06500000000000000222 ) ) ;
#176 = DIRECTION ( 'NONE',  ( 0.000000000000000000, 0.000000000000000000, -1.000000000000000000 ) ) ;
#177 = PRODUCT_CONTEXT ( 'NONE', #105, 'mechanical' ) ;
#178 = VECTOR ( 'NONE', #182, 39.37007874015748143 ) ;
#179 = MANIFOLD_SOLID_BREP ( 'Boss-Extrude1', #191 ) ;
#180 = CARTESIAN_POINT ( 'NONE',  ( 7.960204194457796709E-18, 0.4349999999999999978, 0.06500000000000000222 ) ) ;
#181 = EDGE_CURVE ( 'NONE', #194, #139, #134, .T. ) ;
#182 = DIRECTION ( 'NONE',  ( -0.000000000000000000, -1.000000000000000000, -0.000000000000000000 ) ) ;
#183 =( NAMED_UNIT ( * ) SI_UNIT ( $, .STERADIAN. ) SOLID_ANGLE_UNIT ( ) );
#184 = LINE ( 'NONE', #133, #124 ) ;
#185 = ORIENTED_EDGE ( 'NONE', *, *, #181, .T. ) ;
#186 = DIRECTION ( 'NONE',  ( 0.000000000000000000, 1.000000000000000000, 0.000000000000000000 ) ) ;
#187 = ORIENTED_EDGE ( 'NONE', *, *, #198, .T. ) ;
#188 =( NAMED_UNIT ( * ) PLANE_ANGLE_UNIT ( ) SI_UNIT ( $, .RADIAN. ) );
#189 = AXIS2_PLACEMENT_3D ( 'NONE', #86, #146, #145 ) ;
#190 = EDGE_CURVE ( 'NONE', #167, #142, #184, .T. ) ;
#191 = CLOSED_SHELL ( 'NONE', ( #45, #137, #117, #120, #32, #96 ) ) ;
#192 = ORIENTED_EDGE ( 'NONE', *, *, #87, .T. ) ;
#193 = COLOUR_RGB ( '',0.7921568627450980005, 0.8196078431372548767, 0.9333333333333333481 ) ;
#194 = VERTEX_POINT ( 'NONE', #200 ) ;
#195 = CARTESIAN_POINT ( 'NONE',  ( 0.000000000000000000, 0.4349999999999999978, 0.000000000000000000 ) ) ;
#196 = DIRECTION ( 'NONE',  ( -0.000000000000000000, -1.000000000000000000, -0.000000000000000000 ) ) ;
#197 = LINE ( 'NONE', #175, #90 ) ;
#198 = EDGE_CURVE ( 'NONE', #57, #92, #24, .T. ) ;
#199 = FACE_OUTER_BOUND ( 'NONE', #3, .T. ) ;
#200 = CARTESIAN_POINT ( 'NONE',  ( 0.000000000000000000, 0.4349999999999999978, -0.1000000000000000056 ) ) ;
#201 = DIRECTION ( 'NONE',  ( 1.000000000000000000, 0.000000000000000000, 0.000000000000000000 ) ) ;
#202 = PRODUCT_DEFINITION_FORMATION_WITH_SPECIFIED_SOURCE ( 'ANY', '', #204, .NOT_KNOWN. ) ;
#203 = SURFACE_STYLE_FILL_AREA ( #17 ) ;
#204 = PRODUCT ( 'Eggfinder LCD Case V2 Screen Spacer Thin', 'Eggfinder LCD Case V2 Screen Spacer Thin', '', ( #177 ) ) ;
#205 = EDGE_CURVE ( 'NONE', #102, #92, #65, .T. ) ;
ENDSEC;
END-ISO-10303-21;
