ISO-10303-21;
HEADER;
FILE_DESCRIPTION (( 'STEP AP214' ),
    '1' );
FILE_NAME ('Eggfinder LCD Case V2 Screen Spacer Thin_STEP.STEP',
    '2026-02-20T03:49:29',
    ( '' ),
    ( '' ),
    'SwSTEP 2.0',
    'SolidWorks 2024',
    '' );
FILE_SCHEMA (( 'AUTOMOTIVE_DESIGN' ));
ENDSEC;

DATA;
#1 = ORIENTED_EDGE ( 'NONE', *, *, #22, .F. ) ;
#2 = CARTESIAN_POINT ( 'NONE',  ( 0.000000000000000000, 0.4349999999999999978, 0.000000000000000000 ) ) ;
#3 = FILL_AREA_STYLE_COLOUR ( '', #203 ) ;
#4 = DIRECTION ( 'NONE',  ( 0.000000000000000000, 0.000000000000000000, -1.000000000000000000 ) ) ;
#5 = EDGE_CURVE ( 'NONE', #138, #135, #64, .T. ) ;
#6 = ORIENTED_EDGE ( 'NONE', *, *, #148, .F. ) ;
#7 = ADVANCED_FACE ( 'NONE', ( #105, #205 ), #107, .F. ) ;
#8 = DIRECTION ( 'NONE',  ( 0.000000000000000000, 0.000000000000000000, -1.000000000000000000 ) ) ;
#9 = APPLICATION_PROTOCOL_DEFINITION ( 'draft international standard', 'automotive_design', 1998, #114 ) ;
#10 = PRODUCT_DEFINITION_SHAPE ( 'NONE', 'NONE',  #141 ) ;
#11 = CARTESIAN_POINT ( 'NONE',  ( 0.000000000000000000, 0.000000000000000000, 0.000000000000000000 ) ) ;
#12 = AXIS2_PLACEMENT_3D ( 'NONE', #49, #63, #103 ) ;
#13 = ADVANCED_FACE ( 'NONE', ( #34 ), #155, .F. ) ;
#14 = DIRECTION ( 'NONE',  ( 0.000000000000000000, 1.000000000000000000, 0.000000000000000000 ) ) ;
#15 = CARTESIAN_POINT ( 'NONE',  ( 0.000000000000000000, 0.4349999999999999978, 0.000000000000000000 ) ) ;
#16 = EDGE_LOOP ( 'NONE', ( #51, #153 ) ) ;
#17 = AXIS2_PLACEMENT_3D ( 'NONE', #97, #74, #145 ) ;
#18 = DIRECTION ( 'NONE',  ( -0.000000000000000000, -1.000000000000000000, -0.000000000000000000 ) ) ;
#19 = EDGE_LOOP ( 'NONE', ( #115, #52, #95, #123 ) ) ;
#20 = FACE_OUTER_BOUND ( 'NONE', #24, .T. ) ;
#21 = LENGTH_MEASURE_WITH_UNIT ( LENGTH_MEASURE( 0.02539999999999999897 ), #70 );
#22 = EDGE_CURVE ( 'NONE', #193, #151, #147, .T. ) ;
#23 = CARTESIAN_POINT ( 'NONE',  ( 0.000000000000000000, 0.4349999999999999978, 0.000000000000000000 ) ) ;
#24 = EDGE_LOOP ( 'NONE', ( #94, #204 ) ) ;
#25 = AXIS2_PLACEMENT_3D ( 'NONE', #90, #84, #92 ) ;
#26 = PRODUCT_DEFINITION_CONTEXT ( 'detailed design', #114, 'design' ) ;
#27 = LINE ( 'NONE', #187, #46 ) ;
#28 = VERTEX_POINT ( 'NONE', #127 ) ;
#29 = CIRCLE ( 'NONE', #79, 0.1000000000000000056 ) ;
#30 = DIRECTION ( 'NONE',  ( 0.000000000000000000, 0.000000000000000000, 1.000000000000000000 ) ) ;
#31 = EDGE_LOOP ( 'NONE', ( #176, #125 ) ) ;
#32 = ORIENTED_EDGE ( 'NONE', *, *, #47, .T. ) ;
#33 = AXIS2_PLACEMENT_3D ( 'NONE', #91, #195, #160 ) ;
#34 = FACE_OUTER_BOUND ( 'NONE', #77, .T. ) ;
#35 = DIRECTION ( 'NONE',  ( 0.000000000000000000, 0.000000000000000000, 1.000000000000000000 ) ) ;
#36 = EDGE_CURVE ( 'NONE', #134, #135, #57, .T. ) ;
#37 =( NAMED_UNIT ( * ) SI_UNIT ( $, .STERADIAN. ) SOLID_ANGLE_UNIT ( ) );
#38 = CLOSED_SHELL ( 'NONE', ( #82, #183, #149, #7, #175, #13 ) ) ;
#39 = SURFACE_SIDE_STYLE ('',( #41 ) ) ;
#40 = LINE ( 'NONE', #96, #182 ) ;
#41 = SURFACE_STYLE_FILL_AREA ( #131 ) ;
#42 = UNCERTAINTY_MEASURE_WITH_UNIT (LENGTH_MEASURE( 1.000000000000000082E-05 ), #181, 'distance_accuracy_value', 'NONE');
#43 = AXIS2_PLACEMENT_3D ( 'NONE', #108, #98, #146 ) ;
#44 = PRODUCT_CONTEXT ( 'NONE', #185, 'mechanical' ) ;
#45 = CARTESIAN_POINT ( 'NONE',  ( 1.224646799147353269E-17, 0.000000000000000000, 0.1000000000000000056 ) ) ;
#46 = VECTOR ( 'NONE', #184, 39.37007874015748143 ) ;
#47 = EDGE_CURVE ( 'NONE', #28, #193, #121, .T. ) ;
#48 = EDGE_CURVE ( 'NONE', #78, #28, #29, .T. ) ;
#49 = CARTESIAN_POINT ( 'NONE',  ( 0.000000000000000000, 0.000000000000000000, 0.000000000000000000 ) ) ;
#50 = CARTESIAN_POINT ( 'NONE',  ( 0.000000000000000000, 0.000000000000000000, 0.000000000000000000 ) ) ;
#51 = ORIENTED_EDGE ( 'NONE', *, *, #36, .T. ) ;
#52 = ORIENTED_EDGE ( 'NONE', *, *, #5, .T. ) ;
#53 = EDGE_LOOP ( 'NONE', ( #201, #32, #106, #6 ) ) ;
#54 = CARTESIAN_POINT ( 'NONE',  ( 7.960204194457796709E-18, 0.4349999999999999978, 0.06500000000000000222 ) ) ;
#55 = PRODUCT_RELATED_PRODUCT_CATEGORY ( 'part', '', ( #166 ) ) ;
#56 = CARTESIAN_POINT ( 'NONE',  ( 0.000000000000000000, 0.4349999999999999978, -0.1000000000000000056 ) ) ;
#57 = CIRCLE ( 'NONE', #12, 0.06500000000000000222 ) ;
#58 = SURFACE_STYLE_USAGE ( .BOTH. , #39 ) ;
#59 = DIRECTION ( 'NONE',  ( 0.000000000000000000, 1.000000000000000000, 0.000000000000000000 ) ) ;
#60 = DIRECTION ( 'NONE',  ( 0.000000000000000000, 0.000000000000000000, -1.000000000000000000 ) ) ;
#61 =( NAMED_UNIT ( * ) PLANE_ANGLE_UNIT ( ) SI_UNIT ( $, .RADIAN. ) );
#62 = AXIS2_PLACEMENT_3D ( 'NONE', #124, #14, #66 ) ;
#63 = DIRECTION ( 'NONE',  ( 0.000000000000000000, 1.000000000000000000, 0.000000000000000000 ) ) ;
#64 = LINE ( 'NONE', #83, #88 ) ;
#65 = AXIS2_PLACEMENT_3D ( 'NONE', #2, #59, #71 ) ;
#66 = DIRECTION ( 'NONE',  ( 0.000000000000000000, -0.000000000000000000, 1.000000000000000000 ) ) ;
#67 = EDGE_LOOP ( 'NONE', ( #163, #1 ) ) ;
#68 = EDGE_CURVE ( 'NONE', #135, #134, #189, .T. ) ;
#69 = DIRECTION ( 'NONE',  ( 0.000000000000000000, 0.000000000000000000, 1.000000000000000000 ) ) ;
#70 =( LENGTH_UNIT ( ) NAMED_UNIT ( * ) SI_UNIT ( $, .METRE. ) );
#71 = DIRECTION ( 'NONE',  ( 0.000000000000000000, 0.000000000000000000, 1.000000000000000000 ) ) ;
#72 = DIRECTION ( 'NONE',  ( -0.000000000000000000, -1.000000000000000000, -0.000000000000000000 ) ) ;
#73 = CIRCLE ( 'NONE', #65, 0.1000000000000000056 ) ;
#74 = DIRECTION ( 'NONE',  ( 0.000000000000000000, 1.000000000000000000, 0.000000000000000000 ) ) ;
#75 = FACE_BOUND ( 'NONE', #31, .T. ) ;
#76 = EDGE_CURVE ( 'NONE', #138, #172, #174, .T. ) ;
#77 = EDGE_LOOP ( 'NONE', ( #173, #152, #80, #154 ) ) ;
#78 = VERTEX_POINT ( 'NONE', #56 ) ;
#79 = AXIS2_PLACEMENT_3D ( 'NONE', #15, #171, #30 ) ;
#80 = ORIENTED_EDGE ( 'NONE', *, *, #192, .T. ) ;
#81 =( GEOMETRIC_REPRESENTATION_CONTEXT ( 3 ) GLOBAL_UNCERTAINTY_ASSIGNED_CONTEXT ( ( #164 ) ) GLOBAL_UNIT_ASSIGNED_CONTEXT ( ( #87, #128, #37 ) ) REPRESENTATION_CONTEXT ( 'NONE', 'WORKASPACE' ) );
#82 = ADVANCED_FACE ( 'NONE', ( #86 ), #197, .F. ) ;
#83 = CARTESIAN_POINT ( 'NONE',  ( 7.960204194457796709E-18, 0.4349999999999999978, 0.06500000000000000222 ) ) ;
#84 = DIRECTION ( 'NONE',  ( -0.000000000000000000, -1.000000000000000000, -0.000000000000000000 ) ) ;
#85 = DIRECTION ( 'NONE',  ( 0.000000000000000000, 1.000000000000000000, 0.000000000000000000 ) ) ;
#86 = FACE_OUTER_BOUND ( 'NONE', #19, .T. ) ;
#87 =( CONVERSION_BASED_UNIT ( 'INCH', #21 ) LENGTH_UNIT ( ) NAMED_UNIT ( #158 ) );
#88 = VECTOR ( 'NONE', #18, 39.37007874015748143 ) ;
#89 = LENGTH_MEASURE_WITH_UNIT ( LENGTH_MEASURE( 0.02539999999999999897 ), #132 );
#90 = CARTESIAN_POINT ( 'NONE',  ( 0.000000000000000000, 0.4349999999999999978, 0.000000000000000000 ) ) ;
#91 = CARTESIAN_POINT ( 'NONE',  ( 0.000000000000000000, 0.000000000000000000, 0.000000000000000000 ) ) ;
#92 = DIRECTION ( 'NONE',  ( 0.000000000000000000, 0.000000000000000000, -1.000000000000000000 ) ) ;
#93 = AXIS2_PLACEMENT_3D ( 'NONE', #179, #186, #60 ) ;
#94 = ORIENTED_EDGE ( 'NONE', *, *, #48, .T. ) ;
#95 = ORIENTED_EDGE ( 'NONE', *, *, #36, .F. ) ;
#96 = CARTESIAN_POINT ( 'NONE',  ( 0.000000000000000000, 0.4349999999999999978, -0.1000000000000000056 ) ) ;
#97 = CARTESIAN_POINT ( 'NONE',  ( 0.000000000000000000, 0.000000000000000000, 0.000000000000000000 ) ) ;
#98 = DIRECTION ( 'NONE',  ( 0.000000000000000000, 1.000000000000000000, 0.000000000000000000 ) ) ;
#99 = DIRECTION ( 'NONE',  ( 0.000000000000000000, 0.000000000000000000, 1.000000000000000000 ) ) ;
#100 = APPLICATION_PROTOCOL_DEFINITION ( 'draft international standard', 'automotive_design', 1998, #185 ) ;
#101 = AXIS2_PLACEMENT_3D ( 'NONE', #23, #142, #99 ) ;
#102 = ADVANCED_BREP_SHAPE_REPRESENTATION ( 'Eggfinder LCD Case V2 Screen Spacer Thin_STEP', ( #156, #200 ), #170 ) ;
#103 = DIRECTION ( 'NONE',  ( 0.000000000000000000, 0.000000000000000000, 1.000000000000000000 ) ) ;
#104 = DIRECTION ( 'NONE',  ( -0.000000000000000000, -1.000000000000000000, -0.000000000000000000 ) ) ;
#105 = FACE_OUTER_BOUND ( 'NONE', #67, .T. ) ;
#106 = ORIENTED_EDGE ( 'NONE', *, *, #22, .T. ) ;
#107 = PLANE ( 'NONE',  #62 ) ;
#108 = CARTESIAN_POINT ( 'NONE',  ( 0.000000000000000000, 0.4349999999999999978, 0.000000000000000000 ) ) ;
#109 = CYLINDRICAL_SURFACE ( 'NONE', #130, 0.1000000000000000056 ) ;
#110 = CARTESIAN_POINT ( 'NONE',  ( 0.000000000000000000, 0.4349999999999999978, -0.06500000000000000222 ) ) ;
#111 = AXIS2_PLACEMENT_3D ( 'NONE', #116, #85, #35 ) ;
#112 = DIMENSIONAL_EXPONENTS ( 1.000000000000000000, 0.000000000000000000, 0.000000000000000000, 0.000000000000000000, 0.000000000000000000, 0.000000000000000000, 0.000000000000000000 ) ;
#113 = EDGE_CURVE ( 'NONE', #172, #138, #122, .T. ) ;
#114 = APPLICATION_CONTEXT ( 'automotive_design' ) ;
#115 = ORIENTED_EDGE ( 'NONE', *, *, #113, .T. ) ;
#116 = CARTESIAN_POINT ( 'NONE',  ( 0.000000000000000000, 0.4349999999999999978, 0.000000000000000000 ) ) ;
#117 = EDGE_CURVE ( 'NONE', #151, #193, #140, .T. ) ;
#118 = PRODUCT_DEFINITION_FORMATION_WITH_SPECIFIED_SOURCE ( 'ANY', '', #166, .NOT_KNOWN. ) ;
#119 = DIRECTION ( 'NONE',  ( 1.000000000000000000, 0.000000000000000000, 0.000000000000000000 ) ) ;
#120 = DIRECTION ( 'NONE',  ( 0.000000000000000000, 0.000000000000000000, 1.000000000000000000 ) ) ;
#121 = LINE ( 'NONE', #188, #194 ) ;
#122 = CIRCLE ( 'NONE', #101, 0.06500000000000000222 ) ;
#123 = ORIENTED_EDGE ( 'NONE', *, *, #192, .F. ) ;
#124 = CARTESIAN_POINT ( 'NONE',  ( 0.000000000000000000, 0.000000000000000000, 0.000000000000000000 ) ) ;
#125 = ORIENTED_EDGE ( 'NONE', *, *, #76, .F. ) ;
#126 = AXIS2_PLACEMENT_3D ( 'NONE', #199, #196, #4 ) ;
#127 = CARTESIAN_POINT ( 'NONE',  ( 1.224646799147353269E-17, 0.4349999999999999978, 0.1000000000000000056 ) ) ;
#128 =( NAMED_UNIT ( * ) PLANE_ANGLE_UNIT ( ) SI_UNIT ( $, .RADIAN. ) );
#129 = FACE_OUTER_BOUND ( 'NONE', #53, .T. ) ;
#130 = AXIS2_PLACEMENT_3D ( 'NONE', #177, #72, #8 ) ;
#131 = FILL_AREA_STYLE ('',( #3 ) ) ;
#132 =( LENGTH_UNIT ( ) NAMED_UNIT ( * ) SI_UNIT ( $, .METRE. ) );
#133 = EDGE_CURVE ( 'NONE', #28, #78, #73, .T. ) ;
#134 = VERTEX_POINT ( 'NONE', #180 ) ;
#135 = VERTEX_POINT ( 'NONE', #143 ) ;
#136 = STYLED_ITEM ( 'NONE', ( #144 ), #156 ) ;
#137 = ORIENTED_EDGE ( 'NONE', *, *, #47, .F. ) ;
#138 = VERTEX_POINT ( 'NONE', #54 ) ;
#139 = DIRECTION ( 'NONE',  ( 0.000000000000000000, 1.000000000000000000, 0.000000000000000000 ) ) ;
#140 = CIRCLE ( 'NONE', #17, 0.1000000000000000056 ) ;
#141 = PRODUCT_DEFINITION ( 'UNKNOWN', '', #118, #26 ) ;
#142 = DIRECTION ( 'NONE',  ( 0.000000000000000000, 1.000000000000000000, 0.000000000000000000 ) ) ;
#143 = CARTESIAN_POINT ( 'NONE',  ( 7.960204194457796709E-18, 0.000000000000000000, 0.06500000000000000222 ) ) ;
#144 = PRESENTATION_STYLE_ASSIGNMENT (( #58 ) ) ;
#145 = DIRECTION ( 'NONE',  ( 0.000000000000000000, 0.000000000000000000, 1.000000000000000000 ) ) ;
#146 = DIRECTION ( 'NONE',  ( 0.000000000000000000, -0.000000000000000000, 1.000000000000000000 ) ) ;
#147 = CIRCLE ( 'NONE', #159, 0.1000000000000000056 ) ;
#148 = EDGE_CURVE ( 'NONE', #78, #151, #40, .T. ) ;
#149 = ADVANCED_FACE ( 'NONE', ( #20, #75 ), #162, .T. ) ;
#150 = PRESENTATION_LAYER_ASSIGNMENT (  '', '', ( #136 ) ) ;
#151 = VERTEX_POINT ( 'NONE', #161 ) ;
#152 = ORIENTED_EDGE ( 'NONE', *, *, #76, .T. ) ;
#153 = ORIENTED_EDGE ( 'NONE', *, *, #68, .T. ) ;
#154 = ORIENTED_EDGE ( 'NONE', *, *, #68, .F. ) ;
#155 = CYLINDRICAL_SURFACE ( 'NONE', #25, 0.06500000000000000222 ) ;
#156 = MANIFOLD_SOLID_BREP ( 'Boss-Extrude1', #38 ) ;
#157 = DIRECTION ( 'NONE',  ( -0.000000000000000000, -1.000000000000000000, -0.000000000000000000 ) ) ;
#158 = DIMENSIONAL_EXPONENTS ( 1.000000000000000000, 0.000000000000000000, 0.000000000000000000, 0.000000000000000000, 0.000000000000000000, 0.000000000000000000, 0.000000000000000000 ) ;
#159 = AXIS2_PLACEMENT_3D ( 'NONE', #50, #139, #69 ) ;
#160 = DIRECTION ( 'NONE',  ( 0.000000000000000000, 0.000000000000000000, 1.000000000000000000 ) ) ;
#161 = CARTESIAN_POINT ( 'NONE',  ( 0.000000000000000000, 0.000000000000000000, -0.1000000000000000056 ) ) ;
#162 = PLANE ( 'NONE',  #43 ) ;
#163 = ORIENTED_EDGE ( 'NONE', *, *, #117, .F. ) ;
#164 = UNCERTAINTY_MEASURE_WITH_UNIT (LENGTH_MEASURE( 1.000000000000000082E-05 ), #87, 'distance_accuracy_value', 'NONE');
#165 =( NAMED_UNIT ( * ) SI_UNIT ( $, .STERADIAN. ) SOLID_ANGLE_UNIT ( ) );
#166 = PRODUCT ( 'Eggfinder LCD Case V2 Screen Spacer Thin_STEP', 'Eggfinder LCD Case V2 Screen Spacer Thin_STEP', '', ( #44 ) ) ;
#167 = MECHANICAL_DESIGN_GEOMETRIC_PRESENTATION_REPRESENTATION (  '', ( #136 ), #81 ) ;
#168 = SHAPE_DEFINITION_REPRESENTATION ( #10, #102 ) ;
#169 = ORIENTED_EDGE ( 'NONE', *, *, #48, .F. ) ;
#170 =( GEOMETRIC_REPRESENTATION_CONTEXT ( 3 ) GLOBAL_UNCERTAINTY_ASSIGNED_CONTEXT ( ( #42 ) ) GLOBAL_UNIT_ASSIGNED_CONTEXT ( ( #181, #61, #165 ) ) REPRESENTATION_CONTEXT ( 'NONE', 'WORKASPACE' ) );
#171 = DIRECTION ( 'NONE',  ( 0.000000000000000000, 1.000000000000000000, 0.000000000000000000 ) ) ;
#172 = VERTEX_POINT ( 'NONE', #110 ) ;
#173 = ORIENTED_EDGE ( 'NONE', *, *, #5, .F. ) ;
#174 = CIRCLE ( 'NONE', #111, 0.06500000000000000222 ) ;
#175 = ADVANCED_FACE ( 'NONE', ( #178 ), #109, .T. ) ;
#176 = ORIENTED_EDGE ( 'NONE', *, *, #113, .F. ) ;
#177 = CARTESIAN_POINT ( 'NONE',  ( 0.000000000000000000, 0.4349999999999999978, 0.000000000000000000 ) ) ;
#178 = FACE_OUTER_BOUND ( 'NONE', #190, .T. ) ;
#179 = CARTESIAN_POINT ( 'NONE',  ( 0.000000000000000000, 0.4349999999999999978, 0.000000000000000000 ) ) ;
#180 = CARTESIAN_POINT ( 'NONE',  ( 0.000000000000000000, 0.000000000000000000, -0.06500000000000000222 ) ) ;
#181 =( CONVERSION_BASED_UNIT ( 'INCH', #89 ) LENGTH_UNIT ( ) NAMED_UNIT ( #112 ) );
#182 = VECTOR ( 'NONE', #157, 39.37007874015748143 ) ;
#183 = ADVANCED_FACE ( 'NONE', ( #129 ), #198, .T. ) ;
#184 = DIRECTION ( 'NONE',  ( -0.000000000000000000, -1.000000000000000000, -0.000000000000000000 ) ) ;
#185 = APPLICATION_CONTEXT ( 'automotive_design' ) ;
#186 = DIRECTION ( 'NONE',  ( -0.000000000000000000, -1.000000000000000000, -0.000000000000000000 ) ) ;
#187 = CARTESIAN_POINT ( 'NONE',  ( 0.000000000000000000, 0.4349999999999999978, -0.06500000000000000222 ) ) ;
#188 = CARTESIAN_POINT ( 'NONE',  ( 1.224646799147353269E-17, 0.4349999999999999978, 0.1000000000000000056 ) ) ;
#189 = CIRCLE ( 'NONE', #33, 0.06500000000000000222 ) ;
#190 = EDGE_LOOP ( 'NONE', ( #137, #169, #191, #202 ) ) ;
#191 = ORIENTED_EDGE ( 'NONE', *, *, #148, .T. ) ;
#192 = EDGE_CURVE ( 'NONE', #172, #134, #27, .T. ) ;
#193 = VERTEX_POINT ( 'NONE', #45 ) ;
#194 = VECTOR ( 'NONE', #104, 39.37007874015748143 ) ;
#195 = DIRECTION ( 'NONE',  ( 0.000000000000000000, 1.000000000000000000, 0.000000000000000000 ) ) ;
#196 = DIRECTION ( 'NONE',  ( -0.000000000000000000, -1.000000000000000000, -0.000000000000000000 ) ) ;
#197 = CYLINDRICAL_SURFACE ( 'NONE', #126, 0.06500000000000000222 ) ;
#198 = CYLINDRICAL_SURFACE ( 'NONE', #93, 0.1000000000000000056 ) ;
#199 = CARTESIAN_POINT ( 'NONE',  ( 0.000000000000000000, 0.4349999999999999978, 0.000000000000000000 ) ) ;
#200 = AXIS2_PLACEMENT_3D ( 'NONE', #11, #120, #119 ) ;
#201 = ORIENTED_EDGE ( 'NONE', *, *, #133, .F. ) ;
#202 = ORIENTED_EDGE ( 'NONE', *, *, #117, .T. ) ;
#203 = COLOUR_RGB ( '',0.7921568627450980005, 0.8196078431372548767, 0.9333333333333333481 ) ;
#204 = ORIENTED_EDGE ( 'NONE', *, *, #133, .T. ) ;
#205 = FACE_BOUND ( 'NONE', #16, .T. ) ;
ENDSEC;
END-ISO-10303-21;
