ISO-10303-21;
HEADER;
FILE_DESCRIPTION (( 'STEP AP214' ),
    '1' );
FILE_NAME ('Eggfinder LCD Case V2 Battery Door Retainer_STEP.STEP',
    '2026-02-20T03:49:13',
    ( '' ),
    ( '' ),
    'SwSTEP 2.0',
    'SolidWorks 2024',
    '' );
FILE_SCHEMA (( 'AUTOMOTIVE_DESIGN' ));
ENDSEC;

DATA;
#1 = FACE_OUTER_BOUND ( 'NONE', #83, .T. ) ;
#2 = EDGE_LOOP ( 'NONE', ( #154, #457, #193, #139 ) ) ;
#3 = CARTESIAN_POINT ( 'NONE',  ( 0.000000000000000000, 0.1124999999999999889, 0.000000000000000000 ) ) ;
#4 = AXIS2_PLACEMENT_3D ( 'NONE', #196, #230, #279 ) ;
#5 = ORIENTED_EDGE ( 'NONE', *, *, #151, .F. ) ;
#6 = UNCERTAINTY_MEASURE_WITH_UNIT (LENGTH_MEASURE( 1.000000000000000082E-05 ), #195, 'distance_accuracy_value', 'NONE');
#7 = DIRECTION ( 'NONE',  ( 1.000000000000000000, 0.000000000000000000, -2.731847993664263218E-16 ) ) ;
#8 = EDGE_LOOP ( 'NONE', ( #477, #35 ) ) ;
#9 =( NAMED_UNIT ( * ) PLANE_ANGLE_UNIT ( ) SI_UNIT ( $, .RADIAN. ) );
#10 = CARTESIAN_POINT ( 'NONE',  ( 0.000000000000000000, 0.03749999999999999861, 0.000000000000000000 ) ) ;
#11 = EDGE_CURVE ( 'NONE', #22, #61, #418, .T. ) ;
#12 = DIRECTION ( 'NONE',  ( 2.731847993664263711E-16, 0.000000000000000000, 1.000000000000000000 ) ) ;
#13 = CIRCLE ( 'NONE', #128, 0.1250000000000000000 ) ;
#14 = CYLINDRICAL_SURFACE ( 'NONE', #210, 0.06425000000000000155 ) ;
#15 = EDGE_CURVE ( 'NONE', #415, #419, #119, .T. ) ;
#16 = CARTESIAN_POINT ( 'NONE',  ( 0.000000000000000000, 0.000000000000000000, 0.000000000000000000 ) ) ;
#17 = ORIENTED_EDGE ( 'NONE', *, *, #249, .F. ) ;
#18 = DIRECTION ( 'NONE',  ( -0.000000000000000000, 1.000000000000000000, -0.000000000000000000 ) ) ;
#19 = VERTEX_POINT ( 'NONE', #367 ) ;
#20 = CARTESIAN_POINT ( 'NONE',  ( 7.868355684521743882E-18, 0.03749999999999999861, -0.06425000000000000155 ) ) ;
#21 = ADVANCED_FACE ( 'NONE', ( #117, #145 ), #411, .F. ) ;
#22 = VERTEX_POINT ( 'NONE', #450 ) ;
#23 = DIRECTION ( 'NONE',  ( 0.000000000000000000, 0.000000000000000000, 1.000000000000000000 ) ) ;
#24 = ORIENTED_EDGE ( 'NONE', *, *, #431, .T. ) ;
#25 = EDGE_CURVE ( 'NONE', #22, #394, #30, .T. ) ;
#26 = CARTESIAN_POINT ( 'NONE',  ( 0.6500000000000000222, 0.1124999999999999889, 0.000000000000000000 ) ) ;
#27 = DIRECTION ( 'NONE',  ( 0.000000000000000000, 1.000000000000000000, 0.000000000000000000 ) ) ;
#28 = DIRECTION ( 'NONE',  ( -1.000000000000000000, -0.000000000000000000, -2.731847993664263218E-16 ) ) ;
#29 = CIRCLE ( 'NONE', #4, 0.06250000000000002776 ) ;
#30 = LINE ( 'NONE', #496, #141 ) ;
#31 = CARTESIAN_POINT ( 'NONE',  ( 0.6500000000000000222, 0.03749999999999999861, -0.06249999999999995837 ) ) ;
#32 = CARTESIAN_POINT ( 'NONE',  ( 0.5749999999999999556, 0.1124999999999999889, 0.000000000000000000 ) ) ;
#33 = PLANE ( 'NONE',  #354 ) ;
#34 = DIRECTION ( 'NONE',  ( 0.000000000000000000, 1.000000000000000000, 0.000000000000000000 ) ) ;
#35 = ORIENTED_EDGE ( 'NONE', *, *, #278, .F. ) ;
#36 = LENGTH_MEASURE_WITH_UNIT ( LENGTH_MEASURE( 0.02539999999999999897 ), #144 );
#37 = AXIS2_PLACEMENT_3D ( 'NONE', #214, #441, #94 ) ;
#38 = DIRECTION ( 'NONE',  ( 0.000000000000000000, 1.000000000000000000, 0.000000000000000000 ) ) ;
#39 = EDGE_CURVE ( 'NONE', #497, #430, #266, .T. ) ;
#40 = ORIENTED_EDGE ( 'NONE', *, *, #333, .T. ) ;
#41 = PRESENTATION_LAYER_ASSIGNMENT (  '', '', ( #425 ) ) ;
#42 = FACE_BOUND ( 'NONE', #287, .T. ) ;
#43 = CYLINDRICAL_SURFACE ( 'NONE', #140, 0.1250000000000000000 ) ;
#44 = CARTESIAN_POINT ( 'NONE',  ( 0.000000000000000000, 0.03749999999999999861, 0.000000000000000000 ) ) ;
#45 = ORIENTED_EDGE ( 'NONE', *, *, #470, .F. ) ;
#46 = PRODUCT_CONTEXT ( 'NONE', #316, 'mechanical' ) ;
#47 = FACE_OUTER_BOUND ( 'NONE', #380, .T. ) ;
#48 = DIRECTION ( 'NONE',  ( 1.000000000000000000, 0.000000000000000000, 0.000000000000000000 ) ) ;
#49 = DIRECTION ( 'NONE',  ( 0.000000000000000000, 0.000000000000000000, -1.000000000000000000 ) ) ;
#50 = CARTESIAN_POINT ( 'NONE',  ( 0.5749999999999999556, 0.000000000000000000, 0.000000000000000000 ) ) ;
#51 = VECTOR ( 'NONE', #305, 39.37007874015748143 ) ;
#52 = EDGE_CURVE ( 'NONE', #162, #261, #72, .T. ) ;
#53 = AXIS2_PLACEMENT_3D ( 'NONE', #16, #247, #23 ) ;
#54 = DIRECTION ( 'NONE',  ( 0.000000000000000000, 1.000000000000000000, 0.000000000000000000 ) ) ;
#55 = ORIENTED_EDGE ( 'NONE', *, *, #249, .T. ) ;
#56 = PLANE ( 'NONE',  #84 ) ;
#57 = ORIENTED_EDGE ( 'NONE', *, *, #63, .T. ) ;
#58 = EDGE_CURVE ( 'NONE', #115, #269, #451, .T. ) ;
#59 = PRODUCT ( 'Eggfinder LCD Case V2 Battery Door Retainer_STEP', 'Eggfinder LCD Case V2 Battery Door Retainer_STEP', '', ( #46 ) ) ;
#60 = LINE ( 'NONE', #286, #401 ) ;
#61 = VERTEX_POINT ( 'NONE', #152 ) ;
#62 = CARTESIAN_POINT ( 'NONE',  ( 0.5749999999999999556, 0.1124999999999999889, 0.2874999999999999223 ) ) ;
#63 = EDGE_CURVE ( 'NONE', #67, #261, #262, .T. ) ;
#64 = ORIENTED_EDGE ( 'NONE', *, *, #77, .T. ) ;
#65 = AXIS2_PLACEMENT_3D ( 'NONE', #113, #102, #107 ) ;
#66 = CARTESIAN_POINT ( 'NONE',  ( 0.4000000000000000222, 0.1124999999999999889, -0.06250000000000002776 ) ) ;
#67 = VERTEX_POINT ( 'NONE', #447 ) ;
#68 = UNCERTAINTY_MEASURE_WITH_UNIT (LENGTH_MEASURE( 1.000000000000000082E-05 ), #76, 'distance_accuracy_value', 'NONE');
#69 = DIRECTION ( 'NONE',  ( -0.000000000000000000, 1.000000000000000000, -0.000000000000000000 ) ) ;
#70 = FACE_OUTER_BOUND ( 'NONE', #398, .T. ) ;
#71 = CARTESIAN_POINT ( 'NONE',  ( 0.5749999999999999556, 0.1124999999999999889, -0.2874999999999999223 ) ) ;
#72 = LINE ( 'NONE', #156, #484 ) ;
#73 = DIRECTION ( 'NONE',  ( 0.000000000000000000, 0.000000000000000000, 1.000000000000000000 ) ) ;
#74 = ORIENTED_EDGE ( 'NONE', *, *, #325, .T. ) ;
#75 = ORIENTED_EDGE ( 'NONE', *, *, #365, .F. ) ;
#76 =( CONVERSION_BASED_UNIT ( 'INCH', #36 ) LENGTH_UNIT ( ) NAMED_UNIT ( #369 ) );
#77 = EDGE_CURVE ( 'NONE', #235, #162, #260, .T. ) ;
#78 = CARTESIAN_POINT ( 'NONE',  ( 0.000000000000000000, 0.03749999999999999861, 0.000000000000000000 ) ) ;
#79 = ORIENTED_EDGE ( 'NONE', *, *, #15, .T. ) ;
#80 = AXIS2_PLACEMENT_3D ( 'NONE', #349, #312, #468 ) ;
#81 = CARTESIAN_POINT ( 'NONE',  ( 0.4000000000000000222, 0.03749999999999999861, -0.06250000000000002776 ) ) ;
#82 = ADVANCED_FACE ( 'NONE', ( #407 ), #374, .T. ) ;
#83 = EDGE_LOOP ( 'NONE', ( #178, #213, #273, #479 ) ) ;
#84 = AXIS2_PLACEMENT_3D ( 'NONE', #96, #136, #400 ) ;
#85 = DIRECTION ( 'NONE',  ( 0.000000000000000000, 0.000000000000000000, 1.000000000000000000 ) ) ;
#86 = DIRECTION ( 'NONE',  ( -0.000000000000000000, 1.000000000000000000, -0.000000000000000000 ) ) ;
#87 = VERTEX_POINT ( 'NONE', #114 ) ;
#88 = FACE_OUTER_BOUND ( 'NONE', #409, .T. ) ;
#89 = ORIENTED_EDGE ( 'NONE', *, *, #443, .T. ) ;
#90 = CARTESIAN_POINT ( 'NONE',  ( 0.000000000000000000, 0.03749999999999999861, 0.06425000000000000155 ) ) ;
#91 = CARTESIAN_POINT ( 'NONE',  ( 0.000000000000000000, 0.1124999999999999889, 0.000000000000000000 ) ) ;
#92 = DIRECTION ( 'NONE',  ( 0.000000000000000000, 1.000000000000000000, 0.000000000000000000 ) ) ;
#93 = AXIS2_PLACEMENT_3D ( 'NONE', #44, #200, #125 ) ;
#94 = DIRECTION ( 'NONE',  ( 0.000000000000000000, 0.000000000000000000, 1.000000000000000000 ) ) ;
#95 = ORIENTED_EDGE ( 'NONE', *, *, #197, .T. ) ;
#96 = CARTESIAN_POINT ( 'NONE',  ( 0.5749999999999999556, 0.1124999999999999889, -0.2874999999999999223 ) ) ;
#97 = ORIENTED_EDGE ( 'NONE', *, *, #283, .F. ) ;
#98 = ADVANCED_FACE ( 'NONE', ( #330, #105, #70 ), #222, .T. ) ;
#99 = DIRECTION ( 'NONE',  ( 0.000000000000000000, 0.000000000000000000, 1.000000000000000000 ) ) ;
#100 = EDGE_LOOP ( 'NONE', ( #405, #299, #402, #189 ) ) ;
#101 = VECTOR ( 'NONE', #171, 39.37007874015748143 ) ;
#102 = DIRECTION ( 'NONE',  ( 0.000000000000000000, 1.000000000000000000, 0.000000000000000000 ) ) ;
#103 = ORIENTED_EDGE ( 'NONE', *, *, #351, .T. ) ;
#104 = CIRCLE ( 'NONE', #170, 0.06249999999999995837 ) ;
#105 = FACE_BOUND ( 'NONE', #487, .T. ) ;
#106 = EDGE_CURVE ( 'NONE', #67, #199, #159, .T. ) ;
#107 = DIRECTION ( 'NONE',  ( 0.000000000000000000, -0.000000000000000000, 1.000000000000000000 ) ) ;
#108 = DIRECTION ( 'NONE',  ( -0.000000000000000000, 1.000000000000000000, -0.000000000000000000 ) ) ;
#109 = LENGTH_MEASURE_WITH_UNIT ( LENGTH_MEASURE( 0.02539999999999999897 ), #149 );
#110 = DIRECTION ( 'NONE',  ( 0.000000000000000000, 0.000000000000000000, 1.000000000000000000 ) ) ;
#111 = EDGE_CURVE ( 'NONE', #377, #87, #336, .T. ) ;
#112 = PRODUCT_DEFINITION_CONTEXT ( 'detailed design', #345, 'design' ) ;
#113 = CARTESIAN_POINT ( 'NONE',  ( 0.4000000000000000222, 0.03749999999999999861, 0.000000000000000000 ) ) ;
#114 = CARTESIAN_POINT ( 'NONE',  ( 0.5749999999999999556, 0.000000000000000000, 0.2874999999999999223 ) ) ;
#115 = VERTEX_POINT ( 'NONE', #198 ) ;
#116 = EDGE_CURVE ( 'NONE', #61, #22, #267, .T. ) ;
#117 = FACE_BOUND ( 'NONE', #428, .T. ) ;
#118 = EDGE_LOOP ( 'NONE', ( #304, #464, #277, #75 ) ) ;
#119 = CIRCLE ( 'NONE', #391, 0.06250000000000002776 ) ;
#120 = VECTOR ( 'NONE', #134, 39.37007874015748143 ) ;
#121 = CARTESIAN_POINT ( 'NONE',  ( 0.4000000000000000222, 0.03749999999999999861, -0.06250000000000002776 ) ) ;
#122 = AXIS2_PLACEMENT_3D ( 'NONE', #3, #463, #49 ) ;
#123 = ORIENTED_EDGE ( 'NONE', *, *, #433, .F. ) ;
#124 = DIRECTION ( 'NONE',  ( -1.000000000000000000, 0.000000000000000000, -2.731847993664263711E-16 ) ) ;
#125 = DIRECTION ( 'NONE',  ( 0.000000000000000000, 0.000000000000000000, 1.000000000000000000 ) ) ;
#126 = ORIENTED_EDGE ( 'NONE', *, *, #265, .F. ) ;
#127 = CARTESIAN_POINT ( 'NONE',  ( 7.868355684521743882E-18, 0.000000000000000000, -0.06425000000000000155 ) ) ;
#128 = AXIS2_PLACEMENT_3D ( 'NONE', #157, #307, #163 ) ;
#129 = EDGE_CURVE ( 'NONE', #285, #235, #332, .T. ) ;
#130 = LINE ( 'NONE', #281, #379 ) ;
#131 = DIRECTION ( 'NONE',  ( 0.000000000000000000, 0.000000000000000000, 1.000000000000000000 ) ) ;
#132 = DIRECTION ( 'NONE',  ( 0.000000000000000000, 0.000000000000000000, 1.000000000000000000 ) ) ;
#133 = ORIENTED_EDGE ( 'NONE', *, *, #431, .F. ) ;
#134 = DIRECTION ( 'NONE',  ( -0.000000000000000000, 1.000000000000000000, -0.000000000000000000 ) ) ;
#135 = ORIENTED_EDGE ( 'NONE', *, *, #106, .T. ) ;
#136 = DIRECTION ( 'NONE',  ( -5.938799986226659171E-17, 0.000000000000000000, 1.000000000000000000 ) ) ;
#137 = ORIENTED_EDGE ( 'NONE', *, *, #325, .F. ) ;
#138 = LINE ( 'NONE', #250, #469 ) ;
#139 = ORIENTED_EDGE ( 'NONE', *, *, #39, .T. ) ;
#140 = AXIS2_PLACEMENT_3D ( 'NONE', #346, #86, #236 ) ;
#141 = VECTOR ( 'NONE', #300, 39.37007874015748143 ) ;
#142 = CIRCLE ( 'NONE', #420, 0.06249999999999995837 ) ;
#143 = ADVANCED_FACE ( 'NONE', ( #347 ), #276, .T. ) ;
#144 =( LENGTH_UNIT ( ) NAMED_UNIT ( * ) SI_UNIT ( $, .METRE. ) );
#145 = FACE_OUTER_BOUND ( 'NONE', #100, .T. ) ;
#146 = AXIS2_PLACEMENT_3D ( 'NONE', #155, #183, #444 ) ;
#147 = CARTESIAN_POINT ( 'NONE',  ( 0.5749999999999999556, 0.1124999999999999889, 0.2874999999999999223 ) ) ;
#148 = CARTESIAN_POINT ( 'NONE',  ( 0.6500000000000000222, 0.03749999999999999861, 0.06249999999999995837 ) ) ;
#149 =( LENGTH_UNIT ( ) NAMED_UNIT ( * ) SI_UNIT ( $, .METRE. ) );
#150 = DIRECTION ( 'NONE',  ( 0.000000000000000000, 0.000000000000000000, 1.000000000000000000 ) ) ;
#151 = EDGE_CURVE ( 'NONE', #430, #440, #29, .T. ) ;
#152 = CARTESIAN_POINT ( 'NONE',  ( 1.530808498934191201E-17, 0.03749999999999999861, -0.1250000000000000000 ) ) ;
#153 = ADVANCED_FACE ( 'NONE', ( #384 ), #429, .F. ) ;
#154 = ORIENTED_EDGE ( 'NONE', *, *, #151, .T. ) ;
#155 = CARTESIAN_POINT ( 'NONE',  ( 0.000000000000000000, 0.000000000000000000, 0.000000000000000000 ) ) ;
#156 = CARTESIAN_POINT ( 'NONE',  ( 0.5749999999999999556, 0.000000000000000000, -0.2874999999999999223 ) ) ;
#157 = CARTESIAN_POINT ( 'NONE',  ( 0.000000000000000000, 0.1124999999999999889, 0.000000000000000000 ) ) ;
#158 = DIRECTION ( 'NONE',  ( 0.000000000000000000, 1.000000000000000000, 0.000000000000000000 ) ) ;
#159 = CIRCLE ( 'NONE', #436, 0.2874999999999999223 ) ;
#160 = ORIENTED_EDGE ( 'NONE', *, *, #338, .T. ) ;
#161 = FACE_OUTER_BOUND ( 'NONE', #176, .T. ) ;
#162 = VERTEX_POINT ( 'NONE', #315 ) ;
#163 = DIRECTION ( 'NONE',  ( 0.000000000000000000, 0.000000000000000000, 1.000000000000000000 ) ) ;
#164 = ADVANCED_FACE ( 'NONE', ( #161 ), #43, .F. ) ;
#165 = AXIS2_PLACEMENT_3D ( 'NONE', #422, #264, #48 ) ;
#166 = DIRECTION ( 'NONE',  ( 1.000000000000000000, 0.000000000000000000, -2.731847993664263711E-16 ) ) ;
#167 = AXIS2_PLACEMENT_3D ( 'NONE', #91, #212, #318 ) ;
#168 = ADVANCED_FACE ( 'NONE', ( #1 ), #386, .F. ) ;
#169 = CARTESIAN_POINT ( 'NONE',  ( 0.6500000000000000222, 0.1124999999999999889, 0.06249999999999995837 ) ) ;
#170 = AXIS2_PLACEMENT_3D ( 'NONE', #26, #301, #413 ) ;
#171 = DIRECTION ( 'NONE',  ( 1.000000000000000000, -0.000000000000000000, -5.938799986226660403E-17 ) ) ;
#172 = ORIENTED_EDGE ( 'NONE', *, *, #424, .F. ) ;
#173 = CARTESIAN_POINT ( 'NONE',  ( 0.000000000000000000, 0.03749999999999999861, 0.000000000000000000 ) ) ;
#174 = ORIENTED_EDGE ( 'NONE', *, *, #116, .F. ) ;
#175 = CARTESIAN_POINT ( 'NONE',  ( 0.4000000000000000222, 0.03749999999999999861, -0.06250000000000002776 ) ) ;
#176 = EDGE_LOOP ( 'NONE', ( #174, #160, #453, #341 ) ) ;
#177 = CARTESIAN_POINT ( 'NONE',  ( 0.000000000000000000, 0.000000000000000000, -0.2874999999999999223 ) ) ;
#178 = ORIENTED_EDGE ( 'NONE', *, *, #338, .F. ) ;
#179 = FILL_AREA_STYLE ('',( #491 ) ) ;
#180 = CARTESIAN_POINT ( 'NONE',  ( 0.000000000000000000, 0.1124999999999999889, -0.2874999999999999223 ) ) ;
#181 = CLOSED_SHELL ( 'NONE', ( #164, #378, #373, #82, #389, #143, #459, #98, #21, #217, #168, #202, #153, #303, #231, #466 ) ) ;
#182 = AXIS2_PLACEMENT_3D ( 'NONE', #184, #335, #489 ) ;
#183 = DIRECTION ( 'NONE',  ( 0.000000000000000000, 1.000000000000000000, 0.000000000000000000 ) ) ;
#184 = CARTESIAN_POINT ( 'NONE',  ( 0.5749999999999999556, 0.1124999999999999889, 0.000000000000000000 ) ) ;
#185 = PLANE ( 'NONE',  #65 ) ;
#186 = CARTESIAN_POINT ( 'NONE',  ( 0.000000000000000000, 0.1124999999999999889, 0.000000000000000000 ) ) ;
#187 = CARTESIAN_POINT ( 'NONE',  ( 0.4000000000000000222, 0.1124999999999999889, 0.000000000000000000 ) ) ;
#188 = EDGE_CURVE ( 'NONE', #440, #115, #348, .T. ) ;
#189 = ORIENTED_EDGE ( 'NONE', *, *, #52, .F. ) ;
#190 = AXIS2_PLACEMENT_3D ( 'NONE', #355, #216, #131 ) ;
#191 = CARTESIAN_POINT ( 'NONE',  ( 0.4000000000000000222, 0.1124999999999999889, -0.06250000000000002776 ) ) ;
#192 = DIRECTION ( 'NONE',  ( -1.000000000000000000, 0.000000000000000000, -5.938799986226660403E-17 ) ) ;
#193 = ORIENTED_EDGE ( 'NONE', *, *, #343, .T. ) ;
#194 = COLOUR_RGB ( '',0.7921568627450980005, 0.8196078431372548767, 0.9333333333333333481 ) ;
#195 =( CONVERSION_BASED_UNIT ( 'INCH', #109 ) LENGTH_UNIT ( ) NAMED_UNIT ( #399 ) );
#196 = CARTESIAN_POINT ( 'NONE',  ( 0.4000000000000000222, 0.03749999999999999861, 0.000000000000000000 ) ) ;
#197 = EDGE_CURVE ( 'NONE', #497, #19, #310, .T. ) ;
#198 = CARTESIAN_POINT ( 'NONE',  ( 0.6500000000000000222, 0.03749999999999999861, 0.06249999999999995837 ) ) ;
#199 = VERTEX_POINT ( 'NONE', #423 ) ;
#200 = DIRECTION ( 'NONE',  ( -0.000000000000000000, 1.000000000000000000, -0.000000000000000000 ) ) ;
#201 = PLANE ( 'NONE',  #80 ) ;
#202 = ADVANCED_FACE ( 'NONE', ( #88 ), #465, .F. ) ;
#203 =( NAMED_UNIT ( * ) SI_UNIT ( $, .STERADIAN. ) SOLID_ANGLE_UNIT ( ) );
#204 = CARTESIAN_POINT ( 'NONE',  ( 0.4000000000000000222, 0.03749999999999999861, 0.06250000000000002776 ) ) ;
#205 = EDGE_CURVE ( 'NONE', #394, #290, #13, .T. ) ;
#206 = AXIS2_PLACEMENT_3D ( 'NONE', #10, #158, #387 ) ;
#207 = CARTESIAN_POINT ( 'NONE',  ( 0.000000000000000000, 0.000000000000000000, 0.2874999999999999223 ) ) ;
#208 = AXIS2_PLACEMENT_3D ( 'NONE', #50, #54, #242 ) ;
#209 = DIRECTION ( 'NONE',  ( -0.000000000000000000, 1.000000000000000000, -0.000000000000000000 ) ) ;
#210 = AXIS2_PLACEMENT_3D ( 'NONE', #393, #323, #240 ) ;
#211 = EDGE_LOOP ( 'NONE', ( #320, #358, #45, #64 ) ) ;
#212 = DIRECTION ( 'NONE',  ( 0.000000000000000000, 1.000000000000000000, 0.000000000000000000 ) ) ;
#213 = ORIENTED_EDGE ( 'NONE', *, *, #11, .F. ) ;
#214 = CARTESIAN_POINT ( 'NONE',  ( 0.000000000000000000, 0.000000000000000000, 0.000000000000000000 ) ) ;
#215 = ORIENTED_EDGE ( 'NONE', *, *, #480, .F. ) ;
#216 = DIRECTION ( 'NONE',  ( -0.000000000000000000, 1.000000000000000000, -0.000000000000000000 ) ) ;
#217 = ADVANCED_FACE ( 'NONE', ( #47, #42 ), #201, .T. ) ;
#218 = EDGE_LOOP ( 'NONE', ( #442, #255, #360, #458 ) ) ;
#219 = LINE ( 'NONE', #363, #280 ) ;
#220 = ORIENTED_EDGE ( 'NONE', *, *, #197, .F. ) ;
#221 = DIRECTION ( 'NONE',  ( -0.000000000000000000, 1.000000000000000000, -0.000000000000000000 ) ) ;
#222 = PLANE ( 'NONE',  #182 ) ;
#223 = DIRECTION ( 'NONE',  ( -1.000000000000000000, 0.000000000000000000, -5.938799986226660403E-17 ) ) ;
#224 = DIRECTION ( 'NONE',  ( -0.000000000000000000, -1.000000000000000000, -0.000000000000000000 ) ) ;
#225 = EDGE_LOOP ( 'NONE', ( #97, #40, #215, #172 ) ) ;
#226 = SURFACE_STYLE_FILL_AREA ( #179 ) ;
#227 = VERTEX_POINT ( 'NONE', #127 ) ;
#228 = PRODUCT_DEFINITION_FORMATION_WITH_SPECIFIED_SOURCE ( 'ANY', '', #59, .NOT_KNOWN. ) ;
#229 = VERTEX_POINT ( 'NONE', #90 ) ;
#230 = DIRECTION ( 'NONE',  ( 0.000000000000000000, 1.000000000000000000, 0.000000000000000000 ) ) ;
#231 = ADVANCED_FACE ( 'NONE', ( #239 ), #388, .F. ) ;
#232 =( GEOMETRIC_REPRESENTATION_CONTEXT ( 3 ) GLOBAL_UNCERTAINTY_ASSIGNED_CONTEXT ( ( #68 ) ) GLOBAL_UNIT_ASSIGNED_CONTEXT ( ( #76, #340, #494 ) ) REPRESENTATION_CONTEXT ( 'NONE', 'WORKASPACE' ) );
#233 = APPLICATION_PROTOCOL_DEFINITION ( 'draft international standard', 'automotive_design', 1998, #345 ) ;
#234 = DIRECTION ( 'NONE',  ( 1.000000000000000000, -0.000000000000000000, -5.938799986226660403E-17 ) ) ;
#235 = VERTEX_POINT ( 'NONE', #471 ) ;
#236 = DIRECTION ( 'NONE',  ( 0.000000000000000000, 0.000000000000000000, 1.000000000000000000 ) ) ;
#237 = DIRECTION ( 'NONE',  ( 0.000000000000000000, 0.000000000000000000, 1.000000000000000000 ) ) ;
#238 = PRODUCT_RELATED_PRODUCT_CATEGORY ( 'part', '', ( #59 ) ) ;
#239 = FACE_OUTER_BOUND ( 'NONE', #218, .T. ) ;
#240 = DIRECTION ( 'NONE',  ( 0.000000000000000000, 0.000000000000000000, 1.000000000000000000 ) ) ;
#241 = AXIS2_PLACEMENT_3D ( 'NONE', #78, #27, #150 ) ;
#242 = DIRECTION ( 'NONE',  ( 0.000000000000000000, 0.000000000000000000, 1.000000000000000000 ) ) ;
#243 = AXIS2_PLACEMENT_3D ( 'NONE', #426, #309, #85 ) ;
#244 = ORIENTED_EDGE ( 'NONE', *, *, #254, .T. ) ;
#245 = DIRECTION ( 'NONE',  ( -0.000000000000000000, -1.000000000000000000, -0.000000000000000000 ) ) ;
#246 = ORIENTED_EDGE ( 'NONE', *, *, #77, .F. ) ;
#247 = DIRECTION ( 'NONE',  ( 0.000000000000000000, 1.000000000000000000, 0.000000000000000000 ) ) ;
#248 = ORIENTED_EDGE ( 'NONE', *, *, #470, .T. ) ;
#249 = EDGE_CURVE ( 'NONE', #285, #87, #130, .T. ) ;
#250 = CARTESIAN_POINT ( 'NONE',  ( 7.868355684521743882E-18, -0.007500000000000005794, -0.06425000000000000155 ) ) ;
#251 = ORIENTED_EDGE ( 'NONE', *, *, #265, .T. ) ;
#252 = CIRCLE ( 'NONE', #37, 0.2874999999999999223 ) ;
#253 = DIRECTION ( 'NONE',  ( -0.000000000000000000, -1.000000000000000000, -0.000000000000000000 ) ) ;
#254 = EDGE_CURVE ( 'NONE', #87, #162, #314, .T. ) ;
#255 = ORIENTED_EDGE ( 'NONE', *, *, #58, .F. ) ;
#256 = VECTOR ( 'NONE', #28, 39.37007874015748143 ) ;
#257 = CARTESIAN_POINT ( 'NONE',  ( 0.4000000000000000222, 0.03749999999999999861, 0.06250000000000002776 ) ) ;
#258 = DIRECTION ( 'NONE',  ( 0.000000000000000000, 0.000000000000000000, 1.000000000000000000 ) ) ;
#259 = DIRECTION ( 'NONE',  ( 0.000000000000000000, 0.000000000000000000, -1.000000000000000000 ) ) ;
#260 = LINE ( 'NONE', #302, #417 ) ;
#261 = VERTEX_POINT ( 'NONE', #177 ) ;
#262 = LINE ( 'NONE', #180, #51 ) ;
#263 = ORIENTED_EDGE ( 'NONE', *, *, #365, .T. ) ;
#264 = DIRECTION ( 'NONE',  ( 0.000000000000000000, 0.000000000000000000, 1.000000000000000000 ) ) ;
#265 = EDGE_CURVE ( 'NONE', #199, #285, #437, .T. ) ;
#266 = LINE ( 'NONE', #81, #460 ) ;
#267 = CIRCLE ( 'NONE', #206, 0.1250000000000000000 ) ;
#268 = VECTOR ( 'NONE', #108, 39.37007874015748143 ) ;
#269 = VERTEX_POINT ( 'NONE', #169 ) ;
#270 = CIRCLE ( 'NONE', #53, 0.06425000000000000155 ) ;
#271 = VECTOR ( 'NONE', #7, 39.37007874015748143 ) ;
#272 = DIRECTION ( 'NONE',  ( -0.000000000000000000, 1.000000000000000000, -0.000000000000000000 ) ) ;
#273 = ORIENTED_EDGE ( 'NONE', *, *, #25, .T. ) ;
#274 = DIRECTION ( 'NONE',  ( 2.731847993664263711E-16, 0.000000000000000000, -1.000000000000000000 ) ) ;
#275 = VERTEX_POINT ( 'NONE', #20 ) ;
#276 = CYLINDRICAL_SURFACE ( 'NONE', #122, 0.2874999999999999223 ) ;
#277 = ORIENTED_EDGE ( 'NONE', *, *, #424, .T. ) ;
#278 = EDGE_CURVE ( 'NONE', #290, #394, #486, .T. ) ;
#279 = DIRECTION ( 'NONE',  ( 0.000000000000000000, 0.000000000000000000, 1.000000000000000000 ) ) ;
#280 = VECTOR ( 'NONE', #69, 39.37007874015748143 ) ;
#281 = CARTESIAN_POINT ( 'NONE',  ( 0.5749999999999999556, 0.1124999999999999889, 0.2874999999999999223 ) ) ;
#282 = CARTESIAN_POINT ( 'NONE',  ( 0.5749999999999999556, 0.1124999999999999889, 0.2874999999999999223 ) ) ;
#283 = EDGE_CURVE ( 'NONE', #227, #327, #270, .T. ) ;
#284 = CARTESIAN_POINT ( 'NONE',  ( 0.000000000000000000, -0.007500000000000005794, 0.000000000000000000 ) ) ;
#285 = VERTEX_POINT ( 'NONE', #62 ) ;
#286 = CARTESIAN_POINT ( 'NONE',  ( 0.000000000000000000, 0.1124999999999999889, 0.2874999999999999223 ) ) ;
#287 = EDGE_LOOP ( 'NONE', ( #296, #263 ) ) ;
#288 = EDGE_CURVE ( 'NONE', #419, #269, #390, .T. ) ;
#289 = CARTESIAN_POINT ( 'NONE',  ( 0.000000000000000000, 0.000000000000000000, 0.06425000000000000155 ) ) ;
#290 = VERTEX_POINT ( 'NONE', #353 ) ;
#291 = EDGE_CURVE ( 'NONE', #430, #415, #293, .T. ) ;
#292 = AXIS2_PLACEMENT_3D ( 'NONE', #121, #274, #124 ) ;
#293 = LINE ( 'NONE', #175, #120 ) ;
#294 = EDGE_LOOP ( 'NONE', ( #24, #220, #324, #356 ) ) ;
#295 = VECTOR ( 'NONE', #18, 39.37007874015748143 ) ;
#296 = ORIENTED_EDGE ( 'NONE', *, *, #480, .T. ) ;
#297 = AXIS2_PLACEMENT_3D ( 'NONE', #372, #253, #73 ) ;
#298 = DIRECTION ( 'NONE',  ( -1.000000000000000000, 0.000000000000000000, 5.938799986226659171E-17 ) ) ;
#299 = ORIENTED_EDGE ( 'NONE', *, *, #111, .F. ) ;
#300 = DIRECTION ( 'NONE',  ( -0.000000000000000000, 1.000000000000000000, -0.000000000000000000 ) ) ;
#301 = DIRECTION ( 'NONE',  ( 0.000000000000000000, 1.000000000000000000, 0.000000000000000000 ) ) ;
#302 = CARTESIAN_POINT ( 'NONE',  ( 0.5749999999999999556, 0.1124999999999999889, -0.2874999999999999223 ) ) ;
#303 = ADVANCED_FACE ( 'NONE', ( #357 ), #473, .F. ) ;
#304 = ORIENTED_EDGE ( 'NONE', *, *, #333, .F. ) ;
#305 = DIRECTION ( 'NONE',  ( -0.000000000000000000, -1.000000000000000000, -0.000000000000000000 ) ) ;
#306 = ORIENTED_EDGE ( 'NONE', *, *, #288, .F. ) ;
#307 = DIRECTION ( 'NONE',  ( 0.000000000000000000, 1.000000000000000000, 0.000000000000000000 ) ) ;
#308 = APPLICATION_PROTOCOL_DEFINITION ( 'draft international standard', 'automotive_design', 1998, #316 ) ;
#309 = DIRECTION ( 'NONE',  ( 0.000000000000000000, 1.000000000000000000, 0.000000000000000000 ) ) ;
#310 = LINE ( 'NONE', #381, #483 ) ;
#311 = ORIENTED_EDGE ( 'NONE', *, *, #116, .T. ) ;
#312 = DIRECTION ( 'NONE',  ( 0.000000000000000000, 1.000000000000000000, 0.000000000000000000 ) ) ;
#313 =( GEOMETRIC_REPRESENTATION_CONTEXT ( 3 ) GLOBAL_UNCERTAINTY_ASSIGNED_CONTEXT ( ( #6 ) ) GLOBAL_UNIT_ASSIGNED_CONTEXT ( ( #195, #9, #203 ) ) REPRESENTATION_CONTEXT ( 'NONE', 'WORKASPACE' ) );
#314 = CIRCLE ( 'NONE', #208, 0.2874999999999999223 ) ;
#315 = CARTESIAN_POINT ( 'NONE',  ( 0.5749999999999999556, 0.000000000000000000, -0.2874999999999999223 ) ) ;
#316 = APPLICATION_CONTEXT ( 'automotive_design' ) ;
#317 = VECTOR ( 'NONE', #223, 39.37007874015748143 ) ;
#318 = DIRECTION ( 'NONE',  ( 0.000000000000000000, 0.000000000000000000, 1.000000000000000000 ) ) ;
#319 = CARTESIAN_POINT ( 'NONE',  ( 0.4000000000000000222, 0.1124999999999999889, 0.06250000000000002776 ) ) ;
#320 = ORIENTED_EDGE ( 'NONE', *, *, #52, .T. ) ;
#321 = DIRECTION ( 'NONE',  ( -0.000000000000000000, -1.000000000000000000, -0.000000000000000000 ) ) ;
#322 = ORIENTED_EDGE ( 'NONE', *, *, #452, .T. ) ;
#323 = DIRECTION ( 'NONE',  ( -0.000000000000000000, 1.000000000000000000, -0.000000000000000000 ) ) ;
#324 = ORIENTED_EDGE ( 'NONE', *, *, #343, .F. ) ;
#325 = EDGE_CURVE ( 'NONE', #199, #377, #60, .T. ) ;
#326 = DIRECTION ( 'NONE',  ( 0.000000000000000000, 0.000000000000000000, 1.000000000000000000 ) ) ;
#327 = VERTEX_POINT ( 'NONE', #289 ) ;
#328 = AXIS2_PLACEMENT_3D ( 'NONE', #492, #38, #371 ) ;
#329 = SURFACE_STYLE_USAGE ( .BOTH. , #334 ) ;
#330 = FACE_BOUND ( 'NONE', #8, .T. ) ;
#331 = AXIS2_PLACEMENT_3D ( 'NONE', #432, #461, #237 ) ;
#332 = CIRCLE ( 'NONE', #243, 0.2874999999999999223 ) ;
#333 = EDGE_CURVE ( 'NONE', #227, #275, #138, .T. ) ;
#334 = SURFACE_SIDE_STYLE ('',( #226 ) ) ;
#335 = DIRECTION ( 'NONE',  ( 0.000000000000000000, 1.000000000000000000, 0.000000000000000000 ) ) ;
#336 = LINE ( 'NONE', #490, #462 ) ;
#337 = DIRECTION ( 'NONE',  ( 0.000000000000000000, 1.000000000000000000, 0.000000000000000000 ) ) ;
#338 = EDGE_CURVE ( 'NONE', #61, #290, #435, .T. ) ;
#339 = AXIS2_PLACEMENT_3D ( 'NONE', #350, #12, #166 ) ;
#340 =( NAMED_UNIT ( * ) PLANE_ANGLE_UNIT ( ) SI_UNIT ( $, .RADIAN. ) );
#341 = ORIENTED_EDGE ( 'NONE', *, *, #25, .F. ) ;
#342 = MECHANICAL_DESIGN_GEOMETRIC_PRESENTATION_REPRESENTATION (  '', ( #425 ), #232 ) ;
#343 = EDGE_CURVE ( 'NONE', #115, #497, #142, .T. ) ;
#344 = EDGE_LOOP ( 'NONE', ( #244, #246, #414, #55 ) ) ;
#345 = APPLICATION_CONTEXT ( 'automotive_design' ) ;
#346 = CARTESIAN_POINT ( 'NONE',  ( 0.000000000000000000, 0.03749999999999999861, 0.000000000000000000 ) ) ;
#347 = FACE_OUTER_BOUND ( 'NONE', #362, .T. ) ;
#348 = LINE ( 'NONE', #204, #271 ) ;
#349 = CARTESIAN_POINT ( 'NONE',  ( 0.000000000000000000, 0.03749999999999999861, 0.000000000000000000 ) ) ;
#350 = CARTESIAN_POINT ( 'NONE',  ( 0.4000000000000000222, 0.03749999999999999861, 0.06250000000000002776 ) ) ;
#351 = EDGE_CURVE ( 'NONE', #261, #377, #252, .T. ) ;
#352 = VECTOR ( 'NONE', #397, 39.37007874015748143 ) ;
#353 = CARTESIAN_POINT ( 'NONE',  ( 1.530808498934191201E-17, 0.1124999999999999889, -0.1250000000000000000 ) ) ;
#354 = AXIS2_PLACEMENT_3D ( 'NONE', #147, #376, #298 ) ;
#355 = CARTESIAN_POINT ( 'NONE',  ( 0.6500000000000000222, 0.03749999999999999861, 0.000000000000000000 ) ) ;
#356 = ORIENTED_EDGE ( 'NONE', *, *, #58, .T. ) ;
#357 = FACE_OUTER_BOUND ( 'NONE', #294, .T. ) ;
#358 = ORIENTED_EDGE ( 'NONE', *, *, #63, .F. ) ;
#359 = DIRECTION ( 'NONE',  ( -0.000000000000000000, 1.000000000000000000, -0.000000000000000000 ) ) ;
#360 = ORIENTED_EDGE ( 'NONE', *, *, #188, .F. ) ;
#361 = CARTESIAN_POINT ( 'NONE',  ( 0.6500000000000000222, 0.03749999999999999861, 0.000000000000000000 ) ) ;
#362 = EDGE_LOOP ( 'NONE', ( #103, #137, #396, #57 ) ) ;
#363 = CARTESIAN_POINT ( 'NONE',  ( 0.000000000000000000, -0.007500000000000005794, 0.06425000000000000155 ) ) ;
#364 = DIRECTION ( 'NONE',  ( -1.000000000000000000, -0.000000000000000000, -2.731847993664263218E-16 ) ) ;
#365 = EDGE_CURVE ( 'NONE', #275, #229, #445, .T. ) ;
#366 = LINE ( 'NONE', #66, #256 ) ;
#367 = CARTESIAN_POINT ( 'NONE',  ( 0.6500000000000000222, 0.1124999999999999889, -0.06249999999999995837 ) ) ;
#368 = AXIS2_PLACEMENT_3D ( 'NONE', #173, #321, #132 ) ;
#369 = DIMENSIONAL_EXPONENTS ( 1.000000000000000000, 0.000000000000000000, 0.000000000000000000, 0.000000000000000000, 0.000000000000000000, 0.000000000000000000, 0.000000000000000000 ) ;
#370 = LINE ( 'NONE', #404, #403 ) ;
#371 = DIRECTION ( 'NONE',  ( 0.000000000000000000, -0.000000000000000000, 1.000000000000000000 ) ) ;
#372 = CARTESIAN_POINT ( 'NONE',  ( 0.000000000000000000, 0.03749999999999999861, 0.000000000000000000 ) ) ;
#373 = ADVANCED_FACE ( 'NONE', ( #476 ), #14, .F. ) ;
#374 = CYLINDRICAL_SURFACE ( 'NONE', #392, 0.2874999999999999223 ) ;
#375 = ORIENTED_EDGE ( 'NONE', *, *, #443, .F. ) ;
#376 = DIRECTION ( 'NONE',  ( -5.938799986226659171E-17, 0.000000000000000000, -1.000000000000000000 ) ) ;
#377 = VERTEX_POINT ( 'NONE', #207 ) ;
#378 = ADVANCED_FACE ( 'NONE', ( #439 ), #478, .F. ) ;
#379 = VECTOR ( 'NONE', #434, 39.37007874015748143 ) ;
#380 = EDGE_LOOP ( 'NONE', ( #456, #311 ) ) ;
#381 = CARTESIAN_POINT ( 'NONE',  ( 0.6500000000000000222, 0.03749999999999999861, -0.06249999999999995837 ) ) ;
#382 = CIRCLE ( 'NONE', #297, 0.06425000000000000155 ) ;
#383 = ORIENTED_EDGE ( 'NONE', *, *, #129, .T. ) ;
#384 = FACE_OUTER_BOUND ( 'NONE', #438, .T. ) ;
#385 = ORIENTED_EDGE ( 'NONE', *, *, #291, .T. ) ;
#386 = CYLINDRICAL_SURFACE ( 'NONE', #93, 0.1250000000000000000 ) ;
#387 = DIRECTION ( 'NONE',  ( 0.000000000000000000, 0.000000000000000000, 1.000000000000000000 ) ) ;
#388 = PLANE ( 'NONE',  #339 ) ;
#389 = ADVANCED_FACE ( 'NONE', ( #395 ), #56, .F. ) ;
#390 = LINE ( 'NONE', #319, #352 ) ;
#391 = AXIS2_PLACEMENT_3D ( 'NONE', #187, #337, #258 ) ;
#392 = AXIS2_PLACEMENT_3D ( 'NONE', #32, #224, #259 ) ;
#393 = CARTESIAN_POINT ( 'NONE',  ( 0.000000000000000000, -0.007500000000000005794, 0.000000000000000000 ) ) ;
#394 = VERTEX_POINT ( 'NONE', #481 ) ;
#395 = FACE_OUTER_BOUND ( 'NONE', #211, .T. ) ;
#396 = ORIENTED_EDGE ( 'NONE', *, *, #106, .F. ) ;
#397 = DIRECTION ( 'NONE',  ( 1.000000000000000000, 0.000000000000000000, -2.731847993664263218E-16 ) ) ;
#398 = EDGE_LOOP ( 'NONE', ( #383, #248, #135, #251 ) ) ;
#399 = DIMENSIONAL_EXPONENTS ( 1.000000000000000000, 0.000000000000000000, 0.000000000000000000, 0.000000000000000000, 0.000000000000000000, 0.000000000000000000, 0.000000000000000000 ) ;
#400 = DIRECTION ( 'NONE',  ( 1.000000000000000000, 0.000000000000000000, 5.938799986226659171E-17 ) ) ;
#401 = VECTOR ( 'NONE', #245, 39.37007874015748143 ) ;
#402 = ORIENTED_EDGE ( 'NONE', *, *, #351, .F. ) ;
#403 = VECTOR ( 'NONE', #221, 39.37007874015748143 ) ;
#404 = CARTESIAN_POINT ( 'NONE',  ( 0.4000000000000000222, 0.03749999999999999861, 0.06250000000000002776 ) ) ;
#405 = ORIENTED_EDGE ( 'NONE', *, *, #254, .F. ) ;
#406 = CARTESIAN_POINT ( 'NONE',  ( 0.4000000000000000222, 0.03749999999999999861, -0.06250000000000002776 ) ) ;
#407 = FACE_OUTER_BOUND ( 'NONE', #344, .T. ) ;
#408 = LINE ( 'NONE', #71, #317 ) ;
#409 = EDGE_LOOP ( 'NONE', ( #79, #123, #5, #385 ) ) ;
#410 = FACE_OUTER_BOUND ( 'NONE', #421, .T. ) ;
#411 = PLANE ( 'NONE',  #328 ) ;
#412 = PRODUCT_DEFINITION ( 'UNKNOWN', '', #228, #112 ) ;
#413 = DIRECTION ( 'NONE',  ( 0.000000000000000000, 0.000000000000000000, 1.000000000000000000 ) ) ;
#414 = ORIENTED_EDGE ( 'NONE', *, *, #129, .F. ) ;
#415 = VERTEX_POINT ( 'NONE', #191 ) ;
#416 = SHAPE_DEFINITION_REPRESENTATION ( #472, #427 ) ;
#417 = VECTOR ( 'NONE', #455, 39.37007874015748143 ) ;
#418 = CIRCLE ( 'NONE', #241, 0.1250000000000000000 ) ;
#419 = VERTEX_POINT ( 'NONE', #449 ) ;
#420 = AXIS2_PLACEMENT_3D ( 'NONE', #361, #92, #99 ) ;
#421 = EDGE_LOOP ( 'NONE', ( #493, #17, #126, #74 ) ) ;
#422 = CARTESIAN_POINT ( 'NONE',  ( 0.000000000000000000, 0.000000000000000000, 0.000000000000000000 ) ) ;
#423 = CARTESIAN_POINT ( 'NONE',  ( 0.000000000000000000, 0.1124999999999999889, 0.2874999999999999223 ) ) ;
#424 = EDGE_CURVE ( 'NONE', #327, #229, #219, .T. ) ;
#425 = STYLED_ITEM ( 'NONE', ( #485 ), #448 ) ;
#426 = CARTESIAN_POINT ( 'NONE',  ( 0.5749999999999999556, 0.1124999999999999889, 0.000000000000000000 ) ) ;
#427 = ADVANCED_BREP_SHAPE_REPRESENTATION ( 'Eggfinder LCD Case V2 Battery Door Retainer_STEP', ( #448, #165 ), #313 ) ;
#428 = EDGE_LOOP ( 'NONE', ( #322, #446 ) ) ;
#429 = PLANE ( 'NONE',  #292 ) ;
#430 = VERTEX_POINT ( 'NONE', #406 ) ;
#431 = EDGE_CURVE ( 'NONE', #269, #19, #104, .T. ) ;
#432 = CARTESIAN_POINT ( 'NONE',  ( 0.4000000000000000222, 0.03749999999999999861, 0.000000000000000000 ) ) ;
#433 = EDGE_CURVE ( 'NONE', #440, #419, #370, .T. ) ;
#434 = DIRECTION ( 'NONE',  ( -0.000000000000000000, -1.000000000000000000, -0.000000000000000000 ) ) ;
#435 = LINE ( 'NONE', #474, #295 ) ;
#436 = AXIS2_PLACEMENT_3D ( 'NONE', #186, #34, #110 ) ;
#437 = LINE ( 'NONE', #282, #101 ) ;
#438 = EDGE_LOOP ( 'NONE', ( #89, #467, #475, #95 ) ) ;
#439 = FACE_OUTER_BOUND ( 'NONE', #225, .T. ) ;
#440 = VERTEX_POINT ( 'NONE', #257 ) ;
#441 = DIRECTION ( 'NONE',  ( 0.000000000000000000, 1.000000000000000000, 0.000000000000000000 ) ) ;
#442 = ORIENTED_EDGE ( 'NONE', *, *, #288, .T. ) ;
#443 = EDGE_CURVE ( 'NONE', #19, #415, #366, .T. ) ;
#444 = DIRECTION ( 'NONE',  ( 0.000000000000000000, 0.000000000000000000, 1.000000000000000000 ) ) ;
#445 = CIRCLE ( 'NONE', #368, 0.06425000000000000155 ) ;
#446 = ORIENTED_EDGE ( 'NONE', *, *, #283, .T. ) ;
#447 = CARTESIAN_POINT ( 'NONE',  ( 0.000000000000000000, 0.1124999999999999889, -0.2874999999999999223 ) ) ;
#448 = MANIFOLD_SOLID_BREP ( 'Cut-Extrude2', #181 ) ;
#449 = CARTESIAN_POINT ( 'NONE',  ( 0.4000000000000000222, 0.1124999999999999889, 0.06250000000000002776 ) ) ;
#450 = CARTESIAN_POINT ( 'NONE',  ( 0.000000000000000000, 0.03749999999999999861, 0.1250000000000000000 ) ) ;
#451 = LINE ( 'NONE', #148, #268 ) ;
#452 = EDGE_CURVE ( 'NONE', #327, #227, #495, .T. ) ;
#453 = ORIENTED_EDGE ( 'NONE', *, *, #278, .T. ) ;
#454 = FACE_OUTER_BOUND ( 'NONE', #2, .T. ) ;
#455 = DIRECTION ( 'NONE',  ( -0.000000000000000000, -1.000000000000000000, -0.000000000000000000 ) ) ;
#456 = ORIENTED_EDGE ( 'NONE', *, *, #11, .T. ) ;
#457 = ORIENTED_EDGE ( 'NONE', *, *, #188, .T. ) ;
#458 = ORIENTED_EDGE ( 'NONE', *, *, #433, .T. ) ;
#459 = ADVANCED_FACE ( 'NONE', ( #410 ), #33, .F. ) ;
#460 = VECTOR ( 'NONE', #364, 39.37007874015748143 ) ;
#461 = DIRECTION ( 'NONE',  ( -0.000000000000000000, 1.000000000000000000, -0.000000000000000000 ) ) ;
#462 = VECTOR ( 'NONE', #234, 39.37007874015748143 ) ;
#463 = DIRECTION ( 'NONE',  ( -0.000000000000000000, -1.000000000000000000, -0.000000000000000000 ) ) ;
#464 = ORIENTED_EDGE ( 'NONE', *, *, #452, .F. ) ;
#465 = CYLINDRICAL_SURFACE ( 'NONE', #331, 0.06250000000000002776 ) ;
#466 = ADVANCED_FACE ( 'NONE', ( #454 ), #185, .T. ) ;
#467 = ORIENTED_EDGE ( 'NONE', *, *, #291, .F. ) ;
#468 = DIRECTION ( 'NONE',  ( 0.000000000000000000, -0.000000000000000000, 1.000000000000000000 ) ) ;
#469 = VECTOR ( 'NONE', #359, 39.37007874015748143 ) ;
#470 = EDGE_CURVE ( 'NONE', #235, #67, #408, .T. ) ;
#471 = CARTESIAN_POINT ( 'NONE',  ( 0.5749999999999999556, 0.1124999999999999889, -0.2874999999999999223 ) ) ;
#472 = PRODUCT_DEFINITION_SHAPE ( 'NONE', 'NONE',  #412 ) ;
#473 = CYLINDRICAL_SURFACE ( 'NONE', #190, 0.06249999999999995837 ) ;
#474 = CARTESIAN_POINT ( 'NONE',  ( 1.530808498934191201E-17, 0.03749999999999999861, -0.1250000000000000000 ) ) ;
#475 = ORIENTED_EDGE ( 'NONE', *, *, #39, .F. ) ;
#476 = FACE_OUTER_BOUND ( 'NONE', #118, .T. ) ;
#477 = ORIENTED_EDGE ( 'NONE', *, *, #205, .F. ) ;
#478 = CYLINDRICAL_SURFACE ( 'NONE', #488, 0.06425000000000000155 ) ;
#479 = ORIENTED_EDGE ( 'NONE', *, *, #205, .T. ) ;
#480 = EDGE_CURVE ( 'NONE', #229, #275, #382, .T. ) ;
#481 = CARTESIAN_POINT ( 'NONE',  ( 0.000000000000000000, 0.1124999999999999889, 0.1250000000000000000 ) ) ;
#482 = ORIENTED_EDGE ( 'NONE', *, *, #15, .F. ) ;
#483 = VECTOR ( 'NONE', #272, 39.37007874015748143 ) ;
#484 = VECTOR ( 'NONE', #192, 39.37007874015748143 ) ;
#485 = PRESENTATION_STYLE_ASSIGNMENT (( #329 ) ) ;
#486 = CIRCLE ( 'NONE', #167, 0.1250000000000000000 ) ;
#487 = EDGE_LOOP ( 'NONE', ( #482, #375, #133, #306 ) ) ;
#488 = AXIS2_PLACEMENT_3D ( 'NONE', #284, #209, #326 ) ;
#489 = DIRECTION ( 'NONE',  ( 0.000000000000000000, -0.000000000000000000, 1.000000000000000000 ) ) ;
#490 = CARTESIAN_POINT ( 'NONE',  ( 0.5749999999999999556, 0.000000000000000000, 0.2874999999999999223 ) ) ;
#491 = FILL_AREA_STYLE_COLOUR ( '', #194 ) ;
#492 = CARTESIAN_POINT ( 'NONE',  ( 0.5749999999999999556, 0.000000000000000000, 0.000000000000000000 ) ) ;
#493 = ORIENTED_EDGE ( 'NONE', *, *, #111, .T. ) ;
#494 =( NAMED_UNIT ( * ) SI_UNIT ( $, .STERADIAN. ) SOLID_ANGLE_UNIT ( ) );
#495 = CIRCLE ( 'NONE', #146, 0.06425000000000000155 ) ;
#496 = CARTESIAN_POINT ( 'NONE',  ( 0.000000000000000000, 0.03749999999999999861, 0.1250000000000000000 ) ) ;
#497 = VERTEX_POINT ( 'NONE', #31 ) ;
ENDSEC;
END-ISO-10303-21;
