ISO-10303-21;
HEADER;
FILE_DESCRIPTION (( 'STEP AP214' ),
    '1' );
FILE_NAME ('Eggfinder LCD Case V2 Screen Spacer Thick_STEP.STEP',
    '2026-02-20T03:49:03',
    ( '' ),
    ( '' ),
    'SwSTEP 2.0',
    'SolidWorks 2024',
    '' );
FILE_SCHEMA (( 'AUTOMOTIVE_DESIGN' ));
ENDSEC;

DATA;
#1 = SURFACE_STYLE_FILL_AREA ( #52 ) ;
#2 = VERTEX_POINT ( 'NONE', #5 ) ;
#3 = EDGE_CURVE ( 'NONE', #68, #170, #126, .T. ) ;
#4 = DIRECTION ( 'NONE',  ( 0.000000000000000000, 1.000000000000000000, 0.000000000000000000 ) ) ;
#5 = CARTESIAN_POINT ( 'NONE',  ( 0.000000000000000000, 0.000000000000000000, -0.1250000000000000000 ) ) ;
#6 = PRESENTATION_LAYER_ASSIGNMENT (  '', '', ( #75 ) ) ;
#7 = CARTESIAN_POINT ( 'NONE',  ( 0.000000000000000000, 0.4349999999999999978, -0.06500000000000000222 ) ) ;
#8 = DIRECTION ( 'NONE',  ( 0.000000000000000000, 0.000000000000000000, 1.000000000000000000 ) ) ;
#9 = CARTESIAN_POINT ( 'NONE',  ( 0.000000000000000000, 0.4349999999999999978, -0.06500000000000000222 ) ) ;
#10 = AXIS2_PLACEMENT_3D ( 'NONE', #24, #162, #22 ) ;
#11 = LINE ( 'NONE', #9, #155 ) ;
#12 = CARTESIAN_POINT ( 'NONE',  ( 1.530808498934191509E-17, 0.4349999999999999978, 0.1250000000000000000 ) ) ;
#13 = AXIS2_PLACEMENT_3D ( 'NONE', #164, #151, #182 ) ;
#14 = CARTESIAN_POINT ( 'NONE',  ( 0.000000000000000000, 0.000000000000000000, 0.000000000000000000 ) ) ;
#15 = APPLICATION_PROTOCOL_DEFINITION ( 'draft international standard', 'automotive_design', 1998, #112 ) ;
#16 = EDGE_LOOP ( 'NONE', ( #101, #203 ) ) ;
#17 = EDGE_CURVE ( 'NONE', #170, #68, #34, .T. ) ;
#18 = PLANE ( 'NONE',  #125 ) ;
#19 = SURFACE_SIDE_STYLE ('',( #1 ) ) ;
#20 = CYLINDRICAL_SURFACE ( 'NONE', #174, 0.06500000000000000222 ) ;
#21 = ORIENTED_EDGE ( 'NONE', *, *, #49, .F. ) ;
#22 = DIRECTION ( 'NONE',  ( 0.000000000000000000, 0.000000000000000000, 1.000000000000000000 ) ) ;
#23 = CARTESIAN_POINT ( 'NONE',  ( 0.000000000000000000, 0.4349999999999999978, 0.000000000000000000 ) ) ;
#24 = CARTESIAN_POINT ( 'NONE',  ( 0.000000000000000000, 0.000000000000000000, 0.000000000000000000 ) ) ;
#25 = AXIS2_PLACEMENT_3D ( 'NONE', #14, #185, #31 ) ;
#26 = CIRCLE ( 'NONE', #135, 0.1250000000000000000 ) ;
#27 = DIRECTION ( 'NONE',  ( -0.000000000000000000, -1.000000000000000000, -0.000000000000000000 ) ) ;
#28 = MANIFOLD_SOLID_BREP ( 'Boss-Extrude1', #158 ) ;
#29 = AXIS2_PLACEMENT_3D ( 'NONE', #107, #62, #149 ) ;
#30 = ADVANCED_FACE ( 'NONE', ( #54 ), #20, .F. ) ;
#31 = DIRECTION ( 'NONE',  ( 1.000000000000000000, 0.000000000000000000, 0.000000000000000000 ) ) ;
#32 = ADVANCED_FACE ( 'NONE', ( #51, #74 ), #18, .T. ) ;
#33 = AXIS2_PLACEMENT_3D ( 'NONE', #114, #4, #108 ) ;
#34 = CIRCLE ( 'NONE', #150, 0.06500000000000000222 ) ;
#35 = VERTEX_POINT ( 'NONE', #146 ) ;
#36 = DIRECTION ( 'NONE',  ( 0.000000000000000000, 1.000000000000000000, 0.000000000000000000 ) ) ;
#37 = ORIENTED_EDGE ( 'NONE', *, *, #120, .F. ) ;
#38 = AXIS2_PLACEMENT_3D ( 'NONE', #81, #180, #41 ) ;
#39 = ORIENTED_EDGE ( 'NONE', *, *, #143, .F. ) ;
#40 = DIRECTION ( 'NONE',  ( 0.000000000000000000, 1.000000000000000000, 0.000000000000000000 ) ) ;
#41 = DIRECTION ( 'NONE',  ( 0.000000000000000000, -0.000000000000000000, 1.000000000000000000 ) ) ;
#42 = DIRECTION ( 'NONE',  ( 0.000000000000000000, 0.000000000000000000, 1.000000000000000000 ) ) ;
#43 = PRODUCT_DEFINITION_SHAPE ( 'NONE', 'NONE',  #169 ) ;
#44 = FACE_BOUND ( 'NONE', #16, .T. ) ;
#45 = LENGTH_MEASURE_WITH_UNIT ( LENGTH_MEASURE( 0.02539999999999999897 ), #93 );
#46 = COLOUR_RGB ( '',0.7921568627450980005, 0.8196078431372548767, 0.9333333333333333481 ) ;
#47 = SHAPE_DEFINITION_REPRESENTATION ( #43, #159 ) ;
#48 = ORIENTED_EDGE ( 'NONE', *, *, #143, .T. ) ;
#49 = EDGE_CURVE ( 'NONE', #35, #136, #94, .T. ) ;
#50 = ORIENTED_EDGE ( 'NONE', *, *, #17, .F. ) ;
#51 = FACE_OUTER_BOUND ( 'NONE', #117, .T. ) ;
#52 = FILL_AREA_STYLE ('',( #102 ) ) ;
#53 = CARTESIAN_POINT ( 'NONE',  ( 0.000000000000000000, 0.4349999999999999978, 0.000000000000000000 ) ) ;
#54 = FACE_OUTER_BOUND ( 'NONE', #191, .T. ) ;
#55 =( GEOMETRIC_REPRESENTATION_CONTEXT ( 3 ) GLOBAL_UNCERTAINTY_ASSIGNED_CONTEXT ( ( #129 ) ) GLOBAL_UNIT_ASSIGNED_CONTEXT ( ( #194, #66, #127 ) ) REPRESENTATION_CONTEXT ( 'NONE', 'WORKASPACE' ) );
#56 = CARTESIAN_POINT ( 'NONE',  ( 0.000000000000000000, 0.4349999999999999978, 0.000000000000000000 ) ) ;
#57 = APPLICATION_CONTEXT ( 'automotive_design' ) ;
#58 = DIRECTION ( 'NONE',  ( -0.000000000000000000, -1.000000000000000000, -0.000000000000000000 ) ) ;
#59 = FACE_OUTER_BOUND ( 'NONE', #97, .T. ) ;
#60 = ADVANCED_FACE ( 'NONE', ( #119, #44 ), #197, .F. ) ;
#61 = DIRECTION ( 'NONE',  ( 0.000000000000000000, 0.000000000000000000, 1.000000000000000000 ) ) ;
#62 = DIRECTION ( 'NONE',  ( 0.000000000000000000, 1.000000000000000000, 0.000000000000000000 ) ) ;
#63 = LINE ( 'NONE', #12, #195 ) ;
#64 = ORIENTED_EDGE ( 'NONE', *, *, #71, .F. ) ;
#65 = AXIS2_PLACEMENT_3D ( 'NONE', #198, #122, #140 ) ;
#66 =( NAMED_UNIT ( * ) PLANE_ANGLE_UNIT ( ) SI_UNIT ( $, .RADIAN. ) );
#67 = EDGE_LOOP ( 'NONE', ( #154, #187 ) ) ;
#68 = VERTEX_POINT ( 'NONE', #78 ) ;
#69 = ORIENTED_EDGE ( 'NONE', *, *, #184, .T. ) ;
#70 = AXIS2_PLACEMENT_3D ( 'NONE', #23, #40, #8 ) ;
#71 = EDGE_CURVE ( 'NONE', #170, #136, #11, .T. ) ;
#72 = ORIENTED_EDGE ( 'NONE', *, *, #157, .T. ) ;
#73 = DIRECTION ( 'NONE',  ( 0.000000000000000000, 1.000000000000000000, 0.000000000000000000 ) ) ;
#74 = FACE_BOUND ( 'NONE', #190, .T. ) ;
#75 = STYLED_ITEM ( 'NONE', ( #118 ), #28 ) ;
#76 = FACE_OUTER_BOUND ( 'NONE', #175, .T. ) ;
#77 = CARTESIAN_POINT ( 'NONE',  ( 1.530808498934191509E-17, 0.000000000000000000, 0.1250000000000000000 ) ) ;
#78 = CARTESIAN_POINT ( 'NONE',  ( 7.960204194457796709E-18, 0.4349999999999999978, 0.06500000000000000222 ) ) ;
#79 = VECTOR ( 'NONE', #27, 39.37007874015748143 ) ;
#80 = CARTESIAN_POINT ( 'NONE',  ( 0.000000000000000000, 0.4349999999999999978, -0.1250000000000000000 ) ) ;
#81 = CARTESIAN_POINT ( 'NONE',  ( 0.000000000000000000, 0.000000000000000000, 0.000000000000000000 ) ) ;
#82 = AXIS2_PLACEMENT_3D ( 'NONE', #106, #58, #152 ) ;
#83 = EDGE_CURVE ( 'NONE', #68, #35, #141, .T. ) ;
#84 = VERTEX_POINT ( 'NONE', #80 ) ;
#85 = CARTESIAN_POINT ( 'NONE',  ( 0.000000000000000000, 0.4349999999999999978, 0.000000000000000000 ) ) ;
#86 = VECTOR ( 'NONE', #139, 39.37007874015748143 ) ;
#87 = ORIENTED_EDGE ( 'NONE', *, *, #83, .T. ) ;
#88 = DIRECTION ( 'NONE',  ( -0.000000000000000000, -1.000000000000000000, -0.000000000000000000 ) ) ;
#89 = ORIENTED_EDGE ( 'NONE', *, *, #71, .T. ) ;
#90 = CYLINDRICAL_SURFACE ( 'NONE', #65, 0.1250000000000000000 ) ;
#91 =( GEOMETRIC_REPRESENTATION_CONTEXT ( 3 ) GLOBAL_UNCERTAINTY_ASSIGNED_CONTEXT ( ( #201 ) ) GLOBAL_UNIT_ASSIGNED_CONTEXT ( ( #145, #189, #132 ) ) REPRESENTATION_CONTEXT ( 'NONE', 'WORKASPACE' ) );
#92 = CARTESIAN_POINT ( 'NONE',  ( 0.000000000000000000, 0.000000000000000000, -0.06500000000000000222 ) ) ;
#93 =( LENGTH_UNIT ( ) NAMED_UNIT ( * ) SI_UNIT ( $, .METRE. ) );
#94 = CIRCLE ( 'NONE', #33, 0.06500000000000000222 ) ;
#95 = PRODUCT_CONTEXT ( 'NONE', #57, 'mechanical' ) ;
#96 = MECHANICAL_DESIGN_GEOMETRIC_PRESENTATION_REPRESENTATION (  '', ( #75 ), #91 ) ;
#97 = EDGE_LOOP ( 'NONE', ( #37, #111, #186, #156 ) ) ;
#98 = EDGE_CURVE ( 'NONE', #84, #2, #196, .T. ) ;
#99 = DIRECTION ( 'NONE',  ( 0.000000000000000000, 1.000000000000000000, 0.000000000000000000 ) ) ;
#100 = CIRCLE ( 'NONE', #70, 0.1250000000000000000 ) ;
#101 = ORIENTED_EDGE ( 'NONE', *, *, #105, .T. ) ;
#102 = FILL_AREA_STYLE_COLOUR ( '', #46 ) ;
#103 = CARTESIAN_POINT ( 'NONE',  ( 0.000000000000000000, 0.000000000000000000, 0.000000000000000000 ) ) ;
#104 = CARTESIAN_POINT ( 'NONE',  ( 0.000000000000000000, 0.4349999999999999978, 0.000000000000000000 ) ) ;
#105 = EDGE_CURVE ( 'NONE', #136, #35, #142, .T. ) ;
#106 = CARTESIAN_POINT ( 'NONE',  ( 0.000000000000000000, 0.4349999999999999978, 0.000000000000000000 ) ) ;
#107 = CARTESIAN_POINT ( 'NONE',  ( 0.000000000000000000, 0.000000000000000000, 0.000000000000000000 ) ) ;
#108 = DIRECTION ( 'NONE',  ( 0.000000000000000000, 0.000000000000000000, 1.000000000000000000 ) ) ;
#109 = ADVANCED_FACE ( 'NONE', ( #59 ), #90, .T. ) ;
#110 = ORIENTED_EDGE ( 'NONE', *, *, #120, .T. ) ;
#111 = ORIENTED_EDGE ( 'NONE', *, *, #184, .F. ) ;
#112 = APPLICATION_CONTEXT ( 'automotive_design' ) ;
#113 = ORIENTED_EDGE ( 'NONE', *, *, #3, .T. ) ;
#114 = CARTESIAN_POINT ( 'NONE',  ( 0.000000000000000000, 0.000000000000000000, 0.000000000000000000 ) ) ;
#115 = CARTESIAN_POINT ( 'NONE',  ( 0.000000000000000000, 0.4349999999999999978, 0.000000000000000000 ) ) ;
#116 = ORIENTED_EDGE ( 'NONE', *, *, #3, .F. ) ;
#117 = EDGE_LOOP ( 'NONE', ( #69, #48 ) ) ;
#118 = PRESENTATION_STYLE_ASSIGNMENT (( #178 ) ) ;
#119 = FACE_OUTER_BOUND ( 'NONE', #67, .T. ) ;
#120 = EDGE_CURVE ( 'NONE', #144, #188, #63, .T. ) ;
#121 = DIRECTION ( 'NONE',  ( 0.000000000000000000, 1.000000000000000000, 0.000000000000000000 ) ) ;
#122 = DIRECTION ( 'NONE',  ( -0.000000000000000000, -1.000000000000000000, -0.000000000000000000 ) ) ;
#123 = CARTESIAN_POINT ( 'NONE',  ( 1.530808498934191509E-17, 0.4349999999999999978, 0.1250000000000000000 ) ) ;
#124 = CYLINDRICAL_SURFACE ( 'NONE', #13, 0.06500000000000000222 ) ;
#125 = AXIS2_PLACEMENT_3D ( 'NONE', #85, #36, #205 ) ;
#126 = CIRCLE ( 'NONE', #137, 0.06500000000000000222 ) ;
#127 =( NAMED_UNIT ( * ) SI_UNIT ( $, .STERADIAN. ) SOLID_ANGLE_UNIT ( ) );
#128 = ADVANCED_FACE ( 'NONE', ( #163 ), #124, .F. ) ;
#129 = UNCERTAINTY_MEASURE_WITH_UNIT (LENGTH_MEASURE( 1.000000000000000082E-05 ), #194, 'distance_accuracy_value', 'NONE');
#130 = PRODUCT_DEFINITION_FORMATION_WITH_SPECIFIED_SOURCE ( 'ANY', '', #199, .NOT_KNOWN. ) ;
#131 = ORIENTED_EDGE ( 'NONE', *, *, #105, .F. ) ;
#132 =( NAMED_UNIT ( * ) SI_UNIT ( $, .STERADIAN. ) SOLID_ANGLE_UNIT ( ) );
#133 = DIMENSIONAL_EXPONENTS ( 1.000000000000000000, 0.000000000000000000, 0.000000000000000000, 0.000000000000000000, 0.000000000000000000, 0.000000000000000000, 0.000000000000000000 ) ;
#134 = ORIENTED_EDGE ( 'NONE', *, *, #83, .F. ) ;
#135 = AXIS2_PLACEMENT_3D ( 'NONE', #104, #165, #42 ) ;
#136 = VERTEX_POINT ( 'NONE', #92 ) ;
#137 = AXIS2_PLACEMENT_3D ( 'NONE', #53, #73, #192 ) ;
#138 = DIRECTION ( 'NONE',  ( -0.000000000000000000, -1.000000000000000000, -0.000000000000000000 ) ) ;
#139 = DIRECTION ( 'NONE',  ( -0.000000000000000000, -1.000000000000000000, -0.000000000000000000 ) ) ;
#140 = DIRECTION ( 'NONE',  ( 0.000000000000000000, 0.000000000000000000, -1.000000000000000000 ) ) ;
#141 = LINE ( 'NONE', #166, #86 ) ;
#142 = CIRCLE ( 'NONE', #153, 0.06500000000000000222 ) ;
#143 = EDGE_CURVE ( 'NONE', #144, #84, #100, .T. ) ;
#144 = VERTEX_POINT ( 'NONE', #123 ) ;
#145 =( CONVERSION_BASED_UNIT ( 'INCH', #147 ) LENGTH_UNIT ( ) NAMED_UNIT ( #133 ) );
#146 = CARTESIAN_POINT ( 'NONE',  ( 7.960204194457796709E-18, 0.000000000000000000, 0.06500000000000000222 ) ) ;
#147 = LENGTH_MEASURE_WITH_UNIT ( LENGTH_MEASURE( 0.02539999999999999897 ), #173 );
#148 = PRODUCT_RELATED_PRODUCT_CATEGORY ( 'part', '', ( #199 ) ) ;
#149 = DIRECTION ( 'NONE',  ( 0.000000000000000000, 0.000000000000000000, 1.000000000000000000 ) ) ;
#150 = AXIS2_PLACEMENT_3D ( 'NONE', #56, #99, #160 ) ;
#151 = DIRECTION ( 'NONE',  ( -0.000000000000000000, -1.000000000000000000, -0.000000000000000000 ) ) ;
#152 = DIRECTION ( 'NONE',  ( 0.000000000000000000, 0.000000000000000000, -1.000000000000000000 ) ) ;
#153 = AXIS2_PLACEMENT_3D ( 'NONE', #103, #121, #61 ) ;
#154 = ORIENTED_EDGE ( 'NONE', *, *, #161, .F. ) ;
#155 = VECTOR ( 'NONE', #138, 39.37007874015748143 ) ;
#156 = ORIENTED_EDGE ( 'NONE', *, *, #161, .T. ) ;
#157 = EDGE_CURVE ( 'NONE', #188, #2, #200, .T. ) ;
#158 = CLOSED_SHELL ( 'NONE', ( #30, #177, #32, #60, #109, #128 ) ) ;
#159 = ADVANCED_BREP_SHAPE_REPRESENTATION ( 'Eggfinder LCD Case V2 Screen Spacer Thick_STEP', ( #28, #25 ), #55 ) ;
#160 = DIRECTION ( 'NONE',  ( 0.000000000000000000, 0.000000000000000000, 1.000000000000000000 ) ) ;
#161 = EDGE_CURVE ( 'NONE', #2, #188, #202, .T. ) ;
#162 = DIRECTION ( 'NONE',  ( 0.000000000000000000, 1.000000000000000000, 0.000000000000000000 ) ) ;
#163 = FACE_OUTER_BOUND ( 'NONE', #176, .T. ) ;
#164 = CARTESIAN_POINT ( 'NONE',  ( 0.000000000000000000, 0.4349999999999999978, 0.000000000000000000 ) ) ;
#165 = DIRECTION ( 'NONE',  ( 0.000000000000000000, 1.000000000000000000, 0.000000000000000000 ) ) ;
#166 = CARTESIAN_POINT ( 'NONE',  ( 7.960204194457796709E-18, 0.4349999999999999978, 0.06500000000000000222 ) ) ;
#167 = PRODUCT_DEFINITION_CONTEXT ( 'detailed design', #112, 'design' ) ;
#168 = APPLICATION_PROTOCOL_DEFINITION ( 'draft international standard', 'automotive_design', 1998, #57 ) ;
#169 = PRODUCT_DEFINITION ( 'UNKNOWN', '', #130, #167 ) ;
#170 = VERTEX_POINT ( 'NONE', #7 ) ;
#171 = ORIENTED_EDGE ( 'NONE', *, *, #98, .F. ) ;
#172 = DIRECTION ( 'NONE',  ( 0.000000000000000000, 0.000000000000000000, -1.000000000000000000 ) ) ;
#173 =( LENGTH_UNIT ( ) NAMED_UNIT ( * ) SI_UNIT ( $, .METRE. ) );
#174 = AXIS2_PLACEMENT_3D ( 'NONE', #115, #88, #172 ) ;
#175 = EDGE_LOOP ( 'NONE', ( #39, #110, #72, #171 ) ) ;
#176 = EDGE_LOOP ( 'NONE', ( #134, #113, #89, #21 ) ) ;
#177 = ADVANCED_FACE ( 'NONE', ( #76 ), #193, .T. ) ;
#178 = SURFACE_STYLE_USAGE ( .BOTH. , #19 ) ;
#179 = DIMENSIONAL_EXPONENTS ( 1.000000000000000000, 0.000000000000000000, 0.000000000000000000, 0.000000000000000000, 0.000000000000000000, 0.000000000000000000, 0.000000000000000000 ) ;
#180 = DIRECTION ( 'NONE',  ( 0.000000000000000000, 1.000000000000000000, 0.000000000000000000 ) ) ;
#181 = DIRECTION ( 'NONE',  ( -0.000000000000000000, -1.000000000000000000, -0.000000000000000000 ) ) ;
#182 = DIRECTION ( 'NONE',  ( 0.000000000000000000, 0.000000000000000000, -1.000000000000000000 ) ) ;
#183 = CARTESIAN_POINT ( 'NONE',  ( 0.000000000000000000, 0.4349999999999999978, -0.1250000000000000000 ) ) ;
#184 = EDGE_CURVE ( 'NONE', #84, #144, #26, .T. ) ;
#185 = DIRECTION ( 'NONE',  ( 0.000000000000000000, 0.000000000000000000, 1.000000000000000000 ) ) ;
#186 = ORIENTED_EDGE ( 'NONE', *, *, #98, .T. ) ;
#187 = ORIENTED_EDGE ( 'NONE', *, *, #157, .F. ) ;
#188 = VERTEX_POINT ( 'NONE', #77 ) ;
#189 =( NAMED_UNIT ( * ) PLANE_ANGLE_UNIT ( ) SI_UNIT ( $, .RADIAN. ) );
#190 = EDGE_LOOP ( 'NONE', ( #50, #116 ) ) ;
#191 = EDGE_LOOP ( 'NONE', ( #204, #87, #131, #64 ) ) ;
#192 = DIRECTION ( 'NONE',  ( 0.000000000000000000, 0.000000000000000000, 1.000000000000000000 ) ) ;
#193 = CYLINDRICAL_SURFACE ( 'NONE', #82, 0.1250000000000000000 ) ;
#194 =( CONVERSION_BASED_UNIT ( 'INCH', #45 ) LENGTH_UNIT ( ) NAMED_UNIT ( #179 ) );
#195 = VECTOR ( 'NONE', #181, 39.37007874015748143 ) ;
#196 = LINE ( 'NONE', #183, #79 ) ;
#197 = PLANE ( 'NONE',  #38 ) ;
#198 = CARTESIAN_POINT ( 'NONE',  ( 0.000000000000000000, 0.4349999999999999978, 0.000000000000000000 ) ) ;
#199 = PRODUCT ( 'Eggfinder LCD Case V2 Screen Spacer Thick_STEP', 'Eggfinder LCD Case V2 Screen Spacer Thick_STEP', '', ( #95 ) ) ;
#200 = CIRCLE ( 'NONE', #10, 0.1250000000000000000 ) ;
#201 = UNCERTAINTY_MEASURE_WITH_UNIT (LENGTH_MEASURE( 1.000000000000000082E-05 ), #145, 'distance_accuracy_value', 'NONE');
#202 = CIRCLE ( 'NONE', #29, 0.1250000000000000000 ) ;
#203 = ORIENTED_EDGE ( 'NONE', *, *, #49, .T. ) ;
#204 = ORIENTED_EDGE ( 'NONE', *, *, #17, .T. ) ;
#205 = DIRECTION ( 'NONE',  ( 0.000000000000000000, -0.000000000000000000, 1.000000000000000000 ) ) ;
ENDSEC;
END-ISO-10303-21;
